<svg width="46" height="46" viewBox="0 0 46 46" fill="none" xmlns="http://www.w3.org/2000/svg" aria-hidden="true">
<path d="M30.9071 3.59375V5.61487C29.728 5.81528 28.6084 6.2759 27.6296 6.96325L26.1461 5.56888L24.1696 7.682L25.6071 9.02894C24.9511 9.98819 24.5066 11.076 24.3033 12.2202H22.2821V15.0952H24.3033C24.5131 16.2883 24.9846 17.3751 25.6516 18.3296L24.1236 19.8102L26.1936 21.8802L27.6742 20.3507C28.6287 21.0177 29.7154 21.4892 30.9086 21.6991V23.7188H33.7836V21.6976C34.9276 21.4947 36.0154 21.0507 36.9748 20.3953L38.3203 21.8328L40.4334 19.8547L39.0391 18.3741C39.7147 17.411 40.1747 16.2969 40.3874 15.0938H42.4071V12.2188H40.386C40.1795 11.0547 39.7191 9.95041 39.0376 8.98438L40.386 7.636L38.3634 5.61487L37.0165 6.96325C36.0505 6.28174 34.9462 5.82138 33.7821 5.61487V3.59375H30.9071ZM32.3446 8.35619C33.042 8.35161 33.7333 8.48556 34.3785 8.75027C35.0237 9.01498 35.6099 9.40518 36.1031 9.89824C36.5962 10.3913 36.9866 10.9774 37.2515 11.6225C37.5164 12.2676 37.6505 12.9589 37.6461 13.6562C37.6461 16.6103 35.2987 18.9577 32.3446 18.9577C29.3906 18.9577 27.0431 16.6103 27.0431 13.6562C27.0431 10.7022 29.3906 8.35475 32.3446 8.35475V8.35619ZM13.7003 16.8446L11.0524 17.9228L12.0845 20.5246C10.7107 21.347 9.55496 22.4879 8.715 23.851L6.15625 22.816L5.07812 25.4682L7.63687 26.5003C7.43499 27.2779 7.32974 28.0774 7.3235 28.8808C7.3235 29.7002 7.44569 30.4994 7.63687 31.2613L5.07812 32.2963L6.15625 34.9456L8.715 33.9106C9.54749 35.2914 10.704 36.4485 12.0845 37.2816L11.0495 39.8403L13.7017 40.9184L14.7367 38.3597C15.5143 38.5616 16.3138 38.6668 17.1172 38.6731C17.9366 38.6731 18.7387 38.5509 19.4977 38.3597L20.5327 40.9184L23.182 39.8403L22.147 37.2816C23.5115 36.4434 24.6528 35.2873 25.4734 33.9121L28.0753 34.9442L29.1534 32.2949L26.5515 31.2599C26.7384 30.498 26.8649 29.6973 26.8649 28.8794C26.8649 28.06 26.7398 27.2579 26.5486 26.4974L29.1548 25.4653L28.0767 22.8131L25.4748 23.8481C24.6488 22.4886 23.5079 21.3478 22.1484 20.5217L23.1834 17.9199L20.5313 16.8417L19.5006 19.4436C18.7219 19.2449 17.9222 19.1402 17.1186 19.1317C16.2993 19.1317 15.5 19.2553 14.7381 19.4451L13.7031 16.8432L13.7003 16.8446ZM17.1158 22.0081C20.9438 22.0081 23.987 25.0556 23.987 28.8822C23.9899 32.7103 20.9438 35.7995 17.1158 35.7995C16.207 35.8006 15.307 35.6225 14.4673 35.2753C13.6275 34.928 12.8645 34.4186 12.222 33.776C11.5794 33.1335 11.07 32.3705 10.7227 31.5307C10.3755 30.691 10.1974 29.791 10.1985 28.8822C10.1985 25.0542 13.2891 22.0081 17.1158 22.0081Z" fill="#D0D3F5"/>
</svg>
