<svg width="103" height="76" viewBox="0 0 103 76" fill="none" xmlns="http://www.w3.org/2000/svg">
<path d="M95.5994 63.6613C70.1665 63.9052 49.9837 53.4767 34.8789 32.8492C33.4444 30.8984 33.0427 27.7999 31.2497 26.6236C28.8685 25.0601 24.9524 23.4391 22.8438 24.3859C18.067 26.5376 17.4215 30.6831 20.4769 34.0541C27.4053 41.6854 34.3625 49.288 41.5921 56.6181C49.5964 64.7514 60.3405 67.979 70.7403 71.436C77.3101 73.6164 84.2241 75.0509 91.1095 75.8685C93.9211 76.1985 97.5216 74.5919 99.8597 72.7414C101.452 71.4648 102.456 67.979 101.911 65.9564C101.481 64.3498 98.3249 63.4748 96.374 62.2842L95.5994 63.6613Z" fill="white"/>
<path d="M15.7296 0C10.4364 0.229513 6.96506 2.32384 5.90356 6.29728C3.57974 15.0762 1.84408 24.0128 0.108386 32.9352C-0.580151 36.4926 2.15958 38.8594 4.95677 38.1709C7.66789 37.511 10.9098 35.0581 11.9713 32.5765C13.6496 28.6748 13.707 24.0702 14.4386 19.7525C15.1271 15.6356 17.2788 14.531 21.1948 16.0516C28.5106 18.9061 35.9124 21.5455 43.2855 24.2853C47.3307 25.7915 49.2098 22.7218 50.8451 20.2258C52.6669 17.4143 51.5767 14.6314 48.5069 13.3117C45.4802 12.0207 42.0949 11.5187 39.0825 10.2133C33.0722 7.58827 27.2339 4.5759 21.2523 1.86478C19.2297 0.946724 17.0206 0.444696 15.7296 0.0143586V0Z" fill="white"/>
</svg>
