<svg width="27" height="27" viewBox="0 0 27 27" fill="none" xmlns="http://www.w3.org/2000/svg">
  <path
    opacity="0.1"
    d="M22.5849 5.96141C21.6387 4.42194 19.9835 3.505 17.9002 3.505H9.0735C5.74398 3.505 3.50781 5.84455 3.50781 9.32802V17.6422C3.50781 21.1246 5.74398 23.4641 9.0735 23.4641H17.899C21.2286 23.4641 23.4658 21.1246 23.4658 17.6422V9.32802C23.4658 8.67852 23.3647 8.08633 23.2164 7.52448C23.068 6.96263 22.9111 6.59365 22.5849 5.96141Z"
    fill="#185ADB"
  />
  <path
    d="M14.0883 17.3342C13.9456 17.6027 13.6692 17.7735 13.3635 17.7803H13.3444C13.0478 17.7803 12.7725 17.6252 12.6196 17.369C11.6297 15.707 10.3576 14.2136 8.83728 12.9304C8.48219 12.6292 8.43836 12.0977 8.73727 11.7415C9.03729 11.3875 9.5688 11.3403 9.92614 11.6426C11.2173 12.7337 12.3477 13.9653 13.2972 15.316C14.8255 12.7809 17.8628 8.68615 22.5824 5.96118C22.9086 6.59342 23.0656 6.9624 23.2139 7.52425C18.119 10.5403 15.1716 15.3014 14.0883 17.3342Z"
    fill="#185ADB"
  />
</svg>

