<svg width="40" height="40" viewBox="0 0 40 40" fill="none" xmlns="http://www.w3.org/2000/svg">
  <path d="M0 4C0 1.79086 1.79086 0 4 0H36C38.2091 0 40 1.79086 40 4V36C40 38.2091 38.2091 40 36 40H4C1.79086 40 0 38.2091 0 36V4Z" fill="white" />
  <g clip-path="url(#clip0_18884_13257)">
    <mask
      id="mask0_18884_13257"
      style="mask-type:luminance"
      maskUnits="userSpaceOnUse"
      x="10"
      y="10"
      width="20"
      height="20"
    >
      <path d="M30 10H10V30H30V10Z" fill="white" />
    </mask>
    <g mask="url(#mask0_18884_13257)">
      <path d="M28.3489 24.0169L25.7406 17.9169C25.2656 16.8002 24.5572 16.1669 23.7489 16.1252C22.9489 16.0836 22.1739 16.6419 21.5822 17.7086L19.9989 20.5502C19.6656 21.1502 19.1906 21.5086 18.6739 21.5502C18.1489 21.6002 17.6239 21.3252 17.1989 20.7836L17.0156 20.5502C16.4239 19.8086 15.6906 19.4502 14.9406 19.5252C14.1906 19.6002 13.5489 20.1169 13.1239 20.9586L11.6822 23.8336C11.1656 24.8752 11.2156 26.0836 11.8239 27.0669C12.4322 28.0502 13.4906 28.6419 14.6489 28.6419H25.2822C26.3989 28.6419 27.4406 28.0836 28.0572 27.1502C28.6906 26.2169 28.7906 25.0419 28.3489 24.0169Z" fill="#C0E0F7" />
      <path d="M15.8089 16.9834C17.3645 16.9834 18.6255 15.7224 18.6255 14.1668C18.6255 12.6112 17.3645 11.3501 15.8089 11.3501C14.2533 11.3501 12.9922 12.6112 12.9922 14.1668C12.9922 15.7224 14.2533 16.9834 15.8089 16.9834Z" fill="#C0E0F7" />
    </g>
  </g>
  <defs>
    <clipPath id="clip0_18884_13257">
      <rect width="20" height="20" fill="white" transform="translate(10 10)" />
    </clipPath>
  </defs>
</svg>

