<svg width="20" height="20" viewBox="0 0 20 20" fill="none" xmlns="http://www.w3.org/2000/svg">
<path d="M9.9987 11.1668L5.91536 15.2502C5.76259 15.4029 5.56814 15.4793 5.33203 15.4793C5.09592 15.4793 4.90148 15.4029 4.7487 15.2502C4.59592 15.0974 4.51953 14.9029 4.51953 14.6668C4.51953 14.4307 4.59592 14.2363 4.7487 14.0835L8.83203 10.0002L4.7487 5.91683C4.59592 5.76405 4.51953 5.56961 4.51953 5.3335C4.51953 5.09738 4.59592 4.90294 4.7487 4.75016C4.90148 4.59738 5.09592 4.521 5.33203 4.521C5.56814 4.521 5.76259 4.59738 5.91536 4.75016L9.9987 8.8335L14.082 4.75016C14.2348 4.59738 14.4293 4.521 14.6654 4.521C14.9015 4.521 15.0959 4.59738 15.2487 4.75016C15.4015 4.90294 15.4779 5.09738 15.4779 5.3335C15.4779 5.56961 15.4015 5.76405 15.2487 5.91683L11.1654 10.0002L15.2487 14.0835C15.4015 14.2363 15.4779 14.4307 15.4779 14.6668C15.4779 14.9029 15.4015 15.0974 15.2487 15.2502C15.0959 15.4029 14.9015 15.4793 14.6654 15.4793C14.4293 15.4793 14.2348 15.4029 14.082 15.2502L9.9987 11.1668Z" fill="#0077DF"/>
</svg>
