<svg width="356" height="326" viewBox="0 0 356 326" fill="none" xmlns="http://www.w3.org/2000/svg">
<rect x="0.5" y="0.5" width="354.333" height="325" rx="15.5" fill="white"/>
<rect x="0.5" y="0.5" width="354.333" height="325" rx="15.5" stroke="#D4DAE3"/>
<g filter="url(#filter0_dddd_18552_17573)">
<g clip-path="url(#clip0_18552_17573)">
<rect x="49.666" y="49" width="257" height="149.168" rx="17.972" fill="white"/>
<path d="M69.5656 173.169H70.2701V185.39H69.5656V173.169ZM67.6246 181.752C67.6821 182.011 67.8019 182.27 67.9841 182.528C68.1758 182.778 68.4346 182.988 68.7605 183.161C69.0959 183.324 69.5225 183.405 70.0401 183.405C70.7781 183.405 71.3245 183.233 71.6791 182.888C72.0338 182.543 72.2111 182.135 72.2111 181.666C72.2111 181.292 72.1104 180.985 71.9092 180.746C71.7079 180.506 71.4347 180.309 71.0896 180.156C70.7446 179.993 70.3564 179.849 69.925 179.725C69.5416 179.619 69.1582 179.504 68.7748 179.38C68.401 179.245 68.0607 179.083 67.754 178.891C67.4473 178.69 67.2029 178.431 67.0208 178.114C66.8386 177.798 66.7476 177.405 66.7476 176.935C66.7476 176.37 66.8818 175.881 67.1502 175.469C67.4185 175.047 67.7972 174.721 68.286 174.491C68.7748 174.261 69.3451 174.146 69.9969 174.146C70.5624 174.146 71.0561 174.228 71.4778 174.391C71.8996 174.554 72.2494 174.784 72.5274 175.081C72.8149 175.368 73.0258 175.704 73.16 176.087L72.1392 176.475C72.0721 176.255 71.9427 176.044 71.751 175.843C71.5593 175.632 71.3101 175.459 71.0034 175.325C70.6966 175.191 70.3468 175.124 69.9538 175.124C69.5704 175.124 69.2205 175.191 68.9042 175.325C68.5975 175.459 68.3531 175.651 68.171 175.9C67.9889 176.149 67.8978 176.451 67.8978 176.806C67.8978 177.189 68.0032 177.496 68.2141 177.726C68.4346 177.947 68.7221 178.129 69.0768 178.273C69.441 178.407 69.8388 178.536 70.2701 178.661C70.6631 178.785 71.0417 178.92 71.4059 179.063C71.7798 179.207 72.1104 179.384 72.398 179.595C72.6951 179.806 72.93 180.07 73.1025 180.386C73.275 180.702 73.3613 181.091 73.3613 181.551C73.3613 182.059 73.2415 182.533 73.0019 182.974C72.7622 183.405 72.398 183.755 71.9092 184.024C71.4299 184.282 70.8117 184.412 70.0544 184.412C69.4218 184.412 68.8659 184.316 68.3866 184.124C67.9074 183.923 67.5144 183.655 67.2077 183.319C66.9009 182.984 66.6901 182.6 66.5751 182.169L67.6246 181.752ZM76.1249 175.253H74.7159V174.247H77.2752V184.311H76.1249V175.253ZM79.4701 179.279C79.4701 178.541 79.5228 177.86 79.6283 177.237C79.7337 176.605 79.9158 176.058 80.1746 175.598C80.4334 175.138 80.7928 174.784 81.2529 174.534C81.7226 174.276 82.3121 174.146 83.0214 174.146C83.7307 174.146 84.3154 174.276 84.7754 174.534C85.2355 174.784 85.595 175.138 85.8538 175.598C86.1126 176.058 86.2947 176.605 86.4001 177.237C86.5055 177.86 86.5583 178.541 86.5583 179.279C86.5583 180.027 86.5055 180.717 86.4001 181.349C86.2947 181.972 86.1126 182.514 85.8538 182.974C85.595 183.434 85.2355 183.789 84.7754 184.038C84.3154 184.287 83.7307 184.412 83.0214 184.412C82.3121 184.412 81.7226 184.287 81.2529 184.038C80.7928 183.789 80.4334 183.434 80.1746 182.974C79.9158 182.514 79.7337 181.972 79.6283 181.349C79.5228 180.717 79.4701 180.027 79.4701 179.279ZM85.3937 179.279C85.3937 178.713 85.3649 178.186 85.3074 177.697C85.2595 177.199 85.1588 176.763 85.0055 176.389C84.8521 176.006 84.6173 175.709 84.301 175.498C83.9847 175.277 83.5581 175.167 83.0214 175.167C82.4942 175.167 82.0677 175.277 81.7418 175.498C81.4255 175.709 81.1858 176.006 81.0229 176.389C80.8695 176.763 80.7641 177.199 80.7066 177.697C80.6586 178.186 80.6347 178.713 80.6347 179.279C80.6347 179.864 80.6586 180.405 80.7066 180.904C80.7641 181.402 80.8695 181.838 81.0229 182.212C81.1858 182.586 81.4255 182.878 81.7418 183.089C82.0677 183.29 82.4942 183.391 83.0214 183.391C83.5581 183.391 83.9847 183.29 84.301 183.089C84.6173 182.878 84.8521 182.586 85.0055 182.212C85.1588 181.838 85.2595 181.402 85.3074 180.904C85.3649 180.405 85.3937 179.864 85.3937 179.279ZM89.2312 184.383C89.0107 184.383 88.8238 184.306 88.6704 184.153C88.5267 184 88.4548 183.813 88.4548 183.592C88.4548 183.372 88.5267 183.185 88.6704 183.032C88.8238 182.878 89.0107 182.802 89.2312 182.802C89.442 182.802 89.6241 182.878 89.7775 183.032C89.9309 183.185 90.0075 183.372 90.0075 183.592C90.0075 183.813 89.9309 184 89.7775 184.153C89.6241 184.306 89.442 184.383 89.2312 184.383ZM91.8961 179.279C91.8961 178.541 91.9488 177.86 92.0542 177.237C92.1597 176.605 92.3418 176.058 92.6006 175.598C92.8594 175.138 93.2188 174.784 93.6789 174.534C94.1486 174.276 94.738 174.146 95.4473 174.146C96.1566 174.146 96.7413 174.276 97.2014 174.534C97.6615 174.784 98.0209 175.138 98.2797 175.598C98.5385 176.058 98.7206 176.605 98.8261 177.237C98.9315 177.86 98.9842 178.541 98.9842 179.279C98.9842 180.027 98.9315 180.717 98.8261 181.349C98.7206 181.972 98.5385 182.514 98.2797 182.974C98.0209 183.434 97.6615 183.789 97.2014 184.038C96.7413 184.287 96.1566 184.412 95.4473 184.412C94.738 184.412 94.1486 184.287 93.6789 184.038C93.2188 183.789 92.8594 183.434 92.6006 182.974C92.3418 182.514 92.1597 181.972 92.0542 181.349C91.9488 180.717 91.8961 180.027 91.8961 179.279ZM97.8197 179.279C97.8197 178.713 97.7909 178.186 97.7334 177.697C97.6855 177.199 97.5848 176.763 97.4315 176.389C97.2781 176.006 97.0433 175.709 96.727 175.498C96.4106 175.277 95.9841 175.167 95.4473 175.167C94.9202 175.167 94.4936 175.277 94.1677 175.498C93.8514 175.709 93.6118 176.006 93.4489 176.389C93.2955 176.763 93.1901 177.199 93.1325 177.697C93.0846 178.186 93.0607 178.713 93.0607 179.279C93.0607 179.864 93.0846 180.405 93.1325 180.904C93.1901 181.402 93.2955 181.838 93.4489 182.212C93.6118 182.586 93.8514 182.878 94.1677 183.089C94.4936 183.29 94.9202 183.391 95.4473 183.391C95.9841 183.391 96.4106 183.29 96.727 183.089C97.0433 182.878 97.2781 182.586 97.4315 182.212C97.5848 181.838 97.6855 181.402 97.7334 180.904C97.7909 180.405 97.8197 179.864 97.8197 179.279ZM100.938 179.279C100.938 178.541 100.991 177.86 101.096 177.237C101.202 176.605 101.384 176.058 101.643 175.598C101.902 175.138 102.261 174.784 102.721 174.534C103.191 174.276 103.78 174.146 104.49 174.146C105.199 174.146 105.784 174.276 106.244 174.534C106.704 174.784 107.063 175.138 107.322 175.598C107.581 176.058 107.763 176.605 107.868 177.237C107.974 177.86 108.026 178.541 108.026 179.279C108.026 180.027 107.974 180.717 107.868 181.349C107.763 181.972 107.581 182.514 107.322 182.974C107.063 183.434 106.704 183.789 106.244 184.038C105.784 184.287 105.199 184.412 104.49 184.412C103.78 184.412 103.191 184.287 102.721 184.038C102.261 183.789 101.902 183.434 101.643 182.974C101.384 182.514 101.202 181.972 101.096 181.349C100.991 180.717 100.938 180.027 100.938 179.279ZM106.862 179.279C106.862 178.713 106.833 178.186 106.776 177.697C106.728 177.199 106.627 176.763 106.474 176.389C106.32 176.006 106.085 175.709 105.769 175.498C105.453 175.277 105.026 175.167 104.49 175.167C103.962 175.167 103.536 175.277 103.21 175.498C102.894 175.709 102.654 176.006 102.491 176.389C102.338 176.763 102.232 177.199 102.175 177.697C102.127 178.186 102.103 178.713 102.103 179.279C102.103 179.864 102.127 180.405 102.175 180.904C102.232 181.402 102.338 181.838 102.491 182.212C102.654 182.586 102.894 182.878 103.21 183.089C103.536 183.29 103.962 183.391 104.49 183.391C105.026 183.391 105.453 183.29 105.769 183.089C106.085 182.878 106.32 182.586 106.474 182.212C106.627 181.838 106.728 181.402 106.776 180.904C106.833 180.405 106.862 179.864 106.862 179.279ZM109.98 179.279C109.98 178.541 110.033 177.86 110.139 177.237C110.244 176.605 110.426 176.058 110.685 175.598C110.944 175.138 111.303 174.784 111.763 174.534C112.233 174.276 112.822 174.146 113.532 174.146C114.241 174.146 114.826 174.276 115.286 174.534C115.746 174.784 116.105 175.138 116.364 175.598C116.623 176.058 116.805 176.605 116.91 177.237C117.016 177.86 117.069 178.541 117.069 179.279C117.069 180.027 117.016 180.717 116.91 181.349C116.805 181.972 116.623 182.514 116.364 182.974C116.105 183.434 115.746 183.789 115.286 184.038C114.826 184.287 114.241 184.412 113.532 184.412C112.822 184.412 112.233 184.287 111.763 184.038C111.303 183.789 110.944 183.434 110.685 182.974C110.426 182.514 110.244 181.972 110.139 181.349C110.033 180.717 109.98 180.027 109.98 179.279ZM115.904 179.279C115.904 178.713 115.875 178.186 115.818 177.697C115.77 177.199 115.669 176.763 115.516 176.389C115.362 176.006 115.128 175.709 114.811 175.498C114.495 175.277 114.068 175.167 113.532 175.167C113.005 175.167 112.578 175.277 112.252 175.498C111.936 175.709 111.696 176.006 111.533 176.389C111.38 176.763 111.274 177.199 111.217 177.697C111.169 178.186 111.145 178.713 111.145 179.279C111.145 179.864 111.169 180.405 111.217 180.904C111.274 181.402 111.38 181.838 111.533 182.212C111.696 182.586 111.936 182.878 112.252 183.089C112.578 183.29 113.005 183.391 113.532 183.391C114.068 183.391 114.495 183.29 114.811 183.089C115.128 182.878 115.362 182.586 115.516 182.212C115.669 181.838 115.77 181.402 115.818 180.904C115.875 180.405 115.904 179.864 115.904 179.279Z" fill="#A8AFB7"/>
<path d="M65.9699 136.326H66.6744V148.547H65.9699V136.326ZM64.0289 144.909C64.0864 145.168 64.2062 145.427 64.3884 145.686C64.5801 145.935 64.8389 146.146 65.1648 146.318C65.5002 146.481 65.9268 146.563 66.4444 146.563C67.1824 146.563 67.7288 146.39 68.0834 146.045C68.4381 145.7 68.6154 145.293 68.6154 144.823C68.6154 144.449 68.5147 144.142 68.3135 143.903C68.1122 143.663 67.839 143.467 67.4939 143.313C67.1489 143.15 66.7607 143.007 66.3293 142.882C65.9459 142.777 65.5625 142.662 65.1791 142.537C64.8053 142.403 64.465 142.24 64.1583 142.048C63.8516 141.847 63.6072 141.588 63.4251 141.272C63.2429 140.955 63.1519 140.562 63.1519 140.093C63.1519 139.527 63.2861 139.038 63.5545 138.626C63.8228 138.205 64.2015 137.879 64.6903 137.649C65.1791 137.419 65.7494 137.304 66.4012 137.304C66.9667 137.304 67.4604 137.385 67.8821 137.548C68.3039 137.711 68.6537 137.941 68.9317 138.238C69.2192 138.526 69.4301 138.861 69.5643 139.245L68.5435 139.633C68.4764 139.412 68.347 139.201 68.1553 139C67.9636 138.789 67.7144 138.617 67.4077 138.482C67.1009 138.348 66.7511 138.281 66.3581 138.281C65.9747 138.281 65.6248 138.348 65.3085 138.482C65.0018 138.617 64.7574 138.808 64.5753 139.058C64.3932 139.307 64.3021 139.609 64.3021 139.963C64.3021 140.347 64.4075 140.654 64.6184 140.884C64.8389 141.104 65.1264 141.286 65.4811 141.43C65.8453 141.564 66.2431 141.693 66.6744 141.818C67.0674 141.943 67.446 142.077 67.8102 142.221C68.1841 142.364 68.5147 142.542 68.8023 142.753C69.0994 142.964 69.3343 143.227 69.5068 143.543C69.6793 143.86 69.7656 144.248 69.7656 144.708C69.7656 145.216 69.6458 145.69 69.4062 146.131C69.1665 146.563 68.8023 146.913 68.3135 147.181C67.8342 147.44 67.216 147.569 66.4587 147.569C65.8261 147.569 65.2702 147.473 64.7909 147.282C64.3117 147.08 63.9187 146.812 63.612 146.476C63.3052 146.141 63.0944 145.758 62.9794 145.326L64.0289 144.909ZM71.3215 146.606L74.384 143.773C74.9782 143.227 75.4479 142.757 75.793 142.364C76.138 141.971 76.3824 141.607 76.5262 141.272C76.6796 140.936 76.7563 140.586 76.7563 140.222C76.7563 139.657 76.5885 139.201 76.253 138.856C75.9176 138.502 75.4048 138.324 74.7146 138.324C74.245 138.324 73.8472 138.425 73.5213 138.626C73.1954 138.828 72.9462 139.106 72.7737 139.46C72.6011 139.815 72.5101 140.232 72.5005 140.711H71.3934C71.4126 139.963 71.5659 139.34 71.8535 138.842C72.1506 138.334 72.5484 137.951 73.0468 137.692C73.5453 137.433 74.1012 137.304 74.7146 137.304C75.3856 137.304 75.9607 137.428 76.44 137.677C76.9192 137.917 77.2834 138.257 77.5327 138.698C77.7914 139.129 77.9208 139.637 77.9208 140.222C77.9208 140.654 77.8394 141.07 77.6764 141.473C77.5135 141.876 77.2355 142.312 76.8425 142.781C76.4591 143.241 75.9319 143.783 75.261 144.406L73.0468 146.462H78.2084V147.469H71.3215V146.606ZM80.1147 142.436C80.1147 141.698 80.1674 141.018 80.2728 140.395C80.3783 139.762 80.5604 139.216 80.8192 138.756C81.078 138.296 81.4374 137.941 81.8975 137.692C82.3672 137.433 82.9566 137.304 83.6659 137.304C84.3752 137.304 84.9599 137.433 85.42 137.692C85.8801 137.941 86.2395 138.296 86.4983 138.756C86.7571 139.216 86.9393 139.762 87.0447 140.395C87.1501 141.018 87.2028 141.698 87.2028 142.436C87.2028 143.184 87.1501 143.874 87.0447 144.507C86.9393 145.13 86.7571 145.671 86.4983 146.131C86.2395 146.591 85.8801 146.946 85.42 147.195C84.9599 147.445 84.3752 147.569 83.6659 147.569C82.9566 147.569 82.3672 147.445 81.8975 147.195C81.4374 146.946 81.078 146.591 80.8192 146.131C80.5604 145.671 80.3783 145.13 80.2728 144.507C80.1674 143.874 80.1147 143.184 80.1147 142.436ZM86.0383 142.436C86.0383 141.871 86.0095 141.344 85.952 140.855C85.9041 140.356 85.8034 139.92 85.6501 139.546C85.4967 139.163 85.2619 138.866 84.9456 138.655C84.6292 138.435 84.2027 138.324 83.6659 138.324C83.1388 138.324 82.7122 138.435 82.3863 138.655C82.07 138.866 81.8304 139.163 81.6675 139.546C81.5141 139.92 81.4087 140.356 81.3511 140.855C81.3032 141.344 81.2793 141.871 81.2793 142.436C81.2793 143.021 81.3032 143.563 81.3511 144.061C81.4087 144.559 81.5141 144.996 81.6675 145.369C81.8304 145.743 82.07 146.036 82.3863 146.246C82.7122 146.448 83.1388 146.548 83.6659 146.548C84.2027 146.548 84.6292 146.448 84.9456 146.246C85.2619 146.036 85.4967 145.743 85.6501 145.369C85.8034 144.996 85.9041 144.559 85.952 144.061C86.0095 143.563 86.0383 143.021 86.0383 142.436ZM89.8757 147.54C89.6553 147.54 89.4684 147.464 89.315 147.31C89.1712 147.157 89.0993 146.97 89.0993 146.75C89.0993 146.529 89.1712 146.342 89.315 146.189C89.4684 146.036 89.6553 145.959 89.8757 145.959C90.0866 145.959 90.2687 146.036 90.4221 146.189C90.5754 146.342 90.6521 146.529 90.6521 146.75C90.6521 146.97 90.5754 147.157 90.4221 147.31C90.2687 147.464 90.0866 147.54 89.8757 147.54ZM92.5406 142.436C92.5406 141.698 92.5934 141.018 92.6988 140.395C92.8042 139.762 92.9864 139.216 93.2451 138.756C93.5039 138.296 93.8634 137.941 94.3235 137.692C94.7931 137.433 95.3826 137.304 96.0919 137.304C96.8012 137.304 97.3859 137.433 97.846 137.692C98.3061 137.941 98.6655 138.296 98.9243 138.756C99.1831 139.216 99.3652 139.762 99.4707 140.395C99.5761 141.018 99.6288 141.698 99.6288 142.436C99.6288 143.184 99.5761 143.874 99.4707 144.507C99.3652 145.13 99.1831 145.671 98.9243 146.131C98.6655 146.591 98.3061 146.946 97.846 147.195C97.3859 147.445 96.8012 147.569 96.0919 147.569C95.3826 147.569 94.7931 147.445 94.3235 147.195C93.8634 146.946 93.5039 146.591 93.2451 146.131C92.9864 145.671 92.8042 145.13 92.6988 144.507C92.5934 143.874 92.5406 143.184 92.5406 142.436ZM98.4642 142.436C98.4642 141.871 98.4355 141.344 98.378 140.855C98.33 140.356 98.2294 139.92 98.076 139.546C97.9227 139.163 97.6878 138.866 97.3715 138.655C97.0552 138.435 96.6287 138.324 96.0919 138.324C95.5647 138.324 95.1382 138.435 94.8123 138.655C94.496 138.866 94.2564 139.163 94.0934 139.546C93.9401 139.92 93.8346 140.356 93.7771 140.855C93.7292 141.344 93.7052 141.871 93.7052 142.436C93.7052 143.021 93.7292 143.563 93.7771 144.061C93.8346 144.559 93.9401 144.996 94.0934 145.369C94.2564 145.743 94.496 146.036 94.8123 146.246C95.1382 146.448 95.5647 146.548 96.0919 146.548C96.6287 146.548 97.0552 146.448 97.3715 146.246C97.6878 146.036 97.9227 145.743 98.076 145.369C98.2294 144.996 98.33 144.559 98.378 144.061C98.4355 143.563 98.4642 143.021 98.4642 142.436ZM101.583 142.436C101.583 141.698 101.636 141.018 101.741 140.395C101.846 139.762 102.029 139.216 102.287 138.756C102.546 138.296 102.906 137.941 103.366 137.692C103.835 137.433 104.425 137.304 105.134 137.304C105.843 137.304 106.428 137.433 106.888 137.692C107.348 137.941 107.708 138.296 107.966 138.756C108.225 139.216 108.407 139.762 108.513 140.395C108.618 141.018 108.671 141.698 108.671 142.436C108.671 143.184 108.618 143.874 108.513 144.507C108.407 145.13 108.225 145.671 107.966 146.131C107.708 146.591 107.348 146.946 106.888 147.195C106.428 147.445 105.843 147.569 105.134 147.569C104.425 147.569 103.835 147.445 103.366 147.195C102.906 146.946 102.546 146.591 102.287 146.131C102.029 145.671 101.846 145.13 101.741 144.507C101.636 143.874 101.583 143.184 101.583 142.436ZM107.506 142.436C107.506 141.871 107.478 141.344 107.42 140.855C107.372 140.356 107.272 139.92 107.118 139.546C106.965 139.163 106.73 138.866 106.414 138.655C106.097 138.435 105.671 138.324 105.134 138.324C104.607 138.324 104.18 138.435 103.854 138.655C103.538 138.866 103.299 139.163 103.136 139.546C102.982 139.92 102.877 140.356 102.819 140.855C102.771 141.344 102.747 141.871 102.747 142.436C102.747 143.021 102.771 143.563 102.819 144.061C102.877 144.559 102.982 144.996 103.136 145.369C103.299 145.743 103.538 146.036 103.854 146.246C104.18 146.448 104.607 146.548 105.134 146.548C105.671 146.548 106.097 146.448 106.414 146.246C106.73 146.036 106.965 145.743 107.118 145.369C107.272 144.996 107.372 144.559 107.42 144.061C107.478 143.563 107.506 143.021 107.506 142.436ZM110.625 142.436C110.625 141.698 110.678 141.018 110.783 140.395C110.889 139.762 111.071 139.216 111.329 138.756C111.588 138.296 111.948 137.941 112.408 137.692C112.877 137.433 113.467 137.304 114.176 137.304C114.886 137.304 115.47 137.433 115.93 137.692C116.39 137.941 116.75 138.296 117.009 138.756C117.267 139.216 117.45 139.762 117.555 140.395C117.66 141.018 117.713 141.698 117.713 142.436C117.713 143.184 117.66 143.874 117.555 144.507C117.45 145.13 117.267 145.671 117.009 146.131C116.75 146.591 116.39 146.946 115.93 147.195C115.47 147.445 114.886 147.569 114.176 147.569C113.467 147.569 112.877 147.445 112.408 147.195C111.948 146.946 111.588 146.591 111.329 146.131C111.071 145.671 110.889 145.13 110.783 144.507C110.678 143.874 110.625 143.184 110.625 142.436ZM116.549 142.436C116.549 141.871 116.52 141.344 116.462 140.855C116.414 140.356 116.314 139.92 116.16 139.546C116.007 139.163 115.772 138.866 115.456 138.655C115.14 138.435 114.713 138.324 114.176 138.324C113.649 138.324 113.223 138.435 112.897 138.655C112.58 138.866 112.341 139.163 112.178 139.546C112.024 139.92 111.919 140.356 111.861 140.855C111.814 141.344 111.79 141.871 111.79 142.436C111.79 143.021 111.814 143.563 111.861 144.061C111.919 144.559 112.024 144.996 112.178 145.369C112.341 145.743 112.58 146.036 112.897 146.246C113.223 146.448 113.649 146.548 114.176 146.548C114.713 146.548 115.14 146.448 115.456 146.246C115.772 146.036 116.007 145.743 116.16 145.369C116.314 144.996 116.414 144.559 116.462 144.061C116.52 143.563 116.549 143.021 116.549 142.436Z" fill="#A8AFB7"/>
<path d="M65.9699 99.4832H66.6744V111.704H65.9699V99.4832ZM64.0289 108.067C64.0864 108.325 64.2062 108.584 64.3884 108.843C64.5801 109.092 64.8389 109.303 65.1648 109.476C65.5002 109.639 65.9268 109.72 66.4444 109.72C67.1824 109.72 67.7288 109.548 68.0834 109.202C68.4381 108.857 68.6154 108.45 68.6154 107.98C68.6154 107.607 68.5147 107.3 68.3135 107.06C68.1122 106.821 67.839 106.624 67.4939 106.471C67.1489 106.308 66.7607 106.164 66.3293 106.039C65.9459 105.934 65.5625 105.819 65.1791 105.694C64.8053 105.56 64.465 105.397 64.1583 105.205C63.8516 105.004 63.6072 104.745 63.4251 104.429C63.2429 104.113 63.1519 103.72 63.1519 103.25C63.1519 102.685 63.2861 102.196 63.5545 101.784C63.8228 101.362 64.2015 101.036 64.6903 100.806C65.1791 100.576 65.7494 100.461 66.4012 100.461C66.9667 100.461 67.4604 100.542 67.8821 100.705C68.3039 100.868 68.6537 101.098 68.9317 101.395C69.2192 101.683 69.4301 102.018 69.5643 102.402L68.5435 102.79C68.4764 102.57 68.347 102.359 68.1553 102.157C67.9636 101.947 67.7144 101.774 67.4077 101.64C67.1009 101.506 66.7511 101.439 66.3581 101.439C65.9747 101.439 65.6248 101.506 65.3085 101.64C65.0018 101.774 64.7574 101.966 64.5753 102.215C64.3932 102.464 64.3021 102.766 64.3021 103.121C64.3021 103.504 64.4075 103.811 64.6184 104.041C64.8389 104.261 65.1264 104.443 65.4811 104.587C65.8453 104.721 66.2431 104.851 66.6744 104.975C67.0674 105.1 67.446 105.234 67.8102 105.378C68.1841 105.522 68.5147 105.699 68.8023 105.91C69.0994 106.121 69.3343 106.384 69.5068 106.701C69.6793 107.017 69.7656 107.405 69.7656 107.865C69.7656 108.373 69.6458 108.848 69.4062 109.289C69.1665 109.72 68.8023 110.07 68.3135 110.338C67.8342 110.597 67.216 110.726 66.4587 110.726C65.8261 110.726 65.2702 110.631 64.7909 110.439C64.3117 110.238 63.9187 109.969 63.612 109.634C63.3052 109.298 63.0944 108.915 62.9794 108.484L64.0289 108.067ZM71.4797 103.279C71.518 102.685 71.6858 102.181 71.9829 101.769C72.28 101.347 72.673 101.026 73.1619 100.806C73.6603 100.576 74.2306 100.461 74.8728 100.461C75.5342 100.461 76.0949 100.585 76.555 100.835C77.0151 101.084 77.3601 101.415 77.5902 101.827C77.8298 102.239 77.9496 102.694 77.9496 103.193C77.9496 103.557 77.8729 103.897 77.7196 104.213C77.5662 104.52 77.3457 104.784 77.0582 105.004C76.7706 105.225 76.4208 105.373 76.0086 105.45V105.522C76.4208 105.608 76.785 105.757 77.1013 105.968C77.4272 106.169 77.6812 106.437 77.8633 106.773C78.0455 107.099 78.1365 107.501 78.1365 107.98C78.1365 108.508 78.0167 108.982 77.7771 109.404C77.5374 109.816 77.1732 110.142 76.6844 110.381C76.2051 110.611 75.6061 110.726 74.8872 110.726C74.1875 110.726 73.5788 110.621 73.0612 110.41C72.5532 110.199 72.1506 109.873 71.8535 109.433C71.5564 108.982 71.379 108.402 71.3215 107.693H72.4286C72.4957 108.354 72.7209 108.857 73.1043 109.202C73.4877 109.538 74.082 109.706 74.8872 109.706C75.3664 109.706 75.7594 109.634 76.0661 109.49C76.3729 109.337 76.5981 109.121 76.7419 108.843C76.8952 108.565 76.9719 108.244 76.9719 107.88C76.9719 107.18 76.7179 106.696 76.2099 106.428C75.7115 106.15 74.983 106.011 74.0245 106.011H73.6938V105.004H74.0389C74.6619 105.004 75.1747 104.942 75.5773 104.817C75.9799 104.693 76.2818 104.506 76.4831 104.257C76.6844 104.007 76.785 103.691 76.785 103.308C76.785 102.78 76.6221 102.344 76.2962 101.999C75.9799 101.654 75.491 101.482 74.8297 101.482C74.4079 101.482 74.0389 101.554 73.7226 101.697C73.4063 101.841 73.1475 102.047 72.9462 102.316C72.7545 102.574 72.6347 102.895 72.5867 103.279H71.4797ZM80.0866 105.594C80.0866 104.856 80.1393 104.175 80.2447 103.552C80.3502 102.919 80.5323 102.373 80.7911 101.913C81.0499 101.453 81.4093 101.098 81.8694 100.849C82.3391 100.59 82.9286 100.461 83.6379 100.461C84.3472 100.461 84.9318 100.59 85.3919 100.849C85.852 101.098 86.2115 101.453 86.4703 101.913C86.7291 102.373 86.9112 102.919 87.0166 103.552C87.122 104.175 87.1748 104.856 87.1748 105.594C87.1748 106.341 87.122 107.031 87.0166 107.664C86.9112 108.287 86.7291 108.829 86.4703 109.289C86.2115 109.749 85.852 110.103 85.3919 110.353C84.9318 110.602 84.3472 110.726 83.6379 110.726C82.9286 110.726 82.3391 110.602 81.8694 110.353C81.4093 110.103 81.0499 109.749 80.7911 109.289C80.5323 108.829 80.3502 108.287 80.2447 107.664C80.1393 107.031 80.0866 106.341 80.0866 105.594ZM86.0102 105.594C86.0102 105.028 85.9814 104.501 85.9239 104.012C85.876 103.514 85.7753 103.078 85.622 102.704C85.4686 102.32 85.2338 102.023 84.9175 101.812C84.6012 101.592 84.1746 101.482 83.6379 101.482C83.1107 101.482 82.6841 101.592 82.3583 101.812C82.0419 102.023 81.8023 102.32 81.6394 102.704C81.486 103.078 81.3806 103.514 81.3231 104.012C81.2751 104.501 81.2512 105.028 81.2512 105.594C81.2512 106.178 81.2751 106.72 81.3231 107.218C81.3806 107.717 81.486 108.153 81.6394 108.527C81.8023 108.901 82.0419 109.193 82.3583 109.404C82.6841 109.605 83.1107 109.706 83.6379 109.706C84.1746 109.706 84.6012 109.605 84.9175 109.404C85.2338 109.193 85.4686 108.901 85.622 108.527C85.7753 108.153 85.876 107.717 85.9239 107.218C85.9814 106.72 86.0102 106.178 86.0102 105.594ZM89.8476 110.698C89.6272 110.698 89.4403 110.621 89.2869 110.468C89.1431 110.314 89.0713 110.127 89.0713 109.907C89.0713 109.687 89.1431 109.5 89.2869 109.346C89.4403 109.193 89.6272 109.116 89.8476 109.116C90.0585 109.116 90.2406 109.193 90.394 109.346C90.5474 109.5 90.624 109.687 90.624 109.907C90.624 110.127 90.5474 110.314 90.394 110.468C90.2406 110.621 90.0585 110.698 89.8476 110.698ZM92.5126 105.594C92.5126 104.856 92.5653 104.175 92.6707 103.552C92.7762 102.919 92.9583 102.373 93.2171 101.913C93.4759 101.453 93.8353 101.098 94.2954 100.849C94.7651 100.59 95.3545 100.461 96.0638 100.461C96.7731 100.461 97.3578 100.59 97.8179 100.849C98.278 101.098 98.6374 101.453 98.8962 101.913C99.155 102.373 99.3371 102.919 99.4426 103.552C99.548 104.175 99.6007 104.856 99.6007 105.594C99.6007 106.341 99.548 107.031 99.4426 107.664C99.3371 108.287 99.155 108.829 98.8962 109.289C98.6374 109.749 98.278 110.103 97.8179 110.353C97.3578 110.602 96.7731 110.726 96.0638 110.726C95.3545 110.726 94.7651 110.602 94.2954 110.353C93.8353 110.103 93.4759 109.749 93.2171 109.289C92.9583 108.829 92.7762 108.287 92.6707 107.664C92.5653 107.031 92.5126 106.341 92.5126 105.594ZM98.4361 105.594C98.4361 105.028 98.4074 104.501 98.3499 104.012C98.302 103.514 98.2013 103.078 98.0479 102.704C97.8946 102.32 97.6598 102.023 97.3434 101.812C97.0271 101.592 96.6006 101.482 96.0638 101.482C95.5367 101.482 95.1101 101.592 94.7842 101.812C94.4679 102.023 94.2283 102.32 94.0653 102.704C93.912 103.078 93.8065 103.514 93.749 104.012C93.7011 104.501 93.6771 105.028 93.6771 105.594C93.6771 106.178 93.7011 106.72 93.749 107.218C93.8065 107.717 93.912 108.153 94.0653 108.527C94.2283 108.901 94.4679 109.193 94.7842 109.404C95.1101 109.605 95.5367 109.706 96.0638 109.706C96.6006 109.706 97.0271 109.605 97.3434 109.404C97.6598 109.193 97.8946 108.901 98.0479 108.527C98.2013 108.153 98.302 107.717 98.3499 107.218C98.4074 106.72 98.4361 106.178 98.4361 105.594ZM101.555 105.594C101.555 104.856 101.607 104.175 101.713 103.552C101.818 102.919 102 102.373 102.259 101.913C102.518 101.453 102.877 101.098 103.338 100.849C103.807 100.59 104.397 100.461 105.106 100.461C105.815 100.461 106.4 100.59 106.86 100.849C107.32 101.098 107.68 101.453 107.938 101.913C108.197 102.373 108.379 102.919 108.485 103.552C108.59 104.175 108.643 104.856 108.643 105.594C108.643 106.341 108.59 107.031 108.485 107.664C108.379 108.287 108.197 108.829 107.938 109.289C107.68 109.749 107.32 110.103 106.86 110.353C106.4 110.602 105.815 110.726 105.106 110.726C104.397 110.726 103.807 110.602 103.338 110.353C102.877 110.103 102.518 109.749 102.259 109.289C102 108.829 101.818 108.287 101.713 107.664C101.607 107.031 101.555 106.341 101.555 105.594ZM107.478 105.594C107.478 105.028 107.45 104.501 107.392 104.012C107.344 103.514 107.243 103.078 107.09 102.704C106.937 102.32 106.702 102.023 106.386 101.812C106.069 101.592 105.643 101.482 105.106 101.482C104.579 101.482 104.152 101.592 103.826 101.812C103.51 102.023 103.27 102.32 103.108 102.704C102.954 103.078 102.849 103.514 102.791 104.012C102.743 104.501 102.719 105.028 102.719 105.594C102.719 106.178 102.743 106.72 102.791 107.218C102.849 107.717 102.954 108.153 103.108 108.527C103.27 108.901 103.51 109.193 103.826 109.404C104.152 109.605 104.579 109.706 105.106 109.706C105.643 109.706 106.069 109.605 106.386 109.404C106.702 109.193 106.937 108.901 107.09 108.527C107.243 108.153 107.344 107.717 107.392 107.218C107.45 106.72 107.478 106.178 107.478 105.594ZM110.597 105.594C110.597 104.856 110.65 104.175 110.755 103.552C110.861 102.919 111.043 102.373 111.301 101.913C111.56 101.453 111.92 101.098 112.38 100.849C112.849 100.59 113.439 100.461 114.148 100.461C114.857 100.461 115.442 100.59 115.902 100.849C116.362 101.098 116.722 101.453 116.981 101.913C117.239 102.373 117.421 102.919 117.527 103.552C117.632 104.175 117.685 104.856 117.685 105.594C117.685 106.341 117.632 107.031 117.527 107.664C117.421 108.287 117.239 108.829 116.981 109.289C116.722 109.749 116.362 110.103 115.902 110.353C115.442 110.602 114.857 110.726 114.148 110.726C113.439 110.726 112.849 110.602 112.38 110.353C111.92 110.103 111.56 109.749 111.301 109.289C111.043 108.829 110.861 108.287 110.755 107.664C110.65 107.031 110.597 106.341 110.597 105.594ZM116.52 105.594C116.52 105.028 116.492 104.501 116.434 104.012C116.386 103.514 116.286 103.078 116.132 102.704C115.979 102.32 115.744 102.023 115.428 101.812C115.111 101.592 114.685 101.482 114.148 101.482C113.621 101.482 113.194 101.592 112.869 101.812C112.552 102.023 112.313 102.32 112.15 102.704C111.996 103.078 111.891 103.514 111.833 104.012C111.785 104.501 111.762 105.028 111.762 105.594C111.762 106.178 111.785 106.72 111.833 107.218C111.891 107.717 111.996 108.153 112.15 108.527C112.313 108.901 112.552 109.193 112.869 109.404C113.194 109.605 113.621 109.706 114.148 109.706C114.685 109.706 115.111 109.605 115.428 109.404C115.744 109.193 115.979 108.901 116.132 108.527C116.286 108.153 116.386 107.717 116.434 107.218C116.492 106.72 116.52 106.178 116.52 105.594Z" fill="#A8AFB7"/>
<path d="M65.0715 62.6406H65.776V74.8616H65.0715V62.6406ZM63.1305 71.224C63.188 71.4828 63.3078 71.7416 63.4899 72.0004C63.6816 72.2496 63.9404 72.4605 64.2663 72.633C64.6018 72.796 65.0283 72.8774 65.5459 72.8774C66.284 72.8774 66.8303 72.7049 67.185 72.3598C67.5396 72.0148 67.7169 71.6074 67.7169 71.1378C67.7169 70.7639 67.6163 70.4572 67.415 70.2176C67.2137 69.978 66.9406 69.7815 66.5955 69.6281C66.2504 69.4652 65.8622 69.3214 65.4309 69.1968C65.0475 69.0913 64.6641 68.9763 64.2807 68.8517C63.9069 68.7175 63.5666 68.5546 63.2599 68.3629C62.9532 68.1616 62.7087 67.9028 62.5266 67.5865C62.3445 67.2702 62.2534 66.8772 62.2534 66.4075C62.2534 65.842 62.3876 65.3532 62.656 64.941C62.9244 64.5193 63.303 64.1934 63.7919 63.9633C64.2807 63.7333 64.851 63.6183 65.5028 63.6183C66.0683 63.6183 66.5619 63.6997 66.9837 63.8627C67.4054 64.0256 67.7553 64.2557 68.0333 64.5528C68.3208 64.8404 68.5317 65.1758 68.6659 65.5592L67.6451 65.9474C67.578 65.727 67.4486 65.5161 67.2569 65.3148C67.0652 65.1039 66.8159 64.9314 66.5092 64.7972C66.2025 64.663 65.8526 64.5959 65.4597 64.5959C65.0763 64.5959 64.7264 64.663 64.4101 64.7972C64.1034 64.9314 63.8589 65.1231 63.6768 65.3723C63.4947 65.6215 63.4037 65.9235 63.4037 66.2781C63.4037 66.6615 63.5091 66.9682 63.72 67.1983C63.9404 67.4187 64.228 67.6009 64.5826 67.7446C64.9469 67.8788 65.3446 68.0082 65.776 68.1328C66.169 68.2574 66.5476 68.3916 66.9118 68.5354C67.2856 68.6792 67.6163 68.8565 67.9039 69.0674C68.201 69.2782 68.4358 69.5418 68.6084 69.8581C68.7809 70.1745 68.8672 70.5626 68.8672 71.0227C68.8672 71.5307 68.7473 72.0052 68.5077 72.4461C68.2681 72.8774 67.9039 73.2273 67.415 73.4957C66.9358 73.7545 66.3175 73.8839 65.5603 73.8839C64.9277 73.8839 64.3717 73.788 63.8925 73.5963C63.4132 73.395 63.0203 73.1267 62.7135 72.7912C62.4068 72.4557 62.1959 72.0723 62.0809 71.641L63.1305 71.224ZM75.599 71.3965H70.2218V70.5339L75.369 63.7189H76.7492V70.3901H78.2158V71.3965H76.7492V73.7832H75.599V71.3965ZM75.6278 70.3901V64.941L71.5445 70.3901H75.6278ZM80.0025 68.7511C80.0025 68.013 80.0552 67.3325 80.1607 66.7094C80.2661 66.0768 80.4482 65.5305 80.707 65.0704C80.9658 64.6103 81.3252 64.2557 81.7853 64.0065C82.255 63.7477 82.8445 63.6183 83.5538 63.6183C84.2631 63.6183 84.8478 63.7477 85.3079 64.0065C85.7679 64.2557 86.1274 64.6103 86.3862 65.0704C86.645 65.5305 86.8271 66.0768 86.9325 66.7094C87.038 67.3325 87.0907 68.013 87.0907 68.7511C87.0907 69.4987 87.038 70.1888 86.9325 70.8214C86.8271 71.4445 86.645 71.986 86.3862 72.4461C86.1274 72.9062 85.7679 73.2608 85.3079 73.5101C84.8478 73.7593 84.2631 73.8839 83.5538 73.8839C82.8445 73.8839 82.255 73.7593 81.7853 73.5101C81.3252 73.2608 80.9658 72.9062 80.707 72.4461C80.4482 71.986 80.2661 71.4445 80.1607 70.8214C80.0552 70.1888 80.0025 69.4987 80.0025 68.7511ZM85.9261 68.7511C85.9261 68.1855 85.8973 67.6584 85.8398 67.1695C85.7919 66.6711 85.6913 66.235 85.5379 65.8612C85.3845 65.4778 85.1497 65.1806 84.8334 64.9698C84.5171 64.7493 84.0905 64.6391 83.5538 64.6391C83.0266 64.6391 82.6001 64.7493 82.2742 64.9698C81.9579 65.1806 81.7182 65.4778 81.5553 65.8612C81.4019 66.235 81.2965 66.6711 81.239 67.1695C81.1911 67.6584 81.1671 68.1855 81.1671 68.7511C81.1671 69.3358 81.1911 69.8773 81.239 70.3757C81.2965 70.8742 81.4019 71.3103 81.5553 71.6841C81.7182 72.0579 81.9579 72.3503 82.2742 72.5611C82.6001 72.7624 83.0266 72.8631 83.5538 72.8631C84.0905 72.8631 84.5171 72.7624 84.8334 72.5611C85.1497 72.3503 85.3845 72.0579 85.5379 71.6841C85.6913 71.3103 85.7919 70.8742 85.8398 70.3757C85.8973 69.8773 85.9261 69.3358 85.9261 68.7511ZM89.7636 73.8551C89.5431 73.8551 89.3562 73.7784 89.2028 73.6251C89.0591 73.4717 88.9872 73.2848 88.9872 73.0644C88.9872 72.8439 89.0591 72.657 89.2028 72.5036C89.3562 72.3503 89.5431 72.2736 89.7636 72.2736C89.9744 72.2736 90.1566 72.3503 90.3099 72.5036C90.4633 72.657 90.54 72.8439 90.54 73.0644C90.54 73.2848 90.4633 73.4717 90.3099 73.6251C90.1566 73.7784 89.9744 73.8551 89.7636 73.8551ZM92.4285 68.7511C92.4285 68.013 92.4812 67.3325 92.5866 66.7094C92.6921 66.0768 92.8742 65.5305 93.133 65.0704C93.3918 64.6103 93.7512 64.2557 94.2113 64.0065C94.681 63.7477 95.2705 63.6183 95.9798 63.6183C96.6891 63.6183 97.2737 63.7477 97.7338 64.0065C98.1939 64.2557 98.5533 64.6103 98.8121 65.0704C99.0709 65.5305 99.2531 66.0768 99.3585 66.7094C99.4639 67.3325 99.5167 68.013 99.5167 68.7511C99.5167 69.4987 99.4639 70.1888 99.3585 70.8214C99.2531 71.4445 99.0709 71.986 98.8121 72.4461C98.5533 72.9062 98.1939 73.2608 97.7338 73.5101C97.2737 73.7593 96.6891 73.8839 95.9798 73.8839C95.2705 73.8839 94.681 73.7593 94.2113 73.5101C93.7512 73.2608 93.3918 72.9062 93.133 72.4461C92.8742 71.986 92.6921 71.4445 92.5866 70.8214C92.4812 70.1888 92.4285 69.4987 92.4285 68.7511ZM98.3521 68.7511C98.3521 68.1855 98.3233 67.6584 98.2658 67.1695C98.2179 66.6711 98.1172 66.235 97.9639 65.8612C97.8105 65.4778 97.5757 65.1806 97.2594 64.9698C96.9431 64.7493 96.5165 64.6391 95.9798 64.6391C95.4526 64.6391 95.026 64.7493 94.7001 64.9698C94.3838 65.1806 94.1442 65.4778 93.9813 65.8612C93.8279 66.235 93.7225 66.6711 93.665 67.1695C93.617 67.6584 93.5931 68.1855 93.5931 68.7511C93.5931 69.3358 93.617 69.8773 93.665 70.3757C93.7225 70.8742 93.8279 71.3103 93.9813 71.6841C94.1442 72.0579 94.3838 72.3503 94.7001 72.5611C95.026 72.7624 95.4526 72.8631 95.9798 72.8631C96.5165 72.8631 96.9431 72.7624 97.2594 72.5611C97.5757 72.3503 97.8105 72.0579 97.9639 71.6841C98.1172 71.3103 98.2179 70.8742 98.2658 70.3757C98.3233 69.8773 98.3521 69.3358 98.3521 68.7511ZM101.471 68.7511C101.471 68.013 101.523 67.3325 101.629 66.7094C101.734 66.0768 101.916 65.5305 102.175 65.0704C102.434 64.6103 102.793 64.2557 103.253 64.0065C103.723 63.7477 104.313 63.6183 105.022 63.6183C105.731 63.6183 106.316 63.7477 106.776 64.0065C107.236 64.2557 107.596 64.6103 107.854 65.0704C108.113 65.5305 108.295 66.0768 108.401 66.7094C108.506 67.3325 108.559 68.013 108.559 68.7511C108.559 69.4987 108.506 70.1888 108.401 70.8214C108.295 71.4445 108.113 71.986 107.854 72.4461C107.596 72.9062 107.236 73.2608 106.776 73.5101C106.316 73.7593 105.731 73.8839 105.022 73.8839C104.313 73.8839 103.723 73.7593 103.253 73.5101C102.793 73.2608 102.434 72.9062 102.175 72.4461C101.916 71.986 101.734 71.4445 101.629 70.8214C101.523 70.1888 101.471 69.4987 101.471 68.7511ZM107.394 68.7511C107.394 68.1855 107.365 67.6584 107.308 67.1695C107.26 66.6711 107.159 66.235 107.006 65.8612C106.853 65.4778 106.618 65.1806 106.302 64.9698C105.985 64.7493 105.559 64.6391 105.022 64.6391C104.495 64.6391 104.068 64.7493 103.742 64.9698C103.426 65.1806 103.186 65.4778 103.023 65.8612C102.87 66.235 102.765 66.6711 102.707 67.1695C102.659 67.6584 102.635 68.1855 102.635 68.7511C102.635 69.3358 102.659 69.8773 102.707 70.3757C102.765 70.8742 102.87 71.3103 103.023 71.6841C103.186 72.0579 103.426 72.3503 103.742 72.5611C104.068 72.7624 104.495 72.8631 105.022 72.8631C105.559 72.8631 105.985 72.7624 106.302 72.5611C106.618 72.3503 106.853 72.0579 107.006 71.6841C107.159 71.3103 107.26 70.8742 107.308 70.3757C107.365 69.8773 107.394 69.3358 107.394 68.7511ZM110.513 68.7511C110.513 68.013 110.566 67.3325 110.671 66.7094C110.776 66.0768 110.959 65.5305 111.217 65.0704C111.476 64.6103 111.836 64.2557 112.296 64.0065C112.765 63.7477 113.355 63.6183 114.064 63.6183C114.773 63.6183 115.358 63.7477 115.818 64.0065C116.278 64.2557 116.638 64.6103 116.896 65.0704C117.155 65.5305 117.337 66.0768 117.443 66.7094C117.548 67.3325 117.601 68.013 117.601 68.7511C117.601 69.4987 117.548 70.1888 117.443 70.8214C117.337 71.4445 117.155 71.986 116.896 72.4461C116.638 72.9062 116.278 73.2608 115.818 73.5101C115.358 73.7593 114.773 73.8839 114.064 73.8839C113.355 73.8839 112.765 73.7593 112.296 73.5101C111.836 73.2608 111.476 72.9062 111.217 72.4461C110.959 71.986 110.776 71.4445 110.671 70.8214C110.566 70.1888 110.513 69.4987 110.513 68.7511ZM116.436 68.7511C116.436 68.1855 116.408 67.6584 116.35 67.1695C116.302 66.6711 116.202 66.235 116.048 65.8612C115.895 65.4778 115.66 65.1806 115.344 64.9698C115.027 64.7493 114.601 64.6391 114.064 64.6391C113.537 64.6391 113.11 64.7493 112.784 64.9698C112.468 65.1806 112.229 65.4778 112.066 65.8612C111.912 66.235 111.807 66.6711 111.749 67.1695C111.701 67.6584 111.677 68.1855 111.677 68.7511C111.677 69.3358 111.701 69.8773 111.749 70.3757C111.807 70.8742 111.912 71.3103 112.066 71.6841C112.229 72.0579 112.468 72.3503 112.784 72.5611C113.11 72.7624 113.537 72.8631 114.064 72.8631C114.601 72.8631 115.027 72.7624 115.344 72.5611C115.66 72.3503 115.895 72.0579 116.048 71.6841C116.202 71.3103 116.302 70.8742 116.35 70.3757C116.408 69.8773 116.436 69.3358 116.436 68.7511Z" fill="#A8AFB7"/>
<line x1="129.641" y1="68.3199" x2="296.78" y2="68.3199" stroke="#EBECEE" stroke-width="0.898601" stroke-dasharray="3.59 3.59"/>
<line x1="129.641" y1="105.163" x2="296.78" y2="105.163" stroke="#EBECEE" stroke-width="0.898601" stroke-dasharray="3.59 3.59"/>
<line x1="129.641" y1="142.005" x2="296.78" y2="142.005" stroke="#EBECEE" stroke-width="0.898601" stroke-dasharray="3.59 3.59"/>
<line x1="129.641" y1="178.848" x2="296.78" y2="178.848" stroke="#EBECEE" stroke-width="0.898601" stroke-dasharray="3.59 3.59"/>
<path d="M124.25 200.864L148.521 160.887C151.649 155.735 158.862 155.063 162.889 159.547L165.556 162.518C169.843 167.292 177.607 166.164 180.36 160.368L199.221 120.644C201.75 115.319 208.635 113.83 213.138 117.634L220.155 123.562C225.009 127.663 232.469 125.568 234.479 119.54L248.553 77.317C250.563 71.286 258.029 69.1924 262.882 73.2989L268.722 78.2401C272.712 81.6163 278.73 80.8878 281.8 76.6572L292.738 61.5804" stroke="#0077DF" stroke-width="1.7972"/>
<circle cx="249.604" cy="78.2046" r="4.49301" fill="url(#paint0_linear_18552_17573)" stroke="white" stroke-width="0.898601"/>
<path d="M285.549 65.1748L293.187 60.6818L292.738 69.6678" stroke="#0077DF" stroke-width="1.7972"/>
</g>
<rect x="50.1153" y="49.4493" width="256.101" height="148.269" rx="17.5227" stroke="#D4DAE3" stroke-width="0.898601"/>
</g>
<path d="M97.899 229H99.899V243H97.899V229ZM102.915 233H104.635L104.755 234.16C105.075 233.747 105.482 233.427 105.975 233.2C106.469 232.973 107.015 232.86 107.615 232.86C108.389 232.86 109.055 233.027 109.615 233.36C110.189 233.68 110.629 234.16 110.935 234.8C111.255 235.44 111.415 236.24 111.415 237.2V243H109.535V237.44C109.535 236.507 109.335 235.8 108.935 235.32C108.549 234.827 107.982 234.58 107.235 234.58C106.462 234.58 105.862 234.833 105.435 235.34C105.009 235.833 104.795 236.567 104.795 237.54V243H102.915V233ZM118.406 243.14C117.446 243.14 116.6 242.927 115.866 242.5C115.133 242.06 114.56 241.46 114.146 240.7C113.746 239.94 113.546 239.053 113.546 238.04C113.546 237.013 113.753 236.113 114.166 235.34C114.58 234.567 115.153 233.96 115.886 233.52C116.62 233.08 117.473 232.86 118.446 232.86C119.473 232.86 120.373 233.1 121.146 233.58C121.933 234.06 122.5 234.707 122.846 235.52L121.146 236.12C120.946 235.653 120.606 235.28 120.126 235C119.66 234.72 119.126 234.58 118.526 234.58C117.913 234.58 117.386 234.727 116.946 235.02C116.506 235.3 116.166 235.7 115.926 236.22C115.686 236.727 115.566 237.327 115.566 238.02C115.566 239.06 115.833 239.887 116.366 240.5C116.9 241.113 117.62 241.42 118.526 241.42C119.126 241.42 119.66 241.287 120.126 241.02C120.606 240.753 120.966 240.387 121.206 239.92L122.886 240.52C122.513 241.32 121.926 241.96 121.126 242.44C120.326 242.907 119.42 243.14 118.406 243.14ZM125.181 233H126.901L127.021 234.34C127.301 233.993 127.621 233.707 127.981 233.48C128.354 233.24 128.754 233.073 129.181 232.98C129.621 232.887 130.074 232.893 130.541 233V234.78C130.101 234.673 129.674 234.66 129.261 234.74C128.848 234.82 128.474 234.993 128.141 235.26C127.821 235.513 127.561 235.853 127.361 236.28C127.161 236.707 127.061 237.22 127.061 237.82V243H125.181V233ZM136.787 243.14C135.827 243.14 134.973 242.92 134.227 242.48C133.493 242.027 132.913 241.407 132.487 240.62C132.073 239.833 131.867 238.933 131.867 237.92C131.867 236.947 132.073 236.08 132.487 235.32C132.9 234.56 133.467 233.96 134.187 233.52C134.92 233.08 135.747 232.86 136.667 232.86C137.6 232.86 138.427 233.067 139.147 233.48C139.867 233.88 140.427 234.447 140.827 235.18C141.227 235.9 141.42 236.733 141.407 237.68C141.407 237.84 141.4 238.007 141.387 238.18C141.373 238.34 141.353 238.52 141.327 238.72H133.927C133.967 239.253 134.113 239.727 134.367 240.14C134.633 240.54 134.967 240.853 135.367 241.08C135.78 241.307 136.247 241.42 136.767 241.42C137.433 241.42 138.013 241.293 138.507 241.04C139 240.773 139.347 240.42 139.547 239.98L141.187 240.56C140.787 241.373 140.2 242.007 139.427 242.46C138.667 242.913 137.787 243.14 136.787 243.14ZM139.347 237.1C139.347 236.62 139.227 236.187 138.987 235.8C138.747 235.413 138.42 235.113 138.007 234.9C137.607 234.673 137.153 234.56 136.647 234.56C136.193 234.56 135.773 234.673 135.387 234.9C135.013 235.113 134.693 235.413 134.427 235.8C134.173 236.173 134.013 236.607 133.947 237.1H139.347ZM149.816 243L149.656 241.54C149.349 242.047 148.949 242.44 148.456 242.72C147.976 242.987 147.349 243.12 146.576 243.12C145.856 243.12 145.243 243.007 144.736 242.78C144.229 242.54 143.836 242.213 143.556 241.8C143.289 241.373 143.156 240.88 143.156 240.32C143.156 239.48 143.469 238.787 144.096 238.24C144.723 237.68 145.629 237.333 146.816 237.2L149.656 236.88V236.1C149.656 235.673 149.483 235.313 149.136 235.02C148.789 234.713 148.289 234.56 147.636 234.56C147.023 234.56 146.503 234.707 146.076 235C145.649 235.28 145.363 235.7 145.216 236.26L143.536 235.66C143.789 234.78 144.283 234.093 145.016 233.6C145.763 233.107 146.663 232.86 147.716 232.86C148.969 232.86 149.923 233.173 150.576 233.8C151.229 234.427 151.556 235.253 151.556 236.28V243H149.816ZM149.656 238.42L146.916 238.76C146.329 238.84 145.889 239.007 145.596 239.26C145.303 239.5 145.156 239.82 145.156 240.22C145.156 240.593 145.296 240.907 145.576 241.16C145.869 241.4 146.276 241.52 146.796 241.52C147.436 241.52 147.969 241.4 148.396 241.16C148.823 240.92 149.136 240.587 149.336 240.16C149.549 239.72 149.656 239.213 149.656 238.64V238.42ZM155.383 239.84C155.476 240.24 155.636 240.553 155.863 240.78C156.09 241.007 156.356 241.173 156.663 241.28C156.983 241.373 157.316 241.42 157.663 241.42C158.263 241.42 158.73 241.3 159.063 241.06C159.396 240.82 159.563 240.52 159.563 240.16C159.563 239.853 159.456 239.613 159.243 239.44C159.043 239.253 158.77 239.107 158.423 239C158.09 238.893 157.73 238.793 157.343 238.7C156.996 238.607 156.616 238.5 156.203 238.38C155.803 238.26 155.423 238.1 155.063 237.9C154.716 237.687 154.43 237.42 154.203 237.1C153.976 236.767 153.863 236.347 153.863 235.84C153.863 235.24 154.023 234.72 154.343 234.28C154.676 233.827 155.13 233.48 155.703 233.24C156.29 232.987 156.95 232.86 157.683 232.86C158.536 232.86 159.283 233.047 159.923 233.42C160.576 233.78 161.05 234.327 161.343 235.06L159.643 235.62C159.55 235.367 159.396 235.16 159.183 235C158.97 234.84 158.723 234.733 158.443 234.68C158.176 234.613 157.91 234.58 157.643 234.58C157.136 234.58 156.716 234.68 156.383 234.88C156.05 235.08 155.883 235.373 155.883 235.76C155.883 235.973 155.936 236.153 156.043 236.3C156.15 236.433 156.296 236.547 156.483 236.64C156.683 236.72 156.916 236.793 157.183 236.86C157.45 236.927 157.736 237 158.043 237.08C158.443 237.2 158.85 237.333 159.263 237.48C159.676 237.613 160.056 237.787 160.403 238C160.75 238.213 161.03 238.493 161.243 238.84C161.456 239.187 161.57 239.613 161.583 240.12C161.583 240.707 161.416 241.227 161.083 241.68C160.763 242.133 160.303 242.493 159.703 242.76C159.116 243.013 158.416 243.14 157.603 243.14C156.616 243.14 155.776 242.92 155.083 242.48C154.39 242.04 153.923 241.36 153.683 240.44L155.383 239.84ZM168.212 243.14C167.252 243.14 166.399 242.92 165.652 242.48C164.919 242.027 164.339 241.407 163.912 240.62C163.499 239.833 163.292 238.933 163.292 237.92C163.292 236.947 163.499 236.08 163.912 235.32C164.326 234.56 164.892 233.96 165.612 233.52C166.346 233.08 167.172 232.86 168.092 232.86C169.026 232.86 169.852 233.067 170.572 233.48C171.292 233.88 171.852 234.447 172.252 235.18C172.652 235.9 172.846 236.733 172.832 237.68C172.832 237.84 172.826 238.007 172.812 238.18C172.799 238.34 172.779 238.52 172.752 238.72H165.352C165.392 239.253 165.539 239.727 165.792 240.14C166.059 240.54 166.392 240.853 166.792 241.08C167.206 241.307 167.672 241.42 168.192 241.42C168.859 241.42 169.439 241.293 169.932 241.04C170.426 240.773 170.772 240.42 170.972 239.98L172.612 240.56C172.212 241.373 171.626 242.007 170.852 242.46C170.092 242.913 169.212 243.14 168.212 243.14ZM170.772 237.1C170.772 236.62 170.652 236.187 170.412 235.8C170.172 235.413 169.846 235.113 169.432 234.9C169.032 234.673 168.579 234.56 168.072 234.56C167.619 234.56 167.199 234.673 166.812 234.9C166.439 235.113 166.119 235.413 165.852 235.8C165.599 236.173 165.439 236.607 165.372 237.1H170.772ZM188.927 233.18C188.927 232.42 188.701 231.813 188.247 231.36C187.794 230.907 187.074 230.68 186.087 230.68H182.887V235.66H186.107C186.761 235.66 187.294 235.56 187.707 235.36C188.121 235.147 188.427 234.853 188.627 234.48C188.827 234.107 188.927 233.673 188.927 233.18ZM186.087 229C187.194 229 188.101 229.193 188.807 229.58C189.527 229.953 190.061 230.453 190.407 231.08C190.767 231.707 190.947 232.407 190.947 233.18C190.947 233.687 190.861 234.187 190.687 234.68C190.514 235.173 190.234 235.627 189.847 236.04C189.461 236.44 188.954 236.76 188.327 237C187.714 237.227 186.974 237.34 186.107 237.34H182.887V243H180.887V229H186.087ZM187.367 236.66L191.227 243H188.967L185.247 236.66H187.367ZM197.802 243.14C196.842 243.14 195.989 242.92 195.242 242.48C194.509 242.027 193.929 241.407 193.502 240.62C193.089 239.833 192.882 238.933 192.882 237.92C192.882 236.947 193.089 236.08 193.502 235.32C193.915 234.56 194.482 233.96 195.202 233.52C195.935 233.08 196.762 232.86 197.682 232.86C198.615 232.86 199.442 233.067 200.162 233.48C200.882 233.88 201.442 234.447 201.842 235.18C202.242 235.9 202.435 236.733 202.422 237.68C202.422 237.84 202.415 238.007 202.402 238.18C202.389 238.34 202.369 238.52 202.342 238.72H194.942C194.982 239.253 195.129 239.727 195.382 240.14C195.649 240.54 195.982 240.853 196.382 241.08C196.795 241.307 197.262 241.42 197.782 241.42C198.449 241.42 199.029 241.293 199.522 241.04C200.015 240.773 200.362 240.42 200.562 239.98L202.202 240.56C201.802 241.373 201.215 242.007 200.442 242.46C199.682 242.913 198.802 243.14 197.802 243.14ZM200.362 237.1C200.362 236.62 200.242 236.187 200.002 235.8C199.762 235.413 199.435 235.113 199.022 234.9C198.622 234.673 198.169 234.56 197.662 234.56C197.209 234.56 196.789 234.673 196.402 234.9C196.029 235.113 195.709 235.413 195.442 235.8C195.189 236.173 195.029 236.607 194.962 237.1H200.362ZM205.812 233L208.692 240.98L211.592 233H213.592L209.692 243H207.652L203.772 233H205.812ZM219.833 243.14C218.873 243.14 218.02 242.92 217.273 242.48C216.54 242.027 215.96 241.407 215.533 240.62C215.12 239.833 214.913 238.933 214.913 237.92C214.913 236.947 215.12 236.08 215.533 235.32C215.947 234.56 216.513 233.96 217.233 233.52C217.967 233.08 218.793 232.86 219.713 232.86C220.647 232.86 221.473 233.067 222.193 233.48C222.913 233.88 223.473 234.447 223.873 235.18C224.273 235.9 224.467 236.733 224.453 237.68C224.453 237.84 224.447 238.007 224.433 238.18C224.42 238.34 224.4 238.52 224.373 238.72H216.973C217.013 239.253 217.16 239.727 217.413 240.14C217.68 240.54 218.013 240.853 218.413 241.08C218.827 241.307 219.293 241.42 219.813 241.42C220.48 241.42 221.06 241.293 221.553 241.04C222.047 240.773 222.393 240.42 222.593 239.98L224.233 240.56C223.833 241.373 223.247 242.007 222.473 242.46C221.713 242.913 220.833 243.14 219.833 243.14ZM222.393 237.1C222.393 236.62 222.273 236.187 222.033 235.8C221.793 235.413 221.467 235.113 221.053 234.9C220.653 234.673 220.2 234.56 219.693 234.56C219.24 234.56 218.82 234.673 218.433 234.9C218.06 235.113 217.74 235.413 217.473 235.8C217.22 236.173 217.06 236.607 216.993 237.1H222.393ZM226.763 233H228.483L228.603 234.16C228.923 233.747 229.33 233.427 229.823 233.2C230.316 232.973 230.863 232.86 231.463 232.86C232.236 232.86 232.903 233.027 233.463 233.36C234.036 233.68 234.476 234.16 234.783 234.8C235.103 235.44 235.263 236.24 235.263 237.2V243H233.383V237.44C233.383 236.507 233.183 235.8 232.783 235.32C232.396 234.827 231.83 234.58 231.083 234.58C230.31 234.58 229.71 234.833 229.283 235.34C228.856 235.833 228.643 236.567 228.643 237.54V243H226.763V233ZM246.334 243H244.614L244.474 241.82C244.154 242.247 243.747 242.573 243.254 242.8C242.774 243.027 242.234 243.14 241.634 243.14C240.861 243.14 240.187 242.98 239.614 242.66C239.041 242.327 238.594 241.847 238.274 241.22C237.967 240.58 237.814 239.787 237.814 238.84V233H239.714V238.6C239.714 239.52 239.901 240.22 240.274 240.7C240.661 241.18 241.241 241.42 242.014 241.42C242.774 241.42 243.367 241.173 243.794 240.68C244.234 240.187 244.454 239.453 244.454 238.48V233H246.334V243ZM253.525 243.14C252.565 243.14 251.711 242.92 250.965 242.48C250.231 242.027 249.651 241.407 249.225 240.62C248.811 239.833 248.605 238.933 248.605 237.92C248.605 236.947 248.811 236.08 249.225 235.32C249.638 234.56 250.205 233.96 250.925 233.52C251.658 233.08 252.485 232.86 253.405 232.86C254.338 232.86 255.165 233.067 255.885 233.48C256.605 233.88 257.165 234.447 257.565 235.18C257.965 235.9 258.158 236.733 258.145 237.68C258.145 237.84 258.138 238.007 258.125 238.18C258.111 238.34 258.091 238.52 258.065 238.72H250.665C250.705 239.253 250.851 239.727 251.105 240.14C251.371 240.54 251.705 240.853 252.105 241.08C252.518 241.307 252.985 241.42 253.505 241.42C254.171 241.42 254.751 241.293 255.245 241.04C255.738 240.773 256.085 240.42 256.285 239.98L257.925 240.56C257.525 241.373 256.938 242.007 256.165 242.46C255.405 242.913 254.525 243.14 253.525 243.14ZM256.085 237.1C256.085 236.62 255.965 236.187 255.725 235.8C255.485 235.413 255.158 235.113 254.745 234.9C254.345 234.673 253.891 234.56 253.385 234.56C252.931 234.56 252.511 234.673 252.125 234.9C251.751 235.113 251.431 235.413 251.165 235.8C250.911 236.173 250.751 236.607 250.685 237.1H256.085Z" fill="#25272C"/>
<path d="M64.8337 262.84C64.8337 262.253 64.6364 261.789 64.2417 261.448C63.8577 261.096 63.2817 260.92 62.5137 260.92H59.3457V264.744H62.5617C63.2871 264.744 63.8471 264.573 64.2417 264.232C64.6364 263.891 64.8337 263.427 64.8337 262.84ZM58.0657 271V259.8H62.6257C63.4151 259.8 64.0657 259.933 64.5777 260.2C65.0897 260.467 65.4684 260.819 65.7137 261.256C65.9697 261.683 66.0977 262.157 66.0977 262.68C66.0977 263.192 66.0017 263.624 65.8097 263.976C65.6284 264.317 65.3777 264.589 65.0577 264.792C64.7484 264.995 64.4071 265.133 64.0337 265.208V265.32C64.4817 265.384 64.8817 265.528 65.2337 265.752C65.5857 265.965 65.8631 266.259 66.0657 266.632C66.2684 267.005 66.3697 267.459 66.3697 267.992C66.3697 268.547 66.2311 269.053 65.9537 269.512C65.6764 269.971 65.2657 270.333 64.7217 270.6C64.1884 270.867 63.5324 271 62.7537 271H58.0657ZM59.3457 269.88H62.6577C63.4257 269.88 64.0231 269.709 64.4497 269.368C64.8871 269.016 65.1057 268.515 65.1057 267.864C65.1057 267.213 64.8764 266.717 64.4177 266.376C63.9697 266.035 63.3671 265.864 62.6097 265.864H59.3457V269.88ZM68.5002 263H69.6042L69.6682 264.168C69.8816 263.88 70.1376 263.635 70.4362 263.432C70.7456 263.229 71.0816 263.091 71.4442 263.016C71.8176 262.931 72.2122 262.925 72.6282 263V264.2C72.1802 264.115 71.7749 264.115 71.4122 264.2C71.0602 264.285 70.7562 264.445 70.5002 264.68C70.2442 264.915 70.0469 265.213 69.9082 265.576C69.7696 265.928 69.7002 266.339 69.7002 266.808V271H68.5002V263ZM77.7218 271.112C76.9645 271.112 76.2872 270.947 75.6898 270.616C75.0925 270.285 74.6232 269.816 74.2818 269.208C73.9405 268.589 73.7698 267.859 73.7698 267.016C73.7698 266.163 73.9405 265.427 74.2818 264.808C74.6338 264.189 75.1085 263.715 75.7058 263.384C76.3138 263.053 76.9965 262.888 77.7538 262.888C78.5112 262.888 79.1885 263.053 79.7858 263.384C80.3938 263.715 80.8685 264.189 81.2098 264.808C81.5618 265.416 81.7378 266.141 81.7378 266.984C81.7378 267.837 81.5618 268.573 81.2098 269.192C80.8578 269.811 80.3778 270.285 79.7698 270.616C79.1618 270.947 78.4792 271.112 77.7218 271.112ZM77.7058 269.976C78.1752 269.976 78.6178 269.875 79.0338 269.672C79.4498 269.459 79.7858 269.133 80.0418 268.696C80.3085 268.248 80.4418 267.683 80.4418 267C80.4418 266.307 80.3138 265.741 80.0578 265.304C79.8018 264.867 79.4658 264.547 79.0498 264.344C78.6445 264.131 78.2072 264.024 77.7378 264.024C77.2685 264.024 76.8312 264.131 76.4258 264.344C76.0205 264.547 75.6898 264.872 75.4338 265.32C75.1885 265.757 75.0658 266.317 75.0658 267C75.0658 267.693 75.1885 268.259 75.4338 268.696C75.6792 269.133 75.9992 269.459 76.3938 269.672C76.7992 269.875 77.2365 269.976 77.7058 269.976ZM83.7033 259.48H84.9193V266.472H85.6553L88.8073 263H90.5033L86.7273 267L90.5193 271H88.8073L85.6553 267.512H84.9193V271H83.7033V259.48ZM95.3446 271.112C94.5979 271.112 93.9313 270.931 93.3446 270.568C92.7686 270.205 92.3153 269.709 91.9846 269.08C91.6539 268.451 91.4886 267.731 91.4886 266.92C91.4886 266.141 91.6539 265.448 91.9846 264.84C92.3153 264.232 92.7686 263.757 93.3446 263.416C93.9206 263.064 94.5766 262.888 95.3126 262.888C96.0379 262.888 96.6833 263.048 97.2486 263.368C97.8246 263.688 98.2726 264.131 98.5926 264.696C98.9126 265.261 99.0619 265.907 99.0406 266.632C99.0406 266.749 99.0353 266.872 99.0246 267C99.0139 267.128 99.0033 267.267 98.9926 267.416H92.8006C92.8219 267.917 92.9446 268.36 93.1686 268.744C93.3926 269.128 93.6859 269.432 94.0486 269.656C94.4219 269.869 94.8433 269.976 95.3126 269.976C95.9313 269.976 96.4539 269.859 96.8806 269.624C97.3179 269.389 97.6326 269.053 97.8246 268.616L98.8646 269.032C98.5446 269.704 98.0806 270.221 97.4726 270.584C96.8646 270.936 96.1553 271.112 95.3446 271.112ZM97.7286 266.376C97.7393 265.917 97.6379 265.512 97.4246 265.16C97.2219 264.808 96.9339 264.531 96.5606 264.328C96.1873 264.125 95.7553 264.024 95.2646 264.024C94.8379 264.024 94.4486 264.125 94.0966 264.328C93.7446 264.531 93.4513 264.813 93.2166 265.176C92.9926 265.528 92.8593 265.928 92.8166 266.376H97.7286ZM101.016 263H102.12L102.184 264.168C102.397 263.88 102.653 263.635 102.952 263.432C103.261 263.229 103.597 263.091 103.96 263.016C104.333 262.931 104.728 262.925 105.144 263V264.2C104.696 264.115 104.291 264.115 103.928 264.2C103.576 264.285 103.272 264.445 103.016 264.68C102.76 264.915 102.563 265.213 102.424 265.576C102.285 265.928 102.216 266.339 102.216 266.808V271H101.016V263ZM107.437 268.552C107.501 268.872 107.619 269.139 107.789 269.352C107.96 269.555 108.179 269.709 108.445 269.816C108.723 269.923 109.043 269.976 109.405 269.976C109.971 269.976 110.397 269.869 110.685 269.656C110.984 269.432 111.133 269.155 111.133 268.824C111.133 268.547 111.043 268.323 110.861 268.152C110.691 267.981 110.461 267.843 110.173 267.736C109.885 267.619 109.565 267.517 109.213 267.432C108.936 267.368 108.637 267.293 108.317 267.208C107.997 267.112 107.693 266.984 107.405 266.824C107.117 266.664 106.883 266.456 106.701 266.2C106.52 265.944 106.429 265.608 106.429 265.192C106.429 264.733 106.552 264.333 106.797 263.992C107.053 263.64 107.4 263.368 107.837 263.176C108.285 262.984 108.797 262.888 109.373 262.888C110.035 262.888 110.621 263.032 111.133 263.32C111.656 263.608 112.019 264.056 112.221 264.664L111.101 265.048C111.027 264.771 110.888 264.557 110.685 264.408C110.493 264.259 110.275 264.157 110.029 264.104C109.795 264.051 109.56 264.024 109.325 264.024C108.845 264.024 108.456 264.12 108.157 264.312C107.869 264.493 107.725 264.771 107.725 265.144C107.725 265.347 107.773 265.517 107.869 265.656C107.965 265.784 108.099 265.891 108.269 265.976C108.44 266.061 108.643 266.136 108.877 266.2C109.112 266.253 109.368 266.317 109.645 266.392C109.955 266.467 110.269 266.563 110.589 266.68C110.909 266.787 111.208 266.931 111.485 267.112C111.763 267.283 111.987 267.507 112.157 267.784C112.339 268.051 112.429 268.387 112.429 268.792C112.429 269.261 112.301 269.672 112.045 270.024C111.789 270.365 111.432 270.632 110.973 270.824C110.525 271.016 110.003 271.112 109.405 271.112C108.584 271.112 107.901 270.931 107.357 270.568C106.824 270.195 106.467 269.651 106.285 268.936L107.437 268.552ZM126.332 260.92H120.268V264.744H124.828V265.864H120.268V269.88H126.332V271H118.988V259.8H126.332V260.92ZM133.618 271L133.522 269.56C133.298 270.051 132.967 270.435 132.53 270.712C132.092 270.979 131.538 271.112 130.866 271.112C130.29 271.112 129.799 271.021 129.394 270.84C128.988 270.659 128.674 270.403 128.45 270.072C128.236 269.731 128.13 269.331 128.13 268.872C128.13 268.2 128.38 267.651 128.882 267.224C129.383 266.787 130.108 266.52 131.058 266.424L133.522 266.152V265.512C133.522 265.064 133.356 264.707 133.026 264.44C132.695 264.163 132.247 264.024 131.682 264.024C131.127 264.024 130.663 264.152 130.29 264.408C129.927 264.664 129.676 265.032 129.538 265.512L128.45 265.128C128.663 264.424 129.052 263.875 129.618 263.48C130.194 263.085 130.892 262.888 131.714 262.888C132.663 262.888 133.399 263.133 133.922 263.624C134.455 264.104 134.722 264.76 134.722 265.592V271H133.618ZM133.522 267.176L131.042 267.464C130.508 267.528 130.103 267.677 129.826 267.912C129.548 268.136 129.41 268.435 129.41 268.808C129.41 269.181 129.543 269.48 129.81 269.704C130.087 269.928 130.482 270.04 130.994 270.04C131.58 270.04 132.06 269.923 132.434 269.688C132.807 269.453 133.079 269.139 133.25 268.744C133.431 268.339 133.522 267.901 133.522 267.432V267.176ZM137.063 263H138.167L138.231 264.168C138.444 263.88 138.7 263.635 138.999 263.432C139.308 263.229 139.644 263.091 140.007 263.016C140.38 262.931 140.775 262.925 141.191 263V264.2C140.743 264.115 140.337 264.115 139.975 264.2C139.623 264.285 139.319 264.445 139.063 264.68C138.807 264.915 138.609 265.213 138.471 265.576C138.332 265.928 138.263 266.339 138.263 266.808V271H137.063V263ZM142.828 263H143.932L143.996 264.136C144.252 263.741 144.588 263.437 145.004 263.224C145.42 263 145.906 262.888 146.46 262.888C147.068 262.888 147.602 263.021 148.06 263.288C148.519 263.544 148.876 263.933 149.132 264.456C149.388 264.968 149.516 265.613 149.516 266.392V271H148.316V266.536C148.316 265.704 148.135 265.075 147.772 264.648C147.42 264.211 146.908 263.992 146.236 263.992C145.543 263.992 144.999 264.221 144.604 264.68C144.22 265.139 144.028 265.816 144.028 266.712V271H142.828V263ZM163.352 259.8V260.92H157.688V264.648C157.934 264.307 158.291 264.029 158.76 263.816C159.23 263.603 159.758 263.496 160.344 263.496C161.027 263.496 161.603 263.608 162.072 263.832C162.542 264.056 162.92 264.349 163.208 264.712C163.507 265.075 163.72 265.475 163.848 265.912C163.987 266.339 164.056 266.76 164.056 267.176C164.056 267.88 163.907 268.531 163.608 269.128C163.32 269.725 162.883 270.205 162.296 270.568C161.72 270.931 161 271.112 160.136 271.112C159.39 271.112 158.734 270.979 158.168 270.712C157.614 270.445 157.166 270.077 156.824 269.608C156.494 269.128 156.28 268.573 156.184 267.944H157.432C157.582 268.605 157.891 269.112 158.36 269.464C158.84 269.805 159.432 269.976 160.136 269.976C160.734 269.976 161.224 269.859 161.608 269.624C162.003 269.389 162.291 269.064 162.472 268.648C162.664 268.232 162.76 267.752 162.76 267.208C162.76 266.387 162.536 265.752 162.088 265.304C161.64 264.856 161 264.632 160.168 264.632C159.56 264.632 159.032 264.765 158.584 265.032C158.147 265.299 157.822 265.672 157.608 266.152H156.408V259.8H163.352ZM165.577 263H166.953L169.001 266.056L171.049 263H172.441L169.673 266.984L172.441 271H171.049L169.001 267.912L166.953 271H165.577L168.345 266.984L165.577 263ZM180.064 271H178.784V259.8H180.192L184.352 269.24L188.496 259.8H189.888V271H188.608V262.328L184.8 271H183.888L180.064 262.328V271ZM195.941 271.112C195.183 271.112 194.506 270.947 193.909 270.616C193.311 270.285 192.842 269.816 192.501 269.208C192.159 268.589 191.989 267.859 191.989 267.016C191.989 266.163 192.159 265.427 192.501 264.808C192.853 264.189 193.327 263.715 193.925 263.384C194.533 263.053 195.215 262.888 195.973 262.888C196.73 262.888 197.407 263.053 198.005 263.384C198.613 263.715 199.087 264.189 199.429 264.808C199.781 265.416 199.957 266.141 199.957 266.984C199.957 267.837 199.781 268.573 199.429 269.192C199.077 269.811 198.597 270.285 197.989 270.616C197.381 270.947 196.698 271.112 195.941 271.112ZM195.925 269.976C196.394 269.976 196.837 269.875 197.253 269.672C197.669 269.459 198.005 269.133 198.261 268.696C198.527 268.248 198.661 267.683 198.661 267C198.661 266.307 198.533 265.741 198.277 265.304C198.021 264.867 197.685 264.547 197.269 264.344C196.863 264.131 196.426 264.024 195.957 264.024C195.487 264.024 195.05 264.131 194.645 264.344C194.239 264.547 193.909 264.872 193.653 265.32C193.407 265.757 193.285 266.317 193.285 267C193.285 267.693 193.407 268.259 193.653 268.696C193.898 269.133 194.218 269.459 194.613 269.672C195.018 269.875 195.455 269.976 195.925 269.976ZM201.922 263H203.026L203.09 264.168C203.303 263.88 203.559 263.635 203.858 263.432C204.167 263.229 204.503 263.091 204.866 263.016C205.239 262.931 205.634 262.925 206.05 263V264.2C205.602 264.115 205.197 264.115 204.834 264.2C204.482 264.285 204.178 264.445 203.922 264.68C203.666 264.915 203.469 265.213 203.33 265.576C203.191 265.928 203.122 266.339 203.122 266.808V271H201.922V263ZM211.048 271.112C210.301 271.112 209.634 270.931 209.048 270.568C208.472 270.205 208.018 269.709 207.688 269.08C207.357 268.451 207.192 267.731 207.192 266.92C207.192 266.141 207.357 265.448 207.688 264.84C208.018 264.232 208.472 263.757 209.048 263.416C209.624 263.064 210.28 262.888 211.016 262.888C211.741 262.888 212.386 263.048 212.952 263.368C213.528 263.688 213.976 264.131 214.296 264.696C214.616 265.261 214.765 265.907 214.744 266.632C214.744 266.749 214.738 266.872 214.728 267C214.717 267.128 214.706 267.267 214.696 267.416H208.504C208.525 267.917 208.648 268.36 208.872 268.744C209.096 269.128 209.389 269.432 209.752 269.656C210.125 269.869 210.546 269.976 211.016 269.976C211.634 269.976 212.157 269.859 212.584 269.624C213.021 269.389 213.336 269.053 213.528 268.616L214.568 269.032C214.248 269.704 213.784 270.221 213.176 270.584C212.568 270.936 211.858 271.112 211.048 271.112ZM213.432 266.376C213.442 265.917 213.341 265.512 213.128 265.16C212.925 264.808 212.637 264.531 212.264 264.328C211.89 264.125 211.458 264.024 210.968 264.024C210.541 264.024 210.152 264.125 209.8 264.328C209.448 264.531 209.154 264.813 208.92 265.176C208.696 265.528 208.562 265.928 208.52 266.376H213.432ZM221.715 263V260.76H222.915V263H225.043V264.12H222.915V268.424C222.915 268.915 223.017 269.272 223.219 269.496C223.433 269.72 223.699 269.853 224.019 269.896C224.35 269.939 224.691 269.939 225.043 269.896V270.936C224.627 271.032 224.217 271.059 223.811 271.016C223.417 270.973 223.059 270.856 222.739 270.664C222.43 270.461 222.179 270.179 221.987 269.816C221.806 269.453 221.715 268.989 221.715 268.424V264.12H220.515V263H221.715ZM226.828 259.48H228.028V264.088C228.284 263.704 228.631 263.411 229.068 263.208C229.506 262.995 229.996 262.888 230.54 262.888C231.127 262.888 231.65 263.021 232.108 263.288C232.567 263.555 232.924 263.949 233.18 264.472C233.447 264.995 233.58 265.645 233.58 266.424V271H232.3V266.568C232.3 265.736 232.124 265.101 231.772 264.664C231.42 264.216 230.908 263.992 230.236 263.992C229.543 263.992 228.999 264.227 228.604 264.696C228.22 265.165 228.028 265.848 228.028 266.744V271H226.828V259.48ZM240.914 271L240.818 269.56C240.594 270.051 240.264 270.435 239.826 270.712C239.389 270.979 238.834 271.112 238.162 271.112C237.586 271.112 237.096 271.021 236.69 270.84C236.285 270.659 235.97 270.403 235.746 270.072C235.533 269.731 235.426 269.331 235.426 268.872C235.426 268.2 235.677 267.651 236.178 267.224C236.68 266.787 237.405 266.52 238.354 266.424L240.818 266.152V265.512C240.818 265.064 240.653 264.707 240.322 264.44C239.992 264.163 239.544 264.024 238.978 264.024C238.424 264.024 237.96 264.152 237.586 264.408C237.224 264.664 236.973 265.032 236.834 265.512L235.746 265.128C235.96 264.424 236.349 263.875 236.914 263.48C237.49 263.085 238.189 262.888 239.01 262.888C239.96 262.888 240.696 263.133 241.218 263.624C241.752 264.104 242.018 264.76 242.018 265.592V271H240.914ZM240.818 267.176L238.338 267.464C237.805 267.528 237.4 267.677 237.122 267.912C236.845 268.136 236.706 268.435 236.706 268.808C236.706 269.181 236.84 269.48 237.106 269.704C237.384 269.928 237.778 270.04 238.29 270.04C238.877 270.04 239.357 269.923 239.73 269.688C240.104 269.453 240.376 269.139 240.546 268.744C240.728 268.339 240.818 267.901 240.818 267.432V267.176ZM244.36 263H245.464L245.528 264.136C245.784 263.741 246.12 263.437 246.536 263.224C246.952 263 247.437 262.888 247.992 262.888C248.6 262.888 249.133 263.021 249.592 263.288C250.05 263.544 250.408 263.933 250.664 264.456C250.92 264.968 251.048 265.613 251.048 266.392V271H249.848V266.536C249.848 265.704 249.666 265.075 249.304 264.648C248.952 264.211 248.44 263.992 247.768 263.992C247.074 263.992 246.53 264.221 246.136 264.68C245.752 265.139 245.56 265.816 245.56 266.712V271H244.36V263ZM262.9 271.112C262.11 271.112 261.374 270.973 260.692 270.696C260.02 270.419 259.428 270.029 258.916 269.528C258.414 269.016 258.02 268.413 257.732 267.72C257.454 267.016 257.316 266.243 257.316 265.4C257.316 264.557 257.454 263.789 257.732 263.096C258.02 262.392 258.414 261.789 258.916 261.288C259.428 260.776 260.02 260.381 260.692 260.104C261.374 259.827 262.11 259.688 262.9 259.688C263.678 259.688 264.404 259.827 265.076 260.104C265.758 260.381 266.35 260.776 266.852 261.288C267.353 261.789 267.742 262.392 268.02 263.096C268.308 263.789 268.452 264.557 268.452 265.4C268.452 266.243 268.308 267.016 268.02 267.72C267.742 268.413 267.353 269.016 266.852 269.528C266.35 270.029 265.758 270.419 265.076 270.696C264.404 270.973 263.678 271.112 262.9 271.112ZM262.9 269.992C263.7 269.992 264.42 269.805 265.06 269.432C265.7 269.059 266.206 268.531 266.58 267.848C266.953 267.155 267.14 266.339 267.14 265.4C267.14 264.451 266.953 263.635 266.58 262.952C266.206 262.259 265.7 261.731 265.06 261.368C264.42 260.995 263.7 260.808 262.9 260.808C262.089 260.808 261.358 260.995 260.708 261.368C260.068 261.731 259.561 262.259 259.188 262.952C258.814 263.635 258.628 264.451 258.628 265.4C258.628 266.339 258.814 267.155 259.188 267.848C259.561 268.531 260.068 269.059 260.708 269.432C261.358 269.805 262.089 269.992 262.9 269.992ZM270.872 263V260.76H272.072V263H274.2V264.12H272.072V268.424C272.072 268.915 272.173 269.272 272.376 269.496C272.589 269.72 272.856 269.853 273.176 269.896C273.506 269.939 273.848 269.939 274.2 269.896V270.936C273.784 271.032 273.373 271.059 272.968 271.016C272.573 270.973 272.216 270.856 271.896 270.664C271.586 270.461 271.336 270.179 271.144 269.816C270.962 269.453 270.872 268.989 270.872 268.424V264.12H269.672V263H270.872ZM275.985 259.48H277.185V264.088C277.441 263.704 277.787 263.411 278.225 263.208C278.662 262.995 279.153 262.888 279.697 262.888C280.283 262.888 280.806 263.021 281.265 263.288C281.723 263.555 282.081 263.949 282.337 264.472C282.603 264.995 282.737 265.645 282.737 266.424V271H281.457V266.568C281.457 265.736 281.281 265.101 280.929 264.664C280.577 264.216 280.065 263.992 279.393 263.992C278.699 263.992 278.155 264.227 277.761 264.696C277.377 265.165 277.185 265.848 277.185 266.744V271H275.985V259.48ZM288.423 271.112C287.676 271.112 287.009 270.931 286.423 270.568C285.847 270.205 285.393 269.709 285.063 269.08C284.732 268.451 284.567 267.731 284.567 266.92C284.567 266.141 284.732 265.448 285.063 264.84C285.393 264.232 285.847 263.757 286.423 263.416C286.999 263.064 287.655 262.888 288.391 262.888C289.116 262.888 289.761 263.048 290.327 263.368C290.903 263.688 291.351 264.131 291.671 264.696C291.991 265.261 292.14 265.907 292.119 266.632C292.119 266.749 292.113 266.872 292.103 267C292.092 267.128 292.081 267.267 292.071 267.416H285.879C285.9 267.917 286.023 268.36 286.247 268.744C286.471 269.128 286.764 269.432 287.127 269.656C287.5 269.869 287.921 269.976 288.391 269.976C289.009 269.976 289.532 269.859 289.959 269.624C290.396 269.389 290.711 269.053 290.903 268.616L291.943 269.032C291.623 269.704 291.159 270.221 290.551 270.584C289.943 270.936 289.233 271.112 288.423 271.112ZM290.807 266.376C290.817 265.917 290.716 265.512 290.503 265.16C290.3 264.808 290.012 264.531 289.639 264.328C289.265 264.125 288.833 264.024 288.343 264.024C287.916 264.024 287.527 264.125 287.175 264.328C286.823 264.531 286.529 264.813 286.295 265.176C286.071 265.528 285.937 265.928 285.895 266.376H290.807ZM294.094 263H295.198L295.262 264.168C295.475 263.88 295.731 263.635 296.03 263.432C296.339 263.229 296.675 263.091 297.038 263.016C297.411 262.931 297.806 262.925 298.222 263V264.2C297.774 264.115 297.369 264.115 297.006 264.2C296.654 264.285 296.35 264.445 296.094 264.68C295.838 264.915 295.641 265.213 295.502 265.576C295.363 265.928 295.294 266.339 295.294 266.808V271H294.094V263ZM148.057 284.304C148.654 284.304 149.139 284.213 149.513 284.032C149.886 283.851 150.158 283.595 150.329 283.264C150.51 282.933 150.601 282.549 150.601 282.112C150.601 281.419 150.398 280.88 149.993 280.496C149.598 280.112 148.953 279.92 148.057 279.92H145.385V284.304H148.057ZM151.865 282.112C151.865 282.549 151.79 282.971 151.641 283.376C151.502 283.771 151.278 284.123 150.969 284.432C150.659 284.741 150.265 284.987 149.785 285.168C149.305 285.339 148.729 285.424 148.057 285.424H145.385V290H144.105V278.8H148.057C148.931 278.8 149.646 278.949 150.201 279.248C150.766 279.547 151.182 279.947 151.449 280.448C151.726 280.949 151.865 281.504 151.865 282.112ZM153.774 278.48H154.974V290H153.774V278.48ZM162.422 290L162.326 288.56C162.102 289.051 161.772 289.435 161.334 289.712C160.897 289.979 160.342 290.112 159.67 290.112C159.094 290.112 158.604 290.021 158.198 289.84C157.793 289.659 157.478 289.403 157.254 289.072C157.041 288.731 156.934 288.331 156.934 287.872C156.934 287.2 157.185 286.651 157.686 286.224C158.188 285.787 158.913 285.52 159.862 285.424L162.326 285.152V284.512C162.326 284.064 162.161 283.707 161.83 283.44C161.5 283.163 161.052 283.024 160.486 283.024C159.932 283.024 159.468 283.152 159.094 283.408C158.732 283.664 158.481 284.032 158.342 284.512L157.254 284.128C157.468 283.424 157.857 282.875 158.422 282.48C158.998 282.085 159.697 281.888 160.518 281.888C161.468 281.888 162.204 282.133 162.726 282.624C163.26 283.104 163.526 283.76 163.526 284.592V290H162.422ZM162.326 286.176L159.846 286.464C159.313 286.528 158.908 286.677 158.63 286.912C158.353 287.136 158.214 287.435 158.214 287.808C158.214 288.181 158.348 288.48 158.614 288.704C158.892 288.928 159.286 289.04 159.798 289.04C160.385 289.04 160.865 288.923 161.238 288.688C161.612 288.453 161.884 288.139 162.054 287.744C162.236 287.339 162.326 286.901 162.326 286.432V286.176ZM166.379 282V279.76H167.579V282H169.707V283.12H167.579V287.424C167.579 287.915 167.681 288.272 167.883 288.496C168.097 288.72 168.363 288.853 168.683 288.896C169.014 288.939 169.355 288.939 169.707 288.896V289.936C169.291 290.032 168.881 290.059 168.475 290.016C168.081 289.973 167.723 289.856 167.403 289.664C167.094 289.461 166.843 289.179 166.651 288.816C166.47 288.453 166.379 287.989 166.379 287.424V283.12H165.179V282H166.379ZM171.924 281.056C171.924 280.469 172.02 279.973 172.212 279.568C172.404 279.163 172.708 278.869 173.124 278.688C173.551 278.496 174.116 278.427 174.82 278.48V279.552C174.18 279.499 173.738 279.605 173.492 279.872C173.247 280.128 173.124 280.523 173.124 281.056V282H174.884V283.12H173.124V290H171.924V283.12H170.804V282H171.924V281.056ZM180.136 290.112C179.379 290.112 178.701 289.947 178.104 289.616C177.507 289.285 177.037 288.816 176.696 288.208C176.355 287.589 176.184 286.859 176.184 286.016C176.184 285.163 176.355 284.427 176.696 283.808C177.048 283.189 177.523 282.715 178.12 282.384C178.728 282.053 179.411 281.888 180.168 281.888C180.925 281.888 181.603 282.053 182.2 282.384C182.808 282.715 183.283 283.189 183.624 283.808C183.976 284.416 184.152 285.141 184.152 285.984C184.152 286.837 183.976 287.573 183.624 288.192C183.272 288.811 182.792 289.285 182.184 289.616C181.576 289.947 180.893 290.112 180.136 290.112ZM180.12 288.976C180.589 288.976 181.032 288.875 181.448 288.672C181.864 288.459 182.2 288.133 182.456 287.696C182.723 287.248 182.856 286.683 182.856 286C182.856 285.307 182.728 284.741 182.472 284.304C182.216 283.867 181.88 283.547 181.464 283.344C181.059 283.131 180.621 283.024 180.152 283.024C179.683 283.024 179.245 283.131 178.84 283.344C178.435 283.547 178.104 283.872 177.848 284.32C177.603 284.757 177.48 285.317 177.48 286C177.48 286.693 177.603 287.259 177.848 287.696C178.093 288.133 178.413 288.459 178.808 288.672C179.213 288.875 179.651 288.976 180.12 288.976ZM186.117 282H187.221L187.285 283.168C187.499 282.88 187.755 282.635 188.053 282.432C188.363 282.229 188.699 282.091 189.061 282.016C189.435 281.931 189.829 281.925 190.245 282V283.2C189.797 283.115 189.392 283.115 189.029 283.2C188.677 283.285 188.373 283.445 188.117 283.68C187.861 283.915 187.664 284.213 187.525 284.576C187.387 284.928 187.317 285.339 187.317 285.808V290H186.117V282ZM191.883 282H192.987L193.067 283.152C193.302 282.768 193.616 282.464 194.011 282.24C194.416 282.005 194.896 281.888 195.451 281.888C196.016 281.888 196.528 282.027 196.987 282.304C197.456 282.571 197.819 282.971 198.075 283.504C198.32 282.96 198.694 282.555 199.195 282.288C199.696 282.021 200.251 281.888 200.859 281.888C201.456 281.888 201.984 282.021 202.443 282.288C202.902 282.544 203.259 282.933 203.515 283.456C203.771 283.968 203.899 284.613 203.899 285.392V290H202.699V285.536C202.699 284.704 202.518 284.075 202.155 283.648C201.803 283.211 201.296 282.992 200.635 282.992C199.963 282.992 199.43 283.227 199.035 283.696C198.64 284.155 198.443 284.837 198.443 285.744V290H197.243V285.536C197.243 284.704 197.072 284.075 196.731 283.648C196.39 283.211 195.888 282.992 195.227 282.992C194.555 282.992 194.027 283.227 193.643 283.696C193.27 284.155 193.083 284.837 193.083 285.744V290H191.883V282ZM206.883 287.552C206.947 287.872 207.064 288.139 207.235 288.352C207.405 288.555 207.624 288.709 207.891 288.816C208.168 288.923 208.488 288.976 208.851 288.976C209.416 288.976 209.843 288.869 210.131 288.656C210.429 288.432 210.579 288.155 210.579 287.824C210.579 287.547 210.488 287.323 210.307 287.152C210.136 286.981 209.907 286.843 209.619 286.736C209.331 286.619 209.011 286.517 208.659 286.432C208.381 286.368 208.083 286.293 207.763 286.208C207.443 286.112 207.139 285.984 206.851 285.824C206.563 285.664 206.328 285.456 206.147 285.2C205.965 284.944 205.875 284.608 205.875 284.192C205.875 283.733 205.997 283.333 206.243 282.992C206.499 282.64 206.845 282.368 207.283 282.176C207.731 281.984 208.243 281.888 208.819 281.888C209.48 281.888 210.067 282.032 210.579 282.32C211.101 282.608 211.464 283.056 211.667 283.664L210.547 284.048C210.472 283.771 210.333 283.557 210.131 283.408C209.939 283.259 209.72 283.157 209.475 283.104C209.24 283.051 209.005 283.024 208.771 283.024C208.291 283.024 207.901 283.12 207.603 283.312C207.315 283.493 207.171 283.771 207.171 284.144C207.171 284.347 207.219 284.517 207.315 284.656C207.411 284.784 207.544 284.891 207.715 284.976C207.885 285.061 208.088 285.136 208.323 285.2C208.557 285.253 208.813 285.317 209.091 285.392C209.4 285.467 209.715 285.563 210.035 285.68C210.355 285.787 210.653 285.931 210.931 286.112C211.208 286.283 211.432 286.507 211.603 286.784C211.784 287.051 211.875 287.387 211.875 287.792C211.875 288.261 211.747 288.672 211.491 289.024C211.235 289.365 210.877 289.632 210.419 289.824C209.971 290.016 209.448 290.112 208.851 290.112C208.029 290.112 207.347 289.931 206.803 289.568C206.269 289.195 205.912 288.651 205.731 287.936L206.883 287.552Z" fill="#53565A"/>
<defs>
<filter id="filter0_dddd_18552_17573" x="47.8688" y="48.1014" width="267.783" height="162.647" filterUnits="userSpaceOnUse" color-interpolation-filters="sRGB">
<feFlood flood-opacity="0" result="BackgroundImageFix"/>
<feColorMatrix in="SourceAlpha" type="matrix" values="0 0 0 0 0 0 0 0 0 0 0 0 0 0 0 0 0 0 127 0" result="hardAlpha"/>
<feOffset dy="0.898601"/>
<feGaussianBlur stdDeviation="0.898601"/>
<feColorMatrix type="matrix" values="0 0 0 0 0 0 0 0 0 0 0 0 0 0 0 0 0 0 0.05 0"/>
<feBlend mode="normal" in2="BackgroundImageFix" result="effect1_dropShadow_18552_17573"/>
<feColorMatrix in="SourceAlpha" type="matrix" values="0 0 0 0 0 0 0 0 0 0 0 0 0 0 0 0 0 0 127 0" result="hardAlpha"/>
<feOffset dx="0.898601" dy="1.7972"/>
<feGaussianBlur stdDeviation="1.3479"/>
<feColorMatrix type="matrix" values="0 0 0 0 0 0 0 0 0 0 0 0 0 0 0 0 0 0 0.04 0"/>
<feBlend mode="normal" in2="effect1_dropShadow_18552_17573" result="effect2_dropShadow_18552_17573"/>
<feColorMatrix in="SourceAlpha" type="matrix" values="0 0 0 0 0 0 0 0 0 0 0 0 0 0 0 0 0 0 127 0" result="hardAlpha"/>
<feOffset dx="2.6958" dy="4.49301"/>
<feGaussianBlur stdDeviation="1.7972"/>
<feColorMatrix type="matrix" values="0 0 0 0 0 0 0 0 0 0 0 0 0 0 0 0 0 0 0.03 0"/>
<feBlend mode="normal" in2="effect2_dropShadow_18552_17573" result="effect3_dropShadow_18552_17573"/>
<feColorMatrix in="SourceAlpha" type="matrix" values="0 0 0 0 0 0 0 0 0 0 0 0 0 0 0 0 0 0 127 0" result="hardAlpha"/>
<feOffset dx="5.39161" dy="8.98601"/>
<feGaussianBlur stdDeviation="1.7972"/>
<feColorMatrix type="matrix" values="0 0 0 0 0 0 0 0 0 0 0 0 0 0 0 0 0 0 0.01 0"/>
<feBlend mode="normal" in2="effect3_dropShadow_18552_17573" result="effect4_dropShadow_18552_17573"/>
<feBlend mode="normal" in="SourceGraphic" in2="effect4_dropShadow_18552_17573" result="shape"/>
</filter>
<linearGradient id="paint0_linear_18552_17573" x1="244.662" y1="73.2623" x2="252.943" y2="84.5656" gradientUnits="userSpaceOnUse">
<stop stop-color="#0277E0"/>
<stop offset="1" stop-color="#1357B0"/>
</linearGradient>
<clipPath id="clip0_18552_17573">
<rect x="49.666" y="49" width="257" height="149.168" rx="17.972" fill="white"/>
</clipPath>
</defs>
</svg>
