<svg width="16" height="16" viewBox="0 0 16 16" fill="none" xmlns="http://www.w3.org/2000/svg">
<path d="M7.9987 11.333C8.18759 11.333 8.34603 11.269 8.47403 11.141C8.60203 11.013 8.66581 10.8548 8.66537 10.6663V7.99967C8.66537 7.81079 8.60137 7.65256 8.47337 7.52501C8.34537 7.39745 8.18714 7.33345 7.9987 7.33301C7.81025 7.33256 7.65203 7.39656 7.52403 7.52501C7.39603 7.65345 7.33203 7.81167 7.33203 7.99967V10.6663C7.33203 10.8552 7.39603 11.0137 7.52403 11.1417C7.65203 11.2697 7.81025 11.3335 7.9987 11.333ZM7.9987 5.99967C8.18759 5.99967 8.34603 5.93567 8.47403 5.80767C8.60203 5.67967 8.66581 5.52145 8.66537 5.33301C8.66492 5.14456 8.60092 4.98634 8.47337 4.85834C8.34581 4.73034 8.18759 4.66634 7.9987 4.66634C7.80981 4.66634 7.65159 4.73034 7.52403 4.85834C7.39648 4.98634 7.33248 5.14456 7.33203 5.33301C7.33159 5.52145 7.39559 5.6799 7.52403 5.80834C7.65248 5.93679 7.8107 6.00056 7.9987 5.99967ZM7.9987 14.6663C7.07648 14.6663 6.20981 14.4912 5.3987 14.141C4.58759 13.7908 3.88203 13.3159 3.28203 12.7163C2.68203 12.1168 2.20714 11.4112 1.85737 10.5997C1.50759 9.78812 1.33248 8.92145 1.33203 7.99967C1.33159 7.0779 1.5067 6.21123 1.85737 5.39967C2.20803 4.58812 2.68292 3.88256 3.28203 3.28301C3.88114 2.68345 4.5867 2.20856 5.3987 1.85834C6.2107 1.50812 7.07737 1.33301 7.9987 1.33301C8.92003 1.33301 9.7867 1.50812 10.5987 1.85834C11.4107 2.20856 12.1163 2.68345 12.7154 3.28301C13.3145 3.88256 13.7896 4.58812 14.1407 5.39967C14.4918 6.21123 14.6667 7.0779 14.6654 7.99967C14.664 8.92145 14.4889 9.78812 14.14 10.5997C13.7911 11.4112 13.3163 12.1168 12.7154 12.7163C12.1145 13.3159 11.4089 13.791 10.5987 14.1417C9.78848 14.4923 8.92181 14.6672 7.9987 14.6663ZM7.9987 13.333C9.48759 13.333 10.7487 12.8163 11.782 11.783C12.8154 10.7497 13.332 9.48856 13.332 7.99967C13.332 6.51079 12.8154 5.24967 11.782 4.21634C10.7487 3.18301 9.48759 2.66634 7.9987 2.66634C6.50981 2.66634 5.2487 3.18301 4.21537 4.21634C3.18203 5.24967 2.66537 6.51079 2.66537 7.99967C2.66537 9.48856 3.18203 10.7497 4.21537 11.783C5.2487 12.8163 6.50981 13.333 7.9987 13.333Z" fill="#A8AFB7"/>
</svg>
