<svg width="193" height="50" viewBox="0 0 193 50" fill="none" xmlns="http://www.w3.org/2000/svg">
<rect width="50" height="50" rx="7.6087" fill="#0077DF"/>
<path d="M17.6546 24.6087C18.2923 24.6087 18.8184 24.5131 19.2328 24.3218C19.6473 24.1145 19.9502 23.8276 20.1415 23.4609C20.3488 23.0783 20.4524 22.6319 20.4524 22.1218C20.4524 21.3406 20.2213 20.7348 19.7589 20.3044C19.3126 19.8739 18.6111 19.6587 17.6546 19.6587H14.0915V24.6087H17.6546ZM23.7524 22.1218C23.7524 22.7435 23.6408 23.3652 23.4176 23.987C23.1944 24.5928 22.8437 25.1507 22.3655 25.6609C21.8872 26.1551 21.2655 26.5536 20.5002 26.8565C19.751 27.1594 18.8343 27.3109 17.7502 27.3109H14.0915V33.6957H10.8633V16.9565H17.7502C19.1053 16.9565 20.2213 17.1957 21.0981 17.6739C21.9908 18.1363 22.6524 18.766 23.0828 19.5631C23.5292 20.3442 23.7524 21.1971 23.7524 22.1218Z" fill="white"/>
<path d="M35.8195 21.787C35.8195 21.0855 35.5963 20.5594 35.15 20.2087C34.7036 19.8421 34.0739 19.6587 33.2608 19.6587H29.1717V23.8913H33.2369C34.05 23.8913 34.6797 23.716 35.1261 23.3652C35.5884 22.9986 35.8195 22.4725 35.8195 21.787ZM25.9434 33.6957V16.9565H33.7152C34.879 16.9565 35.8594 17.1558 36.6565 17.5544C37.4536 17.937 38.0514 18.4631 38.45 19.1326C38.8645 19.7863 39.0717 20.5276 39.0717 21.3565C39.0717 22.0899 38.9362 22.7116 38.6652 23.2218C38.3942 23.7319 38.0195 24.1384 37.5413 24.4413C37.079 24.7283 36.5449 24.9276 35.9391 25.0392V25.2305C36.6724 25.3261 37.3021 25.5334 37.8282 25.8522C38.3543 26.1551 38.7608 26.5855 39.0478 27.1435C39.3347 27.7015 39.4782 28.379 39.4782 29.1761C39.4782 30.0529 39.263 30.8341 38.8326 31.5196C38.4021 32.1892 37.7724 32.7232 36.9434 33.1218C36.1304 33.5044 35.15 33.6957 34.0021 33.6957H25.9434ZM29.1717 30.9935H33.5717C34.4166 30.9935 35.0703 30.8102 35.5326 30.4435C36.0108 30.0609 36.25 29.5109 36.25 28.7935C36.25 28.0442 35.9949 27.4783 35.4847 27.0957C34.9905 26.7131 34.329 26.5218 33.5 26.5218H29.1717V30.9935Z" fill="white"/>
<path d="M67.1116 12.1304C67.7493 12.1304 68.2754 12.0348 68.6899 11.8435C69.1044 11.6362 69.4073 11.3493 69.5986 10.9826C69.8058 10.6 69.9094 10.1536 69.9094 9.64348C69.9094 8.86232 69.6783 8.25652 69.216 7.82609C68.7696 7.39565 68.0681 7.18044 67.1116 7.18044H63.5486V12.1304H67.1116ZM73.2094 9.64348C73.2094 10.2652 73.0978 10.887 72.8747 11.5087C72.6515 12.1145 72.3007 12.6725 71.8225 13.1826C71.3442 13.6768 70.7225 14.0754 69.9573 14.3783C69.208 14.6812 68.2913 14.8326 67.2073 14.8326H63.5486V21.2174H60.3203V4.47826H67.2073C68.5623 4.47826 69.6783 4.71739 70.5551 5.19565C71.4478 5.65797 72.1094 6.28768 72.5399 7.08478C72.9863 7.86594 73.2094 8.71884 73.2094 9.64348Z" fill="#0077DF"/>
<path d="M75.257 9.26087H78.0309L78.2461 10.7913C78.5809 10.3768 78.9555 10.042 79.37 9.78696C79.8005 9.51594 80.2708 9.33261 80.7809 9.23696C81.2911 9.12536 81.8251 9.13333 82.3831 9.26087V12.1304C81.9527 11.987 81.4983 11.9471 81.02 12.0109C80.5577 12.0746 80.1193 12.242 79.7048 12.513C79.3063 12.7841 78.9715 13.1746 78.7005 13.6848C78.4454 14.179 78.3179 14.8087 78.3179 15.5739V21.2174H75.257V9.26087Z" fill="#0077DF"/>
<path d="M89.5303 21.3848C88.3346 21.3848 87.2825 21.1217 86.3738 20.5957C85.4651 20.0696 84.7556 19.3362 84.2455 18.3957C83.7513 17.4551 83.5042 16.371 83.5042 15.1435C83.5042 13.9638 83.7513 12.9196 84.2455 12.0109C84.7397 11.1022 85.4252 10.3928 86.302 9.88261C87.1948 9.35652 88.2071 9.09348 89.339 9.09348C90.4868 9.09348 91.4991 9.34058 92.3759 9.83478C93.2527 10.329 93.9303 11.0225 94.4085 11.9152C94.9027 12.792 95.1498 13.8203 95.1498 15C95.1498 15.1754 95.1339 15.3746 95.102 15.5978C95.0861 15.8051 95.0622 16.0283 95.0303 16.2674H86.8042C86.868 16.7775 87.0274 17.2159 87.2825 17.5826C87.5535 17.9333 87.8803 18.2123 88.2629 18.4196C88.6614 18.6109 89.1078 18.7065 89.602 18.7065C90.1919 18.7065 90.718 18.587 91.1803 18.3478C91.6585 18.0928 92.0013 17.7659 92.2085 17.3674L94.9346 18.1804C94.4564 19.2007 93.739 19.9899 92.7825 20.5478C91.8419 21.1058 90.7578 21.3848 89.5303 21.3848ZM91.802 14.0435C91.7861 13.5971 91.6665 13.1986 91.4433 12.8478C91.2201 12.4812 90.9252 12.2022 90.5585 12.0109C90.1919 11.8036 89.7854 11.7 89.339 11.7C88.9404 11.7 88.5658 11.8036 88.2151 12.0109C87.8643 12.2181 87.5614 12.4971 87.3064 12.8478C87.0672 13.1826 86.9078 13.5812 86.8281 14.0435H91.802Z" fill="#0077DF"/>
<path d="M105.924 11.0543L105.542 11.1022V4H108.603V21.2174H105.829L105.637 19.7348C105.255 20.1812 104.745 20.5717 104.107 20.9065C103.485 21.2254 102.76 21.3848 101.931 21.3848C100.895 21.3848 99.978 21.1297 99.1809 20.6196C98.3838 20.1094 97.762 19.4 97.3157 18.4913C96.8693 17.5667 96.6461 16.4826 96.6461 15.2391C96.6461 13.9957 96.8693 12.9116 97.3157 11.987C97.762 11.0623 98.3838 10.3529 99.1809 9.8587C99.978 9.34855 100.895 9.09348 101.931 9.09348C102.871 9.09348 103.677 9.28478 104.346 9.66739C105.032 10.05 105.558 10.5123 105.924 11.0543ZM99.9461 15.2391C99.9461 16.2435 100.201 17.0565 100.711 17.6783C101.221 18.2841 101.891 18.587 102.72 18.587C103.23 18.587 103.692 18.4594 104.107 18.2043C104.537 17.9333 104.88 17.5507 105.135 17.0565C105.406 16.5623 105.542 15.9565 105.542 15.2391C105.542 14.5217 105.406 13.9159 105.135 13.4217C104.88 12.9275 104.537 12.5529 104.107 12.2978C103.692 12.0268 103.23 11.8913 102.72 11.8913C101.891 11.8913 101.221 12.2022 100.711 12.8239C100.201 13.4297 99.9461 14.2348 99.9461 15.2391Z" fill="#0077DF"/>
<path d="M111.703 9.26087H114.764V21.2174H111.703V9.26087ZM113.257 7.73044C112.684 7.73044 112.213 7.55507 111.847 7.20435C111.48 6.83768 111.297 6.3913 111.297 5.86522C111.297 5.33913 111.48 4.90073 111.847 4.55C112.213 4.18333 112.684 4 113.257 4C113.799 4 114.254 4.18333 114.62 4.55C115.003 4.90073 115.194 5.33913 115.194 5.86522C115.194 6.3913 115.003 6.83768 114.62 7.20435C114.254 7.55507 113.799 7.73044 113.257 7.73044Z" fill="#0077DF"/>
<path d="M123.137 21.3848C121.973 21.3848 120.953 21.1297 120.076 20.6196C119.2 20.1094 118.514 19.4 118.02 18.4913C117.526 17.5667 117.279 16.4986 117.279 15.287C117.279 14.0594 117.526 12.9833 118.02 12.0587C118.514 11.1341 119.208 10.4087 120.1 9.88261C120.993 9.35652 122.021 9.09348 123.185 9.09348C124.445 9.09348 125.56 9.40435 126.533 10.0261C127.521 10.6478 128.215 11.4848 128.613 12.537L125.768 13.35C125.576 12.8877 125.258 12.521 124.811 12.25C124.381 11.979 123.887 11.8435 123.329 11.8435C122.771 11.8435 122.276 11.987 121.846 12.2739C121.431 12.5609 121.105 12.9594 120.866 13.4696C120.642 13.9797 120.531 14.5775 120.531 15.263C120.531 16.2993 120.786 17.1203 121.296 17.7261C121.806 18.3319 122.492 18.6348 123.352 18.6348C123.895 18.6348 124.389 18.5072 124.835 18.2522C125.281 17.9812 125.616 17.6145 125.839 17.1522L128.661 17.9652C128.231 19.0015 127.513 19.8304 126.509 20.4522C125.521 21.0739 124.397 21.3848 123.137 21.3848Z" fill="#0077DF"/>
<path d="M131.622 9.26087V5.91304H134.731V9.26087H137.361V11.963H134.731V16.8174C134.731 17.4391 134.859 17.8775 135.114 18.1326C135.385 18.3877 135.719 18.5232 136.118 18.5391C136.532 18.5551 136.947 18.5312 137.361 18.4674V21.0978C136.628 21.2572 135.911 21.3051 135.209 21.2413C134.524 21.1775 133.91 20.9942 133.368 20.6913C132.826 20.3725 132.395 19.8942 132.077 19.2565C131.774 18.6188 131.622 17.8058 131.622 16.8174V11.963H129.924V9.26087H131.622Z" fill="#0077DF"/>
<path d="M146.333 21.2174L146.094 19.7587C145.696 20.2529 145.241 20.6435 144.731 20.9304C144.237 21.2174 143.567 21.3609 142.722 21.3609C141.925 21.3609 141.224 21.2254 140.618 20.9544C140.028 20.6674 139.566 20.2768 139.231 19.7826C138.896 19.2725 138.729 18.6746 138.729 17.9891C138.729 16.9848 139.088 16.1558 139.805 15.5022C140.538 14.8326 141.638 14.4101 143.105 14.2348L146.094 13.9V13.063C146.094 12.7283 145.943 12.4174 145.64 12.1304C145.337 11.8435 144.859 11.7 144.205 11.7C143.631 11.7 143.129 11.8435 142.699 12.1304C142.284 12.4015 142.005 12.8159 141.862 13.3739L139.231 12.4174C139.55 11.3493 140.156 10.5283 141.049 9.95435C141.941 9.38044 143.041 9.09348 144.349 9.09348C145.943 9.09348 147.138 9.49203 147.935 10.2891C148.748 11.0703 149.155 12.1065 149.155 13.3978V21.2174H146.333ZM146.094 16.0283L143.512 16.363C142.985 16.4268 142.587 16.5862 142.316 16.8413C142.045 17.0804 141.909 17.3754 141.909 17.7261C141.909 18.0609 142.045 18.3478 142.316 18.587C142.587 18.8101 142.97 18.9217 143.464 18.9217C144.022 18.9217 144.492 18.8181 144.875 18.6109C145.273 18.4036 145.576 18.1007 145.783 17.7022C145.991 17.3036 146.094 16.8094 146.094 16.2196V16.0283Z" fill="#0077DF"/>
<path d="M154.399 11.0543C154.766 10.5123 155.284 10.05 155.953 9.66739C156.639 9.28478 157.444 9.09348 158.369 9.09348C159.421 9.09348 160.337 9.34855 161.119 9.8587C161.916 10.3529 162.537 11.0623 162.984 11.987C163.446 12.9116 163.677 13.9957 163.677 15.2391C163.677 16.4826 163.446 17.5667 162.984 18.4913C162.537 19.4 161.916 20.1094 161.119 20.6196C160.322 21.1297 159.405 21.3848 158.369 21.3848C157.54 21.3848 156.806 21.2254 156.169 20.9065C155.531 20.5717 155.037 20.1812 154.686 19.7348L154.495 21.2174H151.721V4H154.782V11.1022L154.399 11.0543ZM160.377 15.2391C160.377 14.2348 160.114 13.4297 159.588 12.8239C159.078 12.2022 158.409 11.8913 157.58 11.8913C157.069 11.8913 156.599 12.0268 156.169 12.2978C155.754 12.5529 155.419 12.9275 155.164 13.4217C154.909 13.9159 154.782 14.5217 154.782 15.2391C154.782 15.9565 154.909 16.5623 155.164 17.0565C155.419 17.5507 155.754 17.9333 156.169 18.2043C156.599 18.4594 157.069 18.587 157.58 18.587C158.409 18.587 159.078 18.2841 159.588 17.6783C160.114 17.0565 160.377 16.2435 160.377 15.2391Z" fill="#0077DF"/>
<path d="M165.657 4H168.718V21.2174H165.657V4Z" fill="#0077DF"/>
<path d="M176.847 21.3848C175.652 21.3848 174.6 21.1217 173.691 20.5957C172.782 20.0696 172.073 19.3362 171.563 18.3957C171.068 17.4551 170.821 16.371 170.821 15.1435C170.821 13.9638 171.068 12.9196 171.563 12.0109C172.057 11.1022 172.742 10.3928 173.619 9.88261C174.512 9.35652 175.524 9.09348 176.656 9.09348C177.804 9.09348 178.816 9.34058 179.693 9.83478C180.57 10.329 181.247 11.0225 181.726 11.9152C182.22 12.792 182.467 13.8203 182.467 15C182.467 15.1754 182.451 15.3746 182.419 15.5978C182.403 15.8051 182.379 16.0283 182.347 16.2674H174.121C174.185 16.7775 174.345 17.2159 174.6 17.5826C174.871 17.9333 175.197 18.2123 175.58 18.4196C175.979 18.6109 176.425 18.7065 176.919 18.7065C177.509 18.7065 178.035 18.587 178.497 18.3478C178.976 18.0928 179.318 17.7659 179.526 17.3674L182.252 18.1804C181.774 19.2007 181.056 19.9899 180.1 20.5478C179.159 21.1058 178.075 21.3848 176.847 21.3848ZM179.119 14.0435C179.103 13.5971 178.984 13.1986 178.76 12.8478C178.537 12.4812 178.242 12.2022 177.876 12.0109C177.509 11.8036 177.103 11.7 176.656 11.7C176.258 11.7 175.883 11.8036 175.532 12.0109C175.182 12.2181 174.879 12.4971 174.624 12.8478C174.384 13.1826 174.225 13.5812 174.145 14.0435H179.119Z" fill="#0077DF"/>
<path d="M69.8761 33.161C69.8761 32.4596 69.6529 31.9335 69.2065 31.5828C68.7601 31.2161 68.1304 31.0328 67.3174 31.0328H63.2283V35.2654H67.2935C68.1065 35.2654 68.7362 35.09 69.1826 34.7393C69.6449 34.3726 69.8761 33.8465 69.8761 33.161ZM60 45.0697V28.3306H67.7717C68.9355 28.3306 69.9159 28.5299 70.713 28.9284C71.5101 29.311 72.108 29.8371 72.5065 30.5067C72.921 31.1603 73.1283 31.9016 73.1283 32.7306C73.1283 33.4639 72.9927 34.0857 72.7217 34.5958C72.4507 35.1059 72.0761 35.5125 71.5978 35.8154C71.1355 36.1023 70.6014 36.3016 69.9957 36.4132V36.6045C70.729 36.7001 71.3587 36.9074 71.8848 37.2262C72.4109 37.5291 72.8174 37.9596 73.1043 38.5175C73.3913 39.0755 73.5348 39.753 73.5348 40.5501C73.5348 41.427 73.3196 42.2081 72.8891 42.8936C72.4587 43.5632 71.829 44.0972 71 44.4958C70.1869 44.8784 69.2065 45.0697 68.0587 45.0697H60ZM63.2283 42.3675H67.6283C68.4732 42.3675 69.1268 42.1842 69.5891 41.8175C70.0674 41.4349 70.3065 40.8849 70.3065 40.1675C70.3065 39.4183 70.0515 38.8523 69.5413 38.4697C69.0471 38.0871 68.3855 37.8958 67.5565 37.8958H63.2283V42.3675Z" fill="#0077DF"/>
<path d="M81.2757 45.2371C80.08 45.2371 79.0279 44.9741 78.1192 44.448C77.2105 43.9219 76.5011 43.1886 75.9909 42.248C75.4967 41.3074 75.2496 40.2233 75.2496 38.9958C75.2496 37.8161 75.4967 36.7719 75.9909 35.8632C76.4851 34.9545 77.1706 34.2451 78.0474 33.7349C78.9402 33.2088 79.9525 32.9458 81.0844 32.9458C82.2322 32.9458 83.2445 33.1929 84.1213 33.6871C84.9981 34.1813 85.6757 34.8748 86.154 35.7675C86.6482 36.6444 86.8952 37.6726 86.8952 38.8523C86.8952 39.0277 86.8793 39.227 86.8474 39.4501C86.8315 39.6574 86.8076 39.8806 86.7757 40.1197H78.5496C78.6134 40.6299 78.7728 41.0683 79.0279 41.4349C79.2989 41.7857 79.6257 42.0646 80.0083 42.2719C80.4069 42.4632 80.8532 42.5588 81.3474 42.5588C81.9373 42.5588 82.4634 42.4393 82.9257 42.2001C83.4039 41.9451 83.7467 41.6183 83.9539 41.2197L86.68 42.0328C86.2018 43.053 85.4844 43.8422 84.5279 44.4001C83.5873 44.9581 82.5032 45.2371 81.2757 45.2371ZM83.5474 37.8958C83.5315 37.4494 83.4119 37.0509 83.1887 36.7001C82.9655 36.3335 82.6706 36.0545 82.304 35.8632C81.9373 35.6559 81.5308 35.5523 81.0844 35.5523C80.6858 35.5523 80.3112 35.6559 79.9605 35.8632C79.6097 36.0704 79.3068 36.3494 79.0518 36.7001C78.8126 37.0349 78.6532 37.4335 78.5735 37.8958H83.5474Z" fill="#0077DF"/>
<path d="M88.9893 33.1132H91.7632L91.9785 34.3328C92.3611 33.9023 92.8234 33.5675 93.3654 33.3284C93.9234 33.0733 94.5212 32.9458 95.1589 32.9458C96.0995 32.9458 96.8966 33.1451 97.5502 33.5436C98.2198 33.9422 98.7299 34.5241 99.0806 35.2893C99.4473 36.0386 99.6306 36.9712 99.6306 38.0871V45.0697H96.5459V38.4936C96.5459 37.569 96.3625 36.8755 95.9958 36.4132C95.6292 35.9509 95.0792 35.7197 94.3459 35.7197C93.5966 35.7197 93.0227 35.9588 92.6241 36.4371C92.2415 36.8994 92.0502 37.5929 92.0502 38.5175V45.0697H88.9893V33.1132Z" fill="#0077DF"/>
<path d="M107.583 45.2371C106.387 45.2371 105.335 44.9741 104.426 44.448C103.518 43.9219 102.808 43.1886 102.298 42.248C101.804 41.3074 101.557 40.2233 101.557 38.9958C101.557 37.8161 101.804 36.7719 102.298 35.8632C102.792 34.9545 103.478 34.2451 104.355 33.7349C105.247 33.2088 106.26 32.9458 107.392 32.9458C108.539 32.9458 109.552 33.1929 110.428 33.6871C111.305 34.1813 111.983 34.8748 112.461 35.7675C112.955 36.6444 113.202 37.6726 113.202 38.8523C113.202 39.0277 113.186 39.227 113.155 39.4501C113.139 39.6574 113.115 39.8806 113.083 40.1197H104.857C104.921 40.6299 105.08 41.0683 105.335 41.4349C105.606 41.7857 105.933 42.0646 106.315 42.2719C106.714 42.4632 107.16 42.5588 107.655 42.5588C108.244 42.5588 108.771 42.4393 109.233 42.2001C109.711 41.9451 110.054 41.6183 110.261 41.2197L112.987 42.0328C112.509 43.053 111.792 43.8422 110.835 44.4001C109.894 44.9581 108.81 45.2371 107.583 45.2371ZM109.855 37.8958C109.839 37.4494 109.719 37.0509 109.496 36.7001C109.273 36.3335 108.978 36.0545 108.611 35.8632C108.244 35.6559 107.838 35.5523 107.392 35.5523C106.993 35.5523 106.618 35.6559 106.268 35.8632C105.917 36.0704 105.614 36.3494 105.359 36.7001C105.12 37.0349 104.96 37.4335 104.881 37.8958H109.855Z" fill="#0077DF"/>
<path d="M124.001 31.5349C123.443 31.5349 122.973 31.3596 122.59 31.0088C122.223 30.6422 122.04 30.2038 122.04 29.6936C122.04 29.1675 122.223 28.7291 122.59 28.3784C122.973 28.0277 123.443 27.8523 124.001 27.8523C124.559 27.8523 125.021 28.0277 125.388 28.3784C125.77 28.7291 125.962 29.1675 125.962 29.6936C125.962 30.2038 125.77 30.6422 125.388 31.0088C125.021 31.3596 124.559 31.5349 124.001 31.5349ZM125.531 33.0893V45.0697H122.446V35.7915H114.46V33.0893H125.531ZM115.87 32.0371C115.87 31.0009 116.054 30.1559 116.42 29.5023C116.803 28.8487 117.361 28.3784 118.094 28.0915C118.844 27.8045 119.776 27.7248 120.892 27.8523V30.5545C120.191 30.4588 119.689 30.5545 119.386 30.8415C119.099 31.1284 118.955 31.5748 118.955 32.1806V45.0697H115.87V32.0371Z" fill="#0077DF"/>
<path d="M129.556 33.1132V29.7654H132.665V33.1132H135.295V35.8154H132.665V40.6697C132.665 41.2915 132.792 41.7299 133.047 41.9849C133.318 42.24 133.653 42.3755 134.052 42.3915C134.466 42.4074 134.881 42.3835 135.295 42.3197V44.9501C134.562 45.1096 133.845 45.1574 133.143 45.0936C132.458 45.0299 131.844 44.8465 131.302 44.5436C130.76 44.2248 130.329 43.7465 130.01 43.1088C129.708 42.4712 129.556 41.6581 129.556 40.6697V35.8154H127.858V33.1132H129.556Z" fill="#0077DF"/>
<path d="M139.389 41.1719C139.485 41.5704 139.644 41.8733 139.867 42.0806C140.106 42.2878 140.369 42.4393 140.656 42.5349C140.959 42.6146 141.262 42.6545 141.565 42.6545C142.123 42.6545 142.561 42.5509 142.88 42.3436C143.199 42.1204 143.358 41.8415 143.358 41.5067C143.358 41.2197 143.247 40.9965 143.024 40.8371C142.8 40.6617 142.513 40.5342 142.163 40.4545C141.812 40.3588 141.453 40.2632 141.087 40.1675C140.656 40.0559 140.194 39.9364 139.7 39.8088C139.221 39.6654 138.767 39.4661 138.337 39.211C137.906 38.9559 137.548 38.6291 137.261 38.2306C136.974 37.8161 136.83 37.298 136.83 36.6762C136.83 35.9429 137.029 35.2972 137.428 34.7393C137.842 34.1813 138.408 33.7429 139.126 33.4241C139.859 33.1052 140.704 32.9458 141.661 32.9458C142.792 32.9458 143.749 33.1849 144.53 33.6632C145.311 34.1415 145.877 34.827 146.228 35.7197L143.526 36.4849C143.446 36.2617 143.311 36.0784 143.119 35.9349C142.928 35.7915 142.697 35.6878 142.426 35.6241C142.171 35.5603 141.908 35.5284 141.637 35.5284C141.174 35.5284 140.792 35.6241 140.489 35.8154C140.186 35.9907 140.035 36.2378 140.035 36.5567C140.035 36.748 140.09 36.9074 140.202 37.0349C140.313 37.1465 140.465 37.2422 140.656 37.3219C140.864 37.4016 141.095 37.4733 141.35 37.5371C141.621 37.6009 141.916 37.6726 142.235 37.7523C142.729 37.8799 143.223 38.0313 143.717 38.2067C144.227 38.3661 144.69 38.5733 145.104 38.8284C145.535 39.0835 145.877 39.4262 146.132 39.8567C146.387 40.2871 146.531 40.8291 146.563 41.4828C146.563 42.1842 146.363 42.8219 145.965 43.3958C145.566 43.9538 144.992 44.4001 144.243 44.7349C143.494 45.0697 142.585 45.2371 141.517 45.2371C140.274 45.2371 139.213 44.9741 138.337 44.448C137.476 43.9219 136.91 43.1009 136.639 41.9849L139.389 41.1719Z" fill="#0077DF"/>
<path d="M150.674 36.2373H156.174V37.2273H154.024V43.2373H152.834V37.2273H150.674V36.2373ZM158.255 43.2373H157.065V36.2373H158.395L160.755 41.6773L163.115 36.2373H164.435V43.2373H163.255V38.5073L161.205 43.2373H160.305L158.255 38.5073V43.2373Z" fill="#0077DF"/>
</svg>
