<svg width="173" height="46" viewBox="0 0 173 46" fill="none" xmlns="http://www.w3.org/2000/svg">
<rect width="45.2218" height="45.2218" rx="6.88159" fill="#0077DF"/>
<path d="M15.9704 22.257C16.5472 22.257 17.023 22.1705 17.3979 21.9975C17.7728 21.8101 18.0467 21.5505 18.2197 21.2189C18.4072 20.8728 18.5009 20.4691 18.5009 20.0077C18.5009 19.3012 18.2918 18.7533 17.8737 18.364C17.47 17.9747 16.8355 17.7801 15.9704 17.7801H12.7479V22.257H15.9704ZM21.4855 20.0077C21.4855 20.5701 21.3846 21.1324 21.1827 21.6947C20.9809 22.2426 20.6637 22.7473 20.2311 23.2087C19.7986 23.6556 19.2362 24.0161 18.5441 24.29C17.8665 24.564 17.0374 24.701 16.0569 24.701H12.7479V30.4756H9.82812V15.3361H16.0569C17.2825 15.3361 18.2918 15.5524 19.0848 15.985C19.8923 16.4031 20.4907 16.9726 20.88 17.6936C21.2837 18.4001 21.4855 19.1715 21.4855 20.0077Z" fill="white"/>
<path d="M32.3995 19.7049C32.3995 19.0705 32.1976 18.5947 31.7939 18.2775C31.3902 17.9459 30.8206 17.7801 30.0853 17.7801H26.3869V21.6082H30.0637C30.799 21.6082 31.3686 21.4496 31.7723 21.1324C32.1904 20.8008 32.3995 20.3249 32.3995 19.7049ZM23.4672 30.4756V15.3361H30.4962C31.5488 15.3361 32.4355 15.5164 33.1565 15.8768C33.8774 16.2229 34.4181 16.6987 34.7785 17.3043C35.1534 17.8954 35.3409 18.5659 35.3409 19.3156C35.3409 19.9789 35.2183 20.5412 34.9732 21.0026C34.7281 21.464 34.3892 21.8317 33.9567 22.1056C33.5385 22.3652 33.0555 22.5454 32.5076 22.6463V22.8194C33.1709 22.9059 33.7404 23.0933 34.2162 23.3817C34.692 23.6556 35.0597 24.0449 35.3192 24.5496C35.5788 25.0542 35.7085 25.667 35.7085 26.3879C35.7085 27.181 35.5139 27.8875 35.1246 28.5075C34.7353 29.1131 34.1658 29.5961 33.416 29.9565C32.6806 30.3026 31.7939 30.4756 30.7558 30.4756H23.4672ZM26.3869 28.0317H30.3665C31.1306 28.0317 31.7218 27.8658 32.1399 27.5342C32.5725 27.1882 32.7888 26.6907 32.7888 26.0419C32.7888 25.3642 32.5581 24.8524 32.0967 24.5063C31.6497 24.1603 31.0513 23.9873 30.3016 23.9873H26.3869V28.0317Z" fill="white"/>
<path d="M60.7009 10.9712C61.2776 10.9712 61.7535 10.8847 62.1283 10.7117C62.5032 10.5242 62.7772 10.2647 62.9502 9.93307C63.1376 9.58702 63.2314 9.1833 63.2314 8.72191C63.2314 8.0154 63.0223 7.46749 62.6041 7.07819C62.2004 6.68889 61.566 6.49424 60.7009 6.49424H57.4784V10.9712H60.7009ZM66.216 8.72191C66.216 9.28423 66.1151 9.84656 65.9132 10.4089C65.7114 10.9568 65.3941 11.4614 64.9616 11.9228C64.529 12.3698 63.9667 12.7303 63.2746 13.0042C62.5969 13.2782 61.7679 13.4151 60.7874 13.4151H57.4784V19.1898H54.5586V4.05029H60.7874C62.013 4.05029 63.0223 4.26657 63.8153 4.69913C64.6227 5.11727 65.2211 5.6868 65.6104 6.40773C66.0141 7.11424 66.216 7.88563 66.216 8.72191Z" fill="#0077DF"/>
<path d="M68.0679 8.37586H70.5767L70.7714 9.76004C71.0742 9.38516 71.413 9.08237 71.7879 8.85167C72.1772 8.60656 72.6025 8.44074 73.0639 8.35423C73.5253 8.2533 74.0083 8.26051 74.513 8.37586V10.9712C74.1237 10.8414 73.7127 10.8054 73.2802 10.8631C72.8621 10.9207 72.4655 11.0721 72.0907 11.3172C71.7302 11.5624 71.4274 11.9156 71.1823 12.377C70.9516 12.824 70.8362 13.3935 70.8362 14.0856V19.1898H68.0679V8.37586Z" fill="#0077DF"/>
<path d="M80.9772 19.3412C79.8958 19.3412 78.9442 19.1033 78.1223 18.6275C77.3004 18.1516 76.6588 17.4884 76.1974 16.6377C75.7504 15.787 75.527 14.8065 75.527 13.6963C75.527 12.6293 75.7504 11.6849 76.1974 10.8631C76.6444 10.0412 77.2644 9.39958 78.0574 8.93819C78.8648 8.46237 79.7804 8.22447 80.8041 8.22447C81.8423 8.22447 82.7579 8.44795 83.5509 8.89493C84.3439 9.34191 84.9567 9.96911 85.3892 10.7766C85.8362 11.5696 86.0597 12.4996 86.0597 13.5665C86.0597 13.7251 86.0453 13.9054 86.0165 14.1072C86.002 14.2947 85.9804 14.4965 85.9516 14.7128H78.5116C78.5693 15.1742 78.7135 15.5707 78.9442 15.9024C79.1893 16.2196 79.4848 16.4719 79.8309 16.6593C80.1914 16.8323 80.5951 16.9189 81.0421 16.9189C81.5755 16.9189 82.0514 16.8107 82.4695 16.5944C82.902 16.3637 83.212 16.0682 83.3995 15.7077L85.8651 16.443C85.4325 17.3658 84.7837 18.0796 83.9186 18.5842C83.0679 19.0889 82.0874 19.3412 80.9772 19.3412ZM83.0318 12.7014C83.0174 12.2977 82.9093 11.9372 82.7074 11.62C82.5055 11.2884 82.2388 11.0361 81.9072 10.8631C81.5755 10.6756 81.2079 10.5819 80.8041 10.5819C80.4437 10.5819 80.1048 10.6756 79.7876 10.8631C79.4704 11.0505 79.1965 11.3028 78.9658 11.62C78.7495 11.9228 78.6053 12.2833 78.5332 12.7014H83.0318Z" fill="#0077DF"/>
<path d="M95.8046 9.99795L95.4585 10.0412V3.61774H98.2269V19.1898H95.7181L95.545 17.8489C95.199 18.2526 94.7376 18.6058 94.1609 18.9086C93.5985 19.197 92.9425 19.3412 92.1927 19.3412C91.2555 19.3412 90.4264 19.1105 89.7055 18.6491C88.9846 18.1877 88.4223 17.5461 88.0186 16.7242C87.6148 15.8879 87.413 14.9075 87.413 13.7828C87.413 12.6582 87.6148 11.6777 88.0186 10.8414C88.4223 10.0052 88.9846 9.36353 89.7055 8.91656C90.4264 8.45516 91.2555 8.22447 92.1927 8.22447C93.0434 8.22447 93.7716 8.39749 94.3771 8.74354C94.9971 9.08958 95.4729 9.50772 95.8046 9.99795ZM90.3976 13.7828C90.3976 14.6912 90.6283 15.4265 91.0897 15.9889C91.5511 16.5368 92.1567 16.8107 92.9064 16.8107C93.3678 16.8107 93.786 16.6954 94.1609 16.4647C94.5502 16.2196 94.8602 15.8735 95.0909 15.4265C95.336 14.9796 95.4585 14.4317 95.4585 13.7828C95.4585 13.134 95.336 12.5861 95.0909 12.1391C94.8602 11.6921 94.5502 11.3533 94.1609 11.1226C93.786 10.8775 93.3678 10.7549 92.9064 10.7549C92.1567 10.7549 91.5511 11.0361 91.0897 11.5984C90.6283 12.1463 90.3976 12.8745 90.3976 13.7828Z" fill="#0077DF"/>
<path d="M101.031 8.37586H103.799V19.1898H101.031V8.37586ZM102.437 6.99168C101.918 6.99168 101.492 6.83308 101.161 6.51587C100.829 6.18424 100.663 5.78052 100.663 5.30471C100.663 4.8289 100.829 4.43239 101.161 4.11518C101.492 3.78355 101.918 3.61774 102.437 3.61774C102.927 3.61774 103.338 3.78355 103.67 4.11518C104.016 4.43239 104.189 4.8289 104.189 5.30471C104.189 5.78052 104.016 6.18424 103.67 6.51587C103.338 6.83308 102.927 6.99168 102.437 6.99168Z" fill="#0077DF"/>
<path d="M111.373 19.3412C110.32 19.3412 109.397 19.1105 108.604 18.6491C107.811 18.1877 107.191 17.5461 106.744 16.7242C106.297 15.8879 106.074 14.9219 106.074 13.8261C106.074 12.7158 106.297 11.7426 106.744 10.9063C107.191 10.07 107.818 9.414 108.626 8.93819C109.433 8.46237 110.363 8.22447 111.416 8.22447C112.555 8.22447 113.564 8.50563 114.444 9.06795C115.338 9.63028 115.965 10.3873 116.325 11.3389L113.752 12.0742C113.579 11.6561 113.29 11.3245 112.887 11.0793C112.497 10.8342 112.05 10.7117 111.546 10.7117C111.041 10.7117 110.594 10.8414 110.205 11.101C109.83 11.3605 109.534 11.721 109.318 12.1824C109.116 12.6438 109.015 13.1845 109.015 13.8045C109.015 14.7417 109.246 15.4842 109.707 16.0321C110.169 16.58 110.789 16.854 111.567 16.854C112.057 16.854 112.504 16.7386 112.908 16.5079C113.312 16.2628 113.615 15.9312 113.817 15.5131L116.369 16.2484C115.979 17.1856 115.33 17.9354 114.422 18.4977C113.528 19.06 112.512 19.3412 111.373 19.3412Z" fill="#0077DF"/>
<path d="M119.047 8.37586V5.34796H121.858V8.37586H124.237V10.8198H121.858V15.2103C121.858 15.7726 121.974 16.1691 122.204 16.3998C122.45 16.6305 122.752 16.753 123.113 16.7675C123.488 16.7819 123.863 16.7603 124.237 16.7026V19.0816C123.574 19.2258 122.925 19.2691 122.291 19.2114C121.671 19.1537 121.116 18.9879 120.626 18.714C120.135 18.4256 119.746 17.993 119.458 17.4163C119.184 16.8396 119.047 16.1042 119.047 15.2103V10.8198H117.511V8.37586H119.047Z" fill="#0077DF"/>
<path d="M132.352 19.1898L132.136 17.8705C131.775 18.3175 131.364 18.6707 130.903 18.9302C130.456 19.1898 129.85 19.3196 129.086 19.3196C128.365 19.3196 127.731 19.197 127.183 18.9519C126.649 18.6923 126.231 18.3391 125.928 17.8921C125.626 17.4307 125.474 16.89 125.474 16.27C125.474 15.3617 125.799 14.6119 126.447 14.0207C127.111 13.4151 128.106 13.0331 129.432 12.8745L132.136 12.5717V11.8147C132.136 11.5119 131.999 11.2307 131.725 10.9712C131.451 10.7117 131.018 10.5819 130.427 10.5819C129.908 10.5819 129.454 10.7117 129.064 10.9712C128.69 11.2163 128.437 11.5912 128.307 12.0959L125.928 11.2307C126.217 10.2647 126.765 9.52214 127.572 9.00307C128.38 8.484 129.374 8.22447 130.557 8.22447C131.999 8.22447 133.08 8.58493 133.801 9.30586C134.536 10.0124 134.904 10.9496 134.904 12.1175V19.1898H132.352ZM132.136 14.4965L129.8 14.7993C129.324 14.857 128.964 15.0012 128.718 15.2319C128.473 15.4482 128.351 15.7149 128.351 16.0321C128.351 16.3349 128.473 16.5944 128.718 16.8107C128.964 17.0126 129.31 17.1135 129.757 17.1135C130.261 17.1135 130.687 17.0198 131.033 16.8323C131.393 16.6449 131.667 16.371 131.854 16.0105C132.042 15.65 132.136 15.2031 132.136 14.6696V14.4965Z" fill="#0077DF"/>
<path d="M139.647 9.99795C139.979 9.50772 140.447 9.08958 141.053 8.74354C141.673 8.39749 142.401 8.22447 143.237 8.22447C144.189 8.22447 145.018 8.45516 145.724 8.91656C146.445 9.36353 147.008 10.0052 147.411 10.8414C147.829 11.6777 148.039 12.6582 148.039 13.7828C148.039 14.9075 147.829 15.8879 147.411 16.7242C147.008 17.5461 146.445 18.1877 145.724 18.6491C145.003 19.1105 144.174 19.3412 143.237 19.3412C142.487 19.3412 141.824 19.197 141.247 18.9086C140.671 18.6058 140.224 18.2526 139.906 17.8489L139.733 19.1898H137.225V3.61774H139.993V10.0412L139.647 9.99795ZM145.054 13.7828C145.054 12.8745 144.816 12.1463 144.34 11.5984C143.879 11.0361 143.273 10.7549 142.523 10.7549C142.062 10.7549 141.637 10.8775 141.247 11.1226C140.872 11.3533 140.57 11.6921 140.339 12.1391C140.108 12.5861 139.993 13.134 139.993 13.7828C139.993 14.4317 140.108 14.9796 140.339 15.4265C140.57 15.8735 140.872 16.2196 141.247 16.4647C141.637 16.6954 142.062 16.8107 142.523 16.8107C143.273 16.8107 143.879 16.5368 144.34 15.9889C144.816 15.4265 145.054 14.6912 145.054 13.7828Z" fill="#0077DF"/>
<path d="M149.829 3.61774H152.597V19.1898H149.829V3.61774Z" fill="#0077DF"/>
<path d="M159.95 19.3412C158.869 19.3412 157.917 19.1033 157.095 18.6275C156.273 18.1516 155.632 17.4884 155.17 16.6377C154.723 15.787 154.5 14.8065 154.5 13.6963C154.5 12.6293 154.723 11.6849 155.17 10.8631C155.617 10.0412 156.237 9.39958 157.03 8.93819C157.838 8.46237 158.753 8.22447 159.777 8.22447C160.815 8.22447 161.731 8.44795 162.524 8.89493C163.317 9.34191 163.93 9.96911 164.362 10.7766C164.809 11.5696 165.033 12.4996 165.033 13.5665C165.033 13.7251 165.018 13.9054 164.989 14.1072C164.975 14.2947 164.953 14.4965 164.924 14.7128H157.484C157.542 15.1742 157.686 15.5707 157.917 15.9024C158.162 16.2196 158.458 16.4719 158.804 16.6593C159.164 16.8323 159.568 16.9189 160.015 16.9189C160.548 16.9189 161.024 16.8107 161.442 16.5944C161.875 16.3637 162.185 16.0682 162.372 15.7077L164.838 16.443C164.405 17.3658 163.757 18.0796 162.891 18.5842C162.041 19.0889 161.06 19.3412 159.95 19.3412ZM162.005 12.7014C161.99 12.2977 161.882 11.9372 161.68 11.62C161.478 11.2884 161.212 11.0361 160.88 10.8631C160.548 10.6756 160.181 10.5819 159.777 10.5819C159.417 10.5819 159.078 10.6756 158.761 10.8631C158.443 11.0505 158.169 11.3028 157.939 11.62C157.722 11.9228 157.578 12.2833 157.506 12.7014H162.005Z" fill="#0077DF"/>
<path d="M63.1979 29.9921C63.1979 29.3577 62.9961 28.8818 62.5923 28.5646C62.1886 28.233 61.6191 28.0672 60.8837 28.0672H57.1854V31.8953H60.8621C61.5975 31.8953 62.167 31.7367 62.5707 31.4195C62.9888 31.0879 63.1979 30.6121 63.1979 29.9921ZM54.2656 40.7627V25.6232H61.2947C62.3472 25.6232 63.234 25.8035 63.9549 26.1639C64.6758 26.51 65.2165 26.9858 65.577 27.5914C65.9519 28.1825 66.1393 28.853 66.1393 29.6028C66.1393 30.266 66.0167 30.8283 65.7716 31.2897C65.5265 31.7511 65.1877 32.1188 64.7551 32.3928C64.337 32.6523 63.854 32.8325 63.3061 32.9335V33.1065C63.9693 33.193 64.5388 33.3804 65.0147 33.6688C65.4905 33.9428 65.8581 34.3321 66.1177 34.8367C66.3772 35.3414 66.507 35.9541 66.507 36.6751C66.507 37.4681 66.3123 38.1746 65.923 38.7946C65.5337 39.4002 64.9642 39.8832 64.2144 40.2437C63.4791 40.5897 62.5923 40.7627 61.5542 40.7627H54.2656ZM57.1854 38.3188H61.1649C61.9291 38.3188 62.5202 38.153 62.9384 37.8213C63.3709 37.4753 63.5872 36.9779 63.5872 36.329C63.5872 35.6514 63.3565 35.1395 62.8951 34.7935C62.4482 34.4474 61.8498 34.2744 61.1 34.2744H57.1854V38.3188Z" fill="#0077DF"/>
<path d="M73.5081 40.9141C72.4268 40.9141 71.4751 40.6762 70.6533 40.2004C69.8314 39.7246 69.1898 39.0613 68.7284 38.2106C68.2814 37.36 68.0579 36.3795 68.0579 35.2693C68.0579 34.2023 68.2814 33.2579 68.7284 32.436C69.1754 31.6142 69.7954 30.9725 70.5884 30.5111C71.3958 30.0353 72.3114 29.7974 73.3351 29.7974C74.3733 29.7974 75.2888 30.0209 76.0819 30.4679C76.8749 30.9149 77.4877 31.5421 77.9202 32.3495C78.3672 33.1425 78.5907 34.0725 78.5907 35.1395C78.5907 35.2981 78.5763 35.4783 78.5474 35.6802C78.533 35.8676 78.5114 36.0695 78.4825 36.2858H71.0426C71.1002 36.7472 71.2444 37.1437 71.4751 37.4753C71.7202 37.7925 72.0158 38.0448 72.3619 38.2323C72.7223 38.4053 73.1261 38.4918 73.573 38.4918C74.1065 38.4918 74.5823 38.3837 75.0005 38.1674C75.433 37.9367 75.743 37.6411 75.9305 37.2807L78.396 38.016C77.9635 38.9388 77.3146 39.6525 76.4495 40.1572C75.5988 40.6618 74.6184 40.9141 73.5081 40.9141ZM75.5628 34.2744C75.5484 33.8707 75.4402 33.5102 75.2384 33.193C75.0365 32.8614 74.7698 32.609 74.4381 32.436C74.1065 32.2486 73.7388 32.1549 73.3351 32.1549C72.9747 32.1549 72.6358 32.2486 72.3186 32.436C72.0014 32.6235 71.7274 32.8758 71.4968 33.193C71.2805 33.4958 71.1363 33.8562 71.0642 34.2744H75.5628Z" fill="#0077DF"/>
<path d="M80.4846 29.9488H82.9935L83.1881 31.0518C83.5342 30.6625 83.9523 30.3597 84.4425 30.1435C84.9472 29.9128 85.4879 29.7974 86.0646 29.7974C86.9153 29.7974 87.6362 29.9777 88.2274 30.3381C88.833 30.6986 89.2944 31.2249 89.6116 31.9169C89.9432 32.5946 90.109 33.4381 90.109 34.4474V40.7627H87.319V34.8151C87.319 33.9788 87.1532 33.3516 86.8216 32.9335C86.49 32.5153 85.9925 32.3062 85.3293 32.3062C84.6516 32.3062 84.1325 32.5225 83.7721 32.9551C83.426 33.3732 83.253 34.0004 83.253 34.8367V40.7627H80.4846V29.9488Z" fill="#0077DF"/>
<path d="M97.3013 40.9141C96.2199 40.9141 95.2683 40.6762 94.4464 40.2004C93.6245 39.7246 92.9829 39.0613 92.5215 38.2106C92.0746 37.36 91.8511 36.3795 91.8511 35.2693C91.8511 34.2023 92.0746 33.2579 92.5215 32.436C92.9685 31.6142 93.5885 30.9725 94.3815 30.5111C95.189 30.0353 96.1046 29.7974 97.1283 29.7974C98.1664 29.7974 99.082 30.0209 99.875 30.4679C100.668 30.9149 101.281 31.5421 101.713 32.3495C102.16 33.1425 102.384 34.0725 102.384 35.1395C102.384 35.2981 102.369 35.4783 102.341 35.6802C102.326 35.8676 102.305 36.0695 102.276 36.2858H94.8357C94.8934 36.7472 95.0376 37.1437 95.2683 37.4753C95.5134 37.7925 95.809 38.0448 96.155 38.2323C96.5155 38.4053 96.9192 38.4918 97.3662 38.4918C97.8997 38.4918 98.3755 38.3837 98.7936 38.1674C99.2262 37.9367 99.5362 37.6411 99.7236 37.2807L102.189 38.016C101.757 38.9388 101.108 39.6525 100.243 40.1572C99.392 40.6618 98.4115 40.9141 97.3013 40.9141ZM99.3559 34.2744C99.3415 33.8707 99.2334 33.5102 99.0315 33.193C98.8297 32.8614 98.5629 32.609 98.2313 32.436C97.8997 32.2486 97.532 32.1549 97.1283 32.1549C96.7678 32.1549 96.429 32.2486 96.1118 32.436C95.7945 32.6235 95.5206 32.8758 95.2899 33.193C95.0736 33.4958 94.9295 33.8562 94.8574 34.2744H99.3559Z" fill="#0077DF"/>
<path d="M112.15 28.5214C111.646 28.5214 111.22 28.3628 110.874 28.0456C110.543 27.7139 110.377 27.3174 110.377 26.856C110.377 26.3802 110.543 25.9837 110.874 25.6665C111.22 25.3493 111.646 25.1907 112.15 25.1907C112.655 25.1907 113.073 25.3493 113.405 25.6665C113.751 25.9837 113.924 26.3802 113.924 26.856C113.924 27.3174 113.751 27.7139 113.405 28.0456C113.073 28.3628 112.655 28.5214 112.15 28.5214ZM113.535 29.9272V40.7627H110.745V32.3711H103.521V29.9272H113.535ZM104.797 28.9756C104.797 28.0384 104.963 27.2742 105.294 26.683C105.64 26.0918 106.145 25.6665 106.808 25.407C107.486 25.1474 108.329 25.0753 109.339 25.1907V27.6346C108.704 27.5481 108.25 27.6346 107.976 27.8942C107.717 28.1537 107.587 28.5574 107.587 29.1053V40.7627H104.797V28.9756Z" fill="#0077DF"/>
<path d="M117.175 29.9488V26.9209H119.986V29.9488H122.365V32.3928H119.986V36.7832C119.986 37.3455 120.102 37.742 120.332 37.9727C120.578 38.2034 120.88 38.326 121.241 38.3404C121.616 38.3548 121.991 38.3332 122.365 38.2755V40.6546C121.702 40.7988 121.053 40.842 120.419 40.7844C119.799 40.7267 119.244 40.5609 118.754 40.2869C118.263 39.9986 117.874 39.566 117.586 38.9893C117.312 38.4125 117.175 37.6772 117.175 36.7832V32.3928H115.639V29.9488H117.175Z" fill="#0077DF"/>
<path d="M126.068 37.2374C126.154 37.5979 126.299 37.8718 126.5 38.0593C126.717 38.2467 126.955 38.3837 127.214 38.4702C127.488 38.5423 127.762 38.5783 128.036 38.5783C128.541 38.5783 128.937 38.4846 129.225 38.2972C129.514 38.0953 129.658 37.843 129.658 37.5402C129.658 37.2807 129.557 37.0788 129.355 36.9346C129.153 36.776 128.894 36.6607 128.577 36.5886C128.259 36.502 127.935 36.4155 127.603 36.329C127.214 36.2281 126.796 36.12 126.349 36.0046C125.916 35.8748 125.506 35.6946 125.116 35.4639C124.727 35.2332 124.402 34.9376 124.143 34.5772C123.883 34.2023 123.754 33.7337 123.754 33.1714C123.754 32.5081 123.934 31.9242 124.294 31.4195C124.669 30.9149 125.181 30.5183 125.83 30.23C126.493 29.9416 127.257 29.7974 128.122 29.7974C129.146 29.7974 130.011 30.0137 130.718 30.4463C131.424 30.8788 131.936 31.4988 132.253 32.3062L129.809 32.9983C129.737 32.7965 129.615 32.6307 129.442 32.5009C129.269 32.3711 129.06 32.2774 128.815 32.2197C128.584 32.1621 128.346 32.1332 128.101 32.1332C127.683 32.1332 127.337 32.2197 127.063 32.3928C126.789 32.5514 126.652 32.7749 126.652 33.0632C126.652 33.2362 126.702 33.3804 126.803 33.4958C126.904 33.5967 127.041 33.6832 127.214 33.7553C127.402 33.8274 127.611 33.8923 127.841 33.95C128.086 34.0076 128.353 34.0725 128.642 34.1446C129.089 34.26 129.535 34.3969 129.982 34.5555C130.444 34.6997 130.862 34.8872 131.237 35.1179C131.626 35.3486 131.936 35.6586 132.167 36.0479C132.398 36.4372 132.527 36.9274 132.556 37.5186C132.556 38.153 132.376 38.7297 132.015 39.2488C131.655 39.7534 131.136 40.1572 130.458 40.4599C129.781 40.7627 128.959 40.9141 127.993 40.9141C126.868 40.9141 125.909 40.6762 125.116 40.2004C124.338 39.7246 123.826 38.982 123.581 37.9727L126.068 37.2374Z" fill="#0077DF"/>
<path d="M135.494 32.7298H140.468V33.6252H138.524V39.0609H137.447V33.6252H135.494V32.7298ZM142.35 39.0609H141.273V32.7298H142.476L144.611 37.6499L146.745 32.7298H147.939V39.0609H146.872V34.7829L145.018 39.0609H144.204L142.35 34.7829V39.0609Z" fill="#0077DF"/>
</svg>
