<svg width="93" height="93" viewBox="0 0 93 93" fill="none" xmlns="http://www.w3.org/2000/svg">
<rect width="93" height="93" rx="14.1522" fill="#0077DF"/>
<path d="M32.8428 45.7722C34.0289 45.7722 35.0074 45.5943 35.7783 45.2384C36.5493 44.8529 37.1127 44.3192 37.4685 43.6372C37.854 42.9256 38.0467 42.0953 38.0467 41.1464C38.0467 39.6935 37.6168 38.5667 36.7569 37.7661C35.9266 36.9655 34.6219 36.5652 32.8428 36.5652H26.2155V45.7722H32.8428ZM44.1847 41.1464C44.1847 42.3029 43.9772 43.4593 43.562 44.6157C43.1469 45.7425 42.4946 46.7803 41.605 47.7292C40.7154 48.6484 39.559 49.3897 38.1357 49.9531C36.742 50.5165 35.037 50.7982 33.0207 50.7982H26.2155V62.6739H20.2109V31.5391H33.0207C35.5411 31.5391 37.6168 31.9839 39.2476 32.8735C40.9082 33.7334 42.1387 34.9046 42.9393 36.3873C43.7696 37.8402 44.1847 39.4266 44.1847 41.1464Z" fill="white"/>
<path d="M66.6296 40.5237C66.6296 39.219 66.2144 38.2405 65.3842 37.5882C64.5539 36.9062 63.3826 36.5652 61.8704 36.5652H54.2646V44.4378H61.8259C63.3382 44.4378 64.5094 44.1116 65.3397 43.4593C66.1996 42.7773 66.6296 41.7988 66.6296 40.5237ZM48.26 62.6739V31.5391H62.7155C64.8801 31.5391 66.7037 31.9098 68.1863 32.6511C69.6689 33.3627 70.7809 34.3413 71.5222 35.5866C72.2931 36.8024 72.6786 38.1812 72.6786 39.7231C72.6786 41.0871 72.4266 42.2436 71.9225 43.1924C71.4184 44.1413 70.7216 44.8974 69.832 45.4608C68.9721 45.9946 67.9787 46.3652 66.852 46.5728V46.9286C68.216 47.1065 69.3872 47.492 70.3657 48.085C71.3443 48.6484 72.1004 49.449 72.6341 50.4869C73.1679 51.5247 73.4347 52.7849 73.4347 54.2675C73.4347 55.8984 73.0344 57.3513 72.2338 58.6264C71.4332 59.8718 70.262 60.8651 68.72 61.6064C67.2078 62.3181 65.3842 62.6739 63.2492 62.6739H48.26ZM54.2646 57.6479H62.4486C64.0202 57.6479 65.2359 57.3069 66.0958 56.6249C66.9854 55.9132 67.4302 54.8902 67.4302 53.5559C67.4302 52.1622 66.9557 51.1096 66.0069 50.3979C65.0877 49.6863 63.8571 49.3304 62.3152 49.3304H54.2646V57.6479Z" fill="white"/>
</svg>
