<svg width="162" height="28" viewBox="0 0 162 28" fill="none" xmlns="http://www.w3.org/2000/svg">
<rect width="27.6451" height="27.6451" rx="4.20686" fill="white"/>
<path d="M9.76273 13.6062C10.1153 13.6062 10.4062 13.5533 10.6354 13.4475C10.8645 13.333 11.032 13.1743 11.1378 12.9716C11.2524 12.76 11.3097 12.5132 11.3097 12.2312C11.3097 11.7993 11.1818 11.4643 10.9262 11.2263C10.6794 10.9883 10.2916 10.8693 9.76273 10.8693H7.79272V13.6062H9.76273ZM13.1342 12.2312C13.1342 12.5749 13.0725 12.9187 12.9491 13.2624C12.8257 13.5974 12.6318 13.9059 12.3674 14.1879C12.1029 14.4612 11.7592 14.6816 11.3361 14.849C10.9218 15.0165 10.415 15.1002 9.81562 15.1002H7.79272V18.6304H6.00781V9.37531H9.81562C10.5648 9.37531 11.1818 9.50752 11.6666 9.77195C12.1602 10.0276 12.526 10.3757 12.764 10.8165C13.0108 11.2484 13.1342 11.7199 13.1342 12.2312Z" fill="#0077DF"/>
<path d="M19.8061 12.0461C19.8061 11.6582 19.6827 11.3674 19.4359 11.1734C19.1891 10.9707 18.841 10.8693 18.3914 10.8693H16.1306V13.2096H18.3782C18.8278 13.2096 19.1759 13.1126 19.4227 12.9187C19.6783 12.7159 19.8061 12.4251 19.8061 12.0461ZM14.3456 18.6304V9.37531H18.6427C19.2861 9.37531 19.8282 9.48548 20.2689 9.70584C20.7096 9.91739 21.0402 10.2083 21.2605 10.5785C21.4897 10.9399 21.6043 11.3497 21.6043 11.8081C21.6043 12.2135 21.5294 12.5573 21.3795 12.8394C21.2297 13.1214 21.0225 13.3462 20.7581 13.5136C20.5025 13.6723 20.2072 13.7825 19.8723 13.8442V13.95C20.2777 14.0028 20.6259 14.1174 20.9168 14.2937C21.2076 14.4612 21.4324 14.6992 21.5911 15.0077C21.7497 15.3162 21.829 15.6908 21.829 16.1315C21.829 16.6163 21.7101 17.0482 21.4721 17.4272C21.2341 17.7974 20.8859 18.0927 20.4276 18.3131C19.978 18.5246 19.4359 18.6304 18.8013 18.6304H14.3456ZM16.1306 17.1364H18.5633C19.0305 17.1364 19.3919 17.035 19.6475 16.8323C19.9119 16.6207 20.0441 16.3166 20.0441 15.92C20.0441 15.5057 19.9031 15.1928 19.621 14.9812C19.3478 14.7697 18.982 14.6639 18.5237 14.6639H16.1306V17.1364Z" fill="#0077DF"/>
<path d="M36.9307 13.5281C37.2833 13.5281 37.5741 13.4752 37.8033 13.3695C38.0325 13.2549 38.2 13.0962 38.3057 12.8935C38.4203 12.6819 38.4776 12.4351 38.4776 12.1531C38.4776 11.7212 38.3498 11.3862 38.0942 11.1482C37.8474 10.9102 37.4596 10.7913 36.9307 10.7913H34.9607V13.5281H36.9307ZM40.3022 12.1531C40.3022 12.4968 40.2405 12.8406 40.1171 13.1844C39.9937 13.5193 39.7998 13.8278 39.5353 14.1099C39.2709 14.3831 38.9272 14.6035 38.5041 14.7709C38.0898 14.9384 37.583 15.0222 36.9836 15.0222H34.9607V18.5523H33.1758V9.29722H36.9836C37.7328 9.29722 38.3498 9.42944 38.8346 9.69387C39.3282 9.94948 39.694 10.2977 39.932 10.7384C40.1788 11.1703 40.3022 11.6418 40.3022 12.1531Z" fill="white"/>
<path d="M41.4343 11.9415H42.968L43.087 12.7877C43.2721 12.5585 43.4792 12.3734 43.7084 12.2324C43.9464 12.0826 44.2064 11.9812 44.4885 11.9283C44.7705 11.8666 45.0658 11.871 45.3743 11.9415V13.5281C45.1363 13.4488 44.8851 13.4268 44.6207 13.462C44.3651 13.4973 44.1227 13.5898 43.8935 13.7397C43.6731 13.8895 43.488 14.1055 43.3382 14.3875C43.1972 14.6608 43.1266 15.0089 43.1266 15.432V18.5523H41.4343V11.9415Z" fill="white"/>
<path d="M49.326 18.6449C48.6649 18.6449 48.0832 18.4994 47.5808 18.2085C47.0783 17.9177 46.6861 17.5122 46.404 16.9922C46.1308 16.4721 45.9942 15.8727 45.9942 15.194C45.9942 14.5418 46.1308 13.9644 46.404 13.462C46.6773 12.9596 47.0563 12.5673 47.5411 12.2853C48.0347 11.9944 48.5944 11.849 49.2202 11.849C49.8549 11.849 50.4146 11.9856 50.8994 12.2588C51.3842 12.5321 51.7588 12.9155 52.0232 13.4091C52.2964 13.8939 52.4331 14.4624 52.4331 15.1147C52.4331 15.2117 52.4243 15.3218 52.4066 15.4452C52.3978 15.5598 52.3846 15.6832 52.367 15.8154H47.8187C47.854 16.0975 47.9421 16.3399 48.0832 16.5426C48.233 16.7365 48.4137 16.8908 48.6253 17.0054C48.8456 17.1112 49.0924 17.164 49.3657 17.164C49.6918 17.164 49.9827 17.0979 50.2383 16.9657C50.5027 16.8247 50.6922 16.644 50.8068 16.4236L52.3141 16.8732C52.0496 17.4373 51.653 17.8736 51.1241 18.1821C50.6041 18.4906 50.0047 18.6449 49.326 18.6449ZM50.5821 14.5858C50.5732 14.339 50.5071 14.1187 50.3837 13.9248C50.2603 13.722 50.0973 13.5678 49.8945 13.462C49.6918 13.3474 49.467 13.2901 49.2202 13.2901C48.9999 13.2901 48.7927 13.3474 48.5988 13.462C48.4049 13.5766 48.2374 13.7308 48.0964 13.9248C47.9642 14.1099 47.876 14.3302 47.832 14.5858H50.5821Z" fill="white"/>
<path d="M58.3903 12.9331L58.1788 12.9596V9.03279H59.8711V18.5523H58.3374L58.2316 17.7326C58.0201 17.9794 57.738 18.1953 57.3855 18.3804C57.0417 18.5567 56.6407 18.6449 56.1823 18.6449C55.6094 18.6449 55.1025 18.5038 54.6618 18.2218C54.2211 17.9397 53.8773 17.5475 53.6305 17.045C53.3837 16.5338 53.2603 15.9344 53.2603 15.2469C53.2603 14.5594 53.3837 13.96 53.6305 13.4488C53.8773 12.9376 54.2211 12.5453 54.6618 12.2721C55.1025 11.99 55.6094 11.849 56.1823 11.849C56.7024 11.849 57.1475 11.9548 57.5177 12.1663C57.8967 12.3778 58.1876 12.6335 58.3903 12.9331ZM55.0849 15.2469C55.0849 15.8022 55.2259 16.2518 55.508 16.5955C55.7901 16.9305 56.1603 17.0979 56.6186 17.0979C56.9007 17.0979 57.1563 17.0274 57.3855 16.8864C57.6235 16.7365 57.813 16.525 57.954 16.2518C58.1038 15.9785 58.1788 15.6436 58.1788 15.2469C58.1788 14.8503 58.1038 14.5153 57.954 14.2421C57.813 13.9688 57.6235 13.7617 57.3855 13.6207C57.1563 13.4708 56.9007 13.3959 56.6186 13.3959C56.1603 13.3959 55.7901 13.5678 55.508 13.9115C55.2259 14.2465 55.0849 14.6916 55.0849 15.2469Z" fill="white"/>
<path d="M61.5854 11.9415H63.2777V18.5523H61.5854V11.9415ZM62.4448 11.0954C62.1275 11.0954 61.8674 10.9984 61.6647 10.8045C61.462 10.6017 61.3606 10.3549 61.3606 10.0641C61.3606 9.7732 61.462 9.5308 61.6647 9.33689C61.8674 9.13415 62.1275 9.03279 62.4448 9.03279C62.7445 9.03279 62.9957 9.13415 63.1984 9.33689C63.4099 9.5308 63.5157 9.7732 63.5157 10.0641C63.5157 10.3549 63.4099 10.6017 63.1984 10.8045C62.9957 10.9984 62.7445 11.0954 62.4448 11.0954Z" fill="white"/>
<path d="M67.9073 18.6449C67.2639 18.6449 66.6998 18.5038 66.215 18.2218C65.7302 17.9397 65.3512 17.5475 65.0779 17.045C64.8047 16.5338 64.6681 15.9433 64.6681 15.2734C64.6681 14.5947 64.8047 13.9997 65.0779 13.4885C65.3512 12.9772 65.7346 12.5762 66.2282 12.2853C66.7218 11.9944 67.2903 11.849 67.9338 11.849C68.6301 11.849 69.2471 12.0209 69.7848 12.3646C70.3313 12.7084 70.7147 13.1711 70.9351 13.7529L69.3617 14.2024C69.2559 13.9468 69.0797 13.7441 68.8328 13.5942C68.5949 13.4444 68.3216 13.3695 68.0131 13.3695C67.7046 13.3695 67.4314 13.4488 67.1934 13.6074C66.9642 13.7661 66.7835 13.9865 66.6513 14.2685C66.5279 14.5506 66.4662 14.8811 66.4662 15.2601C66.4662 15.8331 66.6072 16.287 66.8893 16.622C67.1713 16.9569 67.5504 17.1244 68.0263 17.1244C68.326 17.1244 68.5993 17.0539 68.8461 16.9128C69.0929 16.763 69.278 16.5603 69.4014 16.3046L70.9615 16.7542C70.7235 17.3271 70.3269 17.7855 69.7716 18.1292C69.2251 18.473 68.6037 18.6449 67.9073 18.6449Z" fill="white"/>
<path d="M72.5987 11.9415V10.0905H74.3175V11.9415H75.7719V13.4356H74.3175V16.1195C74.3175 16.4633 74.388 16.7057 74.5291 16.8467C74.6789 16.9878 74.864 17.0627 75.0844 17.0715C75.3135 17.0803 75.5427 17.0671 75.7719 17.0318V18.4862C75.3664 18.5743 74.9698 18.6008 74.5819 18.5655C74.2029 18.5303 73.8636 18.4289 73.5639 18.2614C73.2642 18.0851 73.0262 17.8207 72.8499 17.4681C72.6825 17.1156 72.5987 16.666 72.5987 16.1195V13.4356H71.66V11.9415H72.5987Z" fill="white"/>
<path d="M80.7324 18.5523L80.6002 17.7458C80.3799 18.019 80.1287 18.235 79.8466 18.3936C79.5734 18.5523 79.2032 18.6316 78.736 18.6316C78.2953 18.6316 77.9074 18.5567 77.5725 18.4069C77.2464 18.2482 76.9907 18.0323 76.8056 17.759C76.6205 17.477 76.528 17.1464 76.528 16.7674C76.528 16.2121 76.7263 15.7537 77.123 15.3924C77.5284 15.0222 78.1366 14.7886 78.9475 14.6916L80.6002 14.5065V14.0438C80.6002 13.8587 80.5165 13.6868 80.349 13.5281C80.1815 13.3695 79.9171 13.2901 79.5557 13.2901C79.2384 13.2901 78.9608 13.3695 78.7228 13.5281C78.4936 13.678 78.3393 13.9071 78.26 14.2156L76.8056 13.6868C76.9819 13.0962 77.3169 12.6423 77.8105 12.325C78.3041 12.0076 78.9123 11.849 79.6351 11.849C80.5165 11.849 81.1776 12.0693 81.6183 12.5101C82.0678 12.942 82.2926 13.5149 82.2926 14.2289V18.5523H80.7324ZM80.6002 15.6832L79.1723 15.8683C78.8814 15.9036 78.6611 15.9917 78.5112 16.1328C78.3614 16.265 78.2865 16.428 78.2865 16.622C78.2865 16.8071 78.3614 16.9657 78.5112 17.0979C78.6611 17.2213 78.8726 17.283 79.1459 17.283C79.4544 17.283 79.7144 17.2257 79.9259 17.1112C80.1463 16.9966 80.3138 16.8291 80.4283 16.6087C80.5429 16.3884 80.6002 16.1151 80.6002 15.789V15.6832Z" fill="white"/>
<path d="M85.192 12.9331C85.3948 12.6335 85.6812 12.3778 86.0514 12.1663C86.4304 11.9548 86.8756 11.849 87.3868 11.849C87.9686 11.849 88.4754 11.99 88.9073 12.2721C89.348 12.5453 89.6918 12.9376 89.9386 13.4488C90.1942 13.96 90.322 14.5594 90.322 15.2469C90.322 15.9344 90.1942 16.5338 89.9386 17.045C89.6918 17.5475 89.348 17.9397 88.9073 18.2218C88.4666 18.5038 87.9597 18.6449 87.3868 18.6449C86.9285 18.6449 86.523 18.5567 86.1704 18.3804C85.8178 18.1953 85.5446 17.9794 85.3507 17.7326L85.2449 18.5523H83.7112V9.03279H85.4036V12.9596L85.192 12.9331ZM88.4974 15.2469C88.4974 14.6916 88.352 14.2465 88.0611 13.9115C87.779 13.5678 87.4088 13.3959 86.9505 13.3959C86.6684 13.3959 86.4084 13.4708 86.1704 13.6207C85.9412 13.7617 85.7561 13.9688 85.6151 14.2421C85.4741 14.5153 85.4036 14.8503 85.4036 15.2469C85.4036 15.6436 85.4741 15.9785 85.6151 16.2518C85.7561 16.525 85.9412 16.7365 86.1704 16.8864C86.4084 17.0274 86.6684 17.0979 86.9505 17.0979C87.4088 17.0979 87.779 16.9305 88.0611 16.5955C88.352 16.2518 88.4974 15.8022 88.4974 15.2469Z" fill="white"/>
<path d="M91.4164 9.03279H93.1087V18.5523H91.4164V9.03279Z" fill="white"/>
<path d="M97.6038 18.6449C96.9427 18.6449 96.3609 18.4994 95.8585 18.2085C95.3561 17.9177 94.9639 17.5122 94.6818 16.9922C94.4086 16.4721 94.2719 15.8727 94.2719 15.194C94.2719 14.5418 94.4086 13.9644 94.6818 13.462C94.955 12.9596 95.3341 12.5673 95.8189 12.2853C96.3125 11.9944 96.8722 11.849 97.498 11.849C98.1326 11.849 98.6923 11.9856 99.1771 12.2588C99.6619 12.5321 100.037 12.9155 100.301 13.4091C100.574 13.8939 100.711 14.4624 100.711 15.1147C100.711 15.2117 100.702 15.3218 100.684 15.4452C100.676 15.5598 100.662 15.6832 100.645 15.8154H96.0965C96.1318 16.0975 96.2199 16.3399 96.3609 16.5426C96.5108 16.7365 96.6915 16.8908 96.903 17.0054C97.1234 17.1112 97.3702 17.164 97.6434 17.164C97.9696 17.164 98.2604 17.0979 98.516 16.9657C98.7805 16.8247 98.97 16.644 99.0846 16.4236L100.592 16.8732C100.327 17.4373 99.9308 17.8736 99.4019 18.1821C98.8818 18.4906 98.2825 18.6449 97.6038 18.6449ZM98.8598 14.5858C98.851 14.339 98.7849 14.1187 98.6615 13.9248C98.5381 13.722 98.375 13.5678 98.1723 13.462C97.9696 13.3474 97.7448 13.2901 97.498 13.2901C97.2776 13.2901 97.0705 13.3474 96.8766 13.462C96.6827 13.5766 96.5152 13.7308 96.3742 13.9248C96.2419 14.1099 96.1538 14.3302 96.1097 14.5858H98.8598Z" fill="white"/>
<path d="M110.982 11.968C110.982 11.5801 110.858 11.2893 110.612 11.0954C110.365 10.8926 110.017 10.7913 109.567 10.7913H107.306V13.1315H109.554C110.004 13.1315 110.352 13.0345 110.598 12.8406C110.854 12.6379 110.982 12.347 110.982 11.968ZM105.521 18.5523V9.29722H109.818C110.462 9.29722 111.004 9.4074 111.445 9.62776C111.885 9.8393 112.216 10.1302 112.436 10.5004C112.665 10.8618 112.78 11.2716 112.78 11.73C112.78 12.1354 112.705 12.4792 112.555 12.7613C112.405 13.0433 112.198 13.2681 111.934 13.4356C111.678 13.5942 111.383 13.7044 111.048 13.7661V13.8719C111.453 13.9248 111.802 14.0393 112.093 14.2156C112.383 14.3831 112.608 14.6211 112.767 14.9296C112.925 15.2381 113.005 15.6127 113.005 16.0534C113.005 16.5382 112.886 16.9701 112.648 17.3491C112.41 17.7193 112.062 18.0146 111.603 18.235C111.154 18.4465 110.612 18.5523 109.977 18.5523H105.521ZM107.306 17.0583H109.739C110.206 17.0583 110.568 16.9569 110.823 16.7542C111.088 16.5426 111.22 16.2385 111.22 15.8419C111.22 15.4276 111.079 15.1147 110.797 14.9032C110.524 14.6916 110.158 14.5858 109.699 14.5858H107.306V17.0583Z" fill="white"/>
<path d="M117.285 18.6449C116.624 18.6449 116.042 18.4994 115.54 18.2085C115.037 17.9177 114.645 17.5122 114.363 16.9922C114.09 16.4721 113.953 15.8727 113.953 15.194C113.953 14.5418 114.09 13.9644 114.363 13.462C114.636 12.9596 115.015 12.5673 115.5 12.2853C115.993 11.9944 116.553 11.849 117.179 11.849C117.814 11.849 118.373 11.9856 118.858 12.2588C119.343 12.5321 119.718 12.9155 119.982 13.4091C120.255 13.8939 120.392 14.4624 120.392 15.1147C120.392 15.2117 120.383 15.3218 120.365 15.4452C120.357 15.5598 120.343 15.6832 120.326 15.8154H115.777C115.813 16.0975 115.901 16.3399 116.042 16.5426C116.192 16.7365 116.372 16.8908 116.584 17.0054C116.804 17.1112 117.051 17.164 117.324 17.164C117.651 17.164 117.941 17.0979 118.197 16.9657C118.461 16.8247 118.651 16.644 118.766 16.4236L120.273 16.8732C120.008 17.4373 119.612 17.8736 119.083 18.1821C118.563 18.4906 117.963 18.6449 117.285 18.6449ZM118.541 14.5858C118.532 14.339 118.466 14.1187 118.342 13.9248C118.219 13.722 118.056 13.5678 117.853 13.462C117.651 13.3474 117.426 13.2901 117.179 13.2901C116.959 13.2901 116.751 13.3474 116.558 13.462C116.364 13.5766 116.196 13.7308 116.055 13.9248C115.923 14.1099 115.835 14.3302 115.791 14.5858H118.541Z" fill="white"/>
<path d="M121.55 11.9415H123.083L123.202 12.6158C123.414 12.3778 123.669 12.1927 123.969 12.0605C124.278 11.9195 124.608 11.849 124.961 11.849C125.481 11.849 125.922 11.9592 126.283 12.1795C126.653 12.3999 126.935 12.7216 127.129 13.1447C127.332 13.559 127.433 14.0746 127.433 14.6916V18.5523H125.728V14.9164C125.728 14.4051 125.626 14.0217 125.424 13.7661C125.221 13.5105 124.917 13.3827 124.511 13.3827C124.097 13.3827 123.78 13.5149 123.559 13.7793C123.348 14.0349 123.242 14.4184 123.242 14.9296V18.5523H121.55V11.9415Z" fill="white"/>
<path d="M131.83 18.6449C131.169 18.6449 130.587 18.4994 130.085 18.2085C129.582 17.9177 129.19 17.5122 128.908 16.9922C128.635 16.4721 128.498 15.8727 128.498 15.194C128.498 14.5418 128.635 13.9644 128.908 13.462C129.181 12.9596 129.56 12.5673 130.045 12.2853C130.539 11.9944 131.098 11.849 131.724 11.849C132.359 11.849 132.919 11.9856 133.403 12.2588C133.888 12.5321 134.263 12.9155 134.527 13.4091C134.8 13.8939 134.937 14.4624 134.937 15.1147C134.937 15.2117 134.928 15.3218 134.911 15.4452C134.902 15.5598 134.889 15.6832 134.871 15.8154H130.323C130.358 16.0975 130.446 16.3399 130.587 16.5426C130.737 16.7365 130.918 16.8908 131.129 17.0054C131.35 17.1112 131.596 17.164 131.87 17.164C132.196 17.164 132.487 17.0979 132.742 16.9657C133.007 16.8247 133.196 16.644 133.311 16.4236L134.818 16.8732C134.554 17.4373 134.157 17.8736 133.628 18.1821C133.108 18.4906 132.509 18.6449 131.83 18.6449ZM133.086 14.5858C133.077 14.339 133.011 14.1187 132.888 13.9248C132.764 13.722 132.601 13.5678 132.399 13.462C132.196 13.3474 131.971 13.2901 131.724 13.2901C131.504 13.2901 131.297 13.3474 131.103 13.462C130.909 13.5766 130.741 13.7308 130.6 13.9248C130.468 14.1099 130.38 14.3302 130.336 14.5858H133.086Z" fill="white"/>
<path d="M140.908 11.0689C140.599 11.0689 140.339 10.9719 140.127 10.778C139.925 10.5753 139.823 10.3329 139.823 10.0508C139.823 9.75997 139.925 9.51758 140.127 9.32366C140.339 9.12975 140.599 9.03279 140.908 9.03279C141.216 9.03279 141.472 9.12975 141.674 9.32366C141.886 9.51758 141.992 9.75997 141.992 10.0508C141.992 10.3329 141.886 10.5753 141.674 10.778C141.472 10.9719 141.216 11.0689 140.908 11.0689ZM141.754 11.9283V18.5523H140.048V13.4223H135.632V11.9283H141.754ZM136.412 11.3466C136.412 10.7736 136.514 10.3065 136.716 9.94508C136.928 9.58369 137.236 9.32366 137.642 9.165C138.056 9.00635 138.572 8.96227 139.189 9.03279V10.5268C138.801 10.4739 138.523 10.5268 138.356 10.6855C138.197 10.8441 138.118 11.0909 138.118 11.4259V18.5523H136.412V11.3466Z" fill="white"/>
<path d="M143.979 11.9415V10.0905H145.698V11.9415H147.152V13.4356H145.698V16.1195C145.698 16.4633 145.768 16.7057 145.909 16.8467C146.059 16.9878 146.244 17.0627 146.465 17.0715C146.694 17.0803 146.923 17.0671 147.152 17.0318V18.4862C146.747 18.5743 146.35 18.6008 145.962 18.5655C145.583 18.5303 145.244 18.4289 144.944 18.2614C144.645 18.0851 144.407 17.8207 144.23 17.4681C144.063 17.1156 143.979 16.666 143.979 16.1195V13.4356H143.04V11.9415H143.979Z" fill="white"/>
<path d="M149.416 16.3972C149.468 16.6176 149.557 16.785 149.68 16.8996C149.812 17.0142 149.958 17.0979 150.116 17.1508C150.284 17.1949 150.451 17.2169 150.619 17.2169C150.927 17.2169 151.17 17.1596 151.346 17.045C151.522 16.9216 151.61 16.7674 151.61 16.5823C151.61 16.4236 151.549 16.3002 151.425 16.2121C151.302 16.1151 151.143 16.0446 150.949 16.0005C150.755 15.9477 150.557 15.8948 150.354 15.8419C150.116 15.7802 149.861 15.7141 149.587 15.6436C149.323 15.5642 149.072 15.4541 148.834 15.313C148.596 15.172 148.398 14.9913 148.239 14.7709C148.08 14.5418 148.001 14.2553 148.001 13.9115C148.001 13.5061 148.111 13.1491 148.331 12.8406C148.561 12.5321 148.874 12.2897 149.27 12.1134C149.676 11.9371 150.143 11.849 150.672 11.849C151.297 11.849 151.826 11.9812 152.258 12.2456C152.69 12.5101 153.003 12.8891 153.197 13.3827L151.703 13.8058C151.659 13.6824 151.584 13.581 151.478 13.5017C151.372 13.4223 151.245 13.365 151.095 13.3298C150.954 13.2945 150.808 13.2769 150.658 13.2769C150.403 13.2769 150.191 13.3298 150.024 13.4356C149.856 13.5325 149.773 13.6691 149.773 13.8454C149.773 13.9512 149.803 14.0393 149.865 14.1099C149.927 14.1716 150.011 14.2245 150.116 14.2685C150.231 14.3126 150.359 14.3523 150.5 14.3875C150.65 14.4228 150.813 14.4624 150.989 14.5065C151.262 14.577 151.535 14.6608 151.809 14.7577C152.091 14.8459 152.346 14.9605 152.576 15.1015C152.814 15.2425 153.003 15.432 153.144 15.67C153.285 15.908 153.364 16.2077 153.382 16.5691C153.382 16.9569 153.272 17.3095 153.052 17.6268C152.831 17.9353 152.514 18.1821 152.1 18.3672C151.685 18.5523 151.183 18.6449 150.592 18.6449C149.905 18.6449 149.319 18.4994 148.834 18.2085C148.358 17.9177 148.045 17.4637 147.895 16.8467L149.416 16.3972Z" fill="white"/>
<path d="M153.938 7.2586H156.979V7.80597H155.79V11.1289H155.132V7.80597H153.938V7.2586ZM158.129 11.1289H157.471V7.2586H158.207L159.511 10.2664L160.816 7.2586H161.546V11.1289H160.894V8.51368L159.76 11.1289H159.263L158.129 8.51368V11.1289Z" fill="white"/>
</svg>
