<svg width="115" height="94" viewBox="0 0 115 94" fill="none" xmlns="http://www.w3.org/2000/svg">
<rect x="33.9297" width="47.0307" height="47.0307" rx="7.15685" fill="white"/>
<path d="M50.5364 23.1473C51.1362 23.1473 51.6311 23.0574 52.021 22.8774C52.4109 22.6825 52.6958 22.4126 52.8757 22.0677C53.0706 21.7078 53.1681 21.2879 53.1681 20.8081C53.1681 20.0733 52.9507 19.5035 52.5158 19.0986C52.0959 18.6937 51.4362 18.4913 50.5364 18.4913H47.185V23.1473H50.5364ZM56.2721 20.8081C56.2721 21.3929 56.1672 21.9777 55.9572 22.5625C55.7473 23.1323 55.4174 23.6572 54.9675 24.137C54.5177 24.6019 53.9329 24.9768 53.2131 25.2617C52.5083 25.5466 51.6461 25.689 50.6264 25.689H47.185V31.6947H44.1484V15.9496H50.6264C51.901 15.9496 52.9507 16.1745 53.7754 16.6244C54.6152 17.0592 55.2375 17.6516 55.6423 18.4013C56.0622 19.1361 56.2721 19.9383 56.2721 20.8081Z" fill="#0077DF"/>
<path d="M67.6226 20.4932C67.6226 19.8334 67.4127 19.3385 66.9928 19.0086C66.573 18.6637 65.9807 18.4913 65.2159 18.4913H61.3696V22.4725H65.1934C65.9582 22.4725 66.5505 22.3076 66.9704 21.9777C67.4052 21.6328 67.6226 21.138 67.6226 20.4932ZM58.3331 31.6947V15.9496H65.6433C66.7379 15.9496 67.6601 16.137 68.4099 16.5119C69.1597 16.8718 69.722 17.3666 70.0969 17.9964C70.4867 18.6113 70.6817 19.3085 70.6817 20.0883C70.6817 20.7781 70.5542 21.3629 70.2993 21.8427C70.0444 22.3226 69.692 22.705 69.2421 22.9899C68.8073 23.2598 68.3049 23.4472 67.7351 23.5522V23.7321C68.4249 23.8221 69.0172 24.0171 69.5121 24.317C70.0069 24.6019 70.3893 25.0067 70.6592 25.5316C70.9291 26.0564 71.0641 26.6937 71.0641 27.4435C71.0641 28.2682 70.8616 29.003 70.4568 29.6478C70.0519 30.2776 69.4596 30.7799 68.6798 31.1548C67.9151 31.5147 66.9928 31.6947 65.9132 31.6947H58.3331ZM61.3696 29.153H65.5083C66.3031 29.153 66.9179 28.9805 67.3527 28.6356C67.8026 28.2757 68.0275 27.7584 68.0275 27.0836C68.0275 26.3788 67.7876 25.8465 67.3077 25.4866C66.8429 25.1267 66.2206 24.9468 65.4408 24.9468H61.3696V29.153Z" fill="#0077DF"/>
<path d="M6.388 63.7227C6.98781 63.7227 7.48266 63.6327 7.87253 63.4528C8.26241 63.2578 8.54732 62.9879 8.72727 62.643C8.9222 62.2831 9.01967 61.8633 9.01967 61.3834C9.01967 60.6486 8.80224 60.0788 8.36738 59.6739C7.94751 59.2691 7.28772 59.0666 6.388 59.0666H3.03655V63.7227H6.388ZM12.1237 61.3834C12.1237 61.9682 12.0187 62.553 11.8088 63.1379C11.5989 63.7077 11.269 64.2325 10.8191 64.7124C10.3693 65.1772 9.78444 65.5521 9.06466 65.837C8.35988 66.1219 7.49765 66.2644 6.47797 66.2644H3.03655V72.27H0V56.5249H6.47797C7.75257 56.5249 8.80224 56.7499 9.62698 57.1997C10.4667 57.6346 11.089 58.2269 11.4939 58.9767C11.9138 59.7114 12.1237 60.5137 12.1237 61.3834Z" fill="white"/>
<path d="M14.0497 61.0235H16.6588L16.8613 62.4631C17.1762 62.0732 17.5286 61.7583 17.9184 61.5184C18.3233 61.2634 18.7657 61.091 19.2455 61.001C19.7254 60.8961 20.2277 60.9036 20.7526 61.0235V63.7227C20.3477 63.5877 19.9203 63.5502 19.4705 63.6102C19.0356 63.6702 18.6232 63.8276 18.2333 64.0826C17.8585 64.3375 17.5436 64.7049 17.2886 65.1847C17.0487 65.6496 16.9288 66.2419 16.9288 66.9617V72.27H14.0497V61.0235Z" fill="white"/>
<path d="M27.4753 72.4275C26.3507 72.4275 25.361 72.18 24.5062 71.6852C23.6515 71.1903 22.9842 70.5006 22.5044 69.6158C22.0395 68.7311 21.8071 67.7114 21.8071 66.5568C21.8071 65.4471 22.0395 64.4649 22.5044 63.6102C22.9692 62.7555 23.614 62.0882 24.4388 61.6083C25.2785 61.1135 26.2307 60.8661 27.2954 60.8661C28.375 60.8661 29.3272 61.0985 30.152 61.5634C30.9767 62.0282 31.614 62.6805 32.0639 63.5202C32.5287 64.345 32.7612 65.3122 32.7612 66.4218C32.7612 66.5868 32.7462 66.7742 32.7162 66.9842C32.7012 67.1791 32.6787 67.389 32.6487 67.614H24.9111C24.9711 68.0938 25.1211 68.5062 25.361 68.8511C25.6159 69.181 25.9233 69.4434 26.2832 69.6383C26.6581 69.8183 27.0779 69.9082 27.5428 69.9082C28.0976 69.9082 28.5925 69.7958 29.0273 69.5708C29.4772 69.3309 29.7996 69.0235 29.9945 68.6486L32.5587 69.4134C32.1089 70.3731 31.4341 71.1154 30.5344 71.6402C29.6496 72.165 28.63 72.4275 27.4753 72.4275ZM29.6121 65.5221C29.5972 65.1022 29.4847 64.7274 29.2748 64.3975C29.0648 64.0526 28.7874 63.7902 28.4425 63.6102C28.0976 63.4153 27.7152 63.3178 27.2954 63.3178C26.9205 63.3178 26.5681 63.4153 26.2382 63.6102C25.9083 63.8052 25.6234 64.0676 25.3835 64.3975C25.1585 64.7124 25.0086 65.0873 24.9336 65.5221H29.6121Z" fill="white"/>
<path d="M42.8958 62.7105L42.5359 62.7555V56.0751H45.415V72.27H42.8058L42.6259 70.8754C42.266 71.2953 41.7862 71.6627 41.1864 71.9776C40.6015 72.2775 39.9193 72.4275 39.1395 72.4275C38.1648 72.4275 37.3026 72.1875 36.5528 71.7077C35.803 71.2278 35.2182 70.5605 34.7984 69.7058C34.3785 68.8361 34.1686 67.8164 34.1686 66.6468C34.1686 65.4771 34.3785 64.4574 34.7984 63.5877C35.2182 62.718 35.803 62.0507 36.5528 61.5858C37.3026 61.106 38.1648 60.8661 39.1395 60.8661C40.0242 60.8661 40.7815 61.046 41.4113 61.4059C42.0561 61.7658 42.5509 62.2007 42.8958 62.7105ZM37.2726 66.6468C37.2726 67.5915 37.5125 68.3562 37.9924 68.941C38.4722 69.5109 39.102 69.7958 39.8818 69.7958C40.3616 69.7958 40.7965 69.6758 41.1864 69.4359C41.5912 69.181 41.9136 68.8211 42.1536 68.3562C42.4085 67.8914 42.5359 67.3216 42.5359 66.6468C42.5359 65.972 42.4085 65.4022 42.1536 64.9373C41.9136 64.4724 41.5912 64.1201 41.1864 63.8801C40.7965 63.6252 40.3616 63.4977 39.8818 63.4977C39.102 63.4977 38.4722 63.7902 37.9924 64.375C37.5125 64.9448 37.2726 65.7021 37.2726 66.6468Z" fill="white"/>
<path d="M48.3314 61.0235H51.2105V72.27H48.3314V61.0235ZM49.7934 59.584C49.2536 59.584 48.8112 59.419 48.4663 59.0891C48.1214 58.7442 47.949 58.3244 47.949 57.8295C47.949 57.3347 48.1214 56.9223 48.4663 56.5924C48.8112 56.2475 49.2536 56.0751 49.7934 56.0751C50.3033 56.0751 50.7306 56.2475 51.0755 56.5924C51.4354 56.9223 51.6153 57.3347 51.6153 57.8295C51.6153 58.3244 51.4354 58.7442 51.0755 59.0891C50.7306 59.419 50.3033 59.584 49.7934 59.584Z" fill="white"/>
<path d="M59.0865 72.4275C57.9919 72.4275 57.0322 72.1875 56.2074 71.7077C55.3827 71.2278 54.7379 70.5605 54.273 69.7058C53.8082 68.8361 53.5758 67.8314 53.5758 66.6917C53.5758 65.5371 53.8082 64.5249 54.273 63.6552C54.7379 62.7855 55.3902 62.1032 56.2299 61.6083C57.0697 61.1135 58.0369 60.8661 59.1315 60.8661C60.3161 60.8661 61.3658 61.1585 62.2805 61.7433C63.2102 62.3281 63.8625 63.1154 64.2374 64.1051L61.5608 64.8698C61.3808 64.435 61.0809 64.0901 60.661 63.8351C60.2562 63.5802 59.7913 63.4528 59.2665 63.4528C58.7416 63.4528 58.2768 63.5877 57.8719 63.8576C57.482 64.1276 57.1746 64.5024 56.9497 64.9823C56.7398 65.4621 56.6348 66.0245 56.6348 66.6693C56.6348 67.644 56.8747 68.4162 57.3546 68.986C57.8344 69.5559 58.4792 69.8408 59.289 69.8408C59.7988 69.8408 60.2637 69.7208 60.6835 69.4809C61.1034 69.226 61.4183 68.8811 61.6282 68.4462L64.2824 69.211C63.8775 70.1857 63.2027 70.9654 62.258 71.5502C61.3283 72.135 60.2712 72.4275 59.0865 72.4275Z" fill="white"/>
<path d="M67.0677 61.0235V57.8745H69.9917V61.0235H72.466V63.5652H69.9917V68.1313C69.9917 68.7161 70.1117 69.1285 70.3516 69.3684C70.6066 69.6083 70.9214 69.7358 71.2963 69.7508C71.6862 69.7658 72.0761 69.7433 72.466 69.6833V72.1575C71.7762 72.3075 71.1014 72.3525 70.4416 72.2925C69.7968 72.2325 69.2195 72.0601 68.7096 71.7752C68.1998 71.4753 67.7949 71.0254 67.495 70.4256C67.2101 69.8258 67.0677 69.061 67.0677 68.1313V63.5652H65.4707V61.0235H67.0677Z" fill="white"/>
<path d="M80.905 72.27L80.6801 70.8979C80.3052 71.3628 79.8779 71.7302 79.398 72.0001C78.9332 72.27 78.3034 72.405 77.5086 72.405C76.7588 72.405 76.099 72.2775 75.5292 72.0226C74.9744 71.7527 74.5395 71.3853 74.2246 70.9204C73.9097 70.4406 73.7523 69.8783 73.7523 69.2335C73.7523 68.2887 74.0897 67.509 74.7645 66.8942C75.4542 66.2644 76.4889 65.867 77.8685 65.7021L80.6801 65.3872V64.5999C80.6801 64.285 80.5377 63.9926 80.2527 63.7227C79.9678 63.4528 79.518 63.3178 78.9032 63.3178C78.3633 63.3178 77.891 63.4528 77.4861 63.7227C77.0962 63.9776 76.8338 64.3675 76.6989 64.8923L74.2246 63.9926C74.5245 62.9879 75.0944 62.2156 75.9341 61.6758C76.7738 61.136 77.8085 60.8661 79.0381 60.8661C80.5377 60.8661 81.6623 61.241 82.4121 61.9907C83.1768 62.7255 83.5592 63.7002 83.5592 64.9148V72.27H80.905ZM80.6801 67.389L78.2509 67.7039C77.756 67.7639 77.3811 67.9139 77.1262 68.1538C76.8713 68.3787 76.7438 68.6561 76.7438 68.986C76.7438 69.3009 76.8713 69.5708 77.1262 69.7958C77.3811 70.0057 77.741 70.1107 78.2059 70.1107C78.7307 70.1107 79.1731 70.0132 79.533 69.8183C79.9079 69.6233 80.1928 69.3384 80.3877 68.9635C80.5826 68.5887 80.6801 68.1238 80.6801 67.569V67.389Z" fill="white"/>
<path d="M88.4918 62.7105C88.8367 62.2007 89.3241 61.7658 89.9539 61.4059C90.5987 61.046 91.3559 60.8661 92.2257 60.8661C93.2154 60.8661 94.0776 61.106 94.8124 61.5858C95.5621 62.0507 96.1469 62.718 96.5668 63.5877C97.0017 64.4574 97.2191 65.4771 97.2191 66.6468C97.2191 67.8164 97.0017 68.8361 96.5668 69.7058C96.1469 70.5605 95.5621 71.2278 94.8124 71.7077C94.0626 72.1875 93.2004 72.4275 92.2257 72.4275C91.4459 72.4275 90.7561 72.2775 90.1563 71.9776C89.5565 71.6627 89.0917 71.2953 88.7618 70.8754L88.5818 72.27H85.9726V56.0751H88.8517V62.7555L88.4918 62.7105ZM94.1151 66.6468C94.1151 65.7021 93.8677 64.9448 93.3728 64.375C92.893 63.7902 92.2632 63.4977 91.4834 63.4977C91.0036 63.4977 90.5612 63.6252 90.1563 63.8801C89.7664 64.1201 89.4515 64.4724 89.2116 64.9373C88.9717 65.4022 88.8517 65.972 88.8517 66.6468C88.8517 67.3216 88.9717 67.8914 89.2116 68.3562C89.4515 68.8211 89.7664 69.181 90.1563 69.4359C90.5612 69.6758 91.0036 69.7958 91.4834 69.7958C92.2632 69.7958 92.893 69.5109 93.3728 68.941C93.8677 68.3562 94.1151 67.5915 94.1151 66.6468Z" fill="white"/>
<path d="M99.0809 56.0751H101.96V72.27H99.0809V56.0751Z" fill="white"/>
<path d="M109.607 72.4275C108.482 72.4275 107.493 72.18 106.638 71.6852C105.783 71.1903 105.116 70.5006 104.636 69.6158C104.171 68.7311 103.939 67.7114 103.939 66.5568C103.939 65.4471 104.171 64.4649 104.636 63.6102C105.101 62.7555 105.746 62.0882 106.571 61.6083C107.41 61.1135 108.362 60.8661 109.427 60.8661C110.507 60.8661 111.459 61.0985 112.284 61.5634C113.109 62.0282 113.746 62.6805 114.196 63.5202C114.661 64.345 114.893 65.3122 114.893 66.4218C114.893 66.5868 114.878 66.7742 114.848 66.9842C114.833 67.1791 114.81 67.389 114.78 67.614H107.043C107.103 68.0938 107.253 68.5062 107.493 68.8511C107.748 69.181 108.055 69.4434 108.415 69.6383C108.79 69.8183 109.21 69.9082 109.675 69.9082C110.229 69.9082 110.724 69.7958 111.159 69.5708C111.609 69.3309 111.931 69.0235 112.126 68.6486L114.691 69.4134C114.241 70.3731 113.566 71.1154 112.666 71.6402C111.781 72.165 110.762 72.4275 109.607 72.4275ZM111.744 65.5221C111.729 65.1022 111.616 64.7274 111.407 64.3975C111.197 64.0526 110.919 63.7902 110.574 63.6102C110.229 63.4153 109.847 63.3178 109.427 63.3178C109.052 63.3178 108.7 63.4153 108.37 63.6102C108.04 63.8052 107.755 64.0676 107.515 64.3975C107.29 64.7124 107.14 65.0873 107.065 65.5221H111.744Z" fill="white"/>
<path d="M26.024 81.9985C26.024 81.3387 25.814 80.8438 25.3942 80.5139C24.9743 80.169 24.382 79.9966 23.6172 79.9966H19.7709V83.9778H23.5947C24.3595 83.9778 24.9518 83.8129 25.3717 83.483C25.8065 83.1381 26.024 82.6432 26.024 81.9985ZM16.7344 93.1999V77.4549H24.0446C25.1392 77.4549 26.0615 77.6423 26.8112 78.0172C27.561 78.3771 28.1233 78.8719 28.4982 79.5017C28.8881 80.1165 29.083 80.8138 29.083 81.5936C29.083 82.2834 28.9555 82.8682 28.7006 83.348C28.4457 83.8279 28.0933 84.2103 27.6435 84.4952C27.2086 84.7651 26.7063 84.9525 26.1364 85.0575V85.2374C26.8262 85.3274 27.4185 85.5223 27.9134 85.8223C28.4082 86.1072 28.7906 86.512 29.0605 87.0369C29.3304 87.5617 29.4654 88.199 29.4654 88.9488C29.4654 89.7735 29.2629 90.5083 28.8581 91.1531C28.4532 91.7829 27.8609 92.2852 27.0811 92.6601C26.3164 93.02 25.3942 93.1999 24.3145 93.1999H16.7344ZM19.7709 90.6582H23.9096C24.7044 90.6582 25.3192 90.4858 25.7541 90.1409C26.2039 89.781 26.4288 89.2637 26.4288 88.5889C26.4288 87.8841 26.1889 87.3518 25.7091 86.9919C25.2442 86.632 24.6219 86.4521 23.8421 86.4521H19.7709V90.6582Z" fill="white"/>
<path d="M36.7466 93.3574C35.622 93.3574 34.6323 93.11 33.7775 92.6151C32.9228 92.1203 32.2555 91.4305 31.7757 90.5458C31.3108 89.6611 31.0784 88.6414 31.0784 87.4867C31.0784 86.3771 31.3108 85.3949 31.7757 84.5402C32.2405 83.6854 32.8853 83.0181 33.7101 82.5383C34.5498 82.0434 35.502 81.796 36.5667 81.796C37.6463 81.796 38.5985 82.0284 39.4233 82.4933C40.248 82.9581 40.8853 83.6104 41.3352 84.4502C41.8 85.2749 42.0324 86.2421 42.0324 87.3518C42.0324 87.5167 42.0175 87.7042 41.9875 87.9141C41.9725 88.109 41.95 88.319 41.92 88.5439H34.1824C34.2424 89.0238 34.3923 89.4361 34.6323 89.781C34.8872 90.1109 35.1946 90.3733 35.5545 90.5683C35.9294 90.7482 36.3492 90.8382 36.8141 90.8382C37.3689 90.8382 37.8638 90.7257 38.2986 90.5008C38.7485 90.2609 39.0709 89.9535 39.2658 89.5786L41.83 90.3433C41.3801 91.303 40.7054 92.0453 39.8056 92.5701C38.9209 93.095 37.9012 93.3574 36.7466 93.3574ZM38.8834 86.4521C38.8684 86.0322 38.756 85.6573 38.546 85.3274C38.3361 84.9825 38.0587 84.7201 37.7138 84.5402C37.3689 84.3452 36.9865 84.2477 36.5667 84.2477C36.1918 84.2477 35.8394 84.3452 35.5095 84.5402C35.1796 84.7351 34.8947 84.9975 34.6547 85.3274C34.4298 85.6423 34.2799 86.0172 34.2049 86.4521H38.8834Z" fill="white"/>
<path d="M44.0021 81.9535H46.6113L46.8138 83.1006C47.1737 82.6957 47.6085 82.3808 48.1184 82.1559C48.6432 81.916 49.2055 81.796 49.8053 81.796C50.6901 81.796 51.4398 81.9835 52.0546 82.3583C52.6844 82.7332 53.1643 83.2805 53.4942 84.0003C53.8391 84.7051 54.0115 85.5823 54.0115 86.632V93.1999H51.1099V87.0144C51.1099 86.1447 50.9375 85.4924 50.5926 85.0575C50.2477 84.6226 49.7304 84.4052 49.0406 84.4052C48.3358 84.4052 47.796 84.6301 47.4211 85.08C47.0612 85.5148 46.8813 86.1671 46.8813 87.0369V93.1999H44.0021V81.9535Z" fill="white"/>
<path d="M61.4915 93.3574C60.3668 93.3574 59.3771 93.11 58.5224 92.6151C57.6677 92.1203 57.0004 91.4305 56.5205 90.5458C56.0557 89.6611 55.8233 88.6414 55.8233 87.4867C55.8233 86.3771 56.0557 85.3949 56.5205 84.5402C56.9854 83.6854 57.6302 83.0181 58.4549 82.5383C59.2947 82.0434 60.2469 81.796 61.3115 81.796C62.3912 81.796 63.3434 82.0284 64.1681 82.4933C64.9929 82.9581 65.6302 83.6104 66.08 84.4502C66.5449 85.2749 66.7773 86.2421 66.7773 87.3518C66.7773 87.5167 66.7623 87.7042 66.7323 87.9141C66.7174 88.109 66.6949 88.319 66.6649 88.5439H58.9273C58.9873 89.0238 59.1372 89.4361 59.3771 89.781C59.6321 90.1109 59.9395 90.3733 60.2994 90.5683C60.6742 90.7482 61.0941 90.8382 61.559 90.8382C62.1138 90.8382 62.6086 90.7257 63.0435 90.5008C63.4934 90.2609 63.8158 89.9535 64.0107 89.5786L66.5749 90.3433C66.125 91.303 65.4502 92.0453 64.5505 92.5701C63.6658 93.095 62.6461 93.3574 61.4915 93.3574ZM63.6283 86.4521C63.6133 86.0322 63.5009 85.6573 63.2909 85.3274C63.081 84.9825 62.8036 84.7201 62.4587 84.5402C62.1138 84.3452 61.7314 84.2477 61.3115 84.2477C60.9367 84.2477 60.5843 84.3452 60.2544 84.5402C59.9245 84.7351 59.6396 84.9975 59.3996 85.3274C59.1747 85.6423 59.0248 86.0172 58.9498 86.4521H63.6283Z" fill="white"/>
<path d="M76.9345 80.4689C76.4096 80.4689 75.9673 80.304 75.6074 79.9741C75.2625 79.6292 75.0901 79.2168 75.0901 78.737C75.0901 78.2421 75.2625 77.8298 75.6074 77.4999C75.9673 77.17 76.4096 77.005 76.9345 77.005C77.4593 77.005 77.8942 77.17 78.2391 77.4999C78.599 77.8298 78.7789 78.2421 78.7789 78.737C78.7789 79.2168 78.599 79.6292 78.2391 79.9741C77.8942 80.304 77.4593 80.4689 76.9345 80.4689ZM78.374 81.931V93.1999H75.4724V84.4727H67.9598V81.931H78.374ZM69.2869 80.9413C69.2869 79.9666 69.4593 79.1718 69.8042 78.557C70.1641 77.9422 70.6889 77.4999 71.3787 77.2299C72.0835 76.96 72.9607 76.8851 74.0104 77.005V79.5467C73.3506 79.4567 72.8783 79.5467 72.5933 79.8166C72.3234 80.0865 72.1884 80.5064 72.1884 81.0762V93.1999H69.2869V80.9413Z" fill="white"/>
<path d="M82.1599 81.9535V78.8044H85.084V81.9535H87.5582V84.4952H85.084V89.0612C85.084 89.6461 85.2039 90.0584 85.4438 90.2984C85.6988 90.5383 86.0137 90.6657 86.3885 90.6807C86.7784 90.6957 87.1683 90.6732 87.5582 90.6133V93.0875C86.8684 93.2374 86.1936 93.2824 85.5338 93.2224C84.889 93.1625 84.3117 92.99 83.8019 92.7051C83.292 92.4052 82.8871 91.9553 82.5872 91.3555C82.3023 90.7557 82.1599 89.9909 82.1599 89.0612V84.4952H80.5629V81.9535H82.1599Z" fill="white"/>
<path d="M91.4087 89.5336C91.4987 89.9085 91.6486 90.1934 91.8585 90.3883C92.0835 90.5833 92.3309 90.7257 92.6008 90.8157C92.8857 90.8907 93.1706 90.9282 93.4556 90.9282C93.9804 90.9282 94.3927 90.8307 94.6926 90.6357C94.9926 90.4258 95.1425 90.1634 95.1425 89.8485C95.1425 89.5786 95.0376 89.3686 94.8276 89.2187C94.6177 89.0537 94.3478 88.9338 94.0179 88.8588C93.688 88.7688 93.3506 88.6789 93.0057 88.5889C92.6008 88.4839 92.166 88.3715 91.7011 88.2515C91.2512 88.1165 90.8239 87.9291 90.419 87.6892C90.0141 87.4492 89.6767 87.1418 89.4068 86.767C89.1369 86.3771 89.0019 85.8897 89.0019 85.3049C89.0019 84.6151 89.1894 84.0078 89.5643 83.483C89.9542 82.9581 90.4865 82.5458 91.1613 82.2459C91.8511 81.946 92.6458 81.796 93.5455 81.796C94.6102 81.796 95.5099 82.0209 96.2447 82.4708C96.9795 82.9207 97.5118 83.5655 97.8417 84.4052L95.3 85.125C95.225 84.915 95.0975 84.7426 94.9176 84.6076C94.7376 84.4727 94.5202 84.3752 94.2653 84.3152C94.0254 84.2552 93.7779 84.2253 93.523 84.2253C93.0882 84.2253 92.7283 84.3152 92.4434 84.4952C92.1585 84.6601 92.016 84.8925 92.016 85.1925C92.016 85.3724 92.0685 85.5223 92.1734 85.6423C92.2784 85.7473 92.4209 85.8372 92.6008 85.9122C92.7958 85.9872 93.0132 86.0547 93.2531 86.1147C93.508 86.1746 93.7854 86.2421 94.0854 86.3171C94.5502 86.4371 95.0151 86.5795 95.4799 86.7445C95.9598 86.8944 96.3946 87.0894 96.7845 87.3293C97.1894 87.5692 97.5118 87.8916 97.7517 88.2965C97.9916 88.7014 98.1266 89.2112 98.1566 89.826C98.1566 90.4858 97.9691 91.0856 97.5942 91.6254C97.2194 92.1503 96.6795 92.5701 95.9748 92.885C95.27 93.1999 94.4152 93.3574 93.4106 93.3574C92.2409 93.3574 91.2437 93.11 90.419 92.6151C89.6093 92.1203 89.0769 91.348 88.822 90.2984L91.4087 89.5336Z" fill="white"/>
<path d="M100.908 79.3456H105.882V80.241H103.938V85.6766H102.861V80.241H100.908V79.3456ZM107.764 85.6766H106.688V79.3456H107.89L110.025 84.2657L112.159 79.3456H113.353V85.6766H112.286V81.3986L110.432 85.6766H109.618L107.764 81.3986V85.6766Z" fill="white"/>
</svg>
