<svg width="356" height="326" viewBox="0 0 356 326" fill="none" xmlns="http://www.w3.org/2000/svg">
<rect x="0.5" y="0.5" width="354.333" height="325" rx="15.5" fill="white"/>
<rect x="0.5" y="0.5" width="354.333" height="325" rx="15.5" stroke="#D4DAE3"/>
<g clip-path="url(#clip0_18552_17499)">
<mask id="path-3-inside-1_18552_17499" fill="white">
<path d="M149.874 109.908C170.887 109.909 191.074 133.757 212.087 133.757H239.412C262.213 133.757 273.614 133.757 282.322 138.194C289.983 142.098 296.21 148.326 300.113 155.986C304.551 164.695 304.551 176.095 304.551 198.896V272.86C304.551 295.661 304.551 307.062 300.113 315.771C296.21 323.431 289.982 329.659 282.322 333.562C273.614 337.999 262.213 337.999 239.412 337.999H117.139C94.3382 337.999 82.9382 337.999 74.2295 333.562C66.5692 329.658 60.3407 323.431 56.4375 315.771C52.0002 307.062 52 295.661 52 272.86V150.62C52 128.136 70.2275 109.908 92.7119 109.908H149.874Z"/>
</mask>
<path d="M149.874 109.908C170.887 109.909 191.074 133.757 212.087 133.757H239.412C262.213 133.757 273.614 133.757 282.322 138.194C289.983 142.098 296.21 148.326 300.113 155.986C304.551 164.695 304.551 176.095 304.551 198.896V272.86C304.551 295.661 304.551 307.062 300.113 315.771C296.21 323.431 289.982 329.659 282.322 333.562C273.614 337.999 262.213 337.999 239.412 337.999H117.139C94.3382 337.999 82.9382 337.999 74.2295 333.562C66.5692 329.658 60.3407 323.431 56.4375 315.771C52.0002 307.062 52 295.661 52 272.86V150.62C52 128.136 70.2275 109.908 92.7119 109.908H149.874Z" fill="#D9D9D9"/>
<path d="M149.874 109.908C170.887 109.909 191.074 133.757 212.087 133.757H239.412C262.213 133.757 273.614 133.757 282.322 138.194C289.983 142.098 296.21 148.326 300.113 155.986C304.551 164.695 304.551 176.095 304.551 198.896V272.86C304.551 295.661 304.551 307.062 300.113 315.771C296.21 323.431 289.982 329.659 282.322 333.562C273.614 337.999 262.213 337.999 239.412 337.999H117.139C94.3382 337.999 82.9382 337.999 74.2295 333.562C66.5692 329.658 60.3407 323.431 56.4375 315.771C52.0002 307.062 52 295.661 52 272.86V150.62C52 128.136 70.2275 109.908 92.7119 109.908H149.874Z" fill="url(#paint0_radial_18552_17499)"/>
<path d="M149.874 109.908L149.874 108.28H149.874V109.908ZM282.322 138.194L283.062 136.743L283.062 136.743L282.322 138.194ZM300.113 155.986L301.564 155.247V155.247L300.113 155.986ZM304.551 198.896H306.179H304.551ZM300.113 315.771L301.564 316.51V316.51L300.113 315.771ZM282.322 333.562L283.062 335.013H283.062L282.322 333.562ZM117.139 337.999V339.628V337.999ZM74.2295 333.562L73.4902 335.013H73.4902L74.2295 333.562ZM56.4375 315.771L54.9865 316.51L54.9865 316.51L56.4375 315.771ZM212.087 133.757V135.385H239.412V133.757V132.128H212.087V133.757ZM239.412 133.757V135.385C250.839 135.385 259.312 135.387 266.019 135.935C272.707 136.481 277.496 137.563 281.583 139.645L282.322 138.194L283.062 136.743C278.439 134.388 273.174 133.252 266.284 132.689C259.414 132.127 250.786 132.128 239.412 132.128V133.757ZM282.322 138.194L281.583 139.645C288.937 143.392 294.915 149.372 298.662 156.726L300.113 155.986L301.564 155.247C297.505 147.28 291.028 140.803 283.062 136.743L282.322 138.194ZM300.113 155.986L298.662 156.726C300.744 160.812 301.826 165.601 302.373 172.289C302.921 178.996 302.922 187.469 302.922 198.896H304.551H306.179C306.179 187.522 306.18 178.894 305.619 172.024C305.056 165.135 303.919 159.869 301.564 155.247L300.113 155.986ZM304.551 198.896H302.922V272.86H304.551H306.179V198.896H304.551ZM304.551 272.86H302.922C302.922 284.288 302.921 292.76 302.373 299.467C301.826 306.156 300.744 310.945 298.662 315.031L300.113 315.771L301.564 316.51C303.919 311.888 305.056 306.622 305.619 299.733C306.18 292.862 306.179 284.234 306.179 272.86H304.551ZM300.113 315.771L298.662 315.031C294.915 322.385 288.937 328.364 281.583 332.111L282.322 333.562L283.062 335.013C291.028 330.953 297.505 324.476 301.564 316.51L300.113 315.771ZM282.322 333.562L281.583 332.111C277.496 334.193 272.707 335.275 266.019 335.821C259.312 336.369 250.839 336.371 239.412 336.371V337.999V339.628C250.786 339.628 259.414 339.629 266.284 339.067C273.174 338.504 278.439 337.368 283.062 335.013L282.322 333.562ZM239.412 337.999V336.371H117.139V337.999V339.628H239.412V337.999ZM117.139 337.999V336.371C105.712 336.371 97.2392 336.369 90.5323 335.821C83.8443 335.275 79.0553 334.193 74.9688 332.111L74.2295 333.562L73.4902 335.013C78.1123 337.368 83.3777 338.504 90.267 339.067C97.1374 339.629 105.765 339.628 117.139 339.628V337.999ZM74.2295 333.562L74.9688 332.111C67.6148 328.364 61.6355 322.385 57.8885 315.031L56.4375 315.771L54.9865 316.51C59.0459 324.477 65.5235 330.953 73.4902 335.013L74.2295 333.562ZM56.4375 315.771L57.8885 315.031C55.8063 310.945 54.7243 306.156 54.1778 299.467C53.6298 292.76 53.6285 284.288 53.6285 272.86H52H50.3715C50.3715 284.234 50.3703 292.862 50.9317 299.733C51.4946 306.622 52.6314 311.888 54.9865 316.51L56.4375 315.771ZM52 272.86H53.6285V150.62H52H50.3715V272.86H52ZM52 150.62H53.6285C53.6285 129.035 71.1269 111.537 92.7119 111.537V109.908V108.28C69.3281 108.28 50.3715 127.236 50.3715 150.62H52ZM92.7119 109.908V111.537H149.874V109.908V108.28H92.7119V109.908ZM149.874 109.908L149.874 111.537C159.857 111.537 169.754 117.216 180.165 123.242C190.354 129.14 201.056 135.385 212.087 135.385V133.757V132.128C202.104 132.128 192.207 126.449 181.796 120.423C171.607 114.525 160.904 108.28 149.874 108.28L149.874 109.908Z" fill="url(#paint1_linear_18552_17499)" mask="url(#path-3-inside-1_18552_17499)"/>
<path d="M149.874 109.908L149.874 108.28H149.874V109.908ZM282.322 138.194L283.062 136.743L283.062 136.743L282.322 138.194ZM300.113 155.986L301.564 155.247V155.247L300.113 155.986ZM304.551 198.896H306.179H304.551ZM300.113 315.771L301.564 316.51V316.51L300.113 315.771ZM282.322 333.562L283.062 335.013H283.062L282.322 333.562ZM117.139 337.999V339.628V337.999ZM74.2295 333.562L73.4902 335.013H73.4902L74.2295 333.562ZM56.4375 315.771L54.9865 316.51L54.9865 316.51L56.4375 315.771ZM212.087 133.757V135.385H239.412V133.757V132.128H212.087V133.757ZM239.412 133.757V135.385C250.839 135.385 259.312 135.387 266.019 135.935C272.707 136.481 277.496 137.563 281.583 139.645L282.322 138.194L283.062 136.743C278.439 134.388 273.174 133.252 266.284 132.689C259.414 132.127 250.786 132.128 239.412 132.128V133.757ZM282.322 138.194L281.583 139.645C288.937 143.392 294.915 149.372 298.662 156.726L300.113 155.986L301.564 155.247C297.505 147.28 291.028 140.803 283.062 136.743L282.322 138.194ZM300.113 155.986L298.662 156.726C300.744 160.812 301.826 165.601 302.373 172.289C302.921 178.996 302.922 187.469 302.922 198.896H304.551H306.179C306.179 187.522 306.18 178.894 305.619 172.024C305.056 165.135 303.919 159.869 301.564 155.247L300.113 155.986ZM304.551 198.896H302.922V272.86H304.551H306.179V198.896H304.551ZM304.551 272.86H302.922C302.922 284.288 302.921 292.76 302.373 299.467C301.826 306.156 300.744 310.945 298.662 315.031L300.113 315.771L301.564 316.51C303.919 311.888 305.056 306.622 305.619 299.733C306.18 292.862 306.179 284.234 306.179 272.86H304.551ZM300.113 315.771L298.662 315.031C294.915 322.385 288.937 328.364 281.583 332.111L282.322 333.562L283.062 335.013C291.028 330.953 297.505 324.476 301.564 316.51L300.113 315.771ZM282.322 333.562L281.583 332.111C277.496 334.193 272.707 335.275 266.019 335.821C259.312 336.369 250.839 336.371 239.412 336.371V337.999V339.628C250.786 339.628 259.414 339.629 266.284 339.067C273.174 338.504 278.439 337.368 283.062 335.013L282.322 333.562ZM239.412 337.999V336.371H117.139V337.999V339.628H239.412V337.999ZM117.139 337.999V336.371C105.712 336.371 97.2392 336.369 90.5323 335.821C83.8443 335.275 79.0553 334.193 74.9688 332.111L74.2295 333.562L73.4902 335.013C78.1123 337.368 83.3777 338.504 90.267 339.067C97.1374 339.629 105.765 339.628 117.139 339.628V337.999ZM74.2295 333.562L74.9688 332.111C67.6148 328.364 61.6355 322.385 57.8885 315.031L56.4375 315.771L54.9865 316.51C59.0459 324.477 65.5235 330.953 73.4902 335.013L74.2295 333.562ZM56.4375 315.771L57.8885 315.031C55.8063 310.945 54.7243 306.156 54.1778 299.467C53.6298 292.76 53.6285 284.288 53.6285 272.86H52H50.3715C50.3715 284.234 50.3703 292.862 50.9317 299.733C51.4946 306.622 52.6314 311.888 54.9865 316.51L56.4375 315.771ZM52 272.86H53.6285V150.62H52H50.3715V272.86H52ZM52 150.62H53.6285C53.6285 129.035 71.1269 111.537 92.7119 111.537V109.908V108.28C69.3281 108.28 50.3715 127.236 50.3715 150.62H52ZM92.7119 109.908V111.537H149.874V109.908V108.28H92.7119V109.908ZM149.874 109.908L149.874 111.537C159.857 111.537 169.754 117.216 180.165 123.242C190.354 129.14 201.056 135.385 212.087 135.385V133.757V132.128C202.104 132.128 192.207 126.449 181.796 120.423C171.607 114.525 160.904 108.28 149.874 108.28L149.874 109.908Z" fill="url(#paint2_linear_18552_17499)" mask="url(#path-3-inside-1_18552_17499)"/>
<g filter="url(#filter0_dddd_18552_17499)">
<rect x="57.666" y="81" width="118.498" height="35.3101" rx="5.98476" fill="white"/>
<rect x="57.9653" y="81.2992" width="117.9" height="34.7116" rx="5.68552" stroke="#EBECEE" stroke-width="0.598476"/>
<rect x="62.4531" y="85.7878" width="26.9314" height="25.7344" rx="2.99238" fill="url(#paint3_linear_18552_17499)"/>
<rect x="95.3691" y="85.7878" width="74.211" height="5.38628" rx="2.69314" fill="#EBECEE"/>
<rect x="95.3691" y="93.568" width="32.3177" height="5.38628" rx="2.69314" fill="#EBECEE"/>
<rect x="141.453" y="106.136" width="13.1665" height="5.38628" rx="2.69314" fill="#EBECEE"/>
<rect x="156.414" y="106.136" width="13.1665" height="5.38628" rx="2.69314" fill="#EBECEE"/>
<path d="M75.6194 98.9542C77.6852 98.9542 79.3599 97.2796 79.3599 95.2138C79.3599 93.148 77.6852 91.4733 75.6194 91.4733C73.5536 91.4733 71.8789 93.148 71.8789 95.2138C71.8789 97.2796 73.5536 98.9542 75.6194 98.9542Z" fill="white"/>
<path d="M75.6205 100.824C71.8725 100.824 68.8203 103.338 68.8203 106.435C68.8203 106.645 68.9849 106.809 69.1944 106.809H82.0466C82.2561 106.809 82.4207 106.645 82.4207 106.435C82.4207 103.338 79.3684 100.824 75.6205 100.824Z" fill="white"/>
</g>
<g filter="url(#filter1_dddd_18552_17499)">
<rect x="159.664" y="124" width="133.128" height="39.6695" rx="6.72364" fill="white"/>
<rect x="160" y="124.336" width="132.456" height="38.9971" rx="6.38746" stroke="#EBECEE" stroke-width="0.672364"/>
<rect x="165.043" y="129.379" width="30.2564" height="28.9116" rx="3.36182" fill="url(#paint4_linear_18552_17499)"/>
<rect x="202.023" y="129.379" width="83.3731" height="6.05127" rx="3.02564" fill="#EBECEE"/>
<rect x="202.023" y="138.12" width="36.3076" height="6.05127" rx="3.02564" fill="#EBECEE"/>
<rect x="253.795" y="152.239" width="14.792" height="6.05127" rx="3.02564" fill="#EBECEE"/>
<rect x="270.604" y="152.239" width="14.792" height="6.05127" rx="3.02564" fill="#EBECEE"/>
<path d="M179.835 144.171C182.156 144.171 184.037 142.289 184.037 139.969C184.037 137.648 182.156 135.766 179.835 135.766C177.514 135.766 175.633 137.648 175.633 139.969C175.633 142.289 177.514 144.171 179.835 144.171Z" fill="white"/>
<path d="M179.835 146.272C175.624 146.272 172.195 149.096 172.195 152.575C172.195 152.811 172.38 152.996 172.616 152.996H187.055C187.29 152.996 187.475 152.811 187.475 152.575C187.475 149.096 184.046 146.272 179.835 146.272Z" fill="white"/>
</g>
<g filter="url(#filter2_dddd_18552_17499)">
<rect x="52" y="166.779" width="252.551" height="171.221" rx="40.7116" fill="black" fill-opacity="0.46"/>
</g>
<path d="M52.0007 232.209C52.0007 209.378 51.8415 197.513 56.2812 188.792C60.1865 181.122 66.3502 174.967 74.0148 171.059C82.7283 166.616 94.6184 166.778 117.432 166.778H239.121C261.934 166.778 273.824 166.616 282.537 171.059C290.202 174.967 296.366 181.122 300.271 188.792C304.711 197.513 304.552 209.378 304.552 232.209V272.568C304.552 295.4 304.711 307.265 300.271 315.985C296.366 323.656 290.202 329.81 282.537 333.719C273.824 338.162 261.934 337.999 239.121 337.999H117.432C94.6184 337.999 82.7283 338.162 74.0148 333.719C66.3502 329.81 60.1865 323.656 56.2812 315.985C51.8415 307.265 52.0007 295.4 52.0007 272.568V232.209Z" fill="url(#paint5_radial_18552_17499)"/>
<path d="M117.432 167.593H239.121C250.543 167.593 259.181 167.553 266.056 168.065C272.924 168.576 277.951 169.634 282.168 171.784C289.68 175.615 295.719 181.646 299.546 189.162C301.694 193.383 302.753 198.405 303.265 205.27C303.777 212.142 303.737 220.777 303.737 232.209V272.569C303.737 284 303.777 292.636 303.265 299.508C302.753 306.373 301.695 311.395 299.546 315.616C295.719 323.132 289.68 329.163 282.168 332.993C277.951 335.144 272.924 336.202 266.056 336.713C259.181 337.225 250.543 337.185 239.121 337.185H117.432C106.009 337.185 97.3713 337.225 90.4961 336.713C83.6278 336.202 78.6015 335.144 74.3848 332.993C66.8728 329.163 60.8339 323.133 57.0068 315.616C54.8581 311.395 53.7999 306.373 53.2881 299.508C52.7758 292.636 52.8154 284 52.8154 272.569V232.209C52.8154 220.777 52.7758 212.142 53.2881 205.27C53.7999 198.405 54.8582 193.383 57.0068 189.162C60.8339 181.645 66.8728 175.615 74.3848 171.784C78.6015 169.634 83.6278 168.576 90.4961 168.065C97.3713 167.553 106.009 167.593 117.432 167.593Z" stroke="url(#paint6_linear_18552_17499)" stroke-width="1.62847"/>
<g filter="url(#filter3_dddd_18552_17499)">
<rect x="189.666" y="55" width="104.034" height="31" rx="5.25425" fill="white"/>
<rect x="189.929" y="55.2627" width="103.509" height="30.4746" rx="4.99153" stroke="#EBECEE" stroke-width="0.525424"/>
<rect x="193.869" y="59.2034" width="23.6441" height="22.5933" rx="2.62712" fill="url(#paint7_linear_18552_17499)"/>
<rect x="222.768" y="59.2034" width="65.1526" height="4.72882" rx="2.36441" fill="#EBECEE"/>
<rect x="222.768" y="66.0339" width="28.3729" height="4.72882" rx="2.36441" fill="#EBECEE"/>
<rect x="263.225" y="77.0678" width="11.5593" height="4.72882" rx="2.36441" fill="#EBECEE"/>
<rect x="276.361" y="77.0678" width="11.5593" height="4.72882" rx="2.36441" fill="#EBECEE"/>
<path d="M205.428 70.7627C207.242 70.7627 208.712 69.2925 208.712 67.4788C208.712 65.6652 207.242 64.1949 205.428 64.1949C203.615 64.1949 202.145 65.6652 202.145 67.4788C202.145 69.2925 203.615 70.7627 205.428 70.7627Z" fill="white"/>
<path d="M205.429 72.4047C202.139 72.4047 199.459 74.6114 199.459 77.3305C199.459 77.5144 199.603 77.6589 199.787 77.6589H211.071C211.255 77.6589 211.399 77.5144 211.399 77.3305C211.399 74.6114 208.72 72.4047 205.429 72.4047Z" fill="white"/>
</g>
</g>
<path d="M93.6685 243H91.6685V229H93.8685L98.8485 240.34L103.809 229H105.989V243H104.009V232.88L99.5685 243H98.1085L93.6685 232.88V243ZM115.109 243L114.949 241.54C114.642 242.047 114.242 242.44 113.749 242.72C113.269 242.987 112.642 243.12 111.869 243.12C111.149 243.12 110.536 243.007 110.029 242.78C109.522 242.54 109.129 242.213 108.849 241.8C108.582 241.373 108.449 240.88 108.449 240.32C108.449 239.48 108.762 238.787 109.389 238.24C110.016 237.68 110.922 237.333 112.109 237.2L114.949 236.88V236.1C114.949 235.673 114.776 235.313 114.429 235.02C114.082 234.713 113.582 234.56 112.929 234.56C112.316 234.56 111.796 234.707 111.369 235C110.942 235.28 110.656 235.7 110.509 236.26L108.829 235.66C109.082 234.78 109.576 234.093 110.309 233.6C111.056 233.107 111.956 232.86 113.009 232.86C114.262 232.86 115.216 233.173 115.869 233.8C116.522 234.427 116.849 235.253 116.849 236.28V243H115.109ZM114.949 238.42L112.209 238.76C111.622 238.84 111.182 239.007 110.889 239.26C110.596 239.5 110.449 239.82 110.449 240.22C110.449 240.593 110.589 240.907 110.869 241.16C111.162 241.4 111.569 241.52 112.089 241.52C112.729 241.52 113.262 241.4 113.689 241.16C114.116 240.92 114.429 240.587 114.629 240.16C114.842 239.72 114.949 239.213 114.949 238.64V238.42ZM119.856 233H121.756V243H119.856V233ZM120.816 231.24C120.456 231.24 120.156 231.12 119.916 230.88C119.676 230.64 119.556 230.347 119.556 230C119.556 229.64 119.676 229.34 119.916 229.1C120.156 228.847 120.456 228.72 120.816 228.72C121.163 228.72 121.456 228.847 121.696 229.1C121.949 229.34 122.076 229.64 122.076 230C122.076 230.347 121.949 230.64 121.696 230.88C121.456 231.12 121.163 231.24 120.816 231.24ZM124.907 233H126.627L126.747 234.16C127.067 233.747 127.474 233.427 127.967 233.2C128.461 232.973 129.007 232.86 129.607 232.86C130.381 232.86 131.047 233.027 131.607 233.36C132.181 233.68 132.621 234.16 132.927 234.8C133.247 235.44 133.407 236.24 133.407 237.2V243H131.527V237.44C131.527 236.507 131.327 235.8 130.927 235.32C130.541 234.827 129.974 234.58 129.227 234.58C128.454 234.58 127.854 234.833 127.427 235.34C127.001 235.833 126.787 236.567 126.787 237.54V243H124.907V233ZM136.758 233V230.2H138.658V233H141.158V234.68H138.658V239.6C138.658 240.213 138.778 240.647 139.018 240.9C139.272 241.153 139.585 241.3 139.958 241.34C140.345 241.367 140.745 241.353 141.158 241.3V242.92C140.612 243.04 140.072 243.073 139.538 243.02C139.018 242.98 138.545 242.833 138.118 242.58C137.705 242.327 137.372 241.96 137.118 241.48C136.878 240.987 136.758 240.36 136.758 239.6V234.68H135.318V233H136.758ZM149.367 243L149.207 241.54C148.9 242.047 148.5 242.44 148.007 242.72C147.527 242.987 146.9 243.12 146.127 243.12C145.407 243.12 144.793 243.007 144.287 242.78C143.78 242.54 143.387 242.213 143.107 241.8C142.84 241.373 142.707 240.88 142.707 240.32C142.707 239.48 143.02 238.787 143.647 238.24C144.273 237.68 145.18 237.333 146.367 237.2L149.207 236.88V236.1C149.207 235.673 149.033 235.313 148.687 235.02C148.34 234.713 147.84 234.56 147.187 234.56C146.573 234.56 146.053 234.707 145.627 235C145.2 235.28 144.913 235.7 144.767 236.26L143.087 235.66C143.34 234.78 143.833 234.093 144.567 233.6C145.313 233.107 146.213 232.86 147.267 232.86C148.52 232.86 149.473 233.173 150.127 233.8C150.78 234.427 151.107 235.253 151.107 236.28V243H149.367ZM149.207 238.42L146.467 238.76C145.88 238.84 145.44 239.007 145.147 239.26C144.853 239.5 144.707 239.82 144.707 240.22C144.707 240.593 144.847 240.907 145.127 241.16C145.42 241.4 145.827 241.52 146.347 241.52C146.987 241.52 147.52 241.4 147.947 241.16C148.373 240.92 148.687 240.587 148.887 240.16C149.1 239.72 149.207 239.213 149.207 238.64V238.42ZM154.114 233H156.014V243H154.114V233ZM155.074 231.24C154.714 231.24 154.414 231.12 154.174 230.88C153.934 230.64 153.814 230.347 153.814 230C153.814 229.64 153.934 229.34 154.174 229.1C154.414 228.847 154.714 228.72 155.074 228.72C155.42 228.72 155.714 228.847 155.954 229.1C156.207 229.34 156.334 229.64 156.334 230C156.334 230.347 156.207 230.64 155.954 230.88C155.714 231.12 155.42 231.24 155.074 231.24ZM159.165 233H160.885L161.005 234.16C161.325 233.747 161.732 233.427 162.225 233.2C162.719 232.973 163.265 232.86 163.865 232.86C164.639 232.86 165.305 233.027 165.865 233.36C166.439 233.68 166.879 234.16 167.185 234.8C167.505 235.44 167.665 236.24 167.665 237.2V243H165.785V237.44C165.785 236.507 165.585 235.8 165.185 235.32C164.799 234.827 164.232 234.58 163.485 234.58C162.712 234.58 162.112 234.833 161.685 235.34C161.259 235.833 161.045 236.567 161.045 237.54V243H159.165V233ZM181.842 230.68H181.142L176.742 243H174.702L179.742 229H183.202L188.242 243H186.202L181.842 230.68ZM177.282 237.76H185.442V239.44H177.282V237.76ZM196.249 243.14C195.263 243.14 194.336 242.967 193.469 242.62C192.616 242.273 191.869 241.787 191.229 241.16C190.589 240.52 190.089 239.767 189.729 238.9C189.369 238.02 189.189 237.053 189.189 236C189.189 234.947 189.369 233.987 189.729 233.12C190.089 232.253 190.589 231.5 191.229 230.86C191.869 230.22 192.616 229.727 193.469 229.38C194.336 229.033 195.263 228.86 196.249 228.86C197.223 228.86 198.136 229.033 198.989 229.38C199.843 229.727 200.589 230.22 201.229 230.86C201.869 231.5 202.369 232.253 202.729 233.12C203.089 233.987 203.269 234.947 203.269 236C203.269 237.053 203.089 238.02 202.729 238.9C202.369 239.767 201.869 240.52 201.229 241.16C200.589 241.787 199.843 242.273 198.989 242.62C198.136 242.967 197.223 243.14 196.249 243.14ZM196.249 241.42C197.196 241.42 198.043 241.2 198.789 240.76C199.549 240.32 200.149 239.693 200.589 238.88C201.029 238.067 201.249 237.107 201.249 236C201.249 234.88 201.029 233.92 200.589 233.12C200.149 232.307 199.549 231.68 198.789 231.24C198.043 230.8 197.196 230.58 196.249 230.58C195.289 230.58 194.429 230.8 193.669 231.24C192.909 231.68 192.309 232.307 191.869 233.12C191.443 233.92 191.229 234.88 191.229 236C191.229 237.107 191.443 238.067 191.869 238.88C192.309 239.693 192.909 240.32 193.669 240.76C194.429 241.2 195.289 241.42 196.249 241.42ZM213.673 233.18C213.673 232.42 213.447 231.813 212.993 231.36C212.54 230.907 211.82 230.68 210.833 230.68H207.633V235.66H210.853C211.507 235.66 212.04 235.56 212.453 235.36C212.867 235.147 213.173 234.853 213.373 234.48C213.573 234.107 213.673 233.673 213.673 233.18ZM210.833 229C211.94 229 212.847 229.193 213.553 229.58C214.273 229.953 214.807 230.453 215.153 231.08C215.513 231.707 215.693 232.407 215.693 233.18C215.693 233.687 215.607 234.187 215.433 234.68C215.26 235.173 214.98 235.627 214.593 236.04C214.207 236.44 213.7 236.76 213.073 237C212.46 237.227 211.72 237.34 210.853 237.34H207.633V243H205.633V229H210.833ZM212.113 236.66L215.973 243H213.713L209.993 236.66H212.113ZM221.568 227H223.548L218.728 245H216.768L221.568 227ZM233.486 232.88C233.486 232.2 233.259 231.667 232.806 231.28C232.366 230.88 231.726 230.68 230.886 230.68H227.126V235.06H230.906C231.719 235.06 232.352 234.867 232.806 234.48C233.259 234.093 233.486 233.56 233.486 232.88ZM225.126 243V229H231.066C232.052 229 232.872 229.167 233.526 229.5C234.179 229.833 234.666 230.273 234.986 230.82C235.319 231.367 235.486 231.973 235.486 232.64C235.486 233.267 235.366 233.793 235.126 234.22C234.899 234.647 234.592 234.987 234.206 235.24C233.832 235.493 233.406 235.673 232.926 235.78V235.92C233.499 236 233.999 236.173 234.426 236.44C234.866 236.693 235.206 237.053 235.446 237.52C235.699 237.987 235.826 238.567 235.826 239.26C235.826 239.953 235.646 240.587 235.286 241.16C234.926 241.733 234.406 242.187 233.726 242.52C233.059 242.84 232.246 243 231.286 243H225.126ZM227.126 241.32H231.106C231.959 241.32 232.626 241.127 233.106 240.74C233.599 240.34 233.846 239.773 233.846 239.04C233.846 238.293 233.586 237.727 233.066 237.34C232.559 236.94 231.886 236.74 231.046 236.74H227.126V241.32ZM244.726 243.14C243.739 243.14 242.813 242.967 241.946 242.62C241.093 242.273 240.346 241.787 239.706 241.16C239.066 240.52 238.566 239.767 238.206 238.9C237.846 238.02 237.666 237.053 237.666 236C237.666 234.947 237.846 233.987 238.206 233.12C238.566 232.253 239.066 231.5 239.706 230.86C240.346 230.22 241.093 229.727 241.946 229.38C242.813 229.033 243.739 228.86 244.726 228.86C245.699 228.86 246.613 229.033 247.466 229.38C248.319 229.727 249.066 230.22 249.706 230.86C250.346 231.5 250.846 232.253 251.206 233.12C251.566 233.987 251.746 234.947 251.746 236C251.746 237.053 251.566 238.02 251.206 238.9C250.846 239.767 250.346 240.52 249.706 241.16C249.066 241.787 248.319 242.273 247.466 242.62C246.613 242.967 245.699 243.14 244.726 243.14ZM244.726 241.42C245.673 241.42 246.519 241.2 247.266 240.76C248.026 240.32 248.626 239.693 249.066 238.88C249.506 238.067 249.726 237.107 249.726 236C249.726 234.88 249.506 233.92 249.066 233.12C248.626 232.307 248.026 231.68 247.266 231.24C246.519 230.8 245.673 230.58 244.726 230.58C243.766 230.58 242.906 230.8 242.146 231.24C241.386 231.68 240.786 232.307 240.346 233.12C239.919 233.92 239.706 234.88 239.706 236C239.706 237.107 239.919 238.067 240.346 238.88C240.786 239.693 241.386 240.32 242.146 240.76C242.906 241.2 243.766 241.42 244.726 241.42ZM262.15 233.18C262.15 232.42 261.923 231.813 261.47 231.36C261.017 230.907 260.297 230.68 259.31 230.68H256.11V235.66H259.33C259.983 235.66 260.517 235.56 260.93 235.36C261.343 235.147 261.65 234.853 261.85 234.48C262.05 234.107 262.15 233.673 262.15 233.18ZM259.31 229C260.417 229 261.323 229.193 262.03 229.58C262.75 229.953 263.283 230.453 263.63 231.08C263.99 231.707 264.17 232.407 264.17 233.18C264.17 233.687 264.083 234.187 263.91 234.68C263.737 235.173 263.457 235.627 263.07 236.04C262.683 236.44 262.177 236.76 261.55 237C260.937 237.227 260.197 237.34 259.33 237.34H256.11V243H254.11V229H259.31ZM260.59 236.66L264.45 243H262.19L258.47 236.66H260.59Z" fill="#25272C"/>
<path d="M45.4095 259.8H46.6895V264.744H47.2335L51.8575 259.8H53.5055L48.3535 265.304L53.5535 271H51.8575L47.2175 265.864H46.6895V271H45.4095V259.8ZM58.3602 271.112C57.6136 271.112 56.9469 270.931 56.3602 270.568C55.7842 270.205 55.3309 269.709 55.0002 269.08C54.6696 268.451 54.5042 267.731 54.5042 266.92C54.5042 266.141 54.6696 265.448 55.0002 264.84C55.3309 264.232 55.7842 263.757 56.3602 263.416C56.9362 263.064 57.5922 262.888 58.3282 262.888C59.0536 262.888 59.6989 263.048 60.2642 263.368C60.8402 263.688 61.2882 264.131 61.6082 264.696C61.9282 265.261 62.0776 265.907 62.0562 266.632C62.0562 266.749 62.0509 266.872 62.0402 267C62.0296 267.128 62.0189 267.267 62.0082 267.416H55.8162C55.8376 267.917 55.9602 268.36 56.1842 268.744C56.4082 269.128 56.7016 269.432 57.0642 269.656C57.4376 269.869 57.8589 269.976 58.3282 269.976C58.9469 269.976 59.4696 269.859 59.8962 269.624C60.3336 269.389 60.6482 269.053 60.8402 268.616L61.8802 269.032C61.5602 269.704 61.0962 270.221 60.4882 270.584C59.8802 270.936 59.1709 271.112 58.3602 271.112ZM60.7442 266.376C60.7549 265.917 60.6536 265.512 60.4402 265.16C60.2376 264.808 59.9496 264.531 59.5762 264.328C59.2029 264.125 58.7709 264.024 58.2802 264.024C57.8536 264.024 57.4642 264.125 57.1122 264.328C56.7602 264.531 56.4669 264.813 56.2322 265.176C56.0082 265.528 55.8749 265.928 55.8322 266.376H60.7442ZM67.3915 271.112C66.6448 271.112 65.9782 270.931 65.3915 270.568C64.8155 270.205 64.3622 269.709 64.0315 269.08C63.7008 268.451 63.5355 267.731 63.5355 266.92C63.5355 266.141 63.7008 265.448 64.0315 264.84C64.3622 264.232 64.8155 263.757 65.3915 263.416C65.9675 263.064 66.6235 262.888 67.3595 262.888C68.0848 262.888 68.7302 263.048 69.2955 263.368C69.8715 263.688 70.3195 264.131 70.6395 264.696C70.9595 265.261 71.1088 265.907 71.0875 266.632C71.0875 266.749 71.0822 266.872 71.0715 267C71.0608 267.128 71.0502 267.267 71.0395 267.416H64.8475C64.8688 267.917 64.9915 268.36 65.2155 268.744C65.4395 269.128 65.7328 269.432 66.0955 269.656C66.4688 269.869 66.8902 269.976 67.3595 269.976C67.9782 269.976 68.5008 269.859 68.9275 269.624C69.3648 269.389 69.6795 269.053 69.8715 268.616L70.9115 269.032C70.5915 269.704 70.1275 270.221 69.5195 270.584C68.9115 270.936 68.2022 271.112 67.3915 271.112ZM69.7755 266.376C69.7862 265.917 69.6848 265.512 69.4715 265.16C69.2688 264.808 68.9808 264.531 68.6075 264.328C68.2342 264.125 67.8022 264.024 67.3115 264.024C66.8848 264.024 66.4955 264.125 66.1435 264.328C65.7915 264.531 65.4982 264.813 65.2635 265.176C65.0395 265.528 64.9062 265.928 64.8635 266.376H69.7755ZM74.1347 269.384L74.2627 269.368V274.2H73.0627V263H74.1667L74.2467 264.488C74.4921 264.04 74.8547 263.661 75.3347 263.352C75.8147 263.043 76.4174 262.888 77.1427 262.888C77.8361 262.888 78.4601 263.059 79.0147 263.4C79.5694 263.731 80.0067 264.205 80.3267 264.824C80.6467 265.432 80.8067 266.157 80.8067 267C80.8067 267.832 80.6521 268.557 80.3427 269.176C80.0441 269.784 79.6174 270.259 79.0627 270.6C78.5187 270.941 77.8787 271.112 77.1427 271.112C76.3747 271.112 75.7401 270.947 75.2387 270.616C74.7374 270.285 74.3694 269.875 74.1347 269.384ZM79.5107 267C79.5107 266.083 79.2707 265.357 78.7907 264.824C78.3214 264.28 77.6867 264.008 76.8867 264.008C76.3854 264.008 75.9321 264.125 75.5267 264.36C75.1321 264.595 74.8227 264.936 74.5987 265.384C74.3747 265.832 74.2627 266.371 74.2627 267C74.2627 267.619 74.3747 268.152 74.5987 268.6C74.8227 269.048 75.1321 269.395 75.5267 269.64C75.9321 269.875 76.3854 269.992 76.8867 269.992C77.6867 269.992 78.3214 269.725 78.7907 269.192C79.2707 268.648 79.5107 267.917 79.5107 267ZM86.7062 265.4C86.7062 264.557 86.8449 263.789 87.1222 263.096C87.3996 262.392 87.7889 261.789 88.2902 261.288C88.8022 260.776 89.3889 260.381 90.0502 260.104C90.7222 259.827 91.4529 259.688 92.2422 259.688C93.3942 259.688 94.4022 259.955 95.2662 260.488C96.1409 261.021 96.8022 261.779 97.2502 262.76L96.2102 263.144C95.9649 262.621 95.6396 262.195 95.2342 261.864C94.8289 261.523 94.3702 261.267 93.8582 261.096C93.3462 260.925 92.8076 260.84 92.2422 260.84C91.4422 260.84 90.7222 261.021 90.0822 261.384C89.4422 261.747 88.9356 262.269 88.5622 262.952C88.1996 263.635 88.0182 264.451 88.0182 265.4C88.0182 266.339 88.1996 267.149 88.5622 267.832C88.9356 268.515 89.4422 269.043 90.0822 269.416C90.7222 269.779 91.4422 269.96 92.2422 269.96C92.8182 269.96 93.3676 269.869 93.8902 269.688C94.4129 269.507 94.8822 269.224 95.2982 268.84C95.7249 268.456 96.0662 267.976 96.3222 267.4L97.3622 267.784C96.9036 268.883 96.2316 269.715 95.3462 270.28C94.4609 270.835 93.4262 271.112 92.2422 271.112C91.4529 271.112 90.7222 270.973 90.0502 270.696C89.3889 270.419 88.8022 270.024 88.2902 269.512C87.7889 269 87.3996 268.397 87.1222 267.704C86.8449 267 86.7062 266.232 86.7062 265.4ZM99.4846 259.48H100.685V271H99.4846V259.48ZM103.365 263H104.549V271H103.365V263ZM103.973 261.4C103.728 261.4 103.525 261.32 103.365 261.16C103.205 261 103.125 260.803 103.125 260.568C103.125 260.323 103.205 260.12 103.365 259.96C103.525 259.8 103.728 259.72 103.973 259.72C104.197 259.72 104.389 259.8 104.549 259.96C104.72 260.12 104.805 260.323 104.805 260.568C104.805 260.803 104.72 261 104.549 261.16C104.389 261.32 104.197 261.4 103.973 261.4ZM110.61 271.112C109.864 271.112 109.197 270.931 108.61 270.568C108.034 270.205 107.581 269.709 107.25 269.08C106.92 268.451 106.754 267.731 106.754 266.92C106.754 266.141 106.92 265.448 107.25 264.84C107.581 264.232 108.034 263.757 108.61 263.416C109.186 263.064 109.842 262.888 110.578 262.888C111.304 262.888 111.949 263.048 112.514 263.368C113.09 263.688 113.538 264.131 113.858 264.696C114.178 265.261 114.328 265.907 114.306 266.632C114.306 266.749 114.301 266.872 114.29 267C114.28 267.128 114.269 267.267 114.258 267.416H108.066C108.088 267.917 108.21 268.36 108.434 268.744C108.658 269.128 108.952 269.432 109.314 269.656C109.688 269.869 110.109 269.976 110.578 269.976C111.197 269.976 111.72 269.859 112.146 269.624C112.584 269.389 112.898 269.053 113.09 268.616L114.13 269.032C113.81 269.704 113.346 270.221 112.738 270.584C112.13 270.936 111.421 271.112 110.61 271.112ZM112.994 266.376C113.005 265.917 112.904 265.512 112.69 265.16C112.488 264.808 112.2 264.531 111.826 264.328C111.453 264.125 111.021 264.024 110.53 264.024C110.104 264.024 109.714 264.125 109.362 264.328C109.01 264.531 108.717 264.813 108.482 265.176C108.258 265.528 108.125 265.928 108.082 266.376H112.994ZM116.281 263H117.385L117.449 264.136C117.705 263.741 118.041 263.437 118.457 263.224C118.873 263 119.359 262.888 119.913 262.888C120.521 262.888 121.055 263.021 121.513 263.288C121.972 263.544 122.329 263.933 122.585 264.456C122.841 264.968 122.969 265.613 122.969 266.392V271H121.769V266.536C121.769 265.704 121.588 265.075 121.225 264.648C120.873 264.211 120.361 263.992 119.689 263.992C118.996 263.992 118.452 264.221 118.057 264.68C117.673 265.139 117.481 265.816 117.481 266.712V271H116.281V263ZM125.809 263V260.76H127.009V263H129.137V264.12H127.009V268.424C127.009 268.915 127.11 269.272 127.313 269.496C127.526 269.72 127.793 269.853 128.113 269.896C128.444 269.939 128.785 269.939 129.137 269.896V270.936C128.721 271.032 128.31 271.059 127.905 271.016C127.51 270.973 127.153 270.856 126.833 270.664C126.524 270.461 126.273 270.179 126.081 269.816C125.9 269.453 125.809 268.989 125.809 268.424V264.12H124.609V263H125.809ZM141.998 263.112C141.998 262.44 141.801 261.907 141.406 261.512C141.012 261.117 140.366 260.92 139.47 260.92H136.814V265.304H139.486C140.073 265.304 140.548 265.213 140.91 265.032C141.284 264.851 141.556 264.595 141.726 264.264C141.908 263.933 141.998 263.549 141.998 263.112ZM139.47 259.8C140.345 259.8 141.06 259.949 141.614 260.248C142.18 260.547 142.601 260.947 142.878 261.448C143.156 261.939 143.294 262.493 143.294 263.112C143.294 263.549 143.22 263.965 143.07 264.36C142.932 264.755 142.708 265.107 142.398 265.416C142.089 265.725 141.694 265.971 141.214 266.152C140.734 266.333 140.158 266.424 139.486 266.424H136.814V271H135.534V259.8H139.47ZM140.398 265.944L143.502 271H142.046L139.022 265.944H140.398ZM148.766 271.112C148.02 271.112 147.353 270.931 146.766 270.568C146.19 270.205 145.737 269.709 145.406 269.08C145.076 268.451 144.91 267.731 144.91 266.92C144.91 266.141 145.076 265.448 145.406 264.84C145.737 264.232 146.19 263.757 146.766 263.416C147.342 263.064 147.998 262.888 148.734 262.888C149.46 262.888 150.105 263.048 150.67 263.368C151.246 263.688 151.694 264.131 152.014 264.696C152.334 265.261 152.484 265.907 152.462 266.632C152.462 266.749 152.457 266.872 152.446 267C152.436 267.128 152.425 267.267 152.414 267.416H146.222C146.244 267.917 146.366 268.36 146.59 268.744C146.814 269.128 147.108 269.432 147.47 269.656C147.844 269.869 148.265 269.976 148.734 269.976C149.353 269.976 149.876 269.859 150.302 269.624C150.74 269.389 151.054 269.053 151.246 268.616L152.286 269.032C151.966 269.704 151.502 270.221 150.894 270.584C150.286 270.936 149.577 271.112 148.766 271.112ZM151.15 266.376C151.161 265.917 151.06 265.512 150.846 265.16C150.644 264.808 150.356 264.531 149.982 264.328C149.609 264.125 149.177 264.024 148.686 264.024C148.26 264.024 147.87 264.125 147.518 264.328C147.166 264.531 146.873 264.813 146.638 265.176C146.414 265.528 146.281 265.928 146.238 266.376H151.15ZM154.438 259.48H155.638V271H154.438V259.48ZM163.086 271L162.99 269.56C162.766 270.051 162.436 270.435 161.998 270.712C161.561 270.979 161.006 271.112 160.334 271.112C159.758 271.112 159.268 271.021 158.862 270.84C158.457 270.659 158.142 270.403 157.918 270.072C157.705 269.731 157.598 269.331 157.598 268.872C157.598 268.2 157.849 267.651 158.35 267.224C158.852 266.787 159.577 266.52 160.526 266.424L162.99 266.152V265.512C162.99 265.064 162.825 264.707 162.494 264.44C162.164 264.163 161.716 264.024 161.15 264.024C160.596 264.024 160.132 264.152 159.758 264.408C159.396 264.664 159.145 265.032 159.006 265.512L157.918 265.128C158.132 264.424 158.521 263.875 159.086 263.48C159.662 263.085 160.361 262.888 161.182 262.888C162.132 262.888 162.868 263.133 163.39 263.624C163.924 264.104 164.19 264.76 164.19 265.592V271H163.086ZM162.99 267.176L160.51 267.464C159.977 267.528 159.572 267.677 159.294 267.912C159.017 268.136 158.878 268.435 158.878 268.808C158.878 269.181 159.012 269.48 159.278 269.704C159.556 269.928 159.95 270.04 160.462 270.04C161.049 270.04 161.529 269.923 161.902 269.688C162.276 269.453 162.548 269.139 162.718 268.744C162.9 268.339 162.99 267.901 162.99 267.432V267.176ZM167.043 263V260.76H168.243V263H170.371V264.12H168.243V268.424C168.243 268.915 168.345 269.272 168.547 269.496C168.761 269.72 169.027 269.853 169.347 269.896C169.678 269.939 170.019 269.939 170.371 269.896V270.936C169.955 271.032 169.545 271.059 169.139 271.016C168.745 270.973 168.387 270.856 168.067 270.664C167.758 270.461 167.507 270.179 167.315 269.816C167.134 269.453 167.043 268.989 167.043 268.424V264.12H165.843V263H167.043ZM172.396 263H173.58V271H172.396V263ZM173.004 261.4C172.759 261.4 172.556 261.32 172.396 261.16C172.236 261 172.156 260.803 172.156 260.568C172.156 260.323 172.236 260.12 172.396 259.96C172.556 259.8 172.759 259.72 173.004 259.72C173.228 259.72 173.42 259.8 173.58 259.96C173.751 260.12 173.836 260.323 173.836 260.568C173.836 260.803 173.751 261 173.58 261.16C173.42 261.32 173.228 261.4 173.004 261.4ZM179.737 271.112C178.98 271.112 178.303 270.947 177.705 270.616C177.108 270.285 176.639 269.816 176.297 269.208C175.956 268.589 175.785 267.859 175.785 267.016C175.785 266.163 175.956 265.427 176.297 264.808C176.649 264.189 177.124 263.715 177.721 263.384C178.329 263.053 179.012 262.888 179.769 262.888C180.527 262.888 181.204 263.053 181.801 263.384C182.409 263.715 182.884 264.189 183.225 264.808C183.577 265.416 183.753 266.141 183.753 266.984C183.753 267.837 183.577 268.573 183.225 269.192C182.873 269.811 182.393 270.285 181.785 270.616C181.177 270.947 180.495 271.112 179.737 271.112ZM179.721 269.976C180.191 269.976 180.633 269.875 181.049 269.672C181.465 269.459 181.801 269.133 182.057 268.696C182.324 268.248 182.457 267.683 182.457 267C182.457 266.307 182.329 265.741 182.073 265.304C181.817 264.867 181.481 264.547 181.065 264.344C180.66 264.131 180.223 264.024 179.753 264.024C179.284 264.024 178.847 264.131 178.441 264.344C178.036 264.547 177.705 264.872 177.449 265.32C177.204 265.757 177.081 266.317 177.081 267C177.081 267.693 177.204 268.259 177.449 268.696C177.695 269.133 178.015 269.459 178.409 269.672C178.815 269.875 179.252 269.976 179.721 269.976ZM185.719 263H186.823L186.887 264.136C187.143 263.741 187.479 263.437 187.895 263.224C188.311 263 188.796 262.888 189.351 262.888C189.959 262.888 190.492 263.021 190.951 263.288C191.41 263.544 191.767 263.933 192.023 264.456C192.279 264.968 192.407 265.613 192.407 266.392V271H191.207V266.536C191.207 265.704 191.026 265.075 190.663 264.648C190.311 264.211 189.799 263.992 189.127 263.992C188.434 263.992 187.89 264.221 187.495 264.68C187.111 265.139 186.919 265.816 186.919 266.712V271H185.719V263ZM195.391 268.552C195.455 268.872 195.572 269.139 195.743 269.352C195.913 269.555 196.132 269.709 196.399 269.816C196.676 269.923 196.996 269.976 197.359 269.976C197.924 269.976 198.351 269.869 198.639 269.656C198.937 269.432 199.087 269.155 199.087 268.824C199.087 268.547 198.996 268.323 198.815 268.152C198.644 267.981 198.415 267.843 198.127 267.736C197.839 267.619 197.519 267.517 197.167 267.432C196.889 267.368 196.591 267.293 196.271 267.208C195.951 267.112 195.647 266.984 195.359 266.824C195.071 266.664 194.836 266.456 194.655 266.2C194.473 265.944 194.383 265.608 194.383 265.192C194.383 264.733 194.505 264.333 194.751 263.992C195.007 263.64 195.353 263.368 195.791 263.176C196.239 262.984 196.751 262.888 197.327 262.888C197.988 262.888 198.575 263.032 199.087 263.32C199.609 263.608 199.972 264.056 200.175 264.664L199.055 265.048C198.98 264.771 198.841 264.557 198.639 264.408C198.447 264.259 198.228 264.157 197.983 264.104C197.748 264.051 197.513 264.024 197.279 264.024C196.799 264.024 196.409 264.12 196.111 264.312C195.823 264.493 195.679 264.771 195.679 265.144C195.679 265.347 195.727 265.517 195.823 265.656C195.919 265.784 196.052 265.891 196.223 265.976C196.393 266.061 196.596 266.136 196.831 266.2C197.065 266.253 197.321 266.317 197.599 266.392C197.908 266.467 198.223 266.563 198.543 266.68C198.863 266.787 199.161 266.931 199.439 267.112C199.716 267.283 199.94 267.507 200.111 267.784C200.292 268.051 200.383 268.387 200.383 268.792C200.383 269.261 200.255 269.672 199.999 270.024C199.743 270.365 199.385 270.632 198.927 270.824C198.479 271.016 197.956 271.112 197.359 271.112C196.537 271.112 195.855 270.931 195.311 270.568C194.777 270.195 194.42 269.651 194.239 268.936L195.391 268.552ZM202.328 259.48H203.528V264.088C203.784 263.704 204.131 263.411 204.568 263.208C205.006 262.995 205.496 262.888 206.04 262.888C206.627 262.888 207.15 263.021 207.608 263.288C208.067 263.555 208.424 263.949 208.68 264.472C208.947 264.995 209.08 265.645 209.08 266.424V271H207.8V266.568C207.8 265.736 207.624 265.101 207.272 264.664C206.92 264.216 206.408 263.992 205.736 263.992C205.043 263.992 204.499 264.227 204.104 264.696C203.72 265.165 203.528 265.848 203.528 266.744V271H202.328V259.48ZM211.646 263H212.83V271H211.646V263ZM212.254 261.4C212.009 261.4 211.806 261.32 211.646 261.16C211.486 261 211.406 260.803 211.406 260.568C211.406 260.323 211.486 260.12 211.646 259.96C211.806 259.8 212.009 259.72 212.254 259.72C212.478 259.72 212.67 259.8 212.83 259.96C213.001 260.12 213.086 260.323 213.086 260.568C213.086 260.803 213.001 261 212.83 261.16C212.67 261.32 212.478 261.4 212.254 261.4ZM216.603 269.384L216.731 269.368V274.2H215.531V263H216.635L216.715 264.488C216.961 264.04 217.323 263.661 217.803 263.352C218.283 263.043 218.886 262.888 219.611 262.888C220.305 262.888 220.929 263.059 221.483 263.4C222.038 263.731 222.475 264.205 222.795 264.824C223.115 265.432 223.275 266.157 223.275 267C223.275 267.832 223.121 268.557 222.811 269.176C222.513 269.784 222.086 270.259 221.531 270.6C220.987 270.941 220.347 271.112 219.611 271.112C218.843 271.112 218.209 270.947 217.707 270.616C217.206 270.285 216.838 269.875 216.603 269.384ZM221.979 267C221.979 266.083 221.739 265.357 221.259 264.824C220.79 264.28 220.155 264.008 219.355 264.008C218.854 264.008 218.401 264.125 217.995 264.36C217.601 264.595 217.291 264.936 217.067 265.384C216.843 265.832 216.731 266.371 216.731 267C216.731 267.619 216.843 268.152 217.067 268.6C217.291 269.048 217.601 269.395 217.995 269.64C218.401 269.875 218.854 269.992 219.355 269.992C220.155 269.992 220.79 269.725 221.259 269.192C221.739 268.648 221.979 267.917 221.979 267ZM234.727 271L234.631 269.56C234.407 270.051 234.076 270.435 233.639 270.712C233.202 270.979 232.647 271.112 231.975 271.112C231.399 271.112 230.908 271.021 230.503 270.84C230.098 270.659 229.783 270.403 229.559 270.072C229.346 269.731 229.239 269.331 229.239 268.872C229.239 268.2 229.49 267.651 229.991 267.224C230.492 266.787 231.218 266.52 232.167 266.424L234.631 266.152V265.512C234.631 265.064 234.466 264.707 234.135 264.44C233.804 264.163 233.356 264.024 232.791 264.024C232.236 264.024 231.772 264.152 231.399 264.408C231.036 264.664 230.786 265.032 230.647 265.512L229.559 265.128C229.772 264.424 230.162 263.875 230.727 263.48C231.303 263.085 232.002 262.888 232.823 262.888C233.772 262.888 234.508 263.133 235.031 263.624C235.564 264.104 235.831 264.76 235.831 265.592V271H234.727ZM234.631 267.176L232.151 267.464C231.618 267.528 231.212 267.677 230.935 267.912C230.658 268.136 230.519 268.435 230.519 268.808C230.519 269.181 230.652 269.48 230.919 269.704C231.196 269.928 231.591 270.04 232.103 270.04C232.69 270.04 233.17 269.923 233.543 269.688C233.916 269.453 234.188 269.139 234.359 268.744C234.54 268.339 234.631 267.901 234.631 267.432V267.176ZM238.172 263H239.276L239.34 264.136C239.596 263.741 239.932 263.437 240.348 263.224C240.764 263 241.249 262.888 241.804 262.888C242.412 262.888 242.945 263.021 243.404 263.288C243.863 263.544 244.22 263.933 244.476 264.456C244.732 264.968 244.86 265.613 244.86 266.392V271H243.66V266.536C243.66 265.704 243.479 265.075 243.116 264.648C242.764 264.211 242.252 263.992 241.58 263.992C240.887 263.992 240.343 264.221 239.948 264.68C239.564 265.139 239.372 265.816 239.372 266.712V271H238.172V263ZM253.364 264.616L253.236 264.632V259.48H254.436V271H253.332L253.252 269.512C253.006 269.96 252.638 270.339 252.148 270.648C251.668 270.957 251.07 271.112 250.356 271.112C249.62 271.112 248.974 270.947 248.42 270.616C247.876 270.275 247.449 269.795 247.14 269.176C246.841 268.557 246.692 267.832 246.692 267C246.692 266.168 246.841 265.448 247.14 264.84C247.449 264.221 247.876 263.741 248.42 263.4C248.974 263.059 249.62 262.888 250.356 262.888C251.113 262.888 251.742 263.053 252.244 263.384C252.745 263.715 253.118 264.125 253.364 264.616ZM247.988 267C247.988 267.917 248.222 268.648 248.692 269.192C249.161 269.725 249.801 269.992 250.612 269.992C251.113 269.992 251.561 269.875 251.956 269.64C252.35 269.405 252.66 269.064 252.884 268.616C253.118 268.168 253.236 267.629 253.236 267C253.236 266.371 253.118 265.837 252.884 265.4C252.66 264.952 252.35 264.611 251.956 264.376C251.561 264.131 251.113 264.008 250.612 264.008C249.812 264.008 249.172 264.28 248.692 264.824C248.222 265.357 247.988 266.083 247.988 267ZM260.831 265.4C260.831 264.557 260.97 263.789 261.247 263.096C261.525 262.392 261.914 261.789 262.415 261.288C262.927 260.776 263.514 260.381 264.175 260.104C264.847 259.827 265.578 259.688 266.367 259.688C267.519 259.688 268.527 259.955 269.391 260.488C270.266 261.021 270.927 261.779 271.375 262.76L270.335 263.144C270.09 262.621 269.765 262.195 269.359 261.864C268.954 261.523 268.495 261.267 267.983 261.096C267.471 260.925 266.933 260.84 266.367 260.84C265.567 260.84 264.847 261.021 264.207 261.384C263.567 261.747 263.061 262.269 262.687 262.952C262.325 263.635 262.143 264.451 262.143 265.4C262.143 266.339 262.325 267.149 262.687 267.832C263.061 268.515 263.567 269.043 264.207 269.416C264.847 269.779 265.567 269.96 266.367 269.96C266.943 269.96 267.493 269.869 268.015 269.688C268.538 269.507 269.007 269.224 269.423 268.84C269.85 268.456 270.191 267.976 270.447 267.4L271.487 267.784C271.029 268.883 270.357 269.715 269.471 270.28C268.586 270.835 267.551 271.112 266.367 271.112C265.578 271.112 264.847 270.973 264.175 270.696C263.514 270.419 262.927 270.024 262.415 269.512C261.914 269 261.525 268.397 261.247 267.704C260.97 267 260.831 266.232 260.831 265.4ZM278.618 271L278.522 269.56C278.298 270.051 277.967 270.435 277.53 270.712C277.092 270.979 276.538 271.112 275.866 271.112C275.29 271.112 274.799 271.021 274.394 270.84C273.988 270.659 273.674 270.403 273.45 270.072C273.236 269.731 273.13 269.331 273.13 268.872C273.13 268.2 273.38 267.651 273.882 267.224C274.383 266.787 275.108 266.52 276.058 266.424L278.522 266.152V265.512C278.522 265.064 278.356 264.707 278.026 264.44C277.695 264.163 277.247 264.024 276.682 264.024C276.127 264.024 275.663 264.152 275.29 264.408C274.927 264.664 274.676 265.032 274.538 265.512L273.45 265.128C273.663 264.424 274.052 263.875 274.618 263.48C275.194 263.085 275.892 262.888 276.714 262.888C277.663 262.888 278.399 263.133 278.922 263.624C279.455 264.104 279.722 264.76 279.722 265.592V271H278.618ZM278.522 267.176L276.042 267.464C275.508 267.528 275.103 267.677 274.826 267.912C274.548 268.136 274.41 268.435 274.41 268.808C274.41 269.181 274.543 269.48 274.81 269.704C275.087 269.928 275.482 270.04 275.994 270.04C276.58 270.04 277.06 269.923 277.434 269.688C277.807 269.453 278.079 269.139 278.25 268.744C278.431 268.339 278.522 267.901 278.522 267.432V267.176ZM282.063 263H283.167L283.231 264.168C283.444 263.88 283.7 263.635 283.999 263.432C284.308 263.229 284.644 263.091 285.007 263.016C285.38 262.931 285.775 262.925 286.191 263V264.2C285.743 264.115 285.337 264.115 284.975 264.2C284.623 264.285 284.319 264.445 284.063 264.68C283.807 264.915 283.609 265.213 283.471 265.576C283.332 265.928 283.263 266.339 283.263 266.808V271H282.063V263ZM287.828 263H288.932L288.996 264.168C289.21 263.88 289.466 263.635 289.764 263.432C290.074 263.229 290.41 263.091 290.772 263.016C291.146 262.931 291.54 262.925 291.956 263V264.2C291.508 264.115 291.103 264.115 290.74 264.2C290.388 264.285 290.084 264.445 289.828 264.68C289.572 264.915 289.375 265.213 289.236 265.576C289.098 265.928 289.028 266.339 289.028 266.808V271H287.828V263ZM293.834 263H295.018V271H293.834V263ZM294.442 261.4C294.197 261.4 293.994 261.32 293.834 261.16C293.674 261 293.594 260.803 293.594 260.568C293.594 260.323 293.674 260.12 293.834 259.96C293.994 259.8 294.197 259.72 294.442 259.72C294.666 259.72 294.858 259.8 295.018 259.96C295.189 260.12 295.274 260.323 295.274 260.568C295.274 260.803 295.189 261 295.018 261.16C294.858 261.32 294.666 261.4 294.442 261.4ZM301.079 271.112C300.332 271.112 299.666 270.931 299.079 270.568C298.503 270.205 298.05 269.709 297.719 269.08C297.388 268.451 297.223 267.731 297.223 266.92C297.223 266.141 297.388 265.448 297.719 264.84C298.05 264.232 298.503 263.757 299.079 263.416C299.655 263.064 300.311 262.888 301.047 262.888C301.772 262.888 302.418 263.048 302.983 263.368C303.559 263.688 304.007 264.131 304.327 264.696C304.647 265.261 304.796 265.907 304.775 266.632C304.775 266.749 304.77 266.872 304.759 267C304.748 267.128 304.738 267.267 304.727 267.416H298.535C298.556 267.917 298.679 268.36 298.903 268.744C299.127 269.128 299.42 269.432 299.783 269.656C300.156 269.869 300.578 269.976 301.047 269.976C301.666 269.976 302.188 269.859 302.615 269.624C303.052 269.389 303.367 269.053 303.559 268.616L304.599 269.032C304.279 269.704 303.815 270.221 303.207 270.584C302.599 270.936 301.89 271.112 301.079 271.112ZM303.463 266.376C303.474 265.917 303.372 265.512 303.159 265.16C302.956 264.808 302.668 264.531 302.295 264.328C301.922 264.125 301.49 264.024 300.999 264.024C300.572 264.024 300.183 264.125 299.831 264.328C299.479 264.531 299.186 264.813 298.951 265.176C298.727 265.528 298.594 265.928 298.551 266.376H303.463ZM306.75 263H307.854L307.918 264.168C308.132 263.88 308.388 263.635 308.686 263.432C308.996 263.229 309.332 263.091 309.694 263.016C310.068 262.931 310.462 262.925 310.878 263V264.2C310.43 264.115 310.025 264.115 309.662 264.2C309.31 264.285 309.006 264.445 308.75 264.68C308.494 264.915 308.297 265.213 308.158 265.576C308.02 265.928 307.95 266.339 307.95 266.808V271H306.75V263ZM128.433 284.4C128.433 283.557 128.571 282.789 128.849 282.096C129.126 281.392 129.515 280.789 130.017 280.288C130.529 279.776 131.115 279.381 131.777 279.104C132.449 278.827 133.179 278.688 133.969 278.688C135.121 278.688 136.129 278.955 136.993 279.488C137.867 280.021 138.529 280.779 138.977 281.76L137.937 282.144C137.691 281.621 137.366 281.195 136.961 280.864C136.555 280.523 136.097 280.267 135.585 280.096C135.073 279.925 134.534 279.84 133.969 279.84C133.169 279.84 132.449 280.021 131.809 280.384C131.169 280.747 130.662 281.269 130.289 281.952C129.926 282.635 129.745 283.451 129.745 284.4C129.745 285.339 129.926 286.149 130.289 286.832C130.662 287.515 131.169 288.043 131.809 288.416C132.449 288.779 133.169 288.96 133.969 288.96C134.545 288.96 135.094 288.869 135.617 288.688C136.139 288.507 136.609 288.224 137.025 287.84C137.451 287.456 137.793 286.976 138.049 286.4L139.089 286.784C138.63 287.883 137.958 288.715 137.073 289.28C136.187 289.835 135.153 290.112 133.969 290.112C133.179 290.112 132.449 289.973 131.777 289.696C131.115 289.419 130.529 289.024 130.017 288.512C129.515 288 129.126 287.397 128.849 286.704C128.571 286 128.433 285.232 128.433 284.4ZM144.667 290.112C143.91 290.112 143.233 289.947 142.635 289.616C142.038 289.285 141.569 288.816 141.227 288.208C140.886 287.589 140.715 286.859 140.715 286.016C140.715 285.163 140.886 284.427 141.227 283.808C141.579 283.189 142.054 282.715 142.651 282.384C143.259 282.053 143.942 281.888 144.699 281.888C145.457 281.888 146.134 282.053 146.731 282.384C147.339 282.715 147.814 283.189 148.155 283.808C148.507 284.416 148.683 285.141 148.683 285.984C148.683 286.837 148.507 287.573 148.155 288.192C147.803 288.811 147.323 289.285 146.715 289.616C146.107 289.947 145.425 290.112 144.667 290.112ZM144.651 288.976C145.121 288.976 145.563 288.875 145.979 288.672C146.395 288.459 146.731 288.133 146.987 287.696C147.254 287.248 147.387 286.683 147.387 286C147.387 285.307 147.259 284.741 147.003 284.304C146.747 283.867 146.411 283.547 145.995 283.344C145.59 283.131 145.153 283.024 144.683 283.024C144.214 283.024 143.777 283.131 143.371 283.344C142.966 283.547 142.635 283.872 142.379 284.32C142.134 284.757 142.011 285.317 142.011 286C142.011 286.693 142.134 287.259 142.379 287.696C142.625 288.133 142.945 288.459 143.339 288.672C143.745 288.875 144.182 288.976 144.651 288.976ZM150.649 282H151.753L151.833 283.152C152.067 282.768 152.382 282.464 152.777 282.24C153.182 282.005 153.662 281.888 154.217 281.888C154.782 281.888 155.294 282.027 155.753 282.304C156.222 282.571 156.585 282.971 156.841 283.504C157.086 282.96 157.459 282.555 157.961 282.288C158.462 282.021 159.017 281.888 159.625 281.888C160.222 281.888 160.75 282.021 161.209 282.288C161.667 282.544 162.025 282.933 162.281 283.456C162.537 283.968 162.665 284.613 162.665 285.392V290H161.465V285.536C161.465 284.704 161.283 284.075 160.921 283.648C160.569 283.211 160.062 282.992 159.401 282.992C158.729 282.992 158.195 283.227 157.801 283.696C157.406 284.155 157.209 284.837 157.209 285.744V290H156.009V285.536C156.009 284.704 155.838 284.075 155.497 283.648C155.155 283.211 154.654 282.992 153.993 282.992C153.321 282.992 152.793 283.227 152.409 283.696C152.035 284.155 151.849 284.837 151.849 285.744V290H150.649V282ZM164.992 282H166.096L166.176 283.152C166.411 282.768 166.726 282.464 167.12 282.24C167.526 282.005 168.006 281.888 168.56 281.888C169.126 281.888 169.638 282.027 170.096 282.304C170.566 282.571 170.928 282.971 171.184 283.504C171.43 282.96 171.803 282.555 172.304 282.288C172.806 282.021 173.36 281.888 173.968 281.888C174.566 281.888 175.094 282.021 175.552 282.288C176.011 282.544 176.368 282.933 176.624 283.456C176.88 283.968 177.008 284.613 177.008 285.392V290H175.808V285.536C175.808 284.704 175.627 284.075 175.264 283.648C174.912 283.211 174.406 282.992 173.744 282.992C173.072 282.992 172.539 283.227 172.144 283.696C171.75 284.155 171.552 284.837 171.552 285.744V290H170.352V285.536C170.352 284.704 170.182 284.075 169.84 283.648C169.499 283.211 168.998 282.992 168.336 282.992C167.664 282.992 167.136 283.227 166.752 283.696C166.379 284.155 166.192 284.837 166.192 285.744V290H164.992V282ZM179.576 282H180.76V290H179.576V282ZM180.184 280.4C179.939 280.4 179.736 280.32 179.576 280.16C179.416 280 179.336 279.803 179.336 279.568C179.336 279.323 179.416 279.12 179.576 278.96C179.736 278.8 179.939 278.72 180.184 278.72C180.408 278.72 180.6 278.8 180.76 278.96C180.931 279.12 181.016 279.323 181.016 279.568C181.016 279.803 180.931 280 180.76 280.16C180.6 280.32 180.408 280.4 180.184 280.4ZM184.117 287.552C184.181 287.872 184.299 288.139 184.469 288.352C184.64 288.555 184.859 288.709 185.125 288.816C185.403 288.923 185.723 288.976 186.085 288.976C186.651 288.976 187.077 288.869 187.365 288.656C187.664 288.432 187.813 288.155 187.813 287.824C187.813 287.547 187.723 287.323 187.541 287.152C187.371 286.981 187.141 286.843 186.853 286.736C186.565 286.619 186.245 286.517 185.893 286.432C185.616 286.368 185.317 286.293 184.997 286.208C184.677 286.112 184.373 285.984 184.085 285.824C183.797 285.664 183.563 285.456 183.381 285.2C183.2 284.944 183.109 284.608 183.109 284.192C183.109 283.733 183.232 283.333 183.477 282.992C183.733 282.64 184.08 282.368 184.517 282.176C184.965 281.984 185.477 281.888 186.053 281.888C186.715 281.888 187.301 282.032 187.813 282.32C188.336 282.608 188.699 283.056 188.901 283.664L187.781 284.048C187.707 283.771 187.568 283.557 187.365 283.408C187.173 283.259 186.955 283.157 186.709 283.104C186.475 283.051 186.24 283.024 186.005 283.024C185.525 283.024 185.136 283.12 184.837 283.312C184.549 283.493 184.405 283.771 184.405 284.144C184.405 284.347 184.453 284.517 184.549 284.656C184.645 284.784 184.779 284.891 184.949 284.976C185.12 285.061 185.323 285.136 185.557 285.2C185.792 285.253 186.048 285.317 186.325 285.392C186.635 285.467 186.949 285.563 187.269 285.68C187.589 285.787 187.888 285.931 188.165 286.112C188.443 286.283 188.667 286.507 188.837 286.784C189.019 287.051 189.109 287.387 189.109 287.792C189.109 288.261 188.981 288.672 188.725 289.024C188.469 289.365 188.112 289.632 187.653 289.824C187.205 290.016 186.683 290.112 186.085 290.112C185.264 290.112 184.581 289.931 184.037 289.568C183.504 289.195 183.147 288.651 182.965 287.936L184.117 287.552ZM191.711 287.552C191.775 287.872 191.892 288.139 192.063 288.352C192.234 288.555 192.452 288.709 192.719 288.816C192.996 288.923 193.316 288.976 193.679 288.976C194.244 288.976 194.671 288.869 194.959 288.656C195.258 288.432 195.407 288.155 195.407 287.824C195.407 287.547 195.316 287.323 195.135 287.152C194.964 286.981 194.735 286.843 194.447 286.736C194.159 286.619 193.839 286.517 193.487 286.432C193.21 286.368 192.911 286.293 192.591 286.208C192.271 286.112 191.967 285.984 191.679 285.824C191.391 285.664 191.156 285.456 190.975 285.2C190.794 284.944 190.703 284.608 190.703 284.192C190.703 283.733 190.826 283.333 191.071 282.992C191.327 282.64 191.674 282.368 192.111 282.176C192.559 281.984 193.071 281.888 193.647 281.888C194.308 281.888 194.895 282.032 195.407 282.32C195.93 282.608 196.292 283.056 196.495 283.664L195.375 284.048C195.3 283.771 195.162 283.557 194.959 283.408C194.767 283.259 194.548 283.157 194.303 283.104C194.068 283.051 193.834 283.024 193.599 283.024C193.119 283.024 192.73 283.12 192.431 283.312C192.143 283.493 191.999 283.771 191.999 284.144C191.999 284.347 192.047 284.517 192.143 284.656C192.239 284.784 192.372 284.891 192.543 284.976C192.714 285.061 192.916 285.136 193.151 285.2C193.386 285.253 193.642 285.317 193.919 285.392C194.228 285.467 194.543 285.563 194.863 285.68C195.183 285.787 195.482 285.931 195.759 286.112C196.036 286.283 196.26 286.507 196.431 286.784C196.612 287.051 196.703 287.387 196.703 287.792C196.703 288.261 196.575 288.672 196.319 289.024C196.063 289.365 195.706 289.632 195.247 289.824C194.799 290.016 194.276 290.112 193.679 290.112C192.858 290.112 192.175 289.931 191.631 289.568C191.098 289.195 190.74 288.651 190.559 287.936L191.711 287.552ZM198.889 282H200.073V290H198.889V282ZM199.497 280.4C199.251 280.4 199.049 280.32 198.889 280.16C198.729 280 198.649 279.803 198.649 279.568C198.649 279.323 198.729 279.12 198.889 278.96C199.049 278.8 199.251 278.72 199.497 278.72C199.721 278.72 199.913 278.8 200.073 278.96C200.243 279.12 200.329 279.323 200.329 279.568C200.329 279.803 200.243 280 200.073 280.16C199.913 280.32 199.721 280.4 199.497 280.4ZM206.23 290.112C205.472 290.112 204.795 289.947 204.198 289.616C203.6 289.285 203.131 288.816 202.79 288.208C202.448 287.589 202.278 286.859 202.278 286.016C202.278 285.163 202.448 284.427 202.79 283.808C203.142 283.189 203.616 282.715 204.214 282.384C204.822 282.053 205.504 281.888 206.262 281.888C207.019 281.888 207.696 282.053 208.294 282.384C208.902 282.715 209.376 283.189 209.718 283.808C210.07 284.416 210.246 285.141 210.246 285.984C210.246 286.837 210.07 287.573 209.718 288.192C209.366 288.811 208.886 289.285 208.278 289.616C207.67 289.947 206.987 290.112 206.23 290.112ZM206.214 288.976C206.683 288.976 207.126 288.875 207.542 288.672C207.958 288.459 208.294 288.133 208.55 287.696C208.816 287.248 208.95 286.683 208.95 286C208.95 285.307 208.822 284.741 208.566 284.304C208.31 283.867 207.974 283.547 207.558 283.344C207.152 283.131 206.715 283.024 206.246 283.024C205.776 283.024 205.339 283.131 204.934 283.344C204.528 283.547 204.198 283.872 203.942 284.32C203.696 284.757 203.574 285.317 203.574 286C203.574 286.693 203.696 287.259 203.942 287.696C204.187 288.133 204.507 288.459 204.902 288.672C205.307 288.875 205.744 288.976 206.214 288.976ZM212.211 282H213.315L213.379 283.136C213.635 282.741 213.971 282.437 214.387 282.224C214.803 282 215.289 281.888 215.843 281.888C216.451 281.888 216.985 282.021 217.443 282.288C217.902 282.544 218.259 282.933 218.515 283.456C218.771 283.968 218.899 284.613 218.899 285.392V290H217.699V285.536C217.699 284.704 217.518 284.075 217.155 283.648C216.803 283.211 216.291 282.992 215.619 282.992C214.926 282.992 214.382 283.221 213.987 283.68C213.603 284.139 213.411 284.816 213.411 285.712V290H212.211V282ZM221.883 287.552C221.947 287.872 222.064 288.139 222.235 288.352C222.405 288.555 222.624 288.709 222.891 288.816C223.168 288.923 223.488 288.976 223.851 288.976C224.416 288.976 224.843 288.869 225.131 288.656C225.429 288.432 225.579 288.155 225.579 287.824C225.579 287.547 225.488 287.323 225.307 287.152C225.136 286.981 224.907 286.843 224.619 286.736C224.331 286.619 224.011 286.517 223.659 286.432C223.381 286.368 223.083 286.293 222.763 286.208C222.443 286.112 222.139 285.984 221.851 285.824C221.563 285.664 221.328 285.456 221.147 285.2C220.965 284.944 220.875 284.608 220.875 284.192C220.875 283.733 220.997 283.333 221.243 282.992C221.499 282.64 221.845 282.368 222.283 282.176C222.731 281.984 223.243 281.888 223.819 281.888C224.48 281.888 225.067 282.032 225.579 282.32C226.101 282.608 226.464 283.056 226.667 283.664L225.547 284.048C225.472 283.771 225.333 283.557 225.131 283.408C224.939 283.259 224.72 283.157 224.475 283.104C224.24 283.051 224.005 283.024 223.771 283.024C223.291 283.024 222.901 283.12 222.603 283.312C222.315 283.493 222.171 283.771 222.171 284.144C222.171 284.347 222.219 284.517 222.315 284.656C222.411 284.784 222.544 284.891 222.715 284.976C222.885 285.061 223.088 285.136 223.323 285.2C223.557 285.253 223.813 285.317 224.091 285.392C224.4 285.467 224.715 285.563 225.035 285.68C225.355 285.787 225.653 285.931 225.931 286.112C226.208 286.283 226.432 286.507 226.603 286.784C226.784 287.051 226.875 287.387 226.875 287.792C226.875 288.261 226.747 288.672 226.491 289.024C226.235 289.365 225.877 289.632 225.419 289.824C224.971 290.016 224.448 290.112 223.851 290.112C223.029 290.112 222.347 289.931 221.803 289.568C221.269 289.195 220.912 288.651 220.731 287.936L221.883 287.552Z" fill="#53565A"/>
<defs>
<filter id="filter0_dddd_18552_17499" x="48.666" y="77" width="164.498" height="106.31" filterUnits="userSpaceOnUse" color-interpolation-filters="sRGB">
<feFlood flood-opacity="0" result="BackgroundImageFix"/>
<feColorMatrix in="SourceAlpha" type="matrix" values="0 0 0 0 0 0 0 0 0 0 0 0 0 0 0 0 0 0 127 0" result="hardAlpha"/>
<feOffset dx="1" dy="3"/>
<feGaussianBlur stdDeviation="3.5"/>
<feColorMatrix type="matrix" values="0 0 0 0 0 0 0 0 0 0 0 0 0 0 0 0 0 0 0.1 0"/>
<feBlend mode="normal" in2="BackgroundImageFix" result="effect1_dropShadow_18552_17499"/>
<feColorMatrix in="SourceAlpha" type="matrix" values="0 0 0 0 0 0 0 0 0 0 0 0 0 0 0 0 0 0 127 0" result="hardAlpha"/>
<feOffset dx="4" dy="12"/>
<feGaussianBlur stdDeviation="6.5"/>
<feColorMatrix type="matrix" values="0 0 0 0 0 0 0 0 0 0 0 0 0 0 0 0 0 0 0.09 0"/>
<feBlend mode="normal" in2="effect1_dropShadow_18552_17499" result="effect2_dropShadow_18552_17499"/>
<feColorMatrix in="SourceAlpha" type="matrix" values="0 0 0 0 0 0 0 0 0 0 0 0 0 0 0 0 0 0 127 0" result="hardAlpha"/>
<feOffset dx="10" dy="27"/>
<feGaussianBlur stdDeviation="8.5"/>
<feColorMatrix type="matrix" values="0 0 0 0 0 0 0 0 0 0 0 0 0 0 0 0 0 0 0.05 0"/>
<feBlend mode="normal" in2="effect2_dropShadow_18552_17499" result="effect3_dropShadow_18552_17499"/>
<feColorMatrix in="SourceAlpha" type="matrix" values="0 0 0 0 0 0 0 0 0 0 0 0 0 0 0 0 0 0 127 0" result="hardAlpha"/>
<feOffset dx="17" dy="47"/>
<feGaussianBlur stdDeviation="10"/>
<feColorMatrix type="matrix" values="0 0 0 0 0 0 0 0 0 0 0 0 0 0 0 0 0 0 0.01 0"/>
<feBlend mode="normal" in2="effect3_dropShadow_18552_17499" result="effect4_dropShadow_18552_17499"/>
<feBlend mode="normal" in="SourceGraphic" in2="effect4_dropShadow_18552_17499" result="shape"/>
</filter>
<filter id="filter1_dddd_18552_17499" x="137.664" y="121" width="167.129" height="101.669" filterUnits="userSpaceOnUse" color-interpolation-filters="sRGB">
<feFlood flood-opacity="0" result="BackgroundImageFix"/>
<feColorMatrix in="SourceAlpha" type="matrix" values="0 0 0 0 0 0 0 0 0 0 0 0 0 0 0 0 0 0 127 0" result="hardAlpha"/>
<feOffset dy="3"/>
<feGaussianBlur stdDeviation="3"/>
<feColorMatrix type="matrix" values="0 0 0 0 0 0 0 0 0 0 0 0 0 0 0 0 0 0 0.1 0"/>
<feBlend mode="normal" in2="BackgroundImageFix" result="effect1_dropShadow_18552_17499"/>
<feColorMatrix in="SourceAlpha" type="matrix" values="0 0 0 0 0 0 0 0 0 0 0 0 0 0 0 0 0 0 127 0" result="hardAlpha"/>
<feOffset dx="-1" dy="10"/>
<feGaussianBlur stdDeviation="5.5"/>
<feColorMatrix type="matrix" values="0 0 0 0 0 0 0 0 0 0 0 0 0 0 0 0 0 0 0.09 0"/>
<feBlend mode="normal" in2="effect1_dropShadow_18552_17499" result="effect2_dropShadow_18552_17499"/>
<feColorMatrix in="SourceAlpha" type="matrix" values="0 0 0 0 0 0 0 0 0 0 0 0 0 0 0 0 0 0 127 0" result="hardAlpha"/>
<feOffset dx="-3" dy="24"/>
<feGaussianBlur stdDeviation="7"/>
<feColorMatrix type="matrix" values="0 0 0 0 0 0 0 0 0 0 0 0 0 0 0 0 0 0 0.05 0"/>
<feBlend mode="normal" in2="effect2_dropShadow_18552_17499" result="effect3_dropShadow_18552_17499"/>
<feColorMatrix in="SourceAlpha" type="matrix" values="0 0 0 0 0 0 0 0 0 0 0 0 0 0 0 0 0 0 127 0" result="hardAlpha"/>
<feOffset dx="-5" dy="42"/>
<feGaussianBlur stdDeviation="8.5"/>
<feColorMatrix type="matrix" values="0 0 0 0 0 0 0 0 0 0 0 0 0 0 0 0 0 0 0.01 0"/>
<feBlend mode="normal" in2="effect3_dropShadow_18552_17499" result="effect4_dropShadow_18552_17499"/>
<feBlend mode="normal" in="SourceGraphic" in2="effect4_dropShadow_18552_17499" result="shape"/>
</filter>
<filter id="filter2_dddd_18552_17499" x="42" y="130.779" width="272.551" height="209.221" filterUnits="userSpaceOnUse" color-interpolation-filters="sRGB">
<feFlood flood-opacity="0" result="BackgroundImageFix"/>
<feColorMatrix in="SourceAlpha" type="matrix" values="0 0 0 0 0 0 0 0 0 0 0 0 0 0 0 0 0 0 127 0" result="hardAlpha"/>
<feOffset dy="-2"/>
<feGaussianBlur stdDeviation="2"/>
<feColorMatrix type="matrix" values="0 0 0 0 0 0 0 0 0 0 0 0 0 0 0 0 0 0 0.1 0"/>
<feBlend mode="normal" in2="BackgroundImageFix" result="effect1_dropShadow_18552_17499"/>
<feColorMatrix in="SourceAlpha" type="matrix" values="0 0 0 0 0 0 0 0 0 0 0 0 0 0 0 0 0 0 127 0" result="hardAlpha"/>
<feOffset dy="-6"/>
<feGaussianBlur stdDeviation="3"/>
<feColorMatrix type="matrix" values="0 0 0 0 0 0 0 0 0 0 0 0 0 0 0 0 0 0 0.09 0"/>
<feBlend mode="normal" in2="effect1_dropShadow_18552_17499" result="effect2_dropShadow_18552_17499"/>
<feColorMatrix in="SourceAlpha" type="matrix" values="0 0 0 0 0 0 0 0 0 0 0 0 0 0 0 0 0 0 127 0" result="hardAlpha"/>
<feOffset dy="-14"/>
<feGaussianBlur stdDeviation="4.5"/>
<feColorMatrix type="matrix" values="0 0 0 0 0 0 0 0 0 0 0 0 0 0 0 0 0 0 0.05 0"/>
<feBlend mode="normal" in2="effect2_dropShadow_18552_17499" result="effect3_dropShadow_18552_17499"/>
<feColorMatrix in="SourceAlpha" type="matrix" values="0 0 0 0 0 0 0 0 0 0 0 0 0 0 0 0 0 0 127 0" result="hardAlpha"/>
<feOffset dy="-26"/>
<feGaussianBlur stdDeviation="5"/>
<feColorMatrix type="matrix" values="0 0 0 0 0 0 0 0 0 0 0 0 0 0 0 0 0 0 0.01 0"/>
<feBlend mode="normal" in2="effect3_dropShadow_18552_17499" result="effect4_dropShadow_18552_17499"/>
<feBlend mode="normal" in="SourceGraphic" in2="effect4_dropShadow_18552_17499" result="shape"/>
</filter>
<filter id="filter3_dddd_18552_17499" x="181.666" y="53" width="128.033" height="76.0001" filterUnits="userSpaceOnUse" color-interpolation-filters="sRGB">
<feFlood flood-opacity="0" result="BackgroundImageFix"/>
<feColorMatrix in="SourceAlpha" type="matrix" values="0 0 0 0 0 0 0 0 0 0 0 0 0 0 0 0 0 0 127 0" result="hardAlpha"/>
<feOffset dy="2"/>
<feGaussianBlur stdDeviation="2"/>
<feColorMatrix type="matrix" values="0 0 0 0 0 0 0 0 0 0 0 0 0 0 0 0 0 0 0.1 0"/>
<feBlend mode="normal" in2="BackgroundImageFix" result="effect1_dropShadow_18552_17499"/>
<feColorMatrix in="SourceAlpha" type="matrix" values="0 0 0 0 0 0 0 0 0 0 0 0 0 0 0 0 0 0 127 0" result="hardAlpha"/>
<feOffset dx="1" dy="8"/>
<feGaussianBlur stdDeviation="4"/>
<feColorMatrix type="matrix" values="0 0 0 0 0 0 0 0 0 0 0 0 0 0 0 0 0 0 0.09 0"/>
<feBlend mode="normal" in2="effect1_dropShadow_18552_17499" result="effect2_dropShadow_18552_17499"/>
<feColorMatrix in="SourceAlpha" type="matrix" values="0 0 0 0 0 0 0 0 0 0 0 0 0 0 0 0 0 0 127 0" result="hardAlpha"/>
<feOffset dx="3" dy="17"/>
<feGaussianBlur stdDeviation="5"/>
<feColorMatrix type="matrix" values="0 0 0 0 0 0 0 0 0 0 0 0 0 0 0 0 0 0 0.05 0"/>
<feBlend mode="normal" in2="effect2_dropShadow_18552_17499" result="effect3_dropShadow_18552_17499"/>
<feColorMatrix in="SourceAlpha" type="matrix" values="0 0 0 0 0 0 0 0 0 0 0 0 0 0 0 0 0 0 127 0" result="hardAlpha"/>
<feOffset dx="4" dy="31"/>
<feGaussianBlur stdDeviation="6"/>
<feColorMatrix type="matrix" values="0 0 0 0 0 0 0 0 0 0 0 0 0 0 0 0 0 0 0.01 0"/>
<feBlend mode="normal" in2="effect3_dropShadow_18552_17499" result="effect4_dropShadow_18552_17499"/>
<feBlend mode="normal" in="SourceGraphic" in2="effect4_dropShadow_18552_17499" result="shape"/>
</filter>
<radialGradient id="paint0_radial_18552_17499" cx="0" cy="0" r="1" gradientTransform="matrix(-244.404 -236.218 261.259 -252.509 304.551 338.252)" gradientUnits="userSpaceOnUse">
<stop stop-color="#0068E7"/>
<stop offset="1" stop-color="#158DEF"/>
</radialGradient>
<linearGradient id="paint1_linear_18552_17499" x1="52" y1="109.908" x2="296.085" y2="358.379" gradientUnits="userSpaceOnUse">
<stop offset="0.508799" stop-color="#85BFF8"/>
<stop offset="1" stop-color="#1050A9"/>
</linearGradient>
<linearGradient id="paint2_linear_18552_17499" x1="52" y1="109.908" x2="334.224" y2="304.795" gradientUnits="userSpaceOnUse">
<stop offset="0.228092" stop-color="#85BFF8"/>
<stop offset="0.99027" stop-color="#0567E4"/>
</linearGradient>
<linearGradient id="paint3_linear_18552_17499" x1="62.4531" y1="85.7878" x2="83.6994" y2="116.137" gradientUnits="userSpaceOnUse">
<stop stop-color="#B8DCFF"/>
<stop offset="1" stop-color="#3794FE"/>
</linearGradient>
<linearGradient id="paint4_linear_18552_17499" x1="165.043" y1="129.379" x2="188.912" y2="163.475" gradientUnits="userSpaceOnUse">
<stop stop-color="#B8DCFF"/>
<stop offset="1" stop-color="#3794FE"/>
</linearGradient>
<radialGradient id="paint5_radial_18552_17499" cx="0" cy="0" r="1" gradientTransform="matrix(-252.552 -171.222 252.552 -285.668 304.552 338)" gradientUnits="userSpaceOnUse">
<stop stop-color="#0164E3"/>
<stop offset="1" stop-color="#3394F0"/>
<stop offset="1" stop-color="#3394F0"/>
</radialGradient>
<linearGradient id="paint6_linear_18552_17499" x1="52" y1="166.778" x2="277.533" y2="374.474" gradientUnits="userSpaceOnUse">
<stop offset="0.228092" stop-color="#85BFF8"/>
<stop offset="0.946844" stop-color="#0567E4"/>
</linearGradient>
<linearGradient id="paint7_linear_18552_17499" x1="193.869" y1="59.2034" x2="212.522" y2="85.8481" gradientUnits="userSpaceOnUse">
<stop stop-color="#B8DCFF"/>
<stop offset="1" stop-color="#3794FE"/>
</linearGradient>
<clipPath id="clip0_18552_17499">
<rect width="257" height="148" fill="white" transform="translate(49.666 50)"/>
</clipPath>
</defs>
</svg>
