<svg width="134" height="134" viewBox="0 0 134 134" fill="none" xmlns="http://www.w3.org/2000/svg">
<rect x="0.126623" y="24.5312" width="62.0455" height="62.0455" rx="4.93832" stroke="#D4DAE3" stroke-width="0.253247"/>
<rect x="1.89811" y="26.3048" width="58.5" height="58.5" rx="4.93832" fill="#F1F8FE" stroke="#E0EEFB" stroke-width="0.253247"/>
<rect x="71.5563" y="24.5312" width="62.0455" height="62.0455" rx="4.93832" stroke="#D4DAE3" stroke-width="0.253247"/>
<rect x="73.3278" y="26.3048" width="58.5" height="58.5" rx="4.93832" fill="#F1F8FE" stroke="#E0EEFB" stroke-width="0.253247"/>
<rect x="7.88184" y="20.3811" width="70.3449" height="70.3449" rx="5.59888" stroke="#D4DAE3" stroke-width="0.287122"/>
<rect x="9.89161" y="22.3917" width="66.3252" height="66.3252" rx="5.59888" fill="#F1F8FE" stroke="#E0EEFB" stroke-width="0.287122"/>
<rect x="55.501" y="20.3811" width="70.3449" height="70.3449" rx="5.59888" stroke="#D4DAE3" stroke-width="0.287122"/>
<rect x="57.5107" y="22.3917" width="66.3252" height="66.3252" rx="5.59888" fill="#F1F8FE" stroke="#E0EEFB" stroke-width="0.287122"/>
<g filter="url(#filter0_dddd_18552_17377)">
<g clip-path="url(#clip0_18552_17377)">
<rect x="22.6191" y="11.3098" width="88.4892" height="88.4892" rx="7.19425" fill="url(#paint0_radial_18552_17377)"/>
<rect x="25.3166" y="14.0073" width="83.0935" height="83.0935" rx="7.01439" fill="white" stroke="#EBECEE" stroke-width="0.359712"/>
<rect x="22.5881" y="4.32076" width="88.2312" height="88.2312" rx="44.1156" stroke="url(#paint1_linear_18552_17377)" stroke-opacity="0.1" stroke-width="0.359712"/>
<rect x="35.0939" y="16.8276" width="63.2173" height="63.2173" rx="31.6086" stroke="url(#paint2_linear_18552_17377)" stroke-opacity="0.2" stroke-width="0.359712"/>
<rect x="45.5177" y="27.2502" width="42.3724" height="42.3724" rx="21.1862" stroke="url(#paint3_linear_18552_17377)" stroke-opacity="0.3" stroke-width="0.359712"/>
<rect x="37.0078" y="82.8304" width="59.3525" height="1.79856" rx="0.899281" fill="#D4DAE3"/>
<rect x="44.5625" y="86.7874" width="44.2446" height="1.79856" rx="0.899281" fill="#EBECEE"/>
<rect x="54.9941" y="90.7434" width="23.3813" height="1.79856" rx="0.899281" fill="#EBECEE"/>
<path d="M67.2072 55.3005C69.1679 54.5602 76.8518 50.8718 77.1919 38.4361C77.2064 37.9063 76.93 37.4056 76.48 37.1256C70.526 33.4208 62.9842 33.4208 57.0302 37.1256C56.5802 37.4056 56.3038 37.9063 56.3183 38.4361C56.6584 50.8718 64.3423 54.5602 66.303 55.3005C66.5957 55.411 66.9145 55.411 67.2072 55.3005Z" fill="url(#paint4_linear_18552_17377)"/>
<foreignObject x="51.0973" y="35.2443" width="31.3133" height="29.8584"><div xmlns="http://www.w3.org/1999/xhtml" style="backdrop-filter:blur(1.74px);clip-path:url(#bgblur_1_18552_17377_clip_path);height:100%;width:100%"></div></foreignObject><path data-figma-bg-blur-radius="3.48282" d="M56.4297 41.556C62.8275 37.9001 70.6813 37.9001 77.0791 41.556L78.0234 42.095C78.5392 42.3897 78.8603 42.9461 78.8408 43.5374C78.6191 50.2558 76.2076 54.5648 73.5977 57.2806C70.986 59.998 68.1709 61.1247 67.1396 61.4691C66.8841 61.5544 66.6247 61.5544 66.3691 61.4691C65.338 61.1247 62.5229 59.9981 59.9111 57.2806C57.3011 54.5649 54.8897 50.2559 54.668 43.5374C54.6485 42.9461 54.9688 42.3898 55.4844 42.095L56.4297 41.556Z" fill="#4D9EE5" fill-opacity="0.6" stroke="url(#paint5_linear_18552_17377)" stroke-width="0.173154"/>
<path d="M71.1045 46.0015C71.5875 45.5185 72.3715 45.5185 72.8545 46.0015C73.3371 46.4845 73.3372 47.2676 72.8545 47.7505L66.7588 53.8452C66.5269 54.0771 66.2127 54.2075 65.8848 54.2076C65.5567 54.2076 65.2417 54.0772 65.0098 53.8452L61.5273 50.3628C61.0444 49.8799 61.0444 49.0968 61.5273 48.6138C62.0103 48.1308 62.7934 48.1308 63.2764 48.6138L65.8359 51.1724C65.8489 51.1854 65.8664 51.1929 65.8848 51.1929C65.9031 51.1929 65.9206 51.1853 65.9336 51.1724L71.1045 46.0015Z" fill="url(#paint6_linear_18552_17377)" fill-opacity="0.9" stroke="url(#paint7_linear_18552_17377)" stroke-width="0.138523" stroke-linecap="round" stroke-linejoin="round"/>
</g>
<rect x="22.799" y="11.4897" width="88.1295" height="88.1295" rx="7.01439" stroke="#D4DAE3" stroke-width="0.359712"/>
</g>
<rect x="34.6681" y="0.179856" width="64.3885" height="22.6619" rx="10.6115" stroke="url(#paint8_linear_18552_17377)" stroke-opacity="0.3" stroke-width="0.359712"/>
<rect x="36.1076" y="1.61847" width="61.5108" height="19.7842" rx="9.89209" stroke="url(#paint9_linear_18552_17377)" stroke-opacity="0.5" stroke-width="0.359712"/>
<rect x="37.5451" y="3.05695" width="58.6331" height="16.9065" rx="8.45324" stroke="url(#paint10_linear_18552_17377)" stroke-opacity="0.7" stroke-width="0.359712"/>
<rect x="38.8066" y="4.31557" width="56.1151" height="14.3885" rx="7.19424" fill="url(#paint11_linear_18552_17377)"/>
<path d="M59.3344 10.5244C59.3344 10.2607 59.2456 10.052 59.0682 9.89855C58.8955 9.74027 58.6365 9.66114 58.2912 9.66114H56.8667V11.3806H58.3128C58.6389 11.3806 58.8907 11.3038 59.0682 11.1503C59.2456 10.9969 59.3344 10.7882 59.3344 10.5244ZM56.2912 14.1935V9.15754H58.3416C58.6965 9.15754 58.989 9.21749 59.2193 9.3374C59.4495 9.4573 59.6197 9.61557 59.73 9.81222C59.8452 10.0041 59.9027 10.2175 59.9027 10.4525C59.9027 10.6827 59.8595 10.877 59.7732 11.0352C59.6917 11.1887 59.579 11.311 59.4351 11.4021C59.296 11.4933 59.1425 11.5556 58.9747 11.5892V11.6396C59.1761 11.6683 59.3559 11.7331 59.5142 11.8338C59.6725 11.9297 59.7972 12.0616 59.8883 12.2295C59.9794 12.3973 60.025 12.6012 60.025 12.841C60.025 13.0904 59.9627 13.3182 59.838 13.5244C59.7133 13.7307 59.5286 13.8938 59.284 14.0137C59.0442 14.1336 58.7492 14.1935 58.3991 14.1935H56.2912ZM56.8667 13.6899H58.3559C58.7013 13.6899 58.9699 13.6132 59.1617 13.4597C59.3583 13.3014 59.4567 13.076 59.4567 12.7834C59.4567 12.4909 59.3535 12.2679 59.1473 12.1144C58.9459 11.9609 58.6749 11.8842 58.3344 11.8842H56.8667V13.6899ZM60.983 10.5964H61.4794L61.5082 11.1216C61.6041 10.9921 61.7192 10.8818 61.8535 10.7906C61.9926 10.6995 62.1436 10.6372 62.3067 10.6036C62.4746 10.5652 62.652 10.5628 62.8391 10.5964V11.136C62.6376 11.0976 62.4554 11.0976 62.2923 11.136C62.1341 11.1743 61.9974 11.2463 61.8823 11.3518C61.7671 11.4573 61.6784 11.5916 61.6161 11.7547C61.5537 11.9129 61.5225 12.0976 61.5225 12.3086V14.1935H60.983V10.5964ZM65.1294 14.2439C64.7889 14.2439 64.4843 14.1695 64.2157 14.0209C63.9471 13.8722 63.7361 13.6611 63.5826 13.3878C63.4291 13.1096 63.3524 12.781 63.3524 12.4021C63.3524 12.0185 63.4291 11.6875 63.5826 11.4093C63.7409 11.1312 63.9543 10.9177 64.2229 10.7691C64.4963 10.6204 64.8032 10.546 65.1438 10.546C65.4843 10.546 65.7889 10.6204 66.0574 10.7691C66.3308 10.9177 66.5443 11.1312 66.6977 11.4093C66.856 11.6827 66.9351 12.0089 66.9351 12.3878C66.9351 12.7714 66.856 13.1024 66.6977 13.3806C66.5395 13.6587 66.3236 13.8722 66.0502 14.0209C65.7769 14.1695 65.4699 14.2439 65.1294 14.2439ZM65.1222 13.7331C65.3332 13.7331 65.5323 13.6875 65.7193 13.5964C65.9064 13.5005 66.0574 13.3542 66.1726 13.1575C66.2925 12.9561 66.3524 12.7019 66.3524 12.395C66.3524 12.0832 66.2949 11.829 66.1797 11.6324C66.0646 11.4357 65.9136 11.2918 65.7265 11.2007C65.5443 11.1048 65.3476 11.0568 65.1366 11.0568C64.9255 11.0568 64.7289 11.1048 64.5467 11.2007C64.3644 11.2918 64.2157 11.4381 64.1006 11.6396C63.9903 11.8362 63.9351 12.088 63.9351 12.395C63.9351 12.7067 63.9903 12.9609 64.1006 13.1575C64.2109 13.3542 64.3548 13.5005 64.5323 13.5964C64.7145 13.6875 64.9112 13.7331 65.1222 13.7331ZM67.8189 9.01365H68.3657V12.1575H68.6966L70.1139 10.5964H70.8765L69.1786 12.395L70.8837 14.1935H70.1139L68.6966 12.6252H68.3657V14.1935H67.8189V9.01365ZM73.0533 14.2439C72.7176 14.2439 72.4178 14.1623 72.154 13.9993C71.895 13.8362 71.6912 13.6132 71.5425 13.3302C71.3938 13.0472 71.3195 12.7235 71.3195 12.359C71.3195 12.0089 71.3938 11.6971 71.5425 11.4237C71.6912 11.1503 71.895 10.9369 72.154 10.7834C72.413 10.6252 72.708 10.546 73.0389 10.546C73.365 10.546 73.6552 10.618 73.9094 10.7619C74.1684 10.9057 74.3698 11.1048 74.5137 11.359C74.6576 11.6132 74.7247 11.9033 74.7152 12.2295C74.7152 12.2822 74.7128 12.3374 74.708 12.395C74.7032 12.4525 74.6984 12.5149 74.6936 12.582H71.9094C71.919 12.8074 71.9741 13.0065 72.0749 13.1791C72.1756 13.3518 72.3075 13.4885 72.4706 13.5892C72.6384 13.6851 72.8279 13.7331 73.0389 13.7331C73.3171 13.7331 73.5521 13.6803 73.7439 13.5748C73.9406 13.4693 74.0821 13.3182 74.1684 13.1216L74.636 13.3086C74.4921 13.6108 74.2835 13.8434 74.0101 14.0065C73.7367 14.1647 73.4178 14.2439 73.0533 14.2439ZM74.1252 12.1144C74.13 11.9081 74.0845 11.7259 73.9885 11.5676C73.8974 11.4093 73.7679 11.2846 73.6 11.1935C73.4322 11.1024 73.2379 11.0568 73.0173 11.0568C72.8255 11.0568 72.6504 11.1024 72.4921 11.1935C72.3339 11.2846 72.202 11.4117 72.0965 11.5748C71.9957 11.7331 71.9358 11.9129 71.9166 12.1144H74.1252ZM75.6033 10.5964H76.0997L76.1285 11.1216C76.2244 10.9921 76.3395 10.8818 76.4738 10.7906C76.6129 10.6995 76.764 10.6372 76.927 10.6036C77.0949 10.5652 77.2724 10.5628 77.4594 10.5964V11.136C77.258 11.0976 77.0757 11.0976 76.9127 11.136C76.7544 11.1743 76.6177 11.2463 76.5026 11.3518C76.3875 11.4573 76.2988 11.5916 76.2364 11.7547C76.1741 11.9129 76.1429 12.0976 76.1429 12.3086V14.1935H75.6033V10.5964Z" fill="white"/>
<defs>
<filter id="filter0_dddd_18552_17377" x="13.0953" y="9.52413" width="107.536" height="123.608" filterUnits="userSpaceOnUse" color-interpolation-filters="sRGB">
<feFlood flood-opacity="0" result="BackgroundImageFix"/>
<feColorMatrix in="SourceAlpha" type="matrix" values="0 0 0 0 0 0 0 0 0 0 0 0 0 0 0 0 0 0 127 0" result="hardAlpha"/>
<feOffset dy="1.78571"/>
<feGaussianBlur stdDeviation="1.78571"/>
<feColorMatrix type="matrix" values="0 0 0 0 0 0 0 0 0 0 0 0 0 0 0 0 0 0 0.1 0"/>
<feBlend mode="normal" in2="BackgroundImageFix" result="effect1_dropShadow_18552_17377"/>
<feColorMatrix in="SourceAlpha" type="matrix" values="0 0 0 0 0 0 0 0 0 0 0 0 0 0 0 0 0 0 127 0" result="hardAlpha"/>
<feOffset dy="5.95238"/>
<feGaussianBlur stdDeviation="2.97619"/>
<feColorMatrix type="matrix" values="0 0 0 0 0 0 0 0 0 0 0 0 0 0 0 0 0 0 0.09 0"/>
<feBlend mode="normal" in2="effect1_dropShadow_18552_17377" result="effect2_dropShadow_18552_17377"/>
<feColorMatrix in="SourceAlpha" type="matrix" values="0 0 0 0 0 0 0 0 0 0 0 0 0 0 0 0 0 0 127 0" result="hardAlpha"/>
<feOffset dy="13.6905"/>
<feGaussianBlur stdDeviation="4.16667"/>
<feColorMatrix type="matrix" values="0 0 0 0 0 0 0 0 0 0 0 0 0 0 0 0 0 0 0.05 0"/>
<feBlend mode="normal" in2="effect2_dropShadow_18552_17377" result="effect3_dropShadow_18552_17377"/>
<feColorMatrix in="SourceAlpha" type="matrix" values="0 0 0 0 0 0 0 0 0 0 0 0 0 0 0 0 0 0 127 0" result="hardAlpha"/>
<feOffset dy="23.8095"/>
<feGaussianBlur stdDeviation="4.76191"/>
<feColorMatrix type="matrix" values="0 0 0 0 0 0 0 0 0 0 0 0 0 0 0 0 0 0 0.01 0"/>
<feBlend mode="normal" in2="effect3_dropShadow_18552_17377" result="effect4_dropShadow_18552_17377"/>
<feBlend mode="normal" in="SourceGraphic" in2="effect4_dropShadow_18552_17377" result="shape"/>
</filter>
<clipPath id="bgblur_1_18552_17377_clip_path" transform="translate(-51.0973 -35.2443)"><path d="M56.4297 41.556C62.8275 37.9001 70.6813 37.9001 77.0791 41.556L78.0234 42.095C78.5392 42.3897 78.8603 42.9461 78.8408 43.5374C78.6191 50.2558 76.2076 54.5648 73.5977 57.2806C70.986 59.998 68.1709 61.1247 67.1396 61.4691C66.8841 61.5544 66.6247 61.5544 66.3691 61.4691C65.338 61.1247 62.5229 59.9981 59.9111 57.2806C57.3011 54.5649 54.8897 50.2559 54.668 43.5374C54.6485 42.9461 54.9688 42.3898 55.4844 42.095L56.4297 41.556Z"/>
</clipPath><radialGradient id="paint0_radial_18552_17377" cx="0" cy="0" r="1" gradientUnits="userSpaceOnUse" gradientTransform="translate(51.2163 -9.55346) rotate(80.771) scale(137.937)">
<stop offset="0.468791" stop-color="white"/>
<stop offset="1" stop-color="#0077DF"/>
</radialGradient>
<linearGradient id="paint1_linear_18552_17377" x1="22.4082" y1="4.1409" x2="96.6269" y2="105.447" gradientUnits="userSpaceOnUse">
<stop stop-color="#B8DCFF"/>
<stop offset="1" stop-color="#3794FE"/>
</linearGradient>
<linearGradient id="paint2_linear_18552_17377" x1="34.9141" y1="16.6477" x2="88.1769" y2="89.3495" gradientUnits="userSpaceOnUse">
<stop stop-color="#B8DCFF"/>
<stop offset="1" stop-color="#3794FE"/>
</linearGradient>
<linearGradient id="paint3_linear_18552_17377" x1="45.3379" y1="27.0704" x2="81.1375" y2="75.9355" gradientUnits="userSpaceOnUse">
<stop stop-color="#B8DCFF"/>
<stop offset="1" stop-color="#3794FE"/>
</linearGradient>
<linearGradient id="paint4_linear_18552_17377" x1="56.3066" y1="31.0745" x2="77.4665" y2="55.8309" gradientUnits="userSpaceOnUse">
<stop stop-color="#B8DCFF"/>
<stop offset="1" stop-color="#3794FE"/>
</linearGradient>
<linearGradient id="paint5_linear_18552_17377" x1="55.0346" y1="41.0969" x2="85.2584" y2="63.3853" gradientUnits="userSpaceOnUse">
<stop stop-color="white"/>
<stop offset="0.734375" stop-color="white" stop-opacity="0"/>
</linearGradient>
<linearGradient id="paint6_linear_18552_17377" x1="63.0007" y1="48.8896" x2="82.0476" y2="51.1406" gradientUnits="userSpaceOnUse">
<stop stop-color="white"/>
<stop offset="1" stop-color="white" stop-opacity="0"/>
</linearGradient>
<linearGradient id="paint7_linear_18552_17377" x1="61.4423" y1="46.8118" x2="69.2342" y2="49.4091" gradientUnits="userSpaceOnUse">
<stop stop-color="white"/>
<stop offset="1" stop-color="white" stop-opacity="0"/>
</linearGradient>
<linearGradient id="paint8_linear_18552_17377" x1="34.4883" y1="0" x2="44.3568" y2="37.885" gradientUnits="userSpaceOnUse">
<stop stop-color="#B8DCFF"/>
<stop offset="1" stop-color="#3794FE"/>
</linearGradient>
<linearGradient id="paint9_linear_18552_17377" x1="35.9277" y1="1.43861" x2="43.9168" y2="34.9317" gradientUnits="userSpaceOnUse">
<stop stop-color="#B8DCFF"/>
<stop offset="1" stop-color="#3794FE"/>
</linearGradient>
<linearGradient id="paint10_linear_18552_17377" x1="37.3652" y1="2.87709" x2="43.5853" y2="31.8851" gradientUnits="userSpaceOnUse">
<stop stop-color="#B8DCFF"/>
<stop offset="1" stop-color="#3794FE"/>
</linearGradient>
<linearGradient id="paint11_linear_18552_17377" x1="38.8066" y1="4.31557" x2="43.3945" y2="28.7385" gradientUnits="userSpaceOnUse">
<stop stop-color="#B8DCFF"/>
<stop offset="1" stop-color="#3794FE"/>
</linearGradient>
<clipPath id="clip0_18552_17377">
<rect x="22.6191" y="11.3098" width="88.4892" height="88.4892" rx="7.19425" fill="white"/>
</clipPath>
</defs>
</svg>
