<svg width="139" height="63" viewBox="0 0 139 63" fill="none" xmlns="http://www.w3.org/2000/svg">
<g clip-path="url(#clip0_1359_9433)">
<path d="M80.0752 39.7188H82.2284V55.7309H80.0752V39.7188Z" fill="#2C358C"/>
<path d="M88.381 55.9479C87.248 55.9479 86.3029 55.675 85.5392 55.129C84.7819 54.5831 84.1998 53.8945 83.8054 53.0694C83.4111 52.2442 83.2045 51.3571 83.192 50.4017C83.1795 49.4525 83.361 48.5592 83.7428 47.7341C84.1246 46.9089 84.6942 46.2265 85.4641 45.6744C86.234 45.1284 87.2042 44.8555 88.381 44.8555C89.5577 44.8555 90.5279 45.1284 91.2978 45.6744C92.0677 46.2203 92.6373 46.9089 93.0191 47.7341C93.4009 48.5592 93.5824 49.4463 93.5699 50.4017C93.5574 51.3571 93.3508 52.2442 92.9565 53.0694C92.5622 53.8945 91.9863 54.5769 91.2227 55.129C90.4653 55.675 89.5139 55.9479 88.381 55.9479ZM88.381 47.2067C87.7362 47.2067 87.198 47.3618 86.7661 47.6782C86.3342 47.9884 86.0149 48.3855 85.8084 48.8631C85.6018 49.3408 85.4954 49.8558 85.4954 50.4079C85.4954 50.96 85.6018 51.475 85.8209 51.9527C86.04 52.4304 86.3529 52.8212 86.7786 53.1376C87.2042 53.4478 87.73 53.6091 88.3622 53.6091C88.9944 53.6091 89.5201 53.454 89.9458 53.1376C90.3714 52.8274 90.6906 52.4304 90.9034 51.9527C91.1163 51.475 91.2227 50.96 91.2164 50.4079C91.2102 49.8558 91.1038 49.3408 90.8909 48.8631C90.6844 48.3855 90.3714 47.9946 89.952 47.6782C89.5389 47.368 89.0131 47.2067 88.381 47.2067Z" fill="#2C358C"/>
<path d="M97.7386 55.544C96.9499 55.3455 96.2989 54.9422 95.7794 54.3405C95.2662 53.7387 94.8906 53.0376 94.6715 52.2498C94.4462 51.4619 94.3773 50.6306 94.4587 49.7682C94.5401 48.8997 94.7717 48.1056 95.166 47.3797C95.5603 46.6539 96.1174 46.0521 96.8435 45.5806C97.5696 45.1029 98.4521 44.8672 99.4974 44.8672C99.9419 44.8672 100.355 44.9354 100.737 45.0781C101.119 45.2208 101.469 45.3945 101.801 45.6116C102.001 45.7419 102.101 45.6923 102.101 45.4628V45.0781H104.254L104.273 58.3854C104.273 59.1546 104.154 59.8309 103.916 60.414C103.679 60.9972 103.359 61.4811 102.959 61.8657C102.558 62.2504 102.108 62.5357 101.601 62.728C101.1 62.9204 100.574 63.0134 100.029 63.0134C99.2971 63.0134 98.6712 62.9018 98.1454 62.6846C97.6197 62.4613 97.1878 62.1759 96.8435 61.8223C96.4992 61.4687 96.2426 61.0716 96.0799 60.6311C95.9171 60.1907 95.8295 59.7502 95.8295 59.3097C95.8295 58.8693 95.8858 58.4598 95.9985 58.0814C96.1112 57.7029 96.2614 57.3555 96.4492 57.0391C96.6369 56.7165 96.8372 56.4373 97.0626 56.183C97.2817 55.9348 97.5007 55.7239 97.7198 55.5564L97.7386 55.544ZM101.87 50.5127C101.87 49.9729 101.795 49.4953 101.644 49.0858C101.494 48.6763 101.294 48.3289 101.05 48.0498C100.806 47.7706 100.53 47.5659 100.224 47.4232C99.9168 47.2805 99.6038 47.2122 99.2846 47.2122C98.9654 47.2122 98.6587 47.2805 98.3582 47.417C98.0578 47.5535 97.7887 47.7582 97.5633 48.0374C97.3317 48.3165 97.1439 48.6577 97.0062 49.0734C96.8623 49.489 96.7934 49.9792 96.7934 50.5437C96.7934 51.071 96.8623 51.5301 97.0062 51.921C97.1502 52.3118 97.338 52.6344 97.5633 52.8888C97.7949 53.1431 98.0515 53.3354 98.3457 53.4657C98.6399 53.596 98.9466 53.658 99.2596 53.658C99.5726 53.658 99.9106 53.5898 100.217 53.4533C100.524 53.3168 100.799 53.1183 101.043 52.8577C101.288 52.5972 101.482 52.2684 101.638 51.8775C101.788 51.4867 101.863 51.0338 101.863 50.5251L101.87 50.5127ZM101.719 55.5254C101.244 55.6557 100.799 55.8232 100.386 56.0403C99.9669 56.2512 99.6039 56.4994 99.2909 56.7848C98.9779 57.0701 98.7213 57.3927 98.5398 57.7526C98.3582 58.1124 98.2581 58.5156 98.2581 58.9561C98.2581 59.471 98.4396 59.8805 98.8089 60.1907C99.172 60.5009 99.6101 60.6622 100.111 60.6622C100.367 60.6622 100.618 60.6187 100.862 60.5319C101.106 60.445 101.325 60.3085 101.519 60.1286C101.713 59.9425 101.863 59.713 101.97 59.4462C102.076 59.1732 102.133 58.8506 102.133 58.466V56.2885C102.133 55.8728 102.101 55.6371 102.045 55.5626C101.989 55.4944 101.882 55.4758 101.719 55.5192V55.5254Z" fill="#2C358C"/>
<path d="M106.689 43.4266C106.245 43.4266 105.913 43.2901 105.7 43.0234C105.488 42.7566 105.375 42.4526 105.375 42.1176C105.375 41.7826 105.488 41.4786 105.707 41.2118C105.926 40.9451 106.258 40.8086 106.683 40.8086C107.109 40.8086 107.459 40.9451 107.685 41.2118C107.904 41.4848 108.016 41.7826 108.016 42.1176C108.016 42.4526 107.904 42.7566 107.685 43.0234C107.459 43.2963 107.128 43.4266 106.683 43.4266H106.689ZM105.613 45.0706H107.766V55.7288H105.613V45.0706Z" fill="#2C358C"/>
<path d="M115.183 52.7456C115.183 52.4726 115.026 52.2741 114.72 52.1376C114.413 52.0011 114.031 51.8833 113.581 51.784C113.13 51.6847 112.635 51.5793 112.097 51.4614C111.559 51.3497 111.064 51.1698 110.614 50.9279C110.163 50.6859 109.781 50.3571 109.474 49.9353C109.168 49.5134 109.011 48.9489 109.011 48.2416C109.011 47.7019 109.143 47.218 109.399 46.7899C109.656 46.3618 109.988 46.002 110.388 45.7104C110.789 45.4189 111.24 45.1955 111.747 45.0404C112.247 44.8853 112.742 44.8047 113.23 44.8047C113.775 44.8047 114.313 44.8853 114.845 45.0528C115.377 45.2203 115.846 45.4685 116.253 45.7973C116.66 46.1261 116.986 46.5418 117.23 47.0319C117.474 47.522 117.587 48.0989 117.574 48.7689H115.271C115.283 48.4836 115.233 48.2416 115.108 48.0307C114.989 47.826 114.826 47.6522 114.626 47.522C114.426 47.3855 114.2 47.2862 113.95 47.2242C113.699 47.1621 113.443 47.1249 113.186 47.1249C112.955 47.1249 112.736 47.1497 112.516 47.1994C112.297 47.249 112.11 47.3172 111.934 47.4041C111.759 47.491 111.628 47.5964 111.528 47.7267C111.427 47.857 111.377 47.9997 111.377 48.1548C111.377 48.5084 111.534 48.7751 111.84 48.9426C112.147 49.1164 112.529 49.2466 112.98 49.3459C113.43 49.4452 113.925 49.5444 114.463 49.6313C115.001 49.7243 115.496 49.8732 115.947 50.078C116.397 50.2827 116.779 50.5867 117.086 50.9837C117.392 51.3808 117.549 51.9267 117.549 52.6277C117.549 53.1551 117.424 53.6203 117.186 54.036C116.942 54.4455 116.616 54.7991 116.209 55.0782C115.803 55.3636 115.339 55.5746 114.82 55.7172C114.3 55.8599 113.775 55.9282 113.23 55.9282C112.685 55.9282 112.128 55.8475 111.596 55.6924C111.064 55.5373 110.595 55.2954 110.176 54.9666C109.756 54.6378 109.424 54.2283 109.162 53.7382C108.905 53.2481 108.773 52.6587 108.773 51.9825H111.077C111.077 52.2679 111.139 52.5099 111.271 52.7208C111.402 52.9255 111.578 53.093 111.797 53.2233C112.016 53.3536 112.272 53.4466 112.548 53.5087C112.829 53.5707 113.105 53.6079 113.374 53.6079C113.606 53.6079 113.825 53.5893 114.044 53.5459C114.257 53.5025 114.451 53.4466 114.626 53.3784C114.795 53.3039 114.933 53.2171 115.033 53.0992C115.133 52.9875 115.183 52.8635 115.183 52.7394V52.7456Z" fill="#2C358C"/>
<path d="M118.413 46.9879V45.0709H119.577V42.1055H121.731V45.0709H123.126V46.9879H120.504V47.1988C120.779 47.1988 121.048 47.2795 121.324 47.447C121.599 47.6145 121.731 47.8999 121.731 48.3093V52.1929C121.731 52.7016 121.831 53.0676 122.031 53.2786C122.231 53.4895 122.607 53.6012 123.151 53.6012H123.946V55.7353H122.588C121.643 55.7353 120.904 55.4809 120.372 54.966C119.84 54.4511 119.577 53.7129 119.577 52.7513V47.5711C119.577 47.4035 119.521 47.2609 119.415 47.1554C119.308 47.0499 119.164 46.9941 118.995 46.9941H118.413V46.9879Z" fill="#2C358C"/>
<path d="M126.243 43.4266C125.799 43.4266 125.467 43.2901 125.254 43.0234C125.041 42.7566 124.929 42.4526 124.929 42.1176C124.929 41.7826 125.041 41.4786 125.26 41.2118C125.48 40.9451 125.811 40.8086 126.237 40.8086C126.663 40.8086 127.013 40.9451 127.238 41.2118C127.457 41.4848 127.57 41.7826 127.57 42.1176C127.57 42.4526 127.457 42.7566 127.238 43.0234C127.013 43.2963 126.681 43.4266 126.237 43.4266H126.243ZM125.167 45.0706H127.32V55.7288H125.167V45.0706Z" fill="#2C358C"/>
<path d="M130.932 50.3364C130.932 50.8452 131.026 51.3042 131.214 51.7013C131.401 52.0983 131.645 52.4333 131.946 52.7063C132.246 52.9793 132.591 53.184 132.979 53.3267C133.367 53.4694 133.767 53.5376 134.18 53.5376C134.794 53.5376 135.388 53.3763 135.958 53.0599C136.521 52.7373 136.96 52.2472 137.26 51.5772L139 52.8552C138.556 53.8664 137.886 54.6233 136.997 55.1258C136.108 55.6283 135.163 55.8827 134.155 55.8827C133.467 55.8827 132.785 55.7648 132.109 55.5291C131.433 55.2933 130.838 54.9459 130.312 54.4868C129.786 54.0277 129.367 53.4508 129.042 52.7621C128.716 52.0735 128.56 51.2732 128.56 50.3613C128.56 49.4493 128.722 48.6552 129.042 47.9604C129.367 47.2717 129.786 46.6948 130.312 46.2357C130.838 45.7704 131.433 45.423 132.109 45.1935C132.785 44.9577 133.467 44.8398 134.155 44.8398C135.157 44.8398 136.108 45.0942 136.997 45.5967C137.886 46.0992 138.556 46.8561 139 47.8673L137.26 49.1453C136.96 48.4753 136.521 47.9852 135.946 47.6626C135.37 47.34 134.775 47.1849 134.162 47.1849C133.761 47.1849 133.367 47.2531 132.979 47.3896C132.591 47.5261 132.246 47.7246 131.946 47.9976C131.645 48.2706 131.401 48.5994 131.214 48.9902C131.026 49.3811 130.932 49.8339 130.932 50.3427V50.3364Z" fill="#2C358C"/>
<path d="M26.8207 34.2457C23.015 37.2297 18.4019 38.2844 13.8264 37.2173C5.51406 35.2755 2.65982 29.7293 2.66608 25.0764C-0.601266 18.643 -0.889194 12.3213 1.92123 7.55676C4.41242 3.32574 9.10689 0.800781 14.4836 0.800781C25.356 0.800781 34.2066 8.98365 34.2066 19.0463C34.2066 24.8469 31.3774 30.6723 26.8207 34.2457ZM14.4836 6.47109C11.1161 6.47109 8.337 7.91038 6.8598 10.4167C5.79572 12.2221 5.4765 14.4802 5.88335 16.9866C8.14296 14.4989 11.5292 12.768 15.8794 12.768V18.4383C11.4479 18.4383 8.77514 21.4596 8.42462 24.4436C8.01777 27.9054 10.5277 30.6102 15.1408 31.6897C18.7775 32.5396 21.5691 31.1252 23.2717 29.7913C26.4389 27.3036 28.4856 23.085 28.4856 19.0401C28.4856 12.1042 22.2076 6.46489 14.4836 6.46489V6.47109Z" fill="#2C358C"/>
<path d="M47.17 12.0993C49.2606 16.6405 50.2809 21.9137 50.0806 26.3309C49.7238 34.2222 45.5989 36.9333 41.8308 36.8278C37.9626 36.7223 35.1897 34.3959 34.4136 30.5929C33.4184 25.7043 35.9534 17.9681 40.3536 11.6216C38.6511 9.09041 36.5355 7.35954 34.2446 7.21685L34.6014 1.55895C38.4383 1.7947 41.6431 3.94122 44.1155 7.04935C46.1685 4.95865 48.4406 3.2526 50.838 2.17933C56.1396 -0.196737 59.7199 1.09366 61.7792 2.60119C70.9866 9.30755 68.2075 34.309 67.8632 37.138L62.186 36.4556C63.3377 27.0381 63.3252 10.7654 58.3929 7.17343C57.9422 6.84462 56.5589 5.8396 53.1977 7.34713C51.0821 8.29632 49.0165 10.0024 47.17 12.0931V12.0993ZM43.1954 17.7448C40.7855 22.044 39.4398 26.5977 40.0282 29.4762C40.2785 30.717 40.7605 31.1265 41.9873 31.1575H42.0249C44.0278 31.1575 44.322 26.9327 44.3596 26.0765C44.4785 23.4151 44.0404 20.4869 43.1954 17.7386V17.7448Z" fill="#2C358C"/>
<path d="M90.7662 36.2242H70.6113V0H75.8316V28.3578C75.8316 29.3938 75.5186 30.101 74.8927 30.4795C74.2668 30.8579 73.622 31.0502 72.9586 31.0502V31.5651H90.76V36.2242H90.7662Z" fill="#2C358C"/>
<path d="M108.881 34.0518C108.011 34.9514 106.947 35.6276 105.695 36.0929C104.443 36.5582 103.135 36.7939 101.776 36.7939C100.662 36.7939 99.5731 36.6264 98.5152 36.3038C97.4512 35.975 96.506 35.4911 95.6673 34.8521C94.8348 34.2131 94.1525 33.419 93.633 32.4698C93.1135 31.5207 92.8506 30.4102 92.8506 29.1322C92.8506 27.271 93.3701 25.689 94.4154 24.3986C95.4607 23.1082 96.819 22.0102 98.4902 21.1106C97.4825 20.7322 96.6562 20.1552 96.0115 19.3797C95.3668 18.6043 95.0476 17.6427 95.0476 16.5074C95.0476 15.4713 95.3355 14.5407 95.9114 13.7156C96.4872 12.8905 97.2446 12.1895 98.1835 11.6187C99.1224 11.048 100.186 10.6075 101.369 10.2973C102.552 9.98713 103.773 9.83203 105.025 9.83203C106.277 9.83203 107.441 9.99333 108.63 10.3221C109.813 10.6509 110.865 11.1472 111.791 11.8235C112.711 12.4935 113.45 13.3558 114.007 14.4105C114.564 15.4651 114.839 16.7307 114.839 18.2134V36.2232H109.619V34.3062C109.619 33.5803 109.375 33.4935 108.887 34.0456L108.881 34.0518ZM98.5966 28.8778C98.5966 29.9449 98.9784 30.77 99.7421 31.3345C100.506 31.9053 101.463 32.1907 102.615 32.1907C103.347 32.1907 104.124 32.0418 104.937 31.7502C105.757 31.4586 106.515 30.9995 107.209 30.3792C107.904 29.7588 108.48 28.9833 108.931 28.0527C109.381 27.1221 109.607 26.0178 109.607 24.7399V21.8923C108.668 22.1342 107.56 22.463 106.289 22.8725C105.019 23.2882 103.817 23.7845 102.684 24.3738C101.551 24.9632 100.587 25.627 99.7859 26.3653C98.9847 27.1097 98.5841 27.941 98.5841 28.8778H98.5966ZM103.297 19.1502C104.343 18.9082 105.375 18.6415 106.402 18.3499C107.428 18.0583 108.392 17.8226 109.3 17.6489C108.949 16.892 108.386 16.3461 107.604 16.0173C106.821 15.6885 105.995 15.5272 105.125 15.5272C104.117 15.5272 103.222 15.7195 102.434 16.0979C101.645 16.4763 101.257 17.0099 101.257 17.6985C101.257 18.1452 101.451 18.536 101.833 18.8648C102.214 19.1936 102.703 19.2867 103.291 19.1502H103.297Z" fill="#2C358C"/>
<path d="M122.669 36.2255H117.449V10.3492H122.669V12.0553C122.669 12.6074 122.788 12.8804 123.033 12.8804C123.17 12.8804 123.396 12.7253 123.709 12.4151C124.754 11.3481 125.83 10.647 126.945 10.3182C128.059 9.98942 129.117 9.82812 130.131 9.82812C132.741 9.82812 134.794 10.7773 136.29 12.6757C137.786 14.5741 138.537 17.2665 138.537 20.7469V36.2193H133.317V22.1427C133.317 21.0074 133.179 20.0272 132.897 19.2207C132.615 18.4142 132.246 17.738 131.777 17.2045C131.307 16.671 130.769 16.2739 130.156 16.0134C129.542 15.7528 128.929 15.6225 128.303 15.6225C127.608 15.6225 126.92 15.7714 126.237 16.063C125.561 16.3546 124.96 16.7702 124.435 17.3038C123.915 17.8373 123.483 18.5135 123.158 19.32C122.826 20.1327 122.663 21.0509 122.663 22.0869V36.2131L122.669 36.2255Z" fill="#2C358C"/>
</g>
<defs>
<clipPath id="clip0_1359_9433">
<rect width="139" height="63" fill="white"/>
</clipPath>
</defs>
</svg>
