<svg width="38" height="38" viewBox="0 0 38 38" fill="none" xmlns="http://www.w3.org/2000/svg">
<path d="M19.0006 1.07621C17.1399 1.09181 15.7882 3.62085 15.7882 6.65881L15.7882 13.0679C15.7882 13.9582 15.645 14.2927 15.0404 14.8173L3.38258 25.5048C3.00123 25.8386 2.81055 26.2526 2.81055 26.7296L2.81055 28.5746C2.81055 28.9879 3.1763 29.2261 3.62144 29.0198L15.7882 23.5166L16.7104 31.5963L11.4304 34.4748C11.0328 34.6811 10.8577 35.0312 10.8577 35.5565L10.8577 36.2391C10.8577 36.653 11.1278 36.9231 11.5417 36.9231L26.4594 36.9231C26.8734 36.9231 27.1278 36.653 27.1278 36.2391L27.1278 35.5551C27.1278 35.0306 26.9528 34.6804 26.5714 34.4741L21.2908 31.5956L22.2136 23.5159L34.3804 29.0191C34.8093 29.2254 35.1906 28.9872 35.1906 28.574L35.1906 26.7282C35.1906 26.2519 34.9843 25.838 34.6186 25.5041L22.9451 14.8166C22.3561 14.2921 22.2129 13.9575 22.2129 13.0672L22.2129 6.65814C22.2129 3.62017 20.8456 1.09181 19.0006 1.07621Z" fill="#2C358C"/>
</svg>
