<svg width="140" height="86" viewBox="0 0 140 86" fill="none" xmlns="http://www.w3.org/2000/svg">
<g filter="url(#filter0_dddd_18552_17448)">
<g clip-path="url(#clip0_18552_17448)">
<rect x="0.9375" y="0.468536" width="134" height="78" rx="9.37063" fill="white"/>
<path d="M11.3127 64.9097H11.68V71.2818H11.3127V64.9097ZM10.3007 69.3851C10.3306 69.5201 10.3931 69.655 10.4881 69.7899C10.588 69.9199 10.723 70.0298 10.8929 70.1198C11.0678 70.2048 11.2902 70.2472 11.5601 70.2472C11.9449 70.2472 12.2298 70.1573 12.4147 69.9774C12.5996 69.7974 12.692 69.585 12.692 69.3402C12.692 69.1452 12.6396 68.9853 12.5346 68.8604C12.4297 68.7354 12.2872 68.633 12.1073 68.553C11.9274 68.4681 11.725 68.3931 11.5001 68.3281C11.3002 68.2732 11.1003 68.2132 10.9004 68.1482C10.7055 68.0782 10.5281 67.9933 10.3681 67.8933C10.2082 67.7884 10.0808 67.6534 9.98581 67.4885C9.89085 67.3236 9.84337 67.1187 9.84337 66.8738C9.84337 66.5789 9.91334 66.3241 10.0533 66.1092C10.1932 65.8893 10.3906 65.7193 10.6455 65.5994C10.9004 65.4795 11.1977 65.4195 11.5376 65.4195C11.8324 65.4195 12.0898 65.462 12.3097 65.5469C12.5296 65.6319 12.712 65.7518 12.857 65.9068C13.0069 66.0567 13.1168 66.2316 13.1868 66.4315L12.6546 66.6339C12.6196 66.519 12.5521 66.409 12.4522 66.3041C12.3522 66.1941 12.2223 66.1042 12.0623 66.0342C11.9024 65.9642 11.72 65.9292 11.5151 65.9292C11.3152 65.9292 11.1328 65.9642 10.9678 66.0342C10.8079 66.1042 10.6805 66.2041 10.5855 66.3341C10.4906 66.464 10.4431 66.6214 10.4431 66.8063C10.4431 67.0062 10.4981 67.1662 10.608 67.2861C10.723 67.4011 10.8729 67.496 11.0578 67.571C11.2477 67.6409 11.4551 67.7084 11.68 67.7734C11.8849 67.8384 12.0823 67.9083 12.2722 67.9833C12.4671 68.0583 12.6396 68.1507 12.7895 68.2607C12.9444 68.3706 13.0669 68.508 13.1568 68.673C13.2468 68.8379 13.2918 69.0403 13.2918 69.2802C13.2918 69.5451 13.2293 69.7924 13.1044 70.0223C12.9794 70.2472 12.7895 70.4296 12.5346 70.5696C12.2847 70.7045 11.9624 70.772 11.5676 70.772C11.2377 70.772 10.9479 70.722 10.698 70.6221C10.4481 70.5171 10.2432 70.3772 10.0833 70.2023C9.92334 70.0273 9.81339 69.8274 9.75342 69.6025L10.3007 69.3851ZM14.7327 65.9967H13.9981V65.472H15.3325V70.7195H14.7327V65.9967ZM16.4769 68.0957C16.4769 67.7109 16.5044 67.3561 16.5594 67.0312C16.6143 66.7014 16.7093 66.4165 16.8442 66.1766C16.9792 65.9367 17.1666 65.7518 17.4065 65.6219C17.6514 65.487 17.9587 65.4195 18.3285 65.4195C18.6984 65.4195 19.0032 65.487 19.2431 65.6219C19.483 65.7518 19.6704 65.9367 19.8053 66.1766C19.9403 66.4165 20.0352 66.7014 20.0902 67.0312C20.1452 67.3561 20.1727 67.7109 20.1727 68.0957C20.1727 68.4856 20.1452 68.8454 20.0902 69.1752C20.0352 69.5001 19.9403 69.7825 19.8053 70.0223C19.6704 70.2622 19.483 70.4471 19.2431 70.5771C19.0032 70.707 18.6984 70.772 18.3285 70.772C17.9587 70.772 17.6514 70.707 17.4065 70.5771C17.1666 70.4471 16.9792 70.2622 16.8442 70.0223C16.7093 69.7825 16.6143 69.5001 16.5594 69.1752C16.5044 68.8454 16.4769 68.4856 16.4769 68.0957ZM19.5655 68.0957C19.5655 67.8009 19.5505 67.526 19.5205 67.2711C19.4955 67.0112 19.443 66.7838 19.3631 66.5889C19.2831 66.389 19.1606 66.2341 18.9957 66.1242C18.8308 66.0092 18.6084 65.9517 18.3285 65.9517C18.0537 65.9517 17.8313 66.0092 17.6613 66.1242C17.4964 66.2341 17.3715 66.389 17.2865 66.5889C17.2066 66.7838 17.1516 67.0112 17.1216 67.2711C17.0966 67.526 17.0841 67.8009 17.0841 68.0957C17.0841 68.4006 17.0966 68.683 17.1216 68.9428C17.1516 69.2027 17.2066 69.4301 17.2865 69.625C17.3715 69.8199 17.4964 69.9724 17.6613 70.0823C17.8313 70.1873 18.0537 70.2397 18.3285 70.2397C18.6084 70.2397 18.8308 70.1873 18.9957 70.0823C19.1606 69.9724 19.2831 69.8199 19.3631 69.625C19.443 69.4301 19.4955 69.2027 19.5205 68.9428C19.5505 68.683 19.5655 68.4006 19.5655 68.0957ZM21.5663 70.757C21.4514 70.757 21.3539 70.717 21.274 70.6371C21.199 70.5571 21.1615 70.4596 21.1615 70.3447C21.1615 70.2297 21.199 70.1323 21.274 70.0523C21.3539 69.9724 21.4514 69.9324 21.5663 69.9324C21.6763 69.9324 21.7712 69.9724 21.8512 70.0523C21.9312 70.1323 21.9711 70.2297 21.9711 70.3447C21.9711 70.4596 21.9312 70.5571 21.8512 70.6371C21.7712 70.717 21.6763 70.757 21.5663 70.757ZM22.9558 68.0957C22.9558 67.7109 22.9833 67.3561 23.0383 67.0312C23.0932 66.7014 23.1882 66.4165 23.3231 66.1766C23.4581 65.9367 23.6455 65.7518 23.8854 65.6219C24.1303 65.487 24.4376 65.4195 24.8074 65.4195C25.1773 65.4195 25.4821 65.487 25.722 65.6219C25.9619 65.7518 26.1493 65.9367 26.2843 66.1766C26.4192 66.4165 26.5142 66.7014 26.5691 67.0312C26.6241 67.3561 26.6516 67.7109 26.6516 68.0957C26.6516 68.4856 26.6241 68.8454 26.5691 69.1752C26.5142 69.5001 26.4192 69.7825 26.2843 70.0223C26.1493 70.2622 25.9619 70.4471 25.722 70.5771C25.4821 70.707 25.1773 70.772 24.8074 70.772C24.4376 70.772 24.1303 70.707 23.8854 70.5771C23.6455 70.4471 23.4581 70.2622 23.3231 70.0223C23.1882 69.7825 23.0932 69.5001 23.0383 69.1752C22.9833 68.8454 22.9558 68.4856 22.9558 68.0957ZM26.0444 68.0957C26.0444 67.8009 26.0294 67.526 25.9994 67.2711C25.9744 67.0112 25.9219 66.7838 25.842 66.5889C25.762 66.389 25.6396 66.2341 25.4746 66.1242C25.3097 66.0092 25.0873 65.9517 24.8074 65.9517C24.5326 65.9517 24.3102 66.0092 24.1403 66.1242C23.9753 66.2341 23.8504 66.389 23.7654 66.5889C23.6855 66.7838 23.6305 67.0112 23.6005 67.2711C23.5755 67.526 23.563 67.8009 23.563 68.0957C23.563 68.4006 23.5755 68.683 23.6005 68.9428C23.6305 69.2027 23.6855 69.4301 23.7654 69.625C23.8504 69.8199 23.9753 69.9724 24.1403 70.0823C24.3102 70.1873 24.5326 70.2397 24.8074 70.2397C25.0873 70.2397 25.3097 70.1873 25.4746 70.0823C25.6396 69.9724 25.762 69.8199 25.842 69.625C25.9219 69.4301 25.9744 69.2027 25.9994 68.9428C26.0294 68.683 26.0444 68.4006 26.0444 68.0957ZM27.6704 68.0957C27.6704 67.7109 27.6979 67.3561 27.7529 67.0312C27.8078 66.7014 27.9028 66.4165 28.0377 66.1766C28.1727 65.9367 28.3601 65.7518 28.6 65.6219C28.8449 65.487 29.1522 65.4195 29.522 65.4195C29.8919 65.4195 30.1967 65.487 30.4366 65.6219C30.6765 65.7518 30.8639 65.9367 30.9989 66.1766C31.1338 66.4165 31.2287 66.7014 31.2837 67.0312C31.3387 67.3561 31.3662 67.7109 31.3662 68.0957C31.3662 68.4856 31.3387 68.8454 31.2837 69.1752C31.2287 69.5001 31.1338 69.7825 30.9989 70.0223C30.8639 70.2622 30.6765 70.4471 30.4366 70.5771C30.1967 70.707 29.8919 70.772 29.522 70.772C29.1522 70.772 28.8449 70.707 28.6 70.5771C28.3601 70.4471 28.1727 70.2622 28.0377 70.0223C27.9028 69.7825 27.8078 69.5001 27.7529 69.1752C27.6979 68.8454 27.6704 68.4856 27.6704 68.0957ZM30.759 68.0957C30.759 67.8009 30.744 67.526 30.714 67.2711C30.689 67.0112 30.6365 66.7838 30.5566 66.5889C30.4766 66.389 30.3542 66.2341 30.1892 66.1242C30.0243 66.0092 29.8019 65.9517 29.522 65.9517C29.2472 65.9517 29.0248 66.0092 28.8549 66.1242C28.6899 66.2341 28.565 66.389 28.48 66.5889C28.4001 66.7838 28.3451 67.0112 28.3151 67.2711C28.2901 67.526 28.2776 67.8009 28.2776 68.0957C28.2776 68.4006 28.2901 68.683 28.3151 68.9428C28.3451 69.2027 28.4001 69.4301 28.48 69.625C28.565 69.8199 28.6899 69.9724 28.8549 70.0823C29.0248 70.1873 29.2472 70.2397 29.522 70.2397C29.8019 70.2397 30.0243 70.1873 30.1892 70.0823C30.3542 69.9724 30.4766 69.8199 30.5566 69.625C30.6365 69.4301 30.689 69.2027 30.714 68.9428C30.744 68.683 30.759 68.4006 30.759 68.0957ZM32.385 68.0957C32.385 67.7109 32.4125 67.3561 32.4675 67.0312C32.5224 66.7014 32.6174 66.4165 32.7523 66.1766C32.8873 65.9367 33.0747 65.7518 33.3146 65.6219C33.5595 65.487 33.8668 65.4195 34.2366 65.4195C34.6065 65.4195 34.9113 65.487 35.1512 65.6219C35.3911 65.7518 35.5785 65.9367 35.7135 66.1766C35.8484 66.4165 35.9433 66.7014 35.9983 67.0312C36.0533 67.3561 36.0808 67.7109 36.0808 68.0957C36.0808 68.4856 36.0533 68.8454 35.9983 69.1752C35.9433 69.5001 35.8484 69.7825 35.7135 70.0223C35.5785 70.2622 35.3911 70.4471 35.1512 70.5771C34.9113 70.707 34.6065 70.772 34.2366 70.772C33.8668 70.772 33.5595 70.707 33.3146 70.5771C33.0747 70.4471 32.8873 70.2622 32.7523 70.0223C32.6174 69.7825 32.5224 69.5001 32.4675 69.1752C32.4125 68.8454 32.385 68.4856 32.385 68.0957ZM35.4736 68.0957C35.4736 67.8009 35.4586 67.526 35.4286 67.2711C35.4036 67.0112 35.3511 66.7838 35.2712 66.5889C35.1912 66.389 35.0688 66.2341 34.9038 66.1242C34.7389 66.0092 34.5165 65.9517 34.2366 65.9517C33.9618 65.9517 33.7394 66.0092 33.5695 66.1242C33.4045 66.2341 33.2796 66.389 33.1946 66.5889C33.1147 66.7838 33.0597 67.0112 33.0297 67.2711C33.0047 67.526 32.9922 67.8009 32.9922 68.0957C32.9922 68.4006 33.0047 68.683 33.0297 68.9428C33.0597 69.2027 33.1147 69.4301 33.1946 69.625C33.2796 69.8199 33.4045 69.9724 33.5695 70.0823C33.7394 70.1873 33.9618 70.2397 34.2366 70.2397C34.5165 70.2397 34.7389 70.1873 34.9038 70.0823C35.0688 69.9724 35.1912 69.8199 35.2712 69.625C35.3511 69.4301 35.4036 69.2027 35.4286 68.9428C35.4586 68.683 35.4736 68.4006 35.4736 68.0957Z" fill="#A8AFB7"/>
<path d="M9.43769 45.7007H9.80502V52.0728H9.43769V45.7007ZM8.42566 50.1762C8.45565 50.3111 8.51812 50.446 8.61307 50.581C8.71303 50.7109 8.84796 50.8209 9.01788 50.9108C9.1928 50.9958 9.4152 51.0382 9.68507 51.0382C10.0699 51.0382 10.3548 50.9483 10.5397 50.7684C10.7246 50.5885 10.817 50.3761 10.817 50.1312C10.817 49.9363 10.7646 49.7763 10.6596 49.6514C10.5547 49.5265 10.4122 49.424 10.2323 49.344C10.0524 49.2591 9.85 49.1841 9.6251 49.1191C9.42519 49.0642 9.22529 49.0042 9.02538 48.9392C8.83047 48.8693 8.65305 48.7843 8.49313 48.6843C8.3332 48.5794 8.20576 48.4445 8.11081 48.2795C8.01585 48.1146 7.96837 47.9097 7.96837 47.6648C7.96837 47.37 8.03834 47.1151 8.17828 46.9002C8.31821 46.6803 8.51562 46.5104 8.7705 46.3904C9.02538 46.2705 9.32274 46.2105 9.66258 46.2105C9.95745 46.2105 10.2148 46.253 10.4347 46.3379C10.6546 46.4229 10.837 46.5428 10.982 46.6978C11.1319 46.8477 11.2418 47.0226 11.3118 47.2225L10.7796 47.4249C10.7446 47.31 10.6771 47.2 10.5772 47.0951C10.4772 46.9851 10.3473 46.8952 10.1873 46.8252C10.0274 46.7552 9.845 46.7203 9.64009 46.7203C9.44019 46.7203 9.25777 46.7552 9.09285 46.8252C8.93292 46.8952 8.80548 46.9951 8.71053 47.1251C8.61557 47.255 8.56809 47.4124 8.56809 47.5974C8.56809 47.7973 8.62307 47.9572 8.73302 48.0771C8.84796 48.1921 8.99789 48.287 9.18281 48.362C9.37272 48.432 9.58012 48.4994 9.80502 48.5644C10.0099 48.6294 10.2073 48.6993 10.3972 48.7743C10.5921 48.8493 10.7646 48.9417 10.9145 49.0517C11.0694 49.1616 11.1919 49.2991 11.2818 49.464C11.3718 49.6289 11.4168 49.8313 11.4168 50.0712C11.4168 50.3361 11.3543 50.5835 11.2294 50.8134C11.1044 51.0382 10.9145 51.2207 10.6596 51.3606C10.4097 51.4955 10.0874 51.563 9.69257 51.563C9.36272 51.563 9.07286 51.513 8.82297 51.4131C8.57309 51.3081 8.36819 51.1682 8.20826 50.9933C8.04834 50.8184 7.93839 50.6184 7.87842 50.3935L8.42566 50.1762ZM12.228 51.0607L13.8248 49.5839C14.1346 49.2991 14.3795 49.0542 14.5594 48.8493C14.7394 48.6444 14.8668 48.4545 14.9418 48.2795C15.0217 48.1046 15.0617 47.9222 15.0617 47.7323C15.0617 47.4374 14.9742 47.2 14.7993 47.0201C14.6244 46.8352 14.357 46.7428 13.9972 46.7428C13.7523 46.7428 13.5449 46.7952 13.375 46.9002C13.2051 47.0051 13.0751 47.1501 12.9852 47.335C12.8952 47.5199 12.8477 47.7373 12.8427 47.9872H12.2655C12.2755 47.5974 12.3555 47.2725 12.5054 47.0126C12.6603 46.7477 12.8677 46.5478 13.1276 46.4129C13.3875 46.278 13.6774 46.2105 13.9972 46.2105C14.347 46.2105 14.6469 46.2755 14.8968 46.4054C15.1467 46.5304 15.3366 46.7078 15.4665 46.9377C15.6015 47.1626 15.6689 47.4274 15.6689 47.7323C15.6689 47.9572 15.6264 48.1746 15.5415 48.3845C15.4565 48.5944 15.3116 48.8218 15.1067 49.0667C14.9068 49.3066 14.6319 49.5889 14.2821 49.9138L13.1276 50.9858H15.8189V51.5105H12.228V51.0607ZM16.8128 48.8868C16.8128 48.5019 16.8403 48.1471 16.8952 47.8222C16.9502 47.4924 17.0452 47.2075 17.1801 46.9676C17.315 46.7278 17.5025 46.5428 17.7423 46.4129C17.9872 46.278 18.2946 46.2105 18.6644 46.2105C19.0342 46.2105 19.3391 46.278 19.579 46.4129C19.8189 46.5428 20.0063 46.7278 20.1412 46.9676C20.2762 47.2075 20.3711 47.4924 20.4261 47.8222C20.4811 48.1471 20.5086 48.5019 20.5086 48.8868C20.5086 49.2766 20.4811 49.6364 20.4261 49.9662C20.3711 50.2911 20.2762 50.5735 20.1412 50.8134C20.0063 51.0532 19.8189 51.2382 19.579 51.3681C19.3391 51.498 19.0342 51.563 18.6644 51.563C18.2946 51.563 17.9872 51.498 17.7423 51.3681C17.5025 51.2382 17.315 51.0532 17.1801 50.8134C17.0452 50.5735 16.9502 50.2911 16.8952 49.9662C16.8403 49.6364 16.8128 49.2766 16.8128 48.8868ZM19.9013 48.8868C19.9013 48.5919 19.8863 48.317 19.8564 48.0621C19.8314 47.8023 19.7789 47.5749 19.6989 47.38C19.619 47.18 19.4965 47.0251 19.3316 46.9152C19.1667 46.8002 18.9443 46.7428 18.6644 46.7428C18.3895 46.7428 18.1672 46.8002 17.9972 46.9152C17.8323 47.0251 17.7074 47.18 17.6224 47.38C17.5424 47.5749 17.4875 47.8023 17.4575 48.0621C17.4325 48.317 17.42 48.5919 17.42 48.8868C17.42 49.1916 17.4325 49.474 17.4575 49.7339C17.4875 49.9937 17.5424 50.2211 17.6224 50.416C17.7074 50.6109 17.8323 50.7634 17.9972 50.8733C18.1672 50.9783 18.3895 51.0308 18.6644 51.0308C18.9443 51.0308 19.1667 50.9783 19.3316 50.8733C19.4965 50.7634 19.619 50.6109 19.6989 50.416C19.7789 50.2211 19.8314 49.9937 19.8564 49.7339C19.8863 49.474 19.9013 49.1916 19.9013 48.8868ZM21.9022 51.548C21.7873 51.548 21.6898 51.508 21.6098 51.4281C21.5349 51.3481 21.4974 51.2506 21.4974 51.1357C21.4974 51.0208 21.5349 50.9233 21.6098 50.8433C21.6898 50.7634 21.7873 50.7234 21.9022 50.7234C22.0122 50.7234 22.1071 50.7634 22.1871 50.8433C22.267 50.9233 22.307 51.0208 22.307 51.1357C22.307 51.2506 22.267 51.3481 22.1871 51.4281C22.1071 51.508 22.0122 51.548 21.9022 51.548ZM23.2917 48.8868C23.2917 48.5019 23.3192 48.1471 23.3742 47.8222C23.4291 47.4924 23.5241 47.2075 23.659 46.9676C23.794 46.7278 23.9814 46.5428 24.2213 46.4129C24.4661 46.278 24.7735 46.2105 25.1433 46.2105C25.5132 46.2105 25.818 46.278 26.0579 46.4129C26.2978 46.5428 26.4852 46.7278 26.6201 46.9676C26.7551 47.2075 26.85 47.4924 26.905 47.8222C26.96 48.1471 26.9875 48.5019 26.9875 48.8868C26.9875 49.2766 26.96 49.6364 26.905 49.9662C26.85 50.2911 26.7551 50.5735 26.6201 50.8134C26.4852 51.0532 26.2978 51.2382 26.0579 51.3681C25.818 51.498 25.5132 51.563 25.1433 51.563C24.7735 51.563 24.4661 51.498 24.2213 51.3681C23.9814 51.2382 23.794 51.0532 23.659 50.8134C23.5241 50.5735 23.4291 50.2911 23.3742 49.9662C23.3192 49.6364 23.2917 49.2766 23.2917 48.8868ZM26.3803 48.8868C26.3803 48.5919 26.3653 48.317 26.3353 48.0621C26.3103 47.8023 26.2578 47.5749 26.1778 47.38C26.0979 47.18 25.9754 47.0251 25.8105 46.9152C25.6456 46.8002 25.4232 46.7428 25.1433 46.7428C24.8685 46.7428 24.6461 46.8002 24.4761 46.9152C24.3112 47.0251 24.1863 47.18 24.1013 47.38C24.0214 47.5749 23.9664 47.8023 23.9364 48.0621C23.9114 48.317 23.8989 48.5919 23.8989 48.8868C23.8989 49.1916 23.9114 49.474 23.9364 49.7339C23.9664 49.9937 24.0214 50.2211 24.1013 50.416C24.1863 50.6109 24.3112 50.7634 24.4761 50.8733C24.6461 50.9783 24.8685 51.0308 25.1433 51.0308C25.4232 51.0308 25.6456 50.9783 25.8105 50.8733C25.9754 50.7634 26.0979 50.6109 26.1778 50.416C26.2578 50.2211 26.3103 49.9937 26.3353 49.7339C26.3653 49.474 26.3803 49.1916 26.3803 48.8868ZM28.0063 48.8868C28.0063 48.5019 28.0338 48.1471 28.0888 47.8222C28.1437 47.4924 28.2387 47.2075 28.3736 46.9676C28.5086 46.7278 28.696 46.5428 28.9359 46.4129C29.1807 46.278 29.4881 46.2105 29.8579 46.2105C30.2278 46.2105 30.5326 46.278 30.7725 46.4129C31.0124 46.5428 31.1998 46.7278 31.3347 46.9676C31.4697 47.2075 31.5646 47.4924 31.6196 47.8222C31.6746 48.1471 31.7021 48.5019 31.7021 48.8868C31.7021 49.2766 31.6746 49.6364 31.6196 49.9662C31.5646 50.2911 31.4697 50.5735 31.3347 50.8134C31.1998 51.0532 31.0124 51.2382 30.7725 51.3681C30.5326 51.498 30.2278 51.563 29.8579 51.563C29.4881 51.563 29.1807 51.498 28.9359 51.3681C28.696 51.2382 28.5086 51.0532 28.3736 50.8134C28.2387 50.5735 28.1437 50.2911 28.0888 49.9662C28.0338 49.6364 28.0063 49.2766 28.0063 48.8868ZM31.0949 48.8868C31.0949 48.5919 31.0799 48.317 31.0499 48.0621C31.0249 47.8023 30.9724 47.5749 30.8924 47.38C30.8125 47.18 30.69 47.0251 30.5251 46.9152C30.3602 46.8002 30.1378 46.7428 29.8579 46.7428C29.5831 46.7428 29.3607 46.8002 29.1907 46.9152C29.0258 47.0251 28.9009 47.18 28.8159 47.38C28.736 47.5749 28.681 47.8023 28.651 48.0621C28.626 48.317 28.6135 48.5919 28.6135 48.8868C28.6135 49.1916 28.626 49.474 28.651 49.7339C28.681 49.9937 28.736 50.2211 28.8159 50.416C28.9009 50.6109 29.0258 50.7634 29.1907 50.8733C29.3607 50.9783 29.5831 51.0308 29.8579 51.0308C30.1378 51.0308 30.3602 50.9783 30.5251 50.8733C30.69 50.7634 30.8125 50.6109 30.8924 50.416C30.9724 50.2211 31.0249 49.9937 31.0499 49.7339C31.0799 49.474 31.0949 49.1916 31.0949 48.8868ZM32.7209 48.8868C32.7209 48.5019 32.7484 48.1471 32.8034 47.8222C32.8583 47.4924 32.9533 47.2075 33.0882 46.9676C33.2232 46.7278 33.4106 46.5428 33.6505 46.4129C33.8953 46.278 34.2027 46.2105 34.5725 46.2105C34.9424 46.2105 35.2472 46.278 35.4871 46.4129C35.727 46.5428 35.9144 46.7278 36.0493 46.9676C36.1843 47.2075 36.2792 47.4924 36.3342 47.8222C36.3892 48.1471 36.4167 48.5019 36.4167 48.8868C36.4167 49.2766 36.3892 49.6364 36.3342 49.9662C36.2792 50.2911 36.1843 50.5735 36.0493 50.8134C35.9144 51.0532 35.727 51.2382 35.4871 51.3681C35.2472 51.498 34.9424 51.563 34.5725 51.563C34.2027 51.563 33.8953 51.498 33.6505 51.3681C33.4106 51.2382 33.2232 51.0532 33.0882 50.8134C32.9533 50.5735 32.8583 50.2911 32.8034 49.9662C32.7484 49.6364 32.7209 49.2766 32.7209 48.8868ZM35.8094 48.8868C35.8094 48.5919 35.7945 48.317 35.7645 48.0621C35.7395 47.8023 35.687 47.5749 35.607 47.38C35.5271 47.18 35.4046 47.0251 35.2397 46.9152C35.0748 46.8002 34.8524 46.7428 34.5725 46.7428C34.2977 46.7428 34.0753 46.8002 33.9053 46.9152C33.7404 47.0251 33.6155 47.18 33.5305 47.38C33.4506 47.5749 33.3956 47.8023 33.3656 48.0621C33.3406 48.317 33.3281 48.5919 33.3281 48.8868C33.3281 49.1916 33.3406 49.474 33.3656 49.7339C33.3956 49.9937 33.4506 50.2211 33.5305 50.416C33.6155 50.6109 33.7404 50.7634 33.9053 50.8733C34.0753 50.9783 34.2977 51.0308 34.5725 51.0308C34.8524 51.0308 35.0748 50.9783 35.2397 50.8733C35.4046 50.7634 35.5271 50.6109 35.607 50.416C35.687 50.2211 35.7395 49.9937 35.7645 49.7339C35.7945 49.474 35.8094 49.1916 35.8094 48.8868Z" fill="#A8AFB7"/>
<path d="M9.43769 26.4908H9.80502V32.8628H9.43769V26.4908ZM8.42566 30.9662C8.45565 31.1011 8.51812 31.2361 8.61307 31.371C8.71303 31.5009 8.84796 31.6109 9.01788 31.7008C9.1928 31.7858 9.4152 31.8283 9.68507 31.8283C10.0699 31.8283 10.3548 31.7383 10.5397 31.5584C10.7246 31.3785 10.817 31.1661 10.817 30.9212C10.817 30.7263 10.7646 30.5664 10.6596 30.4414C10.5547 30.3165 10.4122 30.214 10.2323 30.1341C10.0524 30.0491 9.85 29.9742 9.6251 29.9092C9.42519 29.8542 9.22529 29.7942 9.02538 29.7293C8.83047 29.6593 8.65305 29.5743 8.49313 29.4744C8.3332 29.3694 8.20576 29.2345 8.11081 29.0696C8.01585 28.9047 7.96837 28.6997 7.96837 28.4549C7.96837 28.16 8.03834 27.9051 8.17828 27.6902C8.31821 27.4703 8.51562 27.3004 8.7705 27.1805C9.02538 27.0605 9.32274 27.0005 9.66258 27.0005C9.95745 27.0005 10.2148 27.043 10.4347 27.128C10.6546 27.2129 10.837 27.3329 10.982 27.4878C11.1319 27.6377 11.2418 27.8127 11.3118 28.0126L10.7796 28.215C10.7446 28.1 10.6771 27.9901 10.5772 27.8851C10.4772 27.7752 10.3473 27.6852 10.1873 27.6153C10.0274 27.5453 9.845 27.5103 9.64009 27.5103C9.44019 27.5103 9.25777 27.5453 9.09285 27.6153C8.93292 27.6852 8.80548 27.7852 8.71053 27.9151C8.61557 28.0451 8.56809 28.2025 8.56809 28.3874C8.56809 28.5873 8.62307 28.7472 8.73302 28.8672C8.84796 28.9821 8.99789 29.0771 9.18281 29.152C9.37272 29.222 9.58012 29.2895 9.80502 29.3544C10.0099 29.4194 10.2073 29.4894 10.3972 29.5643C10.5921 29.6393 10.7646 29.7318 10.9145 29.8417C11.0694 29.9517 11.1919 30.0891 11.2818 30.254C11.3718 30.4189 11.4168 30.6214 11.4168 30.8612C11.4168 31.1261 11.3543 31.3735 11.2294 31.6034C11.1044 31.8283 10.9145 32.0107 10.6596 32.1506C10.4097 32.2856 10.0874 32.353 9.69257 32.353C9.36272 32.353 9.07286 32.3031 8.82297 32.2031C8.57309 32.0982 8.36819 31.9582 8.20826 31.7833C8.04834 31.6084 7.93839 31.4085 7.87842 31.1836L8.42566 30.9662ZM12.3105 28.4699C12.3305 28.16 12.4179 27.8976 12.5729 27.6827C12.7278 27.4628 12.9327 27.2954 13.1876 27.1805C13.4475 27.0605 13.7448 27.0005 14.0797 27.0005C14.4245 27.0005 14.7169 27.0655 14.9568 27.1954C15.1966 27.3254 15.3766 27.4978 15.4965 27.7127C15.6214 27.9276 15.6839 28.165 15.6839 28.4249C15.6839 28.6148 15.6439 28.7922 15.564 28.9571C15.484 29.1171 15.3691 29.2545 15.2191 29.3694C15.0692 29.4844 14.8868 29.5618 14.6719 29.6018V29.6393C14.8868 29.6843 15.0767 29.7618 15.2416 29.8717C15.4115 29.9767 15.544 30.1166 15.6389 30.2915C15.7339 30.4614 15.7814 30.6713 15.7814 30.9212C15.7814 31.1961 15.7189 31.4435 15.594 31.6634C15.469 31.8783 15.2791 32.0482 15.0242 32.1731C14.7743 32.2931 14.462 32.353 14.0872 32.353C13.7223 32.353 13.405 32.2981 13.1351 32.1881C12.8702 32.0782 12.6603 31.9083 12.5054 31.6784C12.3505 31.4435 12.258 31.1411 12.228 30.7713H12.8053C12.8402 31.1161 12.9577 31.3785 13.1576 31.5584C13.3575 31.7333 13.6674 31.8208 14.0872 31.8208C14.337 31.8208 14.5419 31.7833 14.7019 31.7083C14.8618 31.6284 14.9792 31.5159 15.0542 31.371C15.1342 31.2261 15.1742 31.0586 15.1742 30.8687C15.1742 30.5039 15.0417 30.2515 14.7768 30.1116C14.517 29.9667 14.1371 29.8942 13.6374 29.8942H13.465V29.3694H13.6449C13.9697 29.3694 14.2371 29.3369 14.447 29.272C14.6569 29.207 14.8143 29.1096 14.9193 28.9796C15.0242 28.8497 15.0767 28.6848 15.0767 28.4848C15.0767 28.21 14.9917 27.9826 14.8218 27.8027C14.6569 27.6227 14.402 27.5328 14.0572 27.5328C13.8373 27.5328 13.6449 27.5703 13.4799 27.6452C13.315 27.7202 13.1801 27.8277 13.0751 27.9676C12.9752 28.1025 12.9127 28.2699 12.8877 28.4699H12.3105ZM16.7981 29.6768C16.7981 29.292 16.8256 28.9371 16.8806 28.6123C16.9356 28.2824 17.0305 27.9976 17.1655 27.7577C17.3004 27.5178 17.4878 27.3329 17.7277 27.2029C17.9726 27.068 18.28 27.0005 18.6498 27.0005C19.0196 27.0005 19.3245 27.068 19.5644 27.2029C19.8042 27.3329 19.9917 27.5178 20.1266 27.7577C20.2615 27.9976 20.3565 28.2824 20.4115 28.6123C20.4664 28.9371 20.4939 29.292 20.4939 29.6768C20.4939 30.0666 20.4664 30.4264 20.4115 30.7563C20.3565 31.0811 20.2615 31.3635 20.1266 31.6034C19.9917 31.8433 19.8042 32.0282 19.5644 32.1581C19.3245 32.2881 19.0196 32.353 18.6498 32.353C18.28 32.353 17.9726 32.2881 17.7277 32.1581C17.4878 32.0282 17.3004 31.8433 17.1655 31.6034C17.0305 31.3635 16.9356 31.0811 16.8806 30.7563C16.8256 30.4264 16.7981 30.0666 16.7981 29.6768ZM19.8867 29.6768C19.8867 29.3819 19.8717 29.1071 19.8417 28.8522C19.8167 28.5923 19.7643 28.3649 19.6843 28.17C19.6043 27.9701 19.4819 27.8152 19.317 27.7052C19.152 27.5903 18.9296 27.5328 18.6498 27.5328C18.3749 27.5328 18.1525 27.5903 17.9826 27.7052C17.8177 27.8152 17.6927 27.9701 17.6078 28.17C17.5278 28.3649 17.4728 28.5923 17.4428 28.8522C17.4179 29.1071 17.4054 29.3819 17.4054 29.6768C17.4054 29.9816 17.4179 30.264 17.4428 30.5239C17.4728 30.7838 17.5278 31.0112 17.6078 31.2061C17.6927 31.401 17.8177 31.5534 17.9826 31.6634C18.1525 31.7683 18.3749 31.8208 18.6498 31.8208C18.9296 31.8208 19.152 31.7683 19.317 31.6634C19.4819 31.5534 19.6043 31.401 19.6843 31.2061C19.7643 31.0112 19.8167 30.7838 19.8417 30.5239C19.8717 30.264 19.8867 29.9816 19.8867 29.6768ZM21.8876 32.3381C21.7726 32.3381 21.6752 32.2981 21.5952 32.2181C21.5202 32.1381 21.4828 32.0407 21.4828 31.9257C21.4828 31.8108 21.5202 31.7133 21.5952 31.6334C21.6752 31.5534 21.7726 31.5134 21.8876 31.5134C21.9975 31.5134 22.0925 31.5534 22.1724 31.6334C22.2524 31.7133 22.2924 31.8108 22.2924 31.9257C22.2924 32.0407 22.2524 32.1381 22.1724 32.2181C22.0925 32.2981 21.9975 32.3381 21.8876 32.3381ZM23.2771 29.6768C23.2771 29.292 23.3045 28.9371 23.3595 28.6123C23.4145 28.2824 23.5094 27.9976 23.6444 27.7577C23.7793 27.5178 23.9667 27.3329 24.2066 27.2029C24.4515 27.068 24.7589 27.0005 25.1287 27.0005C25.4985 27.0005 25.8034 27.068 26.0433 27.2029C26.2832 27.3329 26.4706 27.5178 26.6055 27.7577C26.7404 27.9976 26.8354 28.2824 26.8904 28.6123C26.9453 28.9371 26.9728 29.292 26.9728 29.6768C26.9728 30.0666 26.9453 30.4264 26.8904 30.7563C26.8354 31.0811 26.7404 31.3635 26.6055 31.6034C26.4706 31.8433 26.2832 32.0282 26.0433 32.1581C25.8034 32.2881 25.4985 32.353 25.1287 32.353C24.7589 32.353 24.4515 32.2881 24.2066 32.1581C23.9667 32.0282 23.7793 31.8433 23.6444 31.6034C23.5094 31.3635 23.4145 31.0811 23.3595 30.7563C23.3045 30.4264 23.2771 30.0666 23.2771 29.6768ZM26.3656 29.6768C26.3656 29.3819 26.3506 29.1071 26.3206 28.8522C26.2956 28.5923 26.2432 28.3649 26.1632 28.17C26.0832 27.9701 25.9608 27.8152 25.7959 27.7052C25.631 27.5903 25.4086 27.5328 25.1287 27.5328C24.8538 27.5328 24.6314 27.5903 24.4615 27.7052C24.2966 27.8152 24.1716 27.9701 24.0867 28.17C24.0067 28.3649 23.9517 28.5923 23.9218 28.8522C23.8968 29.1071 23.8843 29.3819 23.8843 29.6768C23.8843 29.9816 23.8968 30.264 23.9218 30.5239C23.9517 30.7838 24.0067 31.0112 24.0867 31.2061C24.1716 31.401 24.2966 31.5534 24.4615 31.6634C24.6314 31.7683 24.8538 31.8208 25.1287 31.8208C25.4086 31.8208 25.631 31.7683 25.7959 31.6634C25.9608 31.5534 26.0832 31.401 26.1632 31.2061C26.2432 31.0112 26.2956 30.7838 26.3206 30.5239C26.3506 30.264 26.3656 29.9816 26.3656 29.6768ZM27.9917 29.6768C27.9917 29.292 28.0191 28.9371 28.0741 28.6123C28.1291 28.2824 28.224 27.9976 28.359 27.7577C28.4939 27.5178 28.6813 27.3329 28.9212 27.2029C29.1661 27.068 29.4735 27.0005 29.8433 27.0005C30.2131 27.0005 30.518 27.068 30.7579 27.2029C30.9977 27.3329 31.1852 27.5178 31.3201 27.7577C31.455 27.9976 31.55 28.2824 31.605 28.6123C31.6599 28.9371 31.6874 29.292 31.6874 29.6768C31.6874 30.0666 31.6599 30.4264 31.605 30.7563C31.55 31.0811 31.455 31.3635 31.3201 31.6034C31.1852 31.8433 30.9977 32.0282 30.7579 32.1581C30.518 32.2881 30.2131 32.353 29.8433 32.353C29.4735 32.353 29.1661 32.2881 28.9212 32.1581C28.6813 32.0282 28.4939 31.8433 28.359 31.6034C28.224 31.3635 28.1291 31.0811 28.0741 30.7563C28.0191 30.4264 27.9917 30.0666 27.9917 29.6768ZM31.0802 29.6768C31.0802 29.3819 31.0652 29.1071 31.0352 28.8522C31.0102 28.5923 30.9578 28.3649 30.8778 28.17C30.7978 27.9701 30.6754 27.8152 30.5105 27.7052C30.3456 27.5903 30.1232 27.5328 29.8433 27.5328C29.5684 27.5328 29.346 27.5903 29.1761 27.7052C29.0112 27.8152 28.8862 27.9701 28.8013 28.17C28.7213 28.3649 28.6663 28.5923 28.6363 28.8522C28.6114 29.1071 28.5989 29.3819 28.5989 29.6768C28.5989 29.9816 28.6114 30.264 28.6363 30.5239C28.6663 30.7838 28.7213 31.0112 28.8013 31.2061C28.8862 31.401 29.0112 31.5534 29.1761 31.6634C29.346 31.7683 29.5684 31.8208 29.8433 31.8208C30.1232 31.8208 30.3456 31.7683 30.5105 31.6634C30.6754 31.5534 30.7978 31.401 30.8778 31.2061C30.9578 31.0112 31.0102 30.7838 31.0352 30.5239C31.0652 30.264 31.0802 29.9816 31.0802 29.6768ZM32.7062 29.6768C32.7062 29.292 32.7337 28.9371 32.7887 28.6123C32.8437 28.2824 32.9386 27.9976 33.0736 27.7577C33.2085 27.5178 33.3959 27.3329 33.6358 27.2029C33.8807 27.068 34.1881 27.0005 34.5579 27.0005C34.9277 27.0005 35.2326 27.068 35.4725 27.2029C35.7123 27.3329 35.8998 27.5178 36.0347 27.7577C36.1696 27.9976 36.2646 28.2824 36.3196 28.6123C36.3745 28.9371 36.402 29.292 36.402 29.6768C36.402 30.0666 36.3745 30.4264 36.3196 30.7563C36.2646 31.0811 36.1696 31.3635 36.0347 31.6034C35.8998 31.8433 35.7123 32.0282 35.4725 32.1581C35.2326 32.2881 34.9277 32.353 34.5579 32.353C34.1881 32.353 33.8807 32.2881 33.6358 32.1581C33.3959 32.0282 33.2085 31.8433 33.0736 31.6034C32.9386 31.3635 32.8437 31.0811 32.7887 30.7563C32.7337 30.4264 32.7062 30.0666 32.7062 29.6768ZM35.7948 29.6768C35.7948 29.3819 35.7798 29.1071 35.7498 28.8522C35.7248 28.5923 35.6724 28.3649 35.5924 28.17C35.5124 27.9701 35.39 27.8152 35.2251 27.7052C35.0601 27.5903 34.8378 27.5328 34.5579 27.5328C34.283 27.5328 34.0606 27.5903 33.8907 27.7052C33.7258 27.8152 33.6008 27.9701 33.5159 28.17C33.4359 28.3649 33.3809 28.5923 33.3509 28.8522C33.326 29.1071 33.3135 29.3819 33.3135 29.6768C33.3135 29.9816 33.326 30.264 33.3509 30.5239C33.3809 30.7838 33.4359 31.0112 33.5159 31.2061C33.6008 31.401 33.7258 31.5534 33.8907 31.6634C34.0606 31.7683 34.283 31.8208 34.5579 31.8208C34.8378 31.8208 35.0601 31.7683 35.2251 31.6634C35.39 31.5534 35.5124 31.401 35.5924 31.2061C35.6724 31.0112 35.7248 30.7838 35.7498 30.5239C35.7798 30.264 35.7948 29.9816 35.7948 29.6768Z" fill="#A8AFB7"/>
<path d="M8.97089 7.28069H9.33822V13.6527H8.97089V7.28069ZM7.95886 11.7561C7.98885 11.891 8.05132 12.026 8.14628 12.1609C8.24623 12.2909 8.38117 12.4008 8.55109 12.4908C8.72601 12.5757 8.9484 12.6182 9.21828 12.6182C9.6031 12.6182 9.88796 12.5282 10.0729 12.3483C10.2578 12.1684 10.3502 11.956 10.3502 11.7111C10.3502 11.5162 10.2978 11.3563 10.1928 11.2314C10.0879 11.1064 9.94544 11.004 9.76552 10.924C9.5856 10.839 9.3832 10.7641 9.1583 10.6991C8.9584 10.6441 8.75849 10.5842 8.55858 10.5192C8.36367 10.4492 8.18626 10.3643 8.02633 10.2643C7.86641 10.1594 7.73897 10.0244 7.64401 9.85949C7.54905 9.69457 7.50158 9.48966 7.50158 9.24478C7.50158 8.94992 7.57154 8.69503 7.71148 8.48013C7.85141 8.26024 8.04882 8.09032 8.3037 7.97037C8.55858 7.85043 8.85594 7.79046 9.19579 7.79046C9.49065 7.79046 9.74803 7.83294 9.96793 7.9179C10.1878 8.00286 10.3702 8.1228 10.5152 8.27773C10.6651 8.42766 10.775 8.60258 10.845 8.80248L10.3128 9.00489C10.2778 8.88994 10.2103 8.77999 10.1104 8.67504C10.0104 8.5651 9.88047 8.47514 9.72054 8.40517C9.56062 8.3352 9.3782 8.30022 9.1733 8.30022C8.97339 8.30022 8.79098 8.3352 8.62605 8.40517C8.46613 8.47514 8.33869 8.57509 8.24373 8.70503C8.14877 8.83497 8.1013 8.9924 8.1013 9.17731C8.1013 9.37722 8.15627 9.53714 8.26622 9.65709C8.38117 9.77203 8.5311 9.86699 8.71601 9.94195C8.90592 10.0119 9.11332 10.0794 9.33822 10.1444C9.54312 10.2093 9.74053 10.2793 9.93044 10.3543C10.1254 10.4292 10.2978 10.5217 10.4477 10.6316C10.6026 10.7416 10.7251 10.879 10.815 11.0439C10.905 11.2089 10.95 11.4113 10.95 11.6512C10.95 11.916 10.8875 12.1634 10.7626 12.3933C10.6376 12.6182 10.4477 12.8006 10.1928 12.9406C9.94294 13.0755 9.62059 13.143 9.22577 13.143C8.89593 13.143 8.60606 13.093 8.35618 12.993C8.10629 12.8881 7.90139 12.7481 7.74146 12.5732C7.58154 12.3983 7.47159 12.1984 7.41162 11.9735L7.95886 11.7561ZM14.46 11.8461H11.6563V11.3963L14.34 7.84293H15.0597V11.3213H15.8243V11.8461H15.0597V13.0905H14.46V11.8461ZM14.475 11.3213V8.48013L12.346 11.3213H14.475ZM16.756 10.4667C16.756 10.0819 16.7834 9.72705 16.8384 9.4022C16.8934 9.07236 16.9883 8.78749 17.1233 8.5476C17.2582 8.30772 17.4456 8.1228 17.6855 7.99286C17.9304 7.85793 18.2378 7.79046 18.6076 7.79046C18.9774 7.79046 19.2823 7.85793 19.5222 7.99286C19.762 8.1228 19.9495 8.30772 20.0844 8.5476C20.2193 8.78749 20.3143 9.07236 20.3693 9.4022C20.4242 9.72705 20.4517 10.0819 20.4517 10.4667C20.4517 10.8565 20.4242 11.2164 20.3693 11.5462C20.3143 11.8711 20.2193 12.1534 20.0844 12.3933C19.9495 12.6332 19.762 12.8181 19.5222 12.9481C19.2823 13.078 18.9774 13.143 18.6076 13.143C18.2378 13.143 17.9304 13.078 17.6855 12.9481C17.4456 12.8181 17.2582 12.6332 17.1233 12.3933C16.9883 12.1534 16.8934 11.8711 16.8384 11.5462C16.7834 11.2164 16.756 10.8565 16.756 10.4667ZM19.8445 10.4667C19.8445 10.1718 19.8295 9.89697 19.7995 9.64209C19.7745 9.38221 19.7221 9.15482 19.6421 8.95991C19.5621 8.76 19.4397 8.60508 19.2748 8.49513C19.1099 8.38018 18.8875 8.32271 18.6076 8.32271C18.3327 8.32271 18.1103 8.38018 17.9404 8.49513C17.7755 8.60508 17.6505 8.76 17.5656 8.95991C17.4856 9.15482 17.4306 9.38221 17.4007 9.64209C17.3757 9.89697 17.3632 10.1718 17.3632 10.4667C17.3632 10.7716 17.3757 11.0539 17.4007 11.3138C17.4306 11.5737 17.4856 11.8011 17.5656 11.996C17.6505 12.1909 17.7755 12.3433 17.9404 12.4533C18.1103 12.5582 18.3327 12.6107 18.6076 12.6107C18.8875 12.6107 19.1099 12.5582 19.2748 12.4533C19.4397 12.3433 19.5621 12.1909 19.6421 11.996C19.7221 11.8011 19.7745 11.5737 19.7995 11.3138C19.8295 11.0539 19.8445 10.7716 19.8445 10.4667ZM21.8454 13.128C21.7304 13.128 21.633 13.088 21.553 13.008C21.478 12.9281 21.4406 12.8306 21.4406 12.7157C21.4406 12.6007 21.478 12.5033 21.553 12.4233C21.633 12.3433 21.7304 12.3034 21.8454 12.3034C21.9553 12.3034 22.0503 12.3433 22.1302 12.4233C22.2102 12.5033 22.2502 12.6007 22.2502 12.7157C22.2502 12.8306 22.2102 12.9281 22.1302 13.008C22.0503 13.088 21.9553 13.128 21.8454 13.128ZM23.2349 10.4667C23.2349 10.0819 23.2623 9.72705 23.3173 9.4022C23.3723 9.07236 23.4673 8.78749 23.6022 8.5476C23.7371 8.30772 23.9245 8.1228 24.1644 7.99286C24.4093 7.85793 24.7167 7.79046 25.0865 7.79046C25.4563 7.79046 25.7612 7.85793 26.0011 7.99286C26.241 8.1228 26.4284 8.30772 26.5633 8.5476C26.6982 8.78749 26.7932 9.07236 26.8482 9.4022C26.9032 9.72705 26.9306 10.0819 26.9306 10.4667C26.9306 10.8565 26.9032 11.2164 26.8482 11.5462C26.7932 11.8711 26.6982 12.1534 26.5633 12.3933C26.4284 12.6332 26.241 12.8181 26.0011 12.9481C25.7612 13.078 25.4563 13.143 25.0865 13.143C24.7167 13.143 24.4093 13.078 24.1644 12.9481C23.9245 12.8181 23.7371 12.6332 23.6022 12.3933C23.4673 12.1534 23.3723 11.8711 23.3173 11.5462C23.2623 11.2164 23.2349 10.8565 23.2349 10.4667ZM26.3234 10.4667C26.3234 10.1718 26.3084 9.89697 26.2784 9.64209C26.2535 9.38221 26.201 9.15482 26.121 8.95991C26.0411 8.76 25.9186 8.60508 25.7537 8.49513C25.5888 8.38018 25.3664 8.32271 25.0865 8.32271C24.8116 8.32271 24.5892 8.38018 24.4193 8.49513C24.2544 8.60508 24.1294 8.76 24.0445 8.95991C23.9645 9.15482 23.9095 9.38221 23.8796 9.64209C23.8546 9.89697 23.8421 10.1718 23.8421 10.4667C23.8421 10.7716 23.8546 11.0539 23.8796 11.3138C23.9095 11.5737 23.9645 11.8011 24.0445 11.996C24.1294 12.1909 24.2544 12.3433 24.4193 12.4533C24.5892 12.5582 24.8116 12.6107 25.0865 12.6107C25.3664 12.6107 25.5888 12.5582 25.7537 12.4533C25.9186 12.3433 26.0411 12.1909 26.121 11.996C26.201 11.8011 26.2535 11.5737 26.2784 11.3138C26.3084 11.0539 26.3234 10.7716 26.3234 10.4667ZM27.9495 10.4667C27.9495 10.0819 27.9769 9.72705 28.0319 9.4022C28.0869 9.07236 28.1819 8.78749 28.3168 8.5476C28.4517 8.30772 28.6391 8.1228 28.879 7.99286C29.1239 7.85793 29.4313 7.79046 29.8011 7.79046C30.1709 7.79046 30.4758 7.85793 30.7157 7.99286C30.9556 8.1228 31.143 8.30772 31.2779 8.5476C31.4128 8.78749 31.5078 9.07236 31.5628 9.4022C31.6178 9.72705 31.6452 10.0819 31.6452 10.4667C31.6452 10.8565 31.6178 11.2164 31.5628 11.5462C31.5078 11.8711 31.4128 12.1534 31.2779 12.3933C31.143 12.6332 30.9556 12.8181 30.7157 12.9481C30.4758 13.078 30.1709 13.143 29.8011 13.143C29.4313 13.143 29.1239 13.078 28.879 12.9481C28.6391 12.8181 28.4517 12.6332 28.3168 12.3933C28.1819 12.1534 28.0869 11.8711 28.0319 11.5462C27.9769 11.2164 27.9495 10.8565 27.9495 10.4667ZM31.038 10.4667C31.038 10.1718 31.023 9.89697 30.993 9.64209C30.9681 9.38221 30.9156 9.15482 30.8356 8.95991C30.7557 8.76 30.6332 8.60508 30.4683 8.49513C30.3034 8.38018 30.081 8.32271 29.8011 8.32271C29.5262 8.32271 29.3038 8.38018 29.1339 8.49513C28.969 8.60508 28.844 8.76 28.7591 8.95991C28.6791 9.15482 28.6241 9.38221 28.5942 9.64209C28.5692 9.89697 28.5567 10.1718 28.5567 10.4667C28.5567 10.7716 28.5692 11.0539 28.5942 11.3138C28.6241 11.5737 28.6791 11.8011 28.7591 11.996C28.844 12.1909 28.969 12.3433 29.1339 12.4533C29.3038 12.5582 29.5262 12.6107 29.8011 12.6107C30.081 12.6107 30.3034 12.5582 30.4683 12.4533C30.6332 12.3433 30.7557 12.1909 30.8356 11.996C30.9156 11.8011 30.9681 11.5737 30.993 11.3138C31.023 11.0539 31.038 10.7716 31.038 10.4667ZM32.6641 10.4667C32.6641 10.0819 32.6915 9.72705 32.7465 9.4022C32.8015 9.07236 32.8965 8.78749 33.0314 8.5476C33.1663 8.30772 33.3537 8.1228 33.5936 7.99286C33.8385 7.85793 34.1459 7.79046 34.5157 7.79046C34.8855 7.79046 35.1904 7.85793 35.4303 7.99286C35.6702 8.1228 35.8576 8.30772 35.9925 8.5476C36.1274 8.78749 36.2224 9.07236 36.2774 9.4022C36.3323 9.72705 36.3598 10.0819 36.3598 10.4667C36.3598 10.8565 36.3323 11.2164 36.2774 11.5462C36.2224 11.8711 36.1274 12.1534 35.9925 12.3933C35.8576 12.6332 35.6702 12.8181 35.4303 12.9481C35.1904 13.078 34.8855 13.143 34.5157 13.143C34.1459 13.143 33.8385 13.078 33.5936 12.9481C33.3537 12.8181 33.1663 12.6332 33.0314 12.3933C32.8965 12.1534 32.8015 11.8711 32.7465 11.5462C32.6915 11.2164 32.6641 10.8565 32.6641 10.4667ZM35.7526 10.4667C35.7526 10.1718 35.7376 9.89697 35.7076 9.64209C35.6827 9.38221 35.6302 9.15482 35.5502 8.95991C35.4703 8.76 35.3478 8.60508 35.1829 8.49513C35.018 8.38018 34.7956 8.32271 34.5157 8.32271C34.2408 8.32271 34.0184 8.38018 33.8485 8.49513C33.6836 8.60508 33.5586 8.76 33.4737 8.95991C33.3937 9.15482 33.3387 9.38221 33.3088 9.64209C33.2838 9.89697 33.2713 10.1718 33.2713 10.4667C33.2713 10.7716 33.2838 11.0539 33.3088 11.3138C33.3387 11.5737 33.3937 11.8011 33.4737 11.996C33.5586 12.1909 33.6836 12.3433 33.8485 12.4533C34.0184 12.5582 34.2408 12.6107 34.5157 12.6107C34.7956 12.6107 35.018 12.5582 35.1829 12.4533C35.3478 12.3433 35.4703 12.1909 35.5502 11.996C35.6302 11.8011 35.6827 11.5737 35.7076 11.3138C35.7376 11.0539 35.7526 10.7716 35.7526 10.4667Z" fill="#A8AFB7"/>
<line x1="42.6367" y1="10.5419" x2="129.784" y2="10.5419" stroke="#EBECEE" stroke-width="0.468531" stroke-dasharray="1.87 1.87"/>
<line x1="42.6367" y1="29.7509" x2="129.784" y2="29.7509" stroke="#EBECEE" stroke-width="0.468531" stroke-dasharray="1.87 1.87"/>
<line x1="42.6367" y1="48.9608" x2="129.784" y2="48.9608" stroke="#EBECEE" stroke-width="0.468531" stroke-dasharray="1.87 1.87"/>
<line x1="42.6367" y1="68.1709" x2="129.784" y2="68.1709" stroke="#EBECEE" stroke-width="0.468531" stroke-dasharray="1.87 1.87"/>
<path d="M39.8262 79.6495L52.4813 58.8058C54.1122 56.1197 57.8728 55.7688 59.9724 58.107L61.3632 59.6558C63.5983 62.145 67.6468 61.5571 69.0817 58.5351L78.9162 37.823C80.2346 35.0464 83.8244 34.27 86.1723 36.2536L89.8309 39.3445C92.3618 41.4826 96.2518 40.3902 97.2995 37.2471L104.638 15.2322C105.686 12.0876 109.579 10.996 112.109 13.1371L115.154 15.7135C117.234 17.4739 120.372 17.094 121.973 14.8882L127.676 7.02713" stroke="#0077DF" stroke-width="0.937063"/>
<circle cx="105.186" cy="15.6959" r="2.34266" fill="url(#paint0_linear_18552_17448)" stroke="white" stroke-width="0.468531"/>
<path d="M123.928 8.90201L127.91 6.55936L127.676 11.2447" stroke="#0077DF" stroke-width="0.937063"/>
</g>
<rect x="1.17177" y="0.702802" width="133.531" height="77.5315" rx="9.13636" stroke="#D4DAE3" stroke-width="0.468531"/>
</g>
<defs>
<filter id="filter0_dddd_18552_17448" x="0.000437081" y="4.91738e-06" width="139.622" height="85.028" filterUnits="userSpaceOnUse" color-interpolation-filters="sRGB">
<feFlood flood-opacity="0" result="BackgroundImageFix"/>
<feColorMatrix in="SourceAlpha" type="matrix" values="0 0 0 0 0 0 0 0 0 0 0 0 0 0 0 0 0 0 127 0" result="hardAlpha"/>
<feOffset dy="0.468531"/>
<feGaussianBlur stdDeviation="0.468531"/>
<feColorMatrix type="matrix" values="0 0 0 0 0 0 0 0 0 0 0 0 0 0 0 0 0 0 0.05 0"/>
<feBlend mode="normal" in2="BackgroundImageFix" result="effect1_dropShadow_18552_17448"/>
<feColorMatrix in="SourceAlpha" type="matrix" values="0 0 0 0 0 0 0 0 0 0 0 0 0 0 0 0 0 0 127 0" result="hardAlpha"/>
<feOffset dx="0.468531" dy="0.937063"/>
<feGaussianBlur stdDeviation="0.702797"/>
<feColorMatrix type="matrix" values="0 0 0 0 0 0 0 0 0 0 0 0 0 0 0 0 0 0 0.04 0"/>
<feBlend mode="normal" in2="effect1_dropShadow_18552_17448" result="effect2_dropShadow_18552_17448"/>
<feColorMatrix in="SourceAlpha" type="matrix" values="0 0 0 0 0 0 0 0 0 0 0 0 0 0 0 0 0 0 127 0" result="hardAlpha"/>
<feOffset dx="1.40559" dy="2.34266"/>
<feGaussianBlur stdDeviation="0.937063"/>
<feColorMatrix type="matrix" values="0 0 0 0 0 0 0 0 0 0 0 0 0 0 0 0 0 0 0.03 0"/>
<feBlend mode="normal" in2="effect2_dropShadow_18552_17448" result="effect3_dropShadow_18552_17448"/>
<feColorMatrix in="SourceAlpha" type="matrix" values="0 0 0 0 0 0 0 0 0 0 0 0 0 0 0 0 0 0 127 0" result="hardAlpha"/>
<feOffset dx="2.81119" dy="4.68531"/>
<feGaussianBlur stdDeviation="0.937063"/>
<feColorMatrix type="matrix" values="0 0 0 0 0 0 0 0 0 0 0 0 0 0 0 0 0 0 0.01 0"/>
<feBlend mode="normal" in2="effect3_dropShadow_18552_17448" result="effect4_dropShadow_18552_17448"/>
<feBlend mode="normal" in="SourceGraphic" in2="effect4_dropShadow_18552_17448" result="shape"/>
</filter>
<linearGradient id="paint0_linear_18552_17448" x1="102.609" y1="13.1189" x2="106.927" y2="19.0125" gradientUnits="userSpaceOnUse">
<stop stop-color="#0277E0"/>
<stop offset="1" stop-color="#1357B0"/>
</linearGradient>
<clipPath id="clip0_18552_17448">
<rect x="0.9375" y="0.468536" width="134" height="78" rx="9.37063" fill="white"/>
</clipPath>
</defs>
</svg>
