<svg width="20" height="20" viewBox="0 0 20 20" fill="none" xmlns="http://www.w3.org/2000/svg">
<path d="M5.83292 11.6663C4.96561 12.156 4.2643 12.8935 3.81888 13.7843C3.37347 14.6752 3.20425 15.6787 3.33292 16.6663C4.32055 16.795 5.32411 16.6258 6.21494 16.1804C7.10577 15.735 7.84328 15.0336 8.33292 14.1663M3.33293 10.833C4.81884 11.0096 6.20213 11.681 7.26022 12.739C8.31832 13.7971 8.98967 15.1804 9.16626 16.6663C9.90286 16.2417 10.519 15.6362 10.9564 14.9071C11.3939 14.178 11.6382 13.3495 11.6663 12.4997C13.0655 12.0074 14.2874 11.1113 15.1774 9.92468C16.0674 8.73803 16.5855 7.31412 16.6663 5.83301C16.6663 5.16997 16.4029 4.53408 15.934 4.06524C15.4652 3.5964 14.8293 3.33301 14.1663 3.33301C12.6851 3.41376 11.2612 3.9319 10.0746 4.82188C8.88793 5.71187 7.99183 6.93375 7.49959 8.33301C6.64981 8.36107 5.82122 8.60537 5.09215 9.04282C4.36307 9.48027 3.75759 10.0964 3.33293 10.833ZM11.6663 7.49967C11.6663 7.72069 11.7541 7.93265 11.9103 8.08893C12.0666 8.24521 12.2786 8.33301 12.4996 8.33301C12.7206 8.33301 12.9326 8.24521 13.0888 8.08893C13.2451 7.93265 13.3329 7.72069 13.3329 7.49967C13.3329 7.27866 13.2451 7.0667 13.0888 6.91042C12.9326 6.75414 12.7206 6.66634 12.4996 6.66634C12.2786 6.66634 12.0666 6.75414 11.9103 6.91042C11.7541 7.0667 11.6663 7.27866 11.6663 7.49967Z" stroke="white" stroke-width="1.5" stroke-linecap="round" stroke-linejoin="round"/>
</svg>
