<svg width="32" height="38" viewBox="0 0 32 38" fill="none" xmlns="http://www.w3.org/2000/svg">
<g clip-path="url(#clip0_2514_1134)">
<path d="M22.9484 32.7101C21.6155 32.953 20.409 33.6529 19.5363 34.6892L19.5284 34.6987C19.1488 35.199 18.6387 35.5852 18.0541 35.8147C17.4696 36.0443 16.8331 36.1085 16.2145 36.0002L16.2351 36.0034V35.9828L16.1084 35.986L15.9754 35.9828H15.9817V36.0034C15.3677 36.107 14.737 36.041 14.1578 35.8124C13.5785 35.5839 13.0726 35.2016 12.6947 34.7067L12.6884 34.6987C11.8243 33.6659 10.6283 32.9652 9.3048 32.7164L9.26839 32.7101C7.94001 32.4288 6.55466 32.6407 5.37109 33.3062C4.18753 33.9717 3.28671 35.0453 2.83689 36.3264L2.82422 36.366L4.69572 36.9914C4.99255 36.1479 5.5901 35.4436 6.37393 35.0132C7.15777 34.5829 8.0728 34.4568 8.9438 34.6592L8.92005 34.6544C9.8462 34.8253 10.6785 35.3273 11.2618 36.0667L11.2681 36.0747C11.7808 36.7035 12.4329 37.2043 13.1727 37.5374C13.9126 37.8705 14.7198 38.0267 15.5305 37.9937H15.521C15.7057 37.9926 15.901 37.9852 16.1068 37.9715C16.3105 37.9852 16.5058 37.9926 16.6926 37.9937C17.4998 38.0263 18.3035 37.8708 19.0402 37.5394C19.777 37.208 20.4265 36.7098 20.9375 36.0842L20.9455 36.0747C21.5239 35.3376 22.3495 34.8348 23.2698 34.6592L23.2936 34.656C24.1574 34.4597 25.0633 34.5865 25.8401 35.0123C26.6169 35.4382 27.2109 36.1338 27.51 36.9677L27.5179 36.993L29.3894 36.3676C28.9439 35.0709 28.0378 33.983 26.8432 33.3102C25.6486 32.6375 24.2485 32.4267 22.9088 32.718L22.9452 32.7117L22.9484 32.7101Z" fill="#2C358C"/>
<path d="M5.05242 18.7245C4.68562 18.7179 4.33471 18.5737 4.06936 18.3203C3.80402 18.067 3.64366 17.7232 3.62014 17.3571C3.59661 16.991 3.71163 16.6294 3.94236 16.3442C4.17309 16.059 4.50264 15.871 4.86558 15.8175H4.8735V15.827L5.75067 15.9853C5.98041 16.1105 6.17222 16.2951 6.30595 16.52C6.43968 16.7448 6.51039 17.0015 6.51067 17.2631V17.2647C6.51025 17.6515 6.35685 18.0224 6.08394 18.2965C5.81104 18.5706 5.44078 18.7256 5.054 18.7277L5.05242 18.7245ZM6.84317 8.91101L11.1498 7.40051H21.0662L25.3729 8.91101V12.5242L16.1088 11.0042L6.84475 12.5242L6.84317 8.91101ZM13.2034 1.97284H19.0142L19.9468 5.42609H12.2708L13.2034 1.97284ZM26.4702 15.9806L27.3473 15.8223V15.8143C27.7002 15.8585 28.0249 16.0296 28.2608 16.2956C28.4968 16.5616 28.628 16.9043 28.6298 17.2599C28.6298 17.6475 28.4759 18.0192 28.2018 18.2933C27.9277 18.5674 27.556 18.7213 27.1684 18.7213C26.7808 18.7213 26.4091 18.5674 26.135 18.2933C25.861 18.0192 25.707 17.6475 25.707 17.2599V17.2583C25.707 16.7089 26.011 16.2308 26.4591 15.9838L26.467 15.9806H26.4702ZM8.075 31.122H8.0845C8.59644 31.122 9.09572 31.1669 9.58233 31.2566L9.53167 31.2487C11.1697 31.5453 12.6566 32.3941 13.7449 33.6538L13.7528 33.6633C13.9988 33.9662 14.2891 34.2116 14.6237 34.3995L14.6395 34.4074V34.3789L16.0692 34.5056H16.1294L17.5655 34.3615V34.4122C17.9138 34.2158 18.2078 33.9704 18.4474 33.6759L18.4522 33.6712C19.5303 32.4178 21.0027 31.5685 22.6274 31.2629L22.6717 31.2566C23.1087 31.1743 23.6122 31.1252 24.1268 31.1236H24.1363C24.6726 31.1236 25.1924 31.1795 25.6959 31.2914L25.6484 31.2819L32.2082 13.6531L27.3362 12.8519V7.51609L22.04 5.65726L20.52 0.00317383H11.6882L10.1682 5.65726L4.87192 7.51609V12.8519L0 13.6531L6.55975 31.2819C7.01417 31.1806 7.53667 31.1236 8.07183 31.1236H8.08133L8.075 31.122Z" fill="#2C358C"/>
</g>
<defs>
<clipPath id="clip0_2514_1134">
<rect width="31.6667" height="38" fill="white"/>
</clipPath>
</defs>
</svg>
