<svg
    width="118"
    height="25"
    viewBox="0 0 133 36"
    fill="none"
    xmlns="http://www.w3.org/2000/svg"
    className="text-green-50 stroke-green-300"
    preserveAspectRatio="none"
>

    <path
        d="M126.189 0C129.503 0 132.189 2.68629 132.189 6V30C132.189 33.3137 129.503 36 126.189 36H16C14.2193 36 12.5306 35.2088 11.3906 33.8408L1.39062 21.8408C-0.463605 19.6157 -0.463605 16.3843 1.39062 14.1592L11.3906 2.15918C12.5306 0.791229 14.2193 0 16 0H126.189Z"
        class="fill-current"
    />
    <circle cx="11.2" cy="18" r="4" class="fill-white" />


    <path
        d="M126.189 0C129.503 0 132.189 2.68629 132.189 6V30C132.189 33.3137 129.503 36 126.189 36H16C14.2193 36 12.5306 35.2088 11.3906 33.8408L1.39062 21.8408C-0.463605 19.6157 -0.463605 16.3843 1.39062 14.1592L11.3906 2.15918C12.5306 0.791229 14.2193 0 16 0H126.189Z"
        class="stroke-current"
        stroke-width="2"
        fill="none"
    />
</svg>