<svg width="34" height="38" viewBox="0 0 34 38" fill="none" xmlns="http://www.w3.org/2000/svg">
<g clip-path="url(#clip0_2514_1132)">
<path d="M16.5446 0C10.7813 0 5.92045 0.31825 5.19529 0.741C3.92862 1.17325 2.97545 4.05017 2.97229 7.46383V9.15958H2.62712C2.59254 9.08127 2.54548 9.00908 2.48779 8.94583C2.6368 8.77337 2.71885 8.55309 2.71895 8.32517V7.46383C2.7391 7.26233 2.67967 7.06094 2.55335 6.90267C2.42702 6.74439 2.24382 6.64178 2.04287 6.61675H0.68437C0.481916 6.64138 0.297301 6.74473 0.170476 6.90445C0.043651 7.06417 -0.0151839 7.2674 0.00670313 7.47017V7.467V8.32833C0.00670313 8.56583 0.0937865 8.78433 0.23787 8.95058L0.236287 8.949C0.0872717 9.12146 0.00522638 9.34175 0.00511979 9.56967V13.8225C0.00300868 13.8468 0.00195312 13.8721 0.00195312 13.8985C0.00195312 14.2943 0.298037 14.6221 0.681203 14.6696H2.04129C2.16865 14.663 2.29145 14.62 2.39504 14.5456C2.49863 14.4712 2.57864 14.3686 2.62554 14.25L2.62712 14.2453H2.97229V21.8801C2.97229 22.1825 3.29687 22.4628 3.82095 22.6132V23.6043C3.07204 23.7009 2.55429 24.0382 2.55429 24.4245V32.9112C2.50081 33.9629 2.80312 35.002 3.41245 35.8609L3.40295 35.8467V37.3049C3.40295 37.6897 3.71487 38.0016 4.09962 38.0016H6.94646C7.13122 38.0016 7.30842 37.9282 7.43907 37.7975C7.56972 37.6669 7.64312 37.4897 7.64312 37.3049V36.3058H25.4509V37.3049C25.4509 37.6897 25.7628 38.0016 26.1475 38.0016H28.9944C29.0859 38.0016 29.1765 37.9836 29.261 37.9486C29.3455 37.9135 29.4223 37.8622 29.487 37.7975C29.5517 37.7328 29.603 37.656 29.638 37.5715C29.673 37.487 29.691 37.3964 29.691 37.3049V35.8483C30.296 34.9894 30.5949 33.9523 30.5397 32.9033V32.9143V24.4277C30.5397 24.0413 30.0156 23.7041 29.273 23.6075V22.6163C29.7971 22.4659 30.1201 22.1857 30.1217 21.8833V14.2516H30.4669C30.5619 14.4923 30.7867 14.6617 31.0511 14.6759H32.4049C32.6073 14.6513 32.792 14.5479 32.9188 14.3882C33.0456 14.2285 33.1044 14.0253 33.0825 13.8225V13.8257V9.57283C33.0828 9.34437 33.0008 9.12346 32.8514 8.95058L32.853 8.95217C33.002 8.77971 33.084 8.55942 33.0841 8.3315V7.47333C33.1043 7.27183 33.0448 7.07044 32.9185 6.91217C32.7922 6.75389 32.609 6.65128 32.408 6.62625H31.048C30.8455 6.65088 30.6609 6.75423 30.5341 6.91395C30.4072 7.07367 30.3484 7.2769 30.3703 7.47967V7.4765V8.33783C30.3703 8.57533 30.4574 8.79383 30.6015 8.96008L30.5999 8.9585C30.5451 9.0213 30.4987 9.09103 30.4621 9.16592L30.4605 9.17067H30.1154V7.467C30.1154 4.03592 29.1527 1.14633 27.8765 0.73625C27.1007 0.315083 22.2636 0.00316667 16.5446 0.00316667V0ZM4.91029 4.91942H28.1774C28.5875 4.91942 28.9295 5.21075 29.0086 5.59867L29.0102 5.60342C29.1717 6.41092 29.2635 7.34033 29.2635 8.29192V8.35208V8.34892V14.25C29.2635 14.7187 28.8835 15.0987 28.4149 15.0987H4.66962C4.44454 15.0987 4.22868 15.0093 4.06952 14.8501C3.91037 14.6909 3.82095 14.4751 3.82095 14.25V8.2935C3.82201 7.34033 3.9112 6.41356 4.08854 5.51317L4.07429 5.60342C4.11242 5.4106 4.21631 5.237 4.3682 5.11225C4.52009 4.98751 4.71057 4.91935 4.90712 4.91942H4.91029ZM5.94104 23.5806H7.75871C7.98512 23.5806 8.16879 23.7579 8.18146 23.9812V23.9828L8.48387 29.4959V29.5181C8.48387 29.7524 8.29387 29.9424 8.05954 29.9424H5.94104C5.82875 29.9416 5.7213 29.8966 5.64191 29.8172C5.56251 29.7378 5.51753 29.6304 5.51671 29.5181V24.0049C5.51671 23.7706 5.70671 23.5806 5.94104 23.5806ZM25.329 23.5806H27.1466C27.381 23.5806 27.571 23.7706 27.571 24.0049V29.5133C27.571 29.7477 27.381 29.9377 27.1466 29.9377H25.0265C24.9143 29.9368 24.8068 29.8919 24.7274 29.8125C24.648 29.7331 24.603 29.6256 24.6022 29.5133V29.4896L24.9046 23.978C24.9205 23.7563 25.1041 23.5822 25.3274 23.5822L25.329 23.5806ZM9.54629 24.5939H23.543C23.6601 24.5939 23.7551 24.6889 23.7551 24.8061V25.0594C23.7551 25.1766 23.6601 25.2716 23.543 25.2716H9.54629C9.49002 25.2716 9.43605 25.2492 9.39627 25.2094C9.35648 25.1697 9.33412 25.1157 9.33412 25.0594V24.8061C9.33412 24.6889 9.42912 24.5939 9.54629 24.5939ZM9.63021 26.1203H23.4575C23.5746 26.1203 23.6696 26.2153 23.6696 26.3324V26.5858C23.6696 26.7029 23.5746 26.7979 23.4575 26.7979H9.63021C9.57394 26.7979 9.51997 26.7756 9.48018 26.7358C9.44039 26.696 9.41804 26.642 9.41804 26.5858V26.3324C9.41804 26.2153 9.51304 26.1203 9.63021 26.1203ZM9.71571 27.6466H23.3735C23.4907 27.6466 23.5857 27.7416 23.5857 27.8588V28.1121C23.5857 28.2293 23.4907 28.3243 23.3735 28.3243H9.71571C9.6612 28.3243 9.6088 28.3032 9.56953 28.2654C9.53026 28.2276 9.50717 28.1761 9.50512 28.1216V27.8683C9.50512 27.7511 9.60012 27.6561 9.71729 27.6561L9.71571 27.6466ZM9.80121 29.1729H23.288C23.4052 29.1729 23.5002 29.2679 23.5002 29.3851V29.6384C23.5002 29.7556 23.4052 29.8506 23.288 29.8506H9.80121C9.74494 29.8506 9.69097 29.8282 9.65118 29.7884C9.61139 29.7487 9.58904 29.6947 9.58904 29.6384V29.3851C9.58904 29.2679 9.68404 29.1729 9.80121 29.1729Z" fill="#D5E82D"/>
</g>
<defs>
<clipPath id="clip0_2514_1132">
<rect width="33.25" height="38" fill="white"/>
</clipPath>
</defs>
</svg>
