<svg width="199" height="39" viewBox="0 0 199 39" fill="none" xmlns="http://www.w3.org/2000/svg">
<path d="M41.6855 8.384C40.9175 8.384 40.3495 8.312 39.9815 8.168C39.6295 8.008 39.3975 7.824 39.2855 7.616C39.1895 7.392 39.1415 7.192 39.1415 7.016C39.1415 6.792 39.2695 6.536 39.5255 6.248C39.7815 5.944 40.2775 5.72 41.0135 5.576C41.7495 5.416 42.6215 5.272 43.6295 5.144C44.6375 5 45.7095 4.88 46.8455 4.784C47.9815 4.672 49.1335 4.576 50.3015 4.496C51.4695 4.416 52.5815 4.36 53.6375 4.328C54.6935 4.28 55.6295 4.256 56.4455 4.256C57.2935 4.256 57.9495 4.304 58.4135 4.4C58.8775 4.496 59.2055 4.616 59.3975 4.76C59.6055 4.904 59.7255 5.056 59.7575 5.216C59.8055 5.376 59.8295 5.528 59.8295 5.672C59.8295 5.704 59.8295 5.728 59.8295 5.744C59.8295 5.936 59.7815 6.144 59.6855 6.368C59.6055 6.592 59.4215 6.784 59.1335 6.944C58.8455 7.088 58.4135 7.16 57.8375 7.16C57.6295 7.16 57.1655 7.192 56.4455 7.256C55.7255 7.32 54.8455 7.4 53.8055 7.496C52.7655 7.592 51.6615 7.688 50.4935 7.784C50.3175 8.504 50.1175 9.344 49.8935 10.304C49.6855 11.264 49.4695 12.272 49.2455 13.328C49.0375 14.384 48.8375 15.424 48.6455 16.448C48.4535 17.456 48.2935 18.392 48.1655 19.256C48.0375 20.104 47.9495 20.8 47.9015 21.344C47.8375 22.08 47.6215 22.6 47.2535 22.904C46.9015 23.192 46.5495 23.336 46.1975 23.336C45.9415 23.336 45.6855 23.28 45.4295 23.168C45.1735 23.072 44.9655 22.856 44.8055 22.52C44.6455 22.168 44.5655 21.648 44.5655 20.96C44.5655 20.256 44.6295 19.392 44.7575 18.368C44.8855 17.328 45.0535 16.216 45.2615 15.032C45.4855 13.848 45.7335 12.656 46.0055 11.456C46.2935 10.256 46.5895 9.136 46.8935 8.096C45.8215 8.176 44.8295 8.248 43.9175 8.312C43.0055 8.36 42.2615 8.384 41.6855 8.384ZM56.0345 24.056C55.6345 24.056 55.2905 23.912 55.0025 23.624C54.7305 23.336 54.5945 22.92 54.5945 22.376C54.5945 22.136 54.6265 21.744 54.6905 21.2C54.7705 20.64 54.8665 20 54.9785 19.28C55.1065 18.56 55.2265 17.808 55.3385 17.024C55.4665 16.24 55.5705 15.496 55.6505 14.792C55.7465 14.088 55.8105 13.488 55.8425 12.992C55.8745 12.384 56.0345 11.952 56.3225 11.696C56.6105 11.424 56.9545 11.288 57.3545 11.288C57.6745 11.288 57.9625 11.368 58.2185 11.528C58.4905 11.672 58.6585 11.984 58.7225 12.464C58.8025 12.928 58.8105 13.6 58.7465 14.48C59.4505 13.2 60.1625 12.056 60.8825 11.048C61.6185 10.04 62.3865 9.24 63.1865 8.648C64.5145 7.64 65.7145 7.136 66.7865 7.136C67.3945 7.136 67.7945 7.272 67.9865 7.544C68.1785 7.816 68.2745 8.096 68.2745 8.384C68.2745 8.576 68.2265 8.752 68.1305 8.912C68.0505 9.072 67.8745 9.24 67.6025 9.416C67.3305 9.592 66.9145 9.824 66.3545 10.112C65.6025 10.496 64.8585 11 64.1225 11.624C63.4025 12.248 62.6825 13.048 61.9625 14.024C61.2425 15 60.5145 16.2 59.7785 17.624C59.0425 19.048 58.2825 20.744 57.4985 22.712C57.3545 23.256 57.1465 23.616 56.8745 23.792C56.6185 23.968 56.3385 24.056 56.0345 24.056ZM71.0859 29.6C70.1899 29.6 69.3739 29.544 68.6379 29.432C67.9019 29.336 67.1819 29.176 66.4779 28.952C65.7739 28.728 65.0139 28.432 64.1979 28.064C63.8619 27.904 63.5819 27.736 63.3579 27.56C63.1339 27.384 63.0219 27.12 63.0219 26.768C63.0219 26.256 63.1819 25.864 63.5019 25.592C63.8059 25.336 64.2299 25.208 64.7739 25.208C65.0619 25.208 65.4299 25.304 65.8779 25.496C66.3259 25.704 66.8379 25.936 67.4139 26.192C68.0059 26.464 68.6619 26.696 69.3819 26.888C70.1019 27.096 70.8779 27.2 71.7099 27.2C72.5579 27.2 73.3499 26.848 74.0859 26.144C74.8219 25.44 75.4139 24.448 75.8619 23.168C76.3259 21.904 76.5579 20.408 76.5579 18.68C76.5579 18.28 76.5499 17.848 76.5339 17.384C76.5179 16.904 76.5019 16.4 76.4859 15.872C75.9099 16.96 75.2859 17.976 74.6139 18.92C73.9419 19.864 73.2459 20.632 72.5259 21.224C71.8219 21.8 71.1099 22.088 70.3899 22.088C69.5099 22.088 68.8699 21.88 68.4699 21.464C68.0859 21.032 67.8939 20.352 67.8939 19.424C67.8939 18.64 67.9499 17.784 68.0619 16.856C68.1899 15.912 68.3579 14.96 68.5659 14C68.7739 13.04 69.0139 12.128 69.2859 11.264C69.5739 10.384 69.8779 9.624 70.1979 8.984C70.4379 8.52 70.8059 8.288 71.3019 8.288C71.6219 8.288 71.9419 8.44 72.2619 8.744C72.5979 9.048 72.7659 9.456 72.7659 9.968C72.7659 10.256 72.6939 10.672 72.5499 11.216C72.4059 11.76 72.2299 12.376 72.0219 13.064C71.8299 13.736 71.6299 14.448 71.4219 15.2C71.2139 15.936 71.0379 16.664 70.8939 17.384C70.7499 18.088 70.6779 18.728 70.6779 19.304C70.6779 19.368 70.7259 19.4 70.8219 19.4C71.0139 19.4 71.2699 19.24 71.5899 18.92C71.9259 18.584 72.2939 18.152 72.6939 17.624C73.1099 17.08 73.5259 16.488 73.9419 15.848C74.3739 15.192 74.7899 14.544 75.1899 13.904C75.5899 13.264 75.9499 12.68 76.2699 12.152C76.2219 11.896 76.1899 11.672 76.1739 11.48C76.1739 11.272 76.1739 11.096 76.1739 10.952C76.1739 10.296 76.2859 9.752 76.5099 9.32C76.7499 8.888 77.2139 8.672 77.9019 8.672C78.3499 8.672 78.6939 8.84 78.9339 9.176C79.1739 9.496 79.2939 9.952 79.2939 10.544C79.2939 10.8 79.2539 11.096 79.1739 11.432C79.0939 11.752 78.9339 12.264 78.6939 12.968L78.9579 12.224C79.1019 13.664 79.2219 14.944 79.3179 16.064C79.4299 17.184 79.4859 18.296 79.4859 19.4C79.4859 21.48 79.1339 23.28 78.4299 24.8C77.7419 26.336 76.7659 27.52 75.5019 28.352C74.2539 29.184 72.7819 29.6 71.0859 29.6ZM100.285 24.056C99.4047 24.056 98.6207 23.816 97.9327 23.336C97.2447 22.872 96.7007 22.216 96.3007 21.368C95.9167 20.52 95.7247 19.528 95.7247 18.392C95.7247 17.176 95.8687 15.992 96.1567 14.84C96.4447 13.672 96.8127 12.624 97.2607 11.696C97.7087 10.752 98.1567 10.008 98.6047 9.464C99.0687 8.904 99.4687 8.624 99.8047 8.624C100.157 8.624 100.445 8.728 100.669 8.936C100.909 9.144 101.029 9.456 101.029 9.872C101.029 9.936 100.957 10.168 100.813 10.568C100.685 10.952 100.517 11.448 100.309 12.056C100.101 12.648 99.8927 13.312 99.6847 14.048C99.4767 14.768 99.3007 15.504 99.1567 16.256C99.0287 17.008 98.9647 17.728 98.9647 18.416C98.9647 19.248 99.0927 19.912 99.3487 20.408C99.6047 20.904 100.157 21.152 101.005 21.152C101.869 21.152 102.709 20.904 103.525 20.408C104.357 19.912 105.157 19.248 105.925 18.416C106.693 17.568 107.429 16.624 108.133 15.584C107.301 15.648 106.517 15.68 105.781 15.68C105.285 15.68 104.925 15.632 104.701 15.536C104.477 15.424 104.333 15.28 104.269 15.104C104.221 14.928 104.197 14.72 104.197 14.48C104.197 14.144 104.349 13.84 104.653 13.568C104.957 13.296 105.293 13.152 105.661 13.136C106.349 13.088 107.045 13.032 107.749 12.968C108.469 12.904 109.181 12.832 109.885 12.752C110.413 11.808 110.901 10.872 111.349 9.944C111.813 9 112.237 8.112 112.621 7.28C112.989 6.24 113.381 5.28 113.797 4.4C114.229 3.504 114.645 2.784 115.045 2.24C115.445 1.696 115.821 1.424 116.173 1.424C116.589 1.424 116.901 1.536 117.109 1.76C117.333 1.984 117.445 2.28 117.445 2.648C117.445 2.76 117.365 3.088 117.205 3.632C117.045 4.176 116.821 4.88 116.533 5.744C116.261 6.608 115.949 7.584 115.597 8.672C115.261 9.744 114.901 10.88 114.517 12.08C116.037 11.824 117.421 11.576 118.669 11.336C119.933 11.096 120.965 10.896 121.765 10.736C122.565 10.576 123.045 10.496 123.205 10.496C123.525 10.496 123.789 10.648 123.997 10.952C124.205 11.24 124.309 11.52 124.309 11.792C124.309 11.952 124.013 12.16 123.421 12.416C122.845 12.672 122.053 12.952 121.045 13.256C120.053 13.544 118.917 13.84 117.637 14.144C116.373 14.432 115.045 14.688 113.653 14.912C113.269 16.176 112.901 17.416 112.549 18.632C112.213 19.832 111.925 20.944 111.685 21.968C111.573 22.416 111.389 22.76 111.133 23C110.893 23.224 110.565 23.336 110.149 23.336C109.717 23.336 109.397 23.232 109.189 23.024C108.981 22.832 108.877 22.48 108.877 21.968C108.877 21.92 108.925 21.656 109.021 21.176C109.133 20.68 109.269 20.072 109.429 19.352C109.605 18.616 109.773 17.864 109.933 17.096C108.989 18.408 107.989 19.592 106.933 20.648C105.877 21.704 104.789 22.536 103.669 23.144C102.549 23.752 101.421 24.056 100.285 24.056ZM100.357 6.968C99.8287 6.968 99.3967 6.808 99.0607 6.488C98.7247 6.152 98.5567 5.76 98.5567 5.312C98.5567 4.768 98.7567 4.304 99.1567 3.92C99.5727 3.536 100.061 3.344 100.621 3.344C101.245 3.344 101.717 3.512 102.037 3.848C102.373 4.184 102.541 4.632 102.541 5.192C102.541 5.592 102.333 5.992 101.917 6.392C101.501 6.776 100.981 6.968 100.357 6.968ZM134.842 23C134.458 23 134.074 22.872 133.69 22.616C133.322 22.344 133.018 21.96 132.778 21.464C132.538 20.952 132.418 20.336 132.418 19.616C132.418 18.656 132.546 17.632 132.802 16.544C133.074 15.456 133.402 14.368 133.786 13.28C134.17 12.192 134.546 11.168 134.914 10.208C135.09 9.744 135.306 9.432 135.562 9.272C135.818 9.096 136.154 9.008 136.57 9.008C137.514 9.008 137.986 9.48 137.986 10.424C137.986 10.584 137.914 10.896 137.77 11.36C137.626 11.808 137.434 12.36 137.194 13.016C136.97 13.672 136.73 14.384 136.474 15.152C136.234 15.904 136.01 16.672 135.802 17.456C135.61 18.224 135.458 18.952 135.346 19.64C135.714 19.08 136.122 18.384 136.57 17.552C137.034 16.704 137.522 15.816 138.034 14.888C138.562 13.96 139.09 13.096 139.618 12.296C140.146 11.48 140.666 10.816 141.178 10.304C141.69 9.792 142.178 9.536 142.642 9.536C143.042 9.536 143.418 9.616 143.77 9.776C144.138 9.92 144.458 10.208 144.73 10.64C145.002 11.056 145.21 11.656 145.354 12.44C145.514 13.224 145.594 14.256 145.594 15.536C145.594 16.176 145.65 16.8 145.762 17.408C145.89 18 146.098 18.496 146.386 18.896C146.674 19.28 147.082 19.472 147.61 19.472C148.522 19.472 149.338 19.304 150.058 18.968C150.778 18.632 151.41 18.24 151.954 17.792C152.498 17.344 152.954 16.952 153.322 16.616C153.546 16.392 153.738 16.216 153.898 16.088C154.074 15.96 154.218 15.896 154.33 15.896C154.666 15.896 154.906 15.984 155.05 16.16C155.21 16.336 155.29 16.576 155.29 16.88C155.29 17.04 155.154 17.336 154.882 17.768C154.61 18.2 154.226 18.696 153.73 19.256C153.25 19.8 152.698 20.328 152.074 20.84C151.45 21.352 150.778 21.776 150.058 22.112C149.338 22.448 148.602 22.616 147.85 22.616C146.586 22.616 145.538 22.392 144.706 21.944C143.89 21.48 143.282 20.712 142.882 19.64C142.482 18.552 142.282 17.072 142.282 15.2C142.282 15.152 142.282 15.072 142.282 14.96C142.282 14.464 142.274 14.024 142.258 13.64C142.258 13.256 142.234 12.944 142.186 12.704C141.914 13.2 141.586 13.792 141.202 14.48C140.834 15.168 140.434 15.904 140.002 16.688C139.57 17.456 139.122 18.216 138.658 18.968C138.194 19.704 137.73 20.376 137.266 20.984C136.818 21.592 136.386 22.08 135.97 22.448C135.554 22.816 135.178 23 134.842 23ZM156.155 23.792C155.019 23.792 154.107 23.392 153.419 22.592C152.731 21.776 152.387 20.688 152.387 19.328C152.387 18.896 152.443 18.456 152.555 18.008C152.683 17.56 152.835 17.144 153.011 16.76C152.915 16.616 152.835 16.432 152.771 16.208C152.723 15.968 152.699 15.688 152.699 15.368C152.699 14.328 152.883 13.376 153.251 12.512C153.619 11.632 154.115 10.872 154.739 10.232C155.363 9.592 156.051 9.096 156.803 8.744C157.555 8.392 158.315 8.216 159.083 8.216C160.395 8.216 161.467 8.656 162.299 9.536C163.147 10.416 163.571 11.784 163.571 13.64C163.571 14.568 163.427 15.512 163.139 16.472C162.851 17.432 162.459 18.352 161.963 19.232C161.483 20.096 160.923 20.872 160.283 21.56C159.659 22.248 158.987 22.792 158.267 23.192C157.563 23.592 156.859 23.792 156.155 23.792ZM155.771 15.68C155.851 15.856 155.891 16.064 155.891 16.304C155.891 16.544 155.843 16.792 155.747 17.048C155.651 17.304 155.555 17.648 155.459 18.08C155.363 18.496 155.315 19.096 155.315 19.88C155.315 20.088 155.339 20.264 155.387 20.408C155.451 20.536 155.587 20.6 155.795 20.6C156.339 20.6 156.851 20.424 157.331 20.072C157.827 19.72 158.267 19.256 158.651 18.68C159.051 18.104 159.387 17.464 159.659 16.76C159.947 16.04 160.163 15.312 160.307 14.576C160.467 13.824 160.547 13.128 160.547 12.488C160.547 12.072 160.467 11.784 160.307 11.624C160.147 11.464 159.867 11.384 159.467 11.384C158.923 11.384 158.363 11.56 157.787 11.912C157.227 12.248 156.755 12.712 156.371 13.304C155.987 13.88 155.795 14.536 155.795 15.272C155.795 15.416 155.787 15.552 155.771 15.68ZM169.506 24.056C169.17 24.056 168.85 23.984 168.546 23.84C168.242 23.696 167.97 23.416 167.73 23C167.49 22.6 167.298 22.008 167.154 21.224C167.01 20.424 166.938 19.368 166.938 18.056C166.938 16.824 167.002 15.648 167.13 14.528C167.258 13.392 167.442 12.384 167.682 11.504C167.922 10.608 168.21 9.904 168.546 9.392C168.882 8.864 169.258 8.6 169.674 8.6C170.042 8.6 170.346 8.776 170.586 9.128C170.826 9.48 170.946 9.984 170.946 10.64C170.946 11.152 170.882 11.824 170.754 12.656C170.642 13.488 170.506 14.384 170.346 15.344C170.186 16.288 170.042 17.208 169.914 18.104C169.802 18.984 169.746 19.736 169.746 20.36C169.746 20.472 169.762 20.584 169.794 20.696C169.826 20.792 169.874 20.84 169.938 20.84C170.034 20.84 170.194 20.608 170.418 20.144C170.642 19.68 170.914 19.072 171.234 18.32C171.57 17.552 171.93 16.72 172.314 15.824C172.714 14.928 173.13 14.048 173.562 13.184C174.01 12.304 174.458 11.52 174.906 10.832C175.29 10.24 175.746 9.784 176.274 9.464C176.802 9.144 177.29 8.984 177.738 8.984C178.138 8.984 178.53 9.088 178.914 9.296C179.314 9.504 179.642 9.816 179.898 10.232C180.154 10.648 180.282 11.168 180.282 11.792C180.282 12.032 180.25 12.432 180.186 12.992C180.138 13.536 180.074 14.16 179.994 14.864C179.914 15.552 179.834 16.248 179.754 16.952C179.674 17.64 179.602 18.256 179.538 18.8C179.49 19.344 179.466 19.728 179.466 19.952C179.466 19.984 179.466 20.024 179.466 20.072C179.466 20.248 179.474 20.424 179.49 20.6C179.506 20.76 179.554 20.84 179.634 20.84C179.81 20.84 180.034 20.64 180.306 20.24C180.594 19.824 180.914 19.272 181.266 18.584C181.634 17.896 182.018 17.128 182.418 16.28C182.818 15.432 183.226 14.56 183.642 13.664C184.074 12.752 184.498 11.888 184.914 11.072C185.234 10.384 185.506 9.952 185.73 9.776C185.954 9.584 186.17 9.488 186.378 9.488C186.666 9.488 186.97 9.632 187.29 9.92C187.61 10.208 187.77 10.656 187.77 11.264C187.77 11.472 187.762 11.68 187.746 11.888C187.73 12.096 187.674 12.312 187.578 12.536C186.938 14.152 186.274 15.648 185.586 17.024C184.914 18.384 184.242 19.568 183.57 20.576C182.898 21.584 182.25 22.368 181.626 22.928C181.002 23.488 180.418 23.768 179.874 23.768C178.754 23.768 177.89 23.472 177.282 22.88C176.69 22.272 176.394 21.456 176.394 20.432C176.394 20.048 176.418 19.56 176.466 18.968C176.514 18.36 176.57 17.704 176.634 17C176.714 16.28 176.794 15.568 176.874 14.864C176.954 14.16 177.034 13.512 177.114 12.92C177.146 12.696 177.106 12.552 176.994 12.488C176.898 12.424 176.81 12.496 176.73 12.704C176.522 13.248 176.298 13.84 176.058 14.48C175.818 15.12 175.594 15.68 175.386 16.16C175.05 16.96 174.658 17.816 174.21 18.728C173.778 19.64 173.306 20.504 172.794 21.32C172.282 22.12 171.746 22.776 171.186 23.288C170.626 23.8 170.066 24.056 169.506 24.056ZM192.555 17.528C192.331 17.528 192.131 17.44 191.955 17.264C191.795 17.072 191.715 16.728 191.715 16.232C191.715 15.88 191.779 15.328 191.907 14.576C192.035 13.824 192.211 12.96 192.435 11.984C192.675 10.992 192.947 9.96 193.251 8.888C193.555 7.8 193.883 6.736 194.235 5.696C194.587 4.64 194.947 3.688 195.315 2.84C195.491 2.424 195.763 2.112 196.131 1.904C196.515 1.68 196.931 1.568 197.379 1.568C197.843 1.568 198.179 1.784 198.387 2.216C198.595 2.648 198.699 3.12 198.699 3.632C198.699 3.824 198.603 4.184 198.411 4.712C198.235 5.24 197.995 5.88 197.691 6.632C197.387 7.384 197.051 8.2 196.683 9.08C196.331 9.944 195.971 10.824 195.603 11.72C195.251 12.6 194.923 13.44 194.619 14.24C194.315 15.04 194.067 15.744 193.875 16.352C193.747 16.784 193.571 17.088 193.347 17.264C193.139 17.44 192.875 17.528 192.555 17.528ZM191.307 24.224C191.115 24.224 190.891 24.176 190.635 24.08C190.379 23.984 190.155 23.752 189.963 23.384C189.787 23.032 189.699 22.464 189.699 21.68C189.699 21.072 189.891 20.608 190.275 20.288C190.659 19.968 191.171 19.808 191.811 19.808C192.355 19.808 192.771 19.96 193.059 20.264C193.363 20.568 193.515 21 193.515 21.56C193.515 22.072 193.387 22.528 193.131 22.928C192.891 23.328 192.595 23.64 192.243 23.864C191.907 24.104 191.595 24.224 191.307 24.224Z" fill="#0077DF"/>
<path d="M30.9392 17.991C22.7275 18.0202 16.2628 21.4799 11.4873 28.2176C11.0337 28.8549 10.9192 29.859 10.3461 30.2472C9.585 30.7632 8.3287 31.3042 7.64334 31.0069C6.09074 30.3311 5.86209 28.9926 6.83199 27.889C9.03141 25.3906 11.2402 22.9014 13.5384 20.4992C16.0827 17.8338 19.5354 16.744 22.8759 15.5813C24.9862 14.848 27.2112 14.3545 29.4301 14.0607C30.3361 13.942 31.5063 14.4465 32.2702 15.0353C32.7904 15.4415 33.1316 16.565 32.9655 17.2217C32.8345 17.7433 31.8199 18.0398 31.196 18.4333L30.9392 17.991Z" fill="#0077DF"/>
<path d="M5.44814 38.9205C3.73844 38.8687 2.60769 38.2061 2.24563 36.9254C1.45263 34.0957 0.848714 31.2125 0.244856 28.334C0.0052214 27.1862 0.87802 26.4091 1.78429 26.6199C2.66264 26.8218 3.72108 27.6014 4.07585 28.3996C4.63666 29.6544 4.67769 31.1436 4.93493 32.537C5.1773 33.8657 5.87722 34.2138 7.13387 33.7054C9.48137 32.751 11.8577 31.8658 14.2243 30.9483C15.5227 30.444 16.1443 31.4289 16.6843 32.2293C17.2861 33.1309 16.9478 34.0356 15.9634 34.4755C14.9927 34.906 13.9024 35.0827 12.9364 35.5178C11.0091 36.3924 9.13931 37.3915 7.22172 38.2939C6.57333 38.5994 5.8627 38.7712 5.44807 38.9158L5.44814 38.9205Z" fill="#0077DF"/>
</svg>
