<svg width="213" height="38" viewBox="0 0 213 38" fill="none" xmlns="http://www.w3.org/2000/svg">
<path d="M3.39252 9.27994C2.36852 9.27994 1.61118 9.18394 1.12052 8.99194C0.651182 8.77861 0.341849 8.53328 0.192516 8.25594C0.0645157 7.95728 0.000515699 7.69061 0.000515699 7.45594C0.000515699 7.15728 0.171182 6.81594 0.512516 6.43194C0.853849 6.02661 1.51518 5.72794 2.49652 5.53594C3.47785 5.32261 4.64052 5.13061 5.98452 4.95994C7.32852 4.76794 8.75785 4.60794 10.2725 4.47994C11.7872 4.33061 13.3232 4.20261 14.8805 4.09594C16.4378 3.98928 17.9205 3.91461 19.3285 3.87194C20.7365 3.80794 21.9845 3.77594 23.0725 3.77594C24.2032 3.77594 25.0778 3.83994 25.6965 3.96794C26.3152 4.09594 26.7525 4.25594 27.0085 4.44794C27.2858 4.63994 27.4459 4.84261 27.4885 5.05594C27.5525 5.26928 27.5845 5.47194 27.5845 5.66394C27.5845 5.70661 27.5845 5.73861 27.5845 5.75994C27.5845 6.01594 27.5205 6.29328 27.3925 6.59194C27.2859 6.89061 27.0405 7.14661 26.6565 7.35994C26.2725 7.55194 25.6965 7.64794 24.9285 7.64794C24.6512 7.64794 24.0325 7.69061 23.0725 7.77594C22.1125 7.86128 20.9392 7.96794 19.5525 8.09594C18.1659 8.22394 16.6939 8.35194 15.1365 8.47994C14.9019 9.43994 14.6352 10.5599 14.3365 11.8399C14.0592 13.1199 13.7712 14.4639 13.4725 15.8719C13.1952 17.2799 12.9285 18.6666 12.6725 20.0319C12.4165 21.3759 12.2032 22.6239 12.0325 23.7759C11.8618 24.9066 11.7445 25.8346 11.6805 26.5599C11.5952 27.5413 11.3072 28.2346 10.8165 28.6399C10.3472 29.0239 9.87785 29.2159 9.40852 29.2159C9.06718 29.2159 8.72585 29.1413 8.38452 28.9919C8.04318 28.8639 7.76585 28.5759 7.55252 28.1279C7.33918 27.6586 7.23252 26.9653 7.23252 26.0479C7.23252 25.1093 7.31785 23.9573 7.48852 22.5919C7.65918 21.2053 7.88318 19.7226 8.16052 18.1439C8.45918 16.5653 8.78985 14.9759 9.15252 13.3759C9.53652 11.7759 9.93118 10.2826 10.3365 8.89594C8.90718 9.00261 7.58452 9.09861 6.36852 9.18394C5.15252 9.24794 4.16052 9.27994 3.39252 9.27994ZM22.5245 30.1759C21.9912 30.1759 21.5325 29.9839 21.1485 29.5999C20.7858 29.2159 20.6045 28.6613 20.6045 27.9359C20.6045 27.6159 20.6472 27.0933 20.7325 26.3679C20.8392 25.6213 20.9672 24.7679 21.1165 23.8079C21.2872 22.8479 21.4472 21.8453 21.5965 20.7999C21.7672 19.7546 21.9058 18.7626 22.0125 17.8239C22.1405 16.8853 22.2258 16.0853 22.2685 15.4239C22.3112 14.6133 22.5245 14.0373 22.9085 13.6959C23.2925 13.3333 23.7512 13.1519 24.2845 13.1519C24.7112 13.1519 25.0952 13.2586 25.4365 13.4719C25.7992 13.6639 26.0232 14.0799 26.1085 14.7199C26.2152 15.3386 26.2258 16.2346 26.1405 17.4079C27.0792 15.7013 28.0285 14.1759 28.9885 12.8319C29.9698 11.4879 30.9938 10.4213 32.0605 9.63194C33.8312 8.28794 35.4312 7.61594 36.8605 7.61594C37.6712 7.61594 38.2045 7.79728 38.4605 8.15994C38.7165 8.52261 38.8445 8.89594 38.8445 9.27994C38.8445 9.53594 38.7805 9.77061 38.6525 9.98394C38.5459 10.1973 38.3112 10.4213 37.9485 10.6559C37.5858 10.8906 37.0312 11.1999 36.2845 11.5839C35.2819 12.0959 34.2898 12.7679 33.3085 13.5999C32.3485 14.4319 31.3885 15.4986 30.4285 16.7999C29.4685 18.1013 28.4978 19.7013 27.5165 21.5999C26.5352 23.4986 25.5218 25.7599 24.4765 28.3839C24.2845 29.1093 24.0072 29.5893 23.6445 29.8239C23.3032 30.0586 22.9298 30.1759 22.5245 30.1759ZM42.593 37.5679C41.3983 37.5679 40.3103 37.4933 39.329 37.3439C38.3477 37.2159 37.3877 37.0026 36.449 36.7039C35.5103 36.4053 34.497 36.0106 33.409 35.5199C32.961 35.3066 32.5877 35.0826 32.289 34.8479C31.9903 34.6133 31.841 34.2613 31.841 33.7919C31.841 33.1093 32.0543 32.5866 32.481 32.2239C32.8863 31.8826 33.4517 31.7119 34.177 31.7119C34.561 31.7119 35.0517 31.8399 35.649 32.0959C36.2463 32.3733 36.929 32.6826 37.697 33.0239C38.4863 33.3866 39.361 33.6959 40.321 33.9519C41.281 34.2293 42.3157 34.3679 43.425 34.3679C44.5557 34.3679 45.6117 33.8986 46.593 32.9599C47.5743 32.0213 48.3637 30.6986 48.961 28.9919C49.5797 27.3066 49.889 25.3119 49.889 23.0079C49.889 22.4746 49.8783 21.8986 49.857 21.2799C49.8357 20.6399 49.8143 19.9679 49.793 19.2639C49.025 20.7146 48.193 22.0693 47.297 23.3279C46.401 24.5866 45.473 25.6106 44.513 26.3999C43.5743 27.1679 42.625 27.5519 41.665 27.5519C40.4917 27.5519 39.6383 27.2746 39.105 26.7199C38.593 26.1439 38.337 25.2373 38.337 23.9999C38.337 22.9546 38.4117 21.8133 38.561 20.5759C38.7317 19.3173 38.9557 18.0479 39.233 16.7679C39.5103 15.4879 39.8303 14.2719 40.193 13.1199C40.577 11.9466 40.9823 10.9333 41.409 10.0799C41.729 9.46128 42.2197 9.15194 42.881 9.15194C43.3077 9.15194 43.7343 9.35461 44.161 9.75994C44.609 10.1653 44.833 10.7093 44.833 11.3919C44.833 11.7759 44.737 12.3306 44.545 13.0559C44.353 13.7813 44.1183 14.6026 43.841 15.5199C43.585 16.4159 43.3183 17.3653 43.041 18.3679C42.7637 19.3493 42.529 20.3199 42.337 21.2799C42.145 22.2186 42.049 23.0719 42.049 23.8399C42.049 23.9253 42.113 23.9679 42.241 23.9679C42.497 23.9679 42.8383 23.7546 43.265 23.3279C43.713 22.8799 44.2037 22.3039 44.737 21.5999C45.2917 20.8746 45.8463 20.0853 46.401 19.2319C46.977 18.3573 47.5317 17.4933 48.065 16.6399C48.5983 15.7866 49.0783 15.0079 49.505 14.3039C49.441 13.9626 49.3983 13.6639 49.377 13.4079C49.377 13.1306 49.377 12.8959 49.377 12.7039C49.377 11.8293 49.5263 11.1039 49.825 10.5279C50.145 9.95194 50.7637 9.66394 51.681 9.66394C52.2784 9.66394 52.737 9.88794 53.057 10.3359C53.377 10.7626 53.537 11.3706 53.537 12.1599C53.537 12.5013 53.4837 12.8959 53.377 13.3439C53.2703 13.7706 53.057 14.4533 52.737 15.3919L53.089 14.3999C53.281 16.3199 53.441 18.0266 53.569 19.5199C53.7184 21.0133 53.793 22.4959 53.793 23.9679C53.793 26.7413 53.3237 29.1413 52.385 31.1679C51.4677 33.2159 50.1663 34.7946 48.481 35.9039C46.817 37.0133 44.8543 37.5679 42.593 37.5679ZM81.5248 30.1759C80.3514 30.1759 79.3061 29.8559 78.3888 29.2159C77.4714 28.5973 76.7461 27.7226 76.2128 26.5919C75.7008 25.4613 75.4448 24.1386 75.4448 22.6239C75.4448 21.0026 75.6368 19.4239 76.0208 17.8879C76.4048 16.3306 76.8954 14.9333 77.4928 13.6959C78.0901 12.4373 78.6874 11.4453 79.2848 10.7199C79.9034 9.97328 80.4368 9.59994 80.8848 9.59994C81.3541 9.59994 81.7381 9.73861 82.0368 10.0159C82.3568 10.2933 82.5168 10.7093 82.5168 11.2639C82.5168 11.3493 82.4208 11.6586 82.2288 12.1919C82.0581 12.7039 81.8341 13.3653 81.5568 14.1759C81.2794 14.9653 81.0021 15.8506 80.7248 16.8319C80.4474 17.7919 80.2128 18.7733 80.0208 19.7759C79.8501 20.7786 79.7648 21.7386 79.7648 22.6559C79.7648 23.7653 79.9354 24.6506 80.2768 25.3119C80.6181 25.9733 81.3541 26.3039 82.4848 26.3039C83.6368 26.3039 84.7568 25.9733 85.8448 25.3119C86.9541 24.6506 88.0208 23.7653 89.0448 22.6559C90.0688 21.5253 91.0501 20.2666 91.9888 18.8799C90.8794 18.9653 89.8341 19.0079 88.8528 19.0079C88.1914 19.0079 87.7114 18.9439 87.4128 18.8159C87.1141 18.6666 86.9221 18.4746 86.8368 18.2399C86.7728 18.0053 86.7408 17.7279 86.7408 17.4079C86.7408 16.9599 86.9434 16.5546 87.3488 16.1919C87.7541 15.8293 88.2021 15.6373 88.6928 15.6159C89.6101 15.5519 90.5381 15.4773 91.4768 15.3919C92.4368 15.3066 93.3861 15.2106 94.3248 15.1039C95.0288 13.8453 95.6794 12.5973 96.2768 11.3599C96.8954 10.1013 97.4608 8.91728 97.9728 7.80794C98.4634 6.42128 98.9861 5.14128 99.5408 3.96794C100.117 2.77328 100.671 1.81328 101.205 1.08794C101.738 0.362609 102.239 -5.72205e-05 102.709 -5.72205e-05C103.263 -5.72205e-05 103.679 0.149276 103.957 0.447943C104.255 0.746609 104.405 1.14128 104.405 1.63194C104.405 1.78128 104.298 2.21861 104.085 2.94394C103.871 3.66928 103.573 4.60794 103.189 5.75994C102.826 6.91194 102.41 8.21328 101.941 9.66394C101.493 11.0933 101.013 12.6079 100.501 14.2079C102.527 13.8666 104.373 13.5359 106.037 13.2159C107.722 12.8959 109.098 12.6293 110.165 12.4159C111.231 12.2026 111.871 12.0959 112.085 12.0959C112.511 12.0959 112.863 12.2986 113.141 12.7039C113.418 13.0879 113.557 13.4613 113.557 13.8239C113.557 14.0373 113.162 14.3146 112.373 14.6559C111.605 14.9973 110.549 15.3706 109.205 15.7759C107.882 16.1599 106.367 16.5546 104.661 16.9599C102.975 17.3439 101.205 17.6853 99.3488 17.9839C98.8368 19.6693 98.3461 21.3226 97.8768 22.9439C97.4288 24.5439 97.0448 26.0266 96.7248 27.3919C96.5754 27.9893 96.3301 28.4479 95.9888 28.7679C95.6688 29.0666 95.2314 29.2159 94.6768 29.2159C94.1008 29.2159 93.6741 29.0773 93.3968 28.7999C93.1194 28.5439 92.9808 28.0746 92.9808 27.3919C92.9808 27.3279 93.0448 26.9759 93.1728 26.3359C93.3221 25.6746 93.5034 24.8639 93.7168 23.9039C93.9514 22.9226 94.1754 21.9199 94.3888 20.8959C93.1301 22.6453 91.7968 24.2239 90.3888 25.6319C88.9808 27.0399 87.5301 28.1493 86.0368 28.9599C84.5434 29.7706 83.0394 30.1759 81.5248 30.1759ZM81.6208 7.39194C80.9168 7.39194 80.3408 7.17861 79.8928 6.75194C79.4448 6.30394 79.2208 5.78128 79.2208 5.18394C79.2208 4.45861 79.4874 3.83994 80.0208 3.32794C80.5754 2.81594 81.2261 2.55994 81.9728 2.55994C82.8048 2.55994 83.4341 2.78394 83.8608 3.23194C84.3088 3.67994 84.5328 4.27728 84.5328 5.02394C84.5328 5.55728 84.2554 6.09061 83.7008 6.62394C83.1461 7.13594 82.4528 7.39194 81.6208 7.39194ZM127.602 28.7679C127.09 28.7679 126.578 28.5973 126.066 28.2559C125.575 27.8933 125.17 27.3813 124.85 26.7199C124.53 26.0373 124.37 25.2159 124.37 24.2559C124.37 22.9759 124.54 21.6106 124.882 20.1599C125.244 18.7093 125.682 17.2586 126.194 15.8079C126.706 14.3573 127.207 12.9919 127.698 11.7119C127.932 11.0933 128.22 10.6773 128.562 10.4639C128.903 10.2293 129.351 10.1119 129.906 10.1119C131.164 10.1119 131.794 10.7413 131.794 11.9999C131.794 12.2133 131.698 12.6293 131.506 13.2479C131.314 13.8453 131.058 14.5813 130.738 15.4559C130.439 16.3306 130.119 17.2799 129.778 18.3039C129.458 19.3066 129.159 20.3306 128.882 21.3759C128.626 22.3999 128.423 23.3706 128.274 24.2879C128.764 23.5413 129.308 22.6133 129.906 21.5039C130.524 20.3733 131.175 19.1893 131.858 17.9519C132.562 16.7146 133.266 15.5626 133.97 14.4959C134.674 13.4079 135.367 12.5226 136.05 11.8399C136.732 11.1573 137.383 10.8159 138.002 10.8159C138.535 10.8159 139.036 10.9226 139.506 11.1359C139.996 11.3279 140.423 11.7119 140.786 12.2879C141.148 12.8426 141.426 13.6426 141.618 14.6879C141.831 15.7333 141.938 17.1093 141.938 18.8159C141.938 19.6693 142.012 20.5013 142.162 21.3119C142.332 22.1013 142.61 22.7626 142.994 23.2959C143.378 23.8079 143.922 24.0639 144.626 24.0639C145.842 24.0639 146.93 23.8399 147.89 23.3919C148.85 22.9439 149.692 22.4213 150.418 21.8239C151.143 21.2266 151.751 20.7039 152.242 20.2559C152.54 19.9573 152.796 19.7226 153.01 19.5519C153.244 19.3813 153.436 19.2959 153.586 19.2959C154.034 19.2959 154.354 19.4133 154.546 19.6479C154.759 19.8826 154.866 20.2026 154.866 20.6079C154.866 20.8213 154.684 21.2159 154.322 21.7919C153.959 22.3679 153.447 23.0293 152.786 23.7759C152.146 24.5013 151.41 25.2053 150.578 25.8879C149.746 26.5706 148.85 27.1359 147.89 27.5839C146.93 28.0319 145.948 28.2559 144.946 28.2559C143.26 28.2559 141.863 27.9573 140.754 27.3599C139.666 26.7413 138.855 25.7173 138.322 24.2879C137.788 22.8373 137.522 20.8639 137.522 18.3679C137.522 18.3039 137.522 18.1973 137.522 18.0479C137.522 17.3866 137.511 16.7999 137.49 16.2879C137.49 15.7759 137.458 15.3599 137.394 15.0399C137.031 15.7013 136.594 16.4906 136.082 17.4079C135.591 18.3253 135.058 19.3066 134.482 20.3519C133.906 21.3759 133.308 22.3893 132.69 23.3919C132.071 24.3733 131.452 25.2693 130.834 26.0799C130.236 26.8906 129.66 27.5413 129.106 28.0319C128.551 28.5226 128.05 28.7679 127.602 28.7679ZM156.019 29.8239C154.504 29.8239 153.288 29.2906 152.371 28.2239C151.453 27.1359 150.995 25.6853 150.995 23.8719C150.995 23.2959 151.069 22.7093 151.219 22.1119C151.389 21.5146 151.592 20.9599 151.827 20.4479C151.699 20.2559 151.592 20.0106 151.507 19.7119C151.443 19.3919 151.411 19.0186 151.411 18.5919C151.411 17.2053 151.656 15.9359 152.147 14.7839C152.637 13.6106 153.299 12.5973 154.131 11.7439C154.963 10.8906 155.88 10.2293 156.883 9.75994C157.885 9.29061 158.899 9.05594 159.923 9.05594C161.672 9.05594 163.101 9.64261 164.211 10.8159C165.341 11.9893 165.907 13.8133 165.907 16.2879C165.907 17.5253 165.715 18.7839 165.331 20.0639C164.947 21.3439 164.424 22.5706 163.763 23.7439C163.123 24.8959 162.376 25.9306 161.523 26.8479C160.691 27.7653 159.795 28.4906 158.835 29.0239C157.896 29.5573 156.957 29.8239 156.019 29.8239ZM155.507 19.0079C155.613 19.2426 155.667 19.5199 155.667 19.8399C155.667 20.1599 155.603 20.4906 155.475 20.8319C155.347 21.1733 155.219 21.6319 155.091 22.2079C154.963 22.7626 154.899 23.5626 154.899 24.6079C154.899 24.8853 154.931 25.1199 154.995 25.3119C155.08 25.4826 155.261 25.5679 155.539 25.5679C156.264 25.5679 156.947 25.3333 157.587 24.8639C158.248 24.3946 158.835 23.7759 159.347 23.0079C159.88 22.2399 160.328 21.3866 160.691 20.4479C161.075 19.4879 161.363 18.5173 161.555 17.5359C161.768 16.5333 161.875 15.6053 161.875 14.7519C161.875 14.1973 161.768 13.8133 161.555 13.5999C161.341 13.3866 160.968 13.2799 160.435 13.2799C159.709 13.2799 158.963 13.5146 158.195 13.9839C157.448 14.4319 156.819 15.0506 156.307 15.8399C155.795 16.6079 155.539 17.4826 155.539 18.4639C155.539 18.6559 155.528 18.8373 155.507 19.0079ZM173.82 30.1759C173.372 30.1759 172.945 30.0799 172.54 29.8879C172.134 29.6959 171.772 29.3226 171.452 28.7679C171.132 28.2346 170.876 27.4453 170.684 26.3999C170.492 25.3333 170.396 23.9253 170.396 22.1759C170.396 20.5333 170.481 18.9653 170.652 17.4719C170.822 15.9573 171.068 14.6133 171.388 13.4399C171.708 12.2453 172.092 11.3066 172.54 10.6239C172.988 9.91994 173.489 9.56794 174.044 9.56794C174.534 9.56794 174.94 9.80261 175.26 10.2719C175.58 10.7413 175.74 11.4133 175.74 12.2879C175.74 12.9706 175.654 13.8666 175.484 14.9759C175.334 16.0853 175.153 17.2799 174.94 18.5599C174.726 19.8186 174.534 21.0453 174.364 22.2399C174.214 23.4133 174.14 24.4159 174.14 25.2479C174.14 25.3973 174.161 25.5466 174.204 25.6959C174.246 25.8239 174.31 25.8879 174.396 25.8879C174.524 25.8879 174.737 25.5786 175.036 24.9599C175.334 24.3413 175.697 23.5306 176.124 22.5279C176.572 21.5039 177.052 20.3946 177.564 19.1999C178.097 18.0053 178.652 16.8319 179.228 15.6799C179.825 14.5066 180.422 13.4613 181.02 12.5439C181.532 11.7546 182.14 11.1466 182.844 10.7199C183.548 10.2933 184.198 10.0799 184.796 10.0799C185.329 10.0799 185.852 10.2186 186.364 10.4959C186.897 10.7733 187.334 11.1893 187.676 11.7439C188.017 12.2986 188.188 12.9919 188.188 13.8239C188.188 14.1439 188.145 14.6773 188.06 15.4239C187.996 16.1493 187.91 16.9813 187.804 17.9199C187.697 18.8373 187.59 19.7653 187.484 20.7039C187.377 21.6213 187.281 22.4426 187.196 23.1679C187.132 23.8933 187.1 24.4053 187.1 24.7039C187.1 24.7466 187.1 24.7999 187.1 24.8639C187.1 25.0986 187.11 25.3333 187.132 25.5679C187.153 25.7813 187.217 25.8879 187.324 25.8879C187.558 25.8879 187.857 25.6213 188.22 25.0879C188.604 24.5333 189.03 23.7973 189.5 22.8799C189.99 21.9626 190.502 20.9386 191.036 19.8079C191.569 18.6773 192.113 17.5146 192.668 16.3199C193.244 15.1039 193.809 13.9519 194.364 12.8639C194.79 11.9466 195.153 11.3706 195.452 11.1359C195.75 10.8799 196.038 10.7519 196.316 10.7519C196.7 10.7519 197.105 10.9439 197.532 11.3279C197.958 11.7119 198.172 12.3093 198.172 13.1199C198.172 13.3973 198.161 13.6746 198.14 13.9519C198.118 14.2293 198.044 14.5173 197.916 14.8159C197.062 16.9706 196.177 18.9653 195.26 20.7999C194.364 22.6133 193.468 24.1919 192.572 25.5359C191.676 26.8799 190.812 27.9253 189.98 28.6719C189.148 29.4186 188.369 29.7919 187.644 29.7919C186.15 29.7919 184.998 29.3973 184.188 28.6079C183.398 27.7973 183.004 26.7093 183.004 25.3439C183.004 24.8319 183.036 24.1813 183.1 23.3919C183.164 22.5813 183.238 21.7066 183.324 20.7679C183.43 19.8079 183.537 18.8586 183.644 17.9199C183.75 16.9813 183.857 16.1173 183.964 15.3279C184.006 15.0293 183.953 14.8373 183.804 14.7519C183.676 14.6666 183.558 14.7626 183.452 15.0399C183.174 15.7653 182.876 16.5546 182.556 17.4079C182.236 18.2613 181.937 19.0079 181.66 19.6479C181.212 20.7146 180.689 21.8559 180.092 23.0719C179.516 24.2879 178.886 25.4399 178.204 26.5279C177.521 27.5946 176.806 28.4693 176.06 29.1519C175.313 29.8346 174.566 30.1759 173.82 30.1759ZM204.552 21.4719C204.253 21.4719 203.986 21.3546 203.752 21.1199C203.538 20.8639 203.432 20.4053 203.432 19.7439C203.432 19.2746 203.517 18.5386 203.688 17.5359C203.858 16.5333 204.093 15.3813 204.392 14.0799C204.712 12.7573 205.074 11.3813 205.48 9.95194C205.885 8.50128 206.322 7.08261 206.792 5.69594C207.261 4.28794 207.741 3.01861 208.232 1.88794C208.466 1.33328 208.829 0.917276 209.32 0.639942C209.832 0.341276 210.386 0.191942 210.984 0.191942C211.602 0.191942 212.05 0.479942 212.328 1.05594C212.605 1.63194 212.744 2.26128 212.744 2.94394C212.744 3.19994 212.616 3.67994 212.36 4.38394C212.125 5.08794 211.805 5.94128 211.4 6.94394C210.994 7.94661 210.546 9.03461 210.056 10.2079C209.586 11.3599 209.106 12.5333 208.616 13.7279C208.146 14.9013 207.709 16.0213 207.304 17.0879C206.898 18.1546 206.568 19.0933 206.312 19.9039C206.141 20.4799 205.906 20.8853 205.608 21.1199C205.33 21.3546 204.978 21.4719 204.552 21.4719ZM202.888 30.3999C202.632 30.3999 202.333 30.3359 201.992 30.2079C201.65 30.0799 201.352 29.7706 201.096 29.2799C200.861 28.8106 200.744 28.0533 200.744 27.0079C200.744 26.1973 201 25.5786 201.512 25.1519C202.024 24.7253 202.706 24.5119 203.56 24.5119C204.285 24.5119 204.84 24.7146 205.224 25.1199C205.629 25.5253 205.832 26.1013 205.832 26.8479C205.832 27.5306 205.661 28.1386 205.32 28.6719C205 29.2053 204.605 29.6213 204.136 29.9199C203.688 30.2399 203.272 30.3999 202.888 30.3999Z" fill="white"/>
</svg>
