<svg width="356" height="326" viewBox="0 0 356 326" fill="none" xmlns="http://www.w3.org/2000/svg">
<rect x="0.5" y="0.5" width="354.333" height="325" rx="15.5" fill="white"/>
<rect x="0.5" y="0.5" width="354.333" height="325" rx="15.5" stroke="#D4DAE3"/>
<g filter="url(#filter0_dddd_18552_17532)">
<g clip-path="url(#clip0_18552_17532)">
<rect x="49.666" y="49" width="257" height="149.168" rx="17.972" fill="white"/>
<circle cx="63.145" cy="58.8847" r="2.6958" fill="#EBECEE"/>
<circle cx="72.1313" cy="58.8847" r="2.6958" fill="#EBECEE"/>
<circle cx="81.1177" cy="58.8847" r="2.6958" fill="#EBECEE"/>
<rect x="178.166" y="48.1015" width="128.5" height="150.066" fill="url(#paint0_linear_18552_17532)"/>
<rect x="92.7988" y="68.7693" width="170.734" height="5.39161" rx="2.6958" fill="#EBECEE"/>
<rect x="92.7988" y="132.57" width="170.734" height="5.39161" rx="2.6958" fill="#EBECEE"/>
<rect x="92.7988" y="154.136" width="115.92" height="5.39161" rx="2.6958" fill="#EBECEE"/>
<rect x="92.7988" y="143.353" width="46.7273" height="5.39161" rx="2.6958" fill="#EBECEE"/>
<rect x="147.613" y="143.353" width="47.6259" height="5.39161" rx="2.6958" fill="#EBECEE"/>
<rect x="203.326" y="143.353" width="46.7273" height="5.39161" rx="2.6958" fill="#EBECEE"/>
<rect x="216.807" y="154.136" width="46.7273" height="5.39161" rx="2.6958" fill="#EBECEE"/>
<rect x="92.7988" y="111.004" width="44.9301" height="5.39161" rx="2.6958" fill="#EBECEE"/>
<rect x="146.715" y="111.004" width="44.9301" height="5.39161" rx="2.6958" fill="#EBECEE"/>
<rect x="92.7988" y="79.5525" width="170.734" height="26.0594" rx="4.49301" fill="#EBECEE"/>
<rect x="92.7988" y="164.92" width="170.734" height="26.0594" rx="4.49301" fill="#EBECEE"/>
<mask id="mask0_18552_17532" style="mask-type:alpha" maskUnits="userSpaceOnUse" x="92" y="68" width="172" height="123">
<rect x="92.7988" y="68.7693" width="170.734" height="5.39161" rx="2.6958" fill="#EBECEE"/>
<rect x="92.7988" y="132.57" width="170.734" height="5.39161" rx="2.6958" fill="#EBECEE"/>
<rect x="92.7988" y="154.136" width="115.92" height="5.39161" rx="2.6958" fill="#EBECEE"/>
<rect x="92.7988" y="143.353" width="46.7273" height="5.39161" rx="2.6958" fill="#EBECEE"/>
<rect x="147.613" y="143.353" width="47.6259" height="5.39161" rx="2.6958" fill="#EBECEE"/>
<rect x="203.326" y="143.353" width="46.7273" height="5.39161" rx="2.6958" fill="#EBECEE"/>
<rect x="216.807" y="154.136" width="46.7273" height="5.39161" rx="2.6958" fill="#EBECEE"/>
<rect x="92.7988" y="111.004" width="44.9301" height="5.39161" rx="2.6958" fill="#EBECEE"/>
<rect x="146.715" y="111.004" width="44.9301" height="5.39161" rx="2.6958" fill="#EBECEE"/>
<rect x="92.7988" y="79.5525" width="170.734" height="26.0594" rx="4.49301" fill="#EBECEE"/>
<rect x="92.7988" y="164.92" width="170.734" height="26.0594" rx="4.49301" fill="#EBECEE"/>
</mask>
<g mask="url(#mask0_18552_17532)">
<rect x="178.166" y="48.1014" width="128.5" height="150.066" fill="#C0E0F7"/>
</g>
<line x1="178.615" y1="49.8987" x2="178.615" y2="195.472" stroke="url(#paint1_linear_18552_17532)" stroke-width="0.898601"/>
<g filter="url(#filter1_dddd_18552_17532)">
<g clip-path="url(#clip1_18552_17532)">
<rect x="153.904" y="98.4232" width="49.4231" height="49.4231" rx="24.7115" fill="white"/>
<g filter="url(#filter2_dddd_18552_17532)">
<rect x="158.846" y="103.365" width="39.5385" height="39.5385" rx="19.7692" fill="url(#paint2_linear_18552_17532)"/>
<rect x="159.463" y="103.983" width="38.3029" height="38.3029" rx="19.1514" stroke="url(#paint3_linear_18552_17532)" stroke-width="1.23558"/>
<path d="M169.178 133.693C168.86 133.693 168.593 133.585 168.378 133.37C168.163 133.154 168.055 132.888 168.055 132.57V129.846C168.055 129.547 168.111 129.261 168.223 128.989C168.336 128.717 168.495 128.479 168.701 128.274L182.882 114.121C183.106 113.915 183.354 113.756 183.626 113.643C183.898 113.531 184.183 113.475 184.482 113.475C184.781 113.475 185.071 113.531 185.353 113.643C185.634 113.756 185.878 113.924 186.083 114.149L187.627 115.721C187.852 115.927 188.016 116.171 188.118 116.451C188.221 116.732 188.272 117.013 188.273 117.294C188.273 117.593 188.222 117.879 188.118 118.151C188.015 118.423 187.851 118.671 187.627 118.894L173.474 133.047C173.268 133.253 173.03 133.412 172.758 133.525C172.486 133.637 172.201 133.693 171.902 133.693H169.178ZM184.454 118.866L186.027 117.294L184.454 115.721L182.882 117.294L184.454 118.866Z" fill="white"/>
</g>
</g>
<rect x="154.522" y="99.0409" width="48.1875" height="48.1875" rx="24.0938" stroke="url(#paint4_linear_18552_17532)" stroke-width="1.23558"/>
</g>
</g>
<rect x="50.1153" y="49.4493" width="256.101" height="148.269" rx="17.5227" stroke="#D4DAE3" stroke-width="0.898601"/>
</g>
<path d="M129.592 243H127.372L123.372 229H125.512L128.492 240.68L131.692 229H133.912L137.092 240.64L140.092 229H142.192L138.212 243H135.972L132.792 231.98L129.592 243ZM144.174 228.6H146.054V234.1C146.374 233.713 146.788 233.413 147.294 233.2C147.801 232.973 148.361 232.86 148.974 232.86C149.721 232.86 150.374 233.027 150.934 233.36C151.508 233.68 151.954 234.167 152.274 234.82C152.594 235.46 152.754 236.26 152.754 237.22V243H150.774V237.46C150.774 236.527 150.581 235.813 150.194 235.32C149.808 234.827 149.241 234.58 148.494 234.58C147.721 234.58 147.121 234.833 146.694 235.34C146.268 235.847 146.054 236.587 146.054 237.56V243H144.174V228.6ZM155.783 233H157.683V243H155.783V233ZM156.743 231.24C156.383 231.24 156.083 231.12 155.843 230.88C155.603 230.64 155.483 230.347 155.483 230C155.483 229.64 155.603 229.34 155.843 229.1C156.083 228.847 156.383 228.72 156.743 228.72C157.09 228.72 157.383 228.847 157.623 229.1C157.876 229.34 158.003 229.64 158.003 230C158.003 230.347 157.876 230.64 157.623 230.88C157.383 231.12 157.09 231.24 156.743 231.24ZM161.475 233V230.2H163.375V233H165.875V234.68H163.375V239.6C163.375 240.213 163.495 240.647 163.735 240.9C163.988 241.153 164.301 241.3 164.675 241.34C165.061 241.367 165.461 241.353 165.875 241.3V242.92C165.328 243.04 164.788 243.073 164.255 243.02C163.735 242.98 163.261 242.833 162.835 242.58C162.421 242.327 162.088 241.96 161.835 241.48C161.595 240.987 161.475 240.36 161.475 239.6V234.68H160.035V233H161.475ZM172.323 243.14C171.363 243.14 170.51 242.92 169.763 242.48C169.03 242.027 168.45 241.407 168.023 240.62C167.61 239.833 167.403 238.933 167.403 237.92C167.403 236.947 167.61 236.08 168.023 235.32C168.436 234.56 169.003 233.96 169.723 233.52C170.456 233.08 171.283 232.86 172.203 232.86C173.136 232.86 173.963 233.067 174.683 233.48C175.403 233.88 175.963 234.447 176.363 235.18C176.763 235.9 176.956 236.733 176.943 237.68C176.943 237.84 176.936 238.007 176.923 238.18C176.91 238.34 176.89 238.52 176.863 238.72H169.463C169.503 239.253 169.65 239.727 169.903 240.14C170.17 240.54 170.503 240.853 170.903 241.08C171.316 241.307 171.783 241.42 172.303 241.42C172.97 241.42 173.55 241.293 174.043 241.04C174.536 240.773 174.883 240.42 175.083 239.98L176.723 240.56C176.323 241.373 175.736 242.007 174.963 242.46C174.203 242.913 173.323 243.14 172.323 243.14ZM174.883 237.1C174.883 236.62 174.763 236.187 174.523 235.8C174.283 235.413 173.956 235.113 173.543 234.9C173.143 234.673 172.69 234.56 172.183 234.56C171.73 234.56 171.31 234.673 170.923 234.9C170.55 235.113 170.23 235.413 169.963 235.8C169.71 236.173 169.55 236.607 169.483 237.1H174.883ZM186.998 229V241.32H193.398V243H184.998V229H186.998ZM201.466 243L201.306 241.54C200.999 242.047 200.599 242.44 200.106 242.72C199.626 242.987 198.999 243.12 198.226 243.12C197.506 243.12 196.892 243.007 196.386 242.78C195.879 242.54 195.486 242.213 195.206 241.8C194.939 241.373 194.806 240.88 194.806 240.32C194.806 239.48 195.119 238.787 195.746 238.24C196.372 237.68 197.279 237.333 198.466 237.2L201.306 236.88V236.1C201.306 235.673 201.132 235.313 200.786 235.02C200.439 234.713 199.939 234.56 199.286 234.56C198.672 234.56 198.152 234.707 197.726 235C197.299 235.28 197.012 235.7 196.866 236.26L195.186 235.66C195.439 234.78 195.932 234.093 196.666 233.6C197.412 233.107 198.312 232.86 199.366 232.86C200.619 232.86 201.572 233.173 202.226 233.8C202.879 234.427 203.206 235.253 203.206 236.28V243H201.466ZM201.306 238.42L198.566 238.76C197.979 238.84 197.539 239.007 197.246 239.26C196.952 239.5 196.806 239.82 196.806 240.22C196.806 240.593 196.946 240.907 197.226 241.16C197.519 241.4 197.926 241.52 198.446 241.52C199.086 241.52 199.619 241.4 200.046 241.16C200.472 240.92 200.786 240.587 200.986 240.16C201.199 239.72 201.306 239.213 201.306 238.64V238.42ZM207.593 234.7C207.899 234.18 208.353 233.747 208.953 233.4C209.566 233.04 210.306 232.86 211.173 232.86C212.079 232.86 212.873 233.073 213.553 233.5C214.233 233.927 214.759 234.527 215.133 235.3C215.519 236.073 215.713 236.973 215.713 238C215.713 239.027 215.519 239.927 215.133 240.7C214.746 241.473 214.213 242.073 213.533 242.5C212.853 242.927 212.066 243.14 211.173 243.14C210.359 243.14 209.666 242.98 209.093 242.66C208.533 242.34 208.093 241.953 207.773 241.5L207.633 243H205.913V228.6H207.793V234.76L207.593 234.7ZM213.673 238C213.673 236.973 213.399 236.147 212.853 235.52C212.319 234.893 211.619 234.58 210.753 234.58C210.193 234.58 209.693 234.72 209.253 235C208.813 235.267 208.459 235.653 208.193 236.16C207.926 236.667 207.793 237.28 207.793 238C207.793 238.72 207.926 239.34 208.193 239.86C208.459 240.367 208.813 240.753 209.253 241.02C209.693 241.287 210.193 241.42 210.753 241.42C211.619 241.42 212.319 241.107 212.853 240.48C213.399 239.853 213.673 239.027 213.673 238ZM222.245 243.14C221.285 243.14 220.432 242.92 219.685 242.48C218.952 242.027 218.372 241.407 217.945 240.62C217.532 239.833 217.325 238.933 217.325 237.92C217.325 236.947 217.532 236.08 217.945 235.32C218.358 234.56 218.925 233.96 219.645 233.52C220.378 233.08 221.205 232.86 222.125 232.86C223.058 232.86 223.885 233.067 224.605 233.48C225.325 233.88 225.885 234.447 226.285 235.18C226.685 235.9 226.878 236.733 226.865 237.68C226.865 237.84 226.858 238.007 226.845 238.18C226.832 238.34 226.812 238.52 226.785 238.72H219.385C219.425 239.253 219.572 239.727 219.825 240.14C220.092 240.54 220.425 240.853 220.825 241.08C221.238 241.307 221.705 241.42 222.225 241.42C222.892 241.42 223.472 241.293 223.965 241.04C224.458 240.773 224.805 240.42 225.005 239.98L226.645 240.56C226.245 241.373 225.658 242.007 224.885 242.46C224.125 242.913 223.245 243.14 222.245 243.14ZM224.805 237.1C224.805 236.62 224.685 236.187 224.445 235.8C224.205 235.413 223.878 235.113 223.465 234.9C223.065 234.673 222.612 234.56 222.105 234.56C221.652 234.56 221.232 234.673 220.845 234.9C220.472 235.113 220.152 235.413 219.885 235.8C219.632 236.173 219.472 236.607 219.405 237.1H224.805ZM229.174 228.6H231.054V243H229.174V228.6ZM145.374 259.66C146.028 259.66 146.561 259.56 146.974 259.36C147.401 259.147 147.714 258.853 147.914 258.48C148.114 258.107 148.214 257.673 148.214 257.18C148.214 256.393 147.988 255.78 147.534 255.34C147.081 254.9 146.361 254.68 145.374 254.68H142.154V259.66H145.374ZM150.214 257.18C150.214 257.687 150.128 258.193 149.954 258.7C149.781 259.193 149.501 259.64 149.114 260.04C148.728 260.44 148.221 260.76 147.594 261C146.981 261.227 146.241 261.34 145.374 261.34H142.154V267H140.154V253H145.374C146.468 253 147.368 253.193 148.074 253.58C148.794 253.953 149.328 254.46 149.674 255.1C150.034 255.727 150.214 256.42 150.214 257.18ZM152.456 252.6H154.336V267H152.456V252.6ZM163.302 267L163.142 265.54C162.835 266.047 162.435 266.44 161.942 266.72C161.462 266.987 160.835 267.12 160.062 267.12C159.342 267.12 158.728 267.007 158.222 266.78C157.715 266.54 157.322 266.213 157.042 265.8C156.775 265.373 156.642 264.88 156.642 264.32C156.642 263.48 156.955 262.787 157.582 262.24C158.208 261.68 159.115 261.333 160.302 261.2L163.142 260.88V260.1C163.142 259.673 162.968 259.313 162.622 259.02C162.275 258.713 161.775 258.56 161.122 258.56C160.508 258.56 159.988 258.707 159.562 259C159.135 259.28 158.848 259.7 158.702 260.26L157.022 259.66C157.275 258.78 157.768 258.093 158.502 257.6C159.248 257.107 160.148 256.86 161.202 256.86C162.455 256.86 163.408 257.173 164.062 257.8C164.715 258.427 165.042 259.253 165.042 260.28V267H163.302ZM163.142 262.42L160.402 262.76C159.815 262.84 159.375 263.007 159.082 263.26C158.788 263.5 158.642 263.82 158.642 264.22C158.642 264.593 158.782 264.907 159.062 265.16C159.355 265.4 159.762 265.52 160.282 265.52C160.922 265.52 161.455 265.4 161.882 265.16C162.308 264.92 162.622 264.587 162.822 264.16C163.035 263.72 163.142 263.213 163.142 262.64V262.42ZM168.389 257V254.2H170.289V257H172.789V258.68H170.289V263.6C170.289 264.213 170.409 264.647 170.649 264.9C170.902 265.153 171.215 265.3 171.589 265.34C171.975 265.367 172.375 265.353 172.789 265.3V266.92C172.242 267.04 171.702 267.073 171.169 267.02C170.649 266.98 170.175 266.833 169.749 266.58C169.335 266.327 169.002 265.96 168.749 265.48C168.509 264.987 168.389 264.36 168.389 263.6V258.68H166.949V257H168.389ZM175.377 255.88C175.377 255.12 175.504 254.48 175.757 253.96C176.024 253.44 176.43 253.067 176.977 252.84C177.524 252.6 178.244 252.52 179.137 252.6V254.26C178.444 254.193 177.957 254.3 177.677 254.58C177.41 254.86 177.277 255.293 177.277 255.88V257H179.257V258.68H177.277V267H175.377V258.68H174.097V257H175.377V255.88ZM185.742 267.14C184.795 267.14 183.942 266.933 183.182 266.52C182.435 266.093 181.849 265.5 181.422 264.74C180.995 263.967 180.782 263.06 180.782 262.02C180.782 260.967 181.002 260.053 181.442 259.28C181.882 258.507 182.482 257.913 183.242 257.5C184.002 257.073 184.855 256.86 185.802 256.86C186.749 256.86 187.602 257.073 188.362 257.5C189.135 257.913 189.742 258.507 190.182 259.28C190.622 260.04 190.842 260.94 190.842 261.98C190.842 263.033 190.615 263.947 190.162 264.72C189.722 265.493 189.115 266.093 188.342 266.52C187.569 266.933 186.702 267.14 185.742 267.14ZM185.722 265.42C186.255 265.42 186.755 265.3 187.222 265.06C187.689 264.807 188.069 264.427 188.362 263.92C188.669 263.413 188.822 262.767 188.822 261.98C188.822 261.207 188.675 260.573 188.382 260.08C188.102 259.573 187.729 259.2 187.262 258.96C186.795 258.707 186.295 258.58 185.762 258.58C185.242 258.58 184.755 258.707 184.302 258.96C183.862 259.2 183.502 259.573 183.222 260.08C182.942 260.587 182.802 261.233 182.802 262.02C182.802 262.793 182.935 263.433 183.202 263.94C183.482 264.433 183.842 264.807 184.282 265.06C184.722 265.3 185.202 265.42 185.722 265.42ZM193.139 257H194.859L194.979 258.34C195.259 257.993 195.579 257.707 195.939 257.48C196.313 257.24 196.713 257.073 197.139 256.98C197.579 256.887 198.033 256.893 198.499 257V258.78C198.059 258.673 197.633 258.66 197.219 258.74C196.806 258.82 196.433 258.993 196.099 259.26C195.779 259.513 195.519 259.853 195.319 260.28C195.119 260.707 195.019 261.22 195.019 261.82V267H193.139V257ZM200.405 257H202.125L202.245 258.16C202.565 257.76 202.965 257.447 203.445 257.22C203.925 256.98 204.465 256.86 205.065 256.86C205.745 256.86 206.358 257.013 206.905 257.32C207.465 257.613 207.905 258.053 208.225 258.64C208.558 258.053 209.032 257.613 209.645 257.32C210.258 257.013 210.932 256.86 211.665 256.86C212.425 256.86 213.092 257.027 213.665 257.36C214.252 257.68 214.705 258.16 215.025 258.8C215.345 259.44 215.505 260.24 215.505 261.2V267H213.605V261.44C213.605 260.507 213.405 259.8 213.005 259.32C212.605 258.827 212.032 258.58 211.285 258.58C210.525 258.58 209.925 258.833 209.485 259.34C209.045 259.847 208.825 260.587 208.825 261.56V267H206.925V261.44C206.925 260.507 206.738 259.8 206.365 259.32C205.992 258.827 205.432 258.58 204.685 258.58C203.925 258.58 203.332 258.833 202.905 259.34C202.492 259.847 202.285 260.587 202.285 261.56V267H200.405V257Z" fill="#25272C"/>
<path d="M108.366 283.8H109.79L105.694 290.696V295H104.414V290.712L100.318 283.8H101.742L105.054 289.48L108.366 283.8ZM114.948 295.112C114.191 295.112 113.514 294.947 112.916 294.616C112.319 294.285 111.85 293.816 111.508 293.208C111.167 292.589 110.996 291.859 110.996 291.016C110.996 290.163 111.167 289.427 111.508 288.808C111.86 288.189 112.335 287.715 112.932 287.384C113.54 287.053 114.223 286.888 114.98 286.888C115.738 286.888 116.415 287.053 117.012 287.384C117.62 287.715 118.095 288.189 118.436 288.808C118.788 289.416 118.964 290.141 118.964 290.984C118.964 291.837 118.788 292.573 118.436 293.192C118.084 293.811 117.604 294.285 116.996 294.616C116.388 294.947 115.706 295.112 114.948 295.112ZM114.932 293.976C115.402 293.976 115.844 293.875 116.26 293.672C116.676 293.459 117.012 293.133 117.268 292.696C117.535 292.248 117.668 291.683 117.668 291C117.668 290.307 117.54 289.741 117.284 289.304C117.028 288.867 116.692 288.547 116.276 288.344C115.871 288.131 115.434 288.024 114.964 288.024C114.495 288.024 114.058 288.131 113.652 288.344C113.247 288.547 112.916 288.872 112.66 289.32C112.415 289.757 112.292 290.317 112.292 291C112.292 291.693 112.415 292.259 112.66 292.696C112.906 293.133 113.226 293.459 113.62 293.672C114.026 293.875 114.463 293.976 114.932 293.976ZM127.474 295H126.386L126.306 293.848C126.061 294.253 125.73 294.568 125.314 294.792C124.898 295.005 124.413 295.112 123.858 295.112C123.239 295.112 122.701 294.984 122.242 294.728C121.783 294.472 121.426 294.088 121.17 293.576C120.925 293.064 120.802 292.419 120.802 291.64V287H121.986V291.512C121.986 292.333 122.162 292.957 122.514 293.384C122.877 293.8 123.394 294.008 124.066 294.008C124.749 294.008 125.287 293.789 125.682 293.352C126.087 292.904 126.29 292.232 126.29 291.336V287H127.474V295ZM129.914 287H131.018L131.082 288.168C131.296 287.88 131.552 287.635 131.85 287.432C132.16 287.229 132.496 287.091 132.858 287.016C133.232 286.931 133.626 286.925 134.042 287V288.2C133.594 288.115 133.189 288.115 132.826 288.2C132.474 288.285 132.17 288.445 131.914 288.68C131.658 288.915 131.461 289.213 131.322 289.576C131.184 289.928 131.114 290.339 131.114 290.808V295H129.914V287ZM141.572 283.8V293.88H146.804V295H140.292V283.8H141.572ZM151.933 295.112C151.175 295.112 150.498 294.947 149.901 294.616C149.303 294.285 148.834 293.816 148.493 293.208C148.151 292.589 147.981 291.859 147.981 291.016C147.981 290.163 148.151 289.427 148.493 288.808C148.845 288.189 149.319 287.715 149.917 287.384C150.525 287.053 151.207 286.888 151.965 286.888C152.722 286.888 153.399 287.053 153.997 287.384C154.605 287.715 155.079 288.189 155.421 288.808C155.773 289.416 155.949 290.141 155.949 290.984C155.949 291.837 155.773 292.573 155.421 293.192C155.069 293.811 154.589 294.285 153.981 294.616C153.373 294.947 152.69 295.112 151.933 295.112ZM151.917 293.976C152.386 293.976 152.829 293.875 153.245 293.672C153.661 293.459 153.997 293.133 154.253 292.696C154.519 292.248 154.653 291.683 154.653 291C154.653 290.307 154.525 289.741 154.269 289.304C154.013 288.867 153.677 288.547 153.261 288.344C152.855 288.131 152.418 288.024 151.949 288.024C151.479 288.024 151.042 288.131 150.637 288.344C150.231 288.547 149.901 288.872 149.645 289.32C149.399 289.757 149.277 290.317 149.277 291C149.277 291.693 149.399 292.259 149.645 292.696C149.89 293.133 150.21 293.459 150.605 293.672C151.01 293.875 151.447 293.976 151.917 293.976ZM164.058 287H165.162V293.528C165.162 294.509 164.944 295.347 164.506 296.04C164.069 296.744 163.434 297.277 162.602 297.64C161.77 298.013 160.757 298.2 159.562 298.2L159.37 297.096C160.874 297.075 162.016 296.76 162.794 296.152C163.573 295.555 163.962 294.68 163.962 293.528V293.352L164.09 293.384C163.845 293.853 163.477 294.259 162.986 294.6C162.496 294.931 161.861 295.101 161.082 295.112C160.346 295.112 159.701 294.947 159.146 294.616C158.602 294.275 158.176 293.795 157.866 293.176C157.568 292.557 157.418 291.832 157.418 291C157.418 290.168 157.568 289.448 157.866 288.84C158.176 288.221 158.602 287.741 159.146 287.4C159.701 287.059 160.346 286.888 161.082 286.888C161.562 286.888 161.989 286.963 162.362 287.112C162.736 287.251 163.056 287.443 163.322 287.688C163.589 287.923 163.808 288.189 163.978 288.488L164.058 287ZM158.714 291C158.714 291.917 158.949 292.648 159.418 293.192C159.898 293.725 160.544 293.992 161.354 293.992C161.845 293.992 162.288 293.875 162.682 293.64C163.077 293.405 163.386 293.064 163.61 292.616C163.845 292.168 163.962 291.629 163.962 291C163.962 290.371 163.845 289.837 163.61 289.4C163.386 288.952 163.077 288.611 162.682 288.376C162.288 288.131 161.845 288.008 161.354 288.008C160.554 288.008 159.914 288.28 159.434 288.824C158.954 289.368 158.714 290.093 158.714 291ZM171.073 295.112C170.316 295.112 169.639 294.947 169.041 294.616C168.444 294.285 167.975 293.816 167.633 293.208C167.292 292.589 167.121 291.859 167.121 291.016C167.121 290.163 167.292 289.427 167.633 288.808C167.985 288.189 168.46 287.715 169.057 287.384C169.665 287.053 170.348 286.888 171.105 286.888C171.863 286.888 172.54 287.053 173.137 287.384C173.745 287.715 174.22 288.189 174.561 288.808C174.913 289.416 175.089 290.141 175.089 290.984C175.089 291.837 174.913 292.573 174.561 293.192C174.209 293.811 173.729 294.285 173.121 294.616C172.513 294.947 171.831 295.112 171.073 295.112ZM171.057 293.976C171.527 293.976 171.969 293.875 172.385 293.672C172.801 293.459 173.137 293.133 173.393 292.696C173.66 292.248 173.793 291.683 173.793 291C173.793 290.307 173.665 289.741 173.409 289.304C173.153 288.867 172.817 288.547 172.401 288.344C171.996 288.131 171.559 288.024 171.089 288.024C170.62 288.024 170.183 288.131 169.777 288.344C169.372 288.547 169.041 288.872 168.785 289.32C168.54 289.757 168.417 290.317 168.417 291C168.417 291.693 168.54 292.259 168.785 292.696C169.031 293.133 169.351 293.459 169.745 293.672C170.151 293.875 170.588 293.976 171.057 293.976ZM186.547 295L186.451 293.56C186.227 294.051 185.897 294.435 185.459 294.712C185.022 294.979 184.467 295.112 183.795 295.112C183.219 295.112 182.729 295.021 182.323 294.84C181.918 294.659 181.603 294.403 181.379 294.072C181.166 293.731 181.059 293.331 181.059 292.872C181.059 292.2 181.31 291.651 181.811 291.224C182.313 290.787 183.038 290.52 183.987 290.424L186.451 290.152V289.512C186.451 289.064 186.286 288.707 185.955 288.44C185.625 288.163 185.177 288.024 184.611 288.024C184.057 288.024 183.593 288.152 183.219 288.408C182.857 288.664 182.606 289.032 182.467 289.512L181.379 289.128C181.593 288.424 181.982 287.875 182.547 287.48C183.123 287.085 183.822 286.888 184.643 286.888C185.593 286.888 186.329 287.133 186.851 287.624C187.385 288.104 187.651 288.76 187.651 289.592V295H186.547ZM186.451 291.176L183.971 291.464C183.438 291.528 183.033 291.677 182.755 291.912C182.478 292.136 182.339 292.435 182.339 292.808C182.339 293.181 182.473 293.48 182.739 293.704C183.017 293.928 183.411 294.04 183.923 294.04C184.51 294.04 184.99 293.923 185.363 293.688C185.737 293.453 186.009 293.139 186.179 292.744C186.361 292.339 186.451 291.901 186.451 291.432V291.176ZM189.992 287H191.096L191.16 288.136C191.416 287.741 191.752 287.437 192.168 287.224C192.584 287 193.07 286.888 193.624 286.888C194.232 286.888 194.766 287.021 195.224 287.288C195.683 287.544 196.04 287.933 196.296 288.456C196.552 288.968 196.68 289.613 196.68 290.392V295H195.48V290.536C195.48 289.704 195.299 289.075 194.936 288.648C194.584 288.211 194.072 287.992 193.4 287.992C192.707 287.992 192.163 288.221 191.768 288.68C191.384 289.139 191.192 289.816 191.192 290.712V295H189.992V287ZM205.184 288.616L205.056 288.632V283.48H206.256V295H205.152L205.072 293.512C204.827 293.96 204.459 294.339 203.968 294.648C203.488 294.957 202.891 295.112 202.176 295.112C201.44 295.112 200.795 294.947 200.24 294.616C199.696 294.275 199.269 293.795 198.96 293.176C198.661 292.557 198.512 291.832 198.512 291C198.512 290.168 198.661 289.448 198.96 288.84C199.269 288.221 199.696 287.741 200.24 287.4C200.795 287.059 201.44 286.888 202.176 286.888C202.933 286.888 203.563 287.053 204.064 287.384C204.565 287.715 204.939 288.125 205.184 288.616ZM199.808 291C199.808 291.917 200.043 292.648 200.512 293.192C200.981 293.725 201.621 293.992 202.432 293.992C202.933 293.992 203.381 293.875 203.776 293.64C204.171 293.405 204.48 293.064 204.704 292.616C204.939 292.168 205.056 291.629 205.056 291C205.056 290.371 204.939 289.837 204.704 289.4C204.48 288.952 204.171 288.611 203.776 288.376C203.381 288.131 202.933 288.008 202.432 288.008C201.632 288.008 200.992 288.28 200.512 288.824C200.043 289.357 199.808 290.083 199.808 291ZM220.092 286.84C220.092 286.253 219.894 285.789 219.5 285.448C219.116 285.096 218.54 284.92 217.772 284.92H214.604V288.744H217.82C218.545 288.744 219.105 288.573 219.5 288.232C219.894 287.891 220.092 287.427 220.092 286.84ZM213.324 295V283.8H217.884C218.673 283.8 219.324 283.933 219.836 284.2C220.348 284.467 220.726 284.819 220.972 285.256C221.228 285.683 221.356 286.157 221.356 286.68C221.356 287.192 221.26 287.624 221.068 287.976C220.886 288.317 220.636 288.589 220.316 288.792C220.006 288.995 219.665 289.133 219.292 289.208V289.32C219.74 289.384 220.14 289.528 220.492 289.752C220.844 289.965 221.121 290.259 221.324 290.632C221.526 291.005 221.628 291.459 221.628 291.992C221.628 292.547 221.489 293.053 221.212 293.512C220.934 293.971 220.524 294.333 219.98 294.6C219.446 294.867 218.79 295 218.012 295H213.324ZM214.604 293.88H217.916C218.684 293.88 219.281 293.709 219.708 293.368C220.145 293.016 220.364 292.515 220.364 291.864C220.364 291.213 220.134 290.717 219.676 290.376C219.228 290.035 218.625 289.864 217.868 289.864H214.604V293.88ZM223.758 287H224.862L224.926 288.168C225.139 287.88 225.395 287.635 225.694 287.432C226.003 287.229 226.339 287.091 226.702 287.016C227.075 286.931 227.47 286.925 227.886 287V288.2C227.438 288.115 227.033 288.115 226.67 288.2C226.318 288.285 226.014 288.445 225.758 288.68C225.502 288.915 225.305 289.213 225.166 289.576C225.027 289.928 224.958 290.339 224.958 290.808V295H223.758V287ZM234.532 295L234.436 293.56C234.212 294.051 233.881 294.435 233.444 294.712C233.006 294.979 232.452 295.112 231.78 295.112C231.204 295.112 230.713 295.021 230.308 294.84C229.902 294.659 229.588 294.403 229.364 294.072C229.15 293.731 229.044 293.331 229.044 292.872C229.044 292.2 229.294 291.651 229.796 291.224C230.297 290.787 231.022 290.52 231.972 290.424L234.436 290.152V289.512C234.436 289.064 234.27 288.707 233.94 288.44C233.609 288.163 233.161 288.024 232.596 288.024C232.041 288.024 231.577 288.152 231.204 288.408C230.841 288.664 230.59 289.032 230.452 289.512L229.364 289.128C229.577 288.424 229.966 287.875 230.532 287.48C231.108 287.085 231.806 286.888 232.628 286.888C233.577 286.888 234.313 287.133 234.836 287.624C235.369 288.104 235.636 288.76 235.636 289.592V295H234.532ZM234.436 291.176L231.956 291.464C231.422 291.528 231.017 291.677 230.74 291.912C230.462 292.136 230.324 292.435 230.324 292.808C230.324 293.181 230.457 293.48 230.724 293.704C231.001 293.928 231.396 294.04 231.908 294.04C232.494 294.04 232.974 293.923 233.348 293.688C233.721 293.453 233.993 293.139 234.164 292.744C234.345 292.339 234.436 291.901 234.436 291.432V291.176ZM237.977 287H239.081L239.145 288.136C239.401 287.741 239.737 287.437 240.153 287.224C240.569 287 241.054 286.888 241.609 286.888C242.217 286.888 242.75 287.021 243.209 287.288C243.667 287.544 244.025 287.933 244.281 288.456C244.537 288.968 244.665 289.613 244.665 290.392V295H243.465V290.536C243.465 289.704 243.283 289.075 242.921 288.648C242.569 288.211 242.057 287.992 241.385 287.992C240.691 287.992 240.147 288.221 239.753 288.68C239.369 289.139 239.177 289.816 239.177 290.712V295H237.977V287ZM253.168 288.616L253.04 288.632V283.48H254.24V295H253.136L253.056 293.512C252.811 293.96 252.443 294.339 251.952 294.648C251.472 294.957 250.875 295.112 250.16 295.112C249.424 295.112 248.779 294.947 248.224 294.616C247.68 294.275 247.254 293.795 246.944 293.176C246.646 292.557 246.496 291.832 246.496 291C246.496 290.168 246.646 289.448 246.944 288.84C247.254 288.221 247.68 287.741 248.224 287.4C248.779 287.059 249.424 286.888 250.16 286.888C250.918 286.888 251.547 287.053 252.048 287.384C252.55 287.715 252.923 288.125 253.168 288.616ZM247.792 291C247.792 291.917 248.027 292.648 248.496 293.192C248.966 293.725 249.606 293.992 250.416 293.992C250.918 293.992 251.366 293.875 251.76 293.64C252.155 293.405 252.464 293.064 252.688 292.616C252.923 292.168 253.04 291.629 253.04 291C253.04 290.371 252.923 289.837 252.688 289.4C252.464 288.952 252.155 288.611 251.76 288.376C251.366 288.131 250.918 288.008 250.416 288.008C249.616 288.008 248.976 288.28 248.496 288.824C248.027 289.357 247.792 290.083 247.792 291Z" fill="#53565A"/>
<defs>
<filter id="filter0_dddd_18552_17532" x="47.8688" y="48.1014" width="267.783" height="162.647" filterUnits="userSpaceOnUse" color-interpolation-filters="sRGB">
<feFlood flood-opacity="0" result="BackgroundImageFix"/>
<feColorMatrix in="SourceAlpha" type="matrix" values="0 0 0 0 0 0 0 0 0 0 0 0 0 0 0 0 0 0 127 0" result="hardAlpha"/>
<feOffset dy="0.898601"/>
<feGaussianBlur stdDeviation="0.898601"/>
<feColorMatrix type="matrix" values="0 0 0 0 0 0 0 0 0 0 0 0 0 0 0 0 0 0 0.05 0"/>
<feBlend mode="normal" in2="BackgroundImageFix" result="effect1_dropShadow_18552_17532"/>
<feColorMatrix in="SourceAlpha" type="matrix" values="0 0 0 0 0 0 0 0 0 0 0 0 0 0 0 0 0 0 127 0" result="hardAlpha"/>
<feOffset dx="0.898601" dy="1.7972"/>
<feGaussianBlur stdDeviation="1.3479"/>
<feColorMatrix type="matrix" values="0 0 0 0 0 0 0 0 0 0 0 0 0 0 0 0 0 0 0.04 0"/>
<feBlend mode="normal" in2="effect1_dropShadow_18552_17532" result="effect2_dropShadow_18552_17532"/>
<feColorMatrix in="SourceAlpha" type="matrix" values="0 0 0 0 0 0 0 0 0 0 0 0 0 0 0 0 0 0 127 0" result="hardAlpha"/>
<feOffset dx="2.6958" dy="4.49301"/>
<feGaussianBlur stdDeviation="1.7972"/>
<feColorMatrix type="matrix" values="0 0 0 0 0 0 0 0 0 0 0 0 0 0 0 0 0 0 0.03 0"/>
<feBlend mode="normal" in2="effect2_dropShadow_18552_17532" result="effect3_dropShadow_18552_17532"/>
<feColorMatrix in="SourceAlpha" type="matrix" values="0 0 0 0 0 0 0 0 0 0 0 0 0 0 0 0 0 0 127 0" result="hardAlpha"/>
<feOffset dx="5.39161" dy="8.98601"/>
<feGaussianBlur stdDeviation="1.7972"/>
<feColorMatrix type="matrix" values="0 0 0 0 0 0 0 0 0 0 0 0 0 0 0 0 0 0 0.01 0"/>
<feBlend mode="normal" in2="effect3_dropShadow_18552_17532" result="effect4_dropShadow_18552_17532"/>
<feBlend mode="normal" in="SourceGraphic" in2="effect4_dropShadow_18552_17532" result="shape"/>
</filter>
<filter id="filter1_dddd_18552_17532" x="153.245" y="97.7642" width="61.9443" height="60.6256" filterUnits="userSpaceOnUse" color-interpolation-filters="sRGB">
<feFlood flood-opacity="0" result="BackgroundImageFix"/>
<feColorMatrix in="SourceAlpha" type="matrix" values="0 0 0 0 0 0 0 0 0 0 0 0 0 0 0 0 0 0 127 0" result="hardAlpha"/>
<feOffset dx="0.658974" dy="0.658974"/>
<feGaussianBlur stdDeviation="0.658974"/>
<feColorMatrix type="matrix" values="0 0 0 0 0 0 0 0 0 0 0 0 0 0 0 0 0 0 0.05 0"/>
<feBlend mode="normal" in2="BackgroundImageFix" result="effect1_dropShadow_18552_17532"/>
<feColorMatrix in="SourceAlpha" type="matrix" values="0 0 0 0 0 0 0 0 0 0 0 0 0 0 0 0 0 0 127 0" result="hardAlpha"/>
<feOffset dx="1.97692" dy="1.97692"/>
<feGaussianBlur stdDeviation="1.31795"/>
<feColorMatrix type="matrix" values="0 0 0 0 0 0 0 0 0 0 0 0 0 0 0 0 0 0 0.04 0"/>
<feBlend mode="normal" in2="effect1_dropShadow_18552_17532" result="effect2_dropShadow_18552_17532"/>
<feColorMatrix in="SourceAlpha" type="matrix" values="0 0 0 0 0 0 0 0 0 0 0 0 0 0 0 0 0 0 127 0" result="hardAlpha"/>
<feOffset dx="4.61282" dy="3.95385"/>
<feGaussianBlur stdDeviation="1.64744"/>
<feColorMatrix type="matrix" values="0 0 0 0 0 0 0 0 0 0 0 0 0 0 0 0 0 0 0.03 0"/>
<feBlend mode="normal" in2="effect2_dropShadow_18552_17532" result="effect3_dropShadow_18552_17532"/>
<feColorMatrix in="SourceAlpha" type="matrix" values="0 0 0 0 0 0 0 0 0 0 0 0 0 0 0 0 0 0 127 0" result="hardAlpha"/>
<feOffset dx="7.90769" dy="6.58974"/>
<feGaussianBlur stdDeviation="1.97692"/>
<feColorMatrix type="matrix" values="0 0 0 0 0 0 0 0 0 0 0 0 0 0 0 0 0 0 0.01 0"/>
<feBlend mode="normal" in2="effect3_dropShadow_18552_17532" result="effect4_dropShadow_18552_17532"/>
<feBlend mode="normal" in="SourceGraphic" in2="effect4_dropShadow_18552_17532" result="shape"/>
</filter>
<filter id="filter2_dddd_18552_17532" x="156.375" y="102.13" width="44.4814" height="48.1875" filterUnits="userSpaceOnUse" color-interpolation-filters="sRGB">
<feFlood flood-opacity="0" result="BackgroundImageFix"/>
<feColorMatrix in="SourceAlpha" type="matrix" values="0 0 0 0 0 0 0 0 0 0 0 0 0 0 0 0 0 0 127 0" result="hardAlpha"/>
<feOffset/>
<feGaussianBlur stdDeviation="0.617788"/>
<feColorMatrix type="matrix" values="0 0 0 0 0 0 0 0 0 0 0 0 0 0 0 0 0 0 0.05 0"/>
<feBlend mode="normal" in2="BackgroundImageFix" result="effect1_dropShadow_18552_17532"/>
<feColorMatrix in="SourceAlpha" type="matrix" values="0 0 0 0 0 0 0 0 0 0 0 0 0 0 0 0 0 0 127 0" result="hardAlpha"/>
<feOffset dy="1.23558"/>
<feGaussianBlur stdDeviation="0.617788"/>
<feColorMatrix type="matrix" values="0 0 0 0 0 0 0 0 0 0 0 0 0 0 0 0 0 0 0.04 0"/>
<feBlend mode="normal" in2="effect1_dropShadow_18552_17532" result="effect2_dropShadow_18552_17532"/>
<feColorMatrix in="SourceAlpha" type="matrix" values="0 0 0 0 0 0 0 0 0 0 0 0 0 0 0 0 0 0 127 0" result="hardAlpha"/>
<feOffset dy="2.47115"/>
<feGaussianBlur stdDeviation="0.617788"/>
<feColorMatrix type="matrix" values="0 0 0 0 0 0 0 0 0 0 0 0 0 0 0 0 0 0 0.03 0"/>
<feBlend mode="normal" in2="effect2_dropShadow_18552_17532" result="effect3_dropShadow_18552_17532"/>
<feColorMatrix in="SourceAlpha" type="matrix" values="0 0 0 0 0 0 0 0 0 0 0 0 0 0 0 0 0 0 127 0" result="hardAlpha"/>
<feOffset dy="4.94231"/>
<feGaussianBlur stdDeviation="1.23558"/>
<feColorMatrix type="matrix" values="0 0 0 0 0 0 0 0 0 0 0 0 0 0 0 0 0 0 0.01 0"/>
<feBlend mode="normal" in2="effect3_dropShadow_18552_17532" result="effect4_dropShadow_18552_17532"/>
<feBlend mode="normal" in="SourceGraphic" in2="effect4_dropShadow_18552_17532" result="shape"/>
</filter>
<linearGradient id="paint0_linear_18552_17532" x1="178.166" y1="128.976" x2="306.666" y2="128.976" gradientUnits="userSpaceOnUse">
<stop stop-color="#E0EEFB"/>
<stop offset="1" stop-color="#E0EEFB" stop-opacity="0"/>
</linearGradient>
<linearGradient id="paint1_linear_18552_17532" x1="177.666" y1="49.8987" x2="177.666" y2="195.472" gradientUnits="userSpaceOnUse">
<stop stop-color="#4D9EE5"/>
<stop offset="1" stop-color="#4D9EE5" stop-opacity="0"/>
</linearGradient>
<linearGradient id="paint2_linear_18552_17532" x1="158.846" y1="103.365" x2="191.97" y2="148.579" gradientUnits="userSpaceOnUse">
<stop stop-color="#B8DCFF"/>
<stop offset="1" stop-color="#3794FE"/>
</linearGradient>
<linearGradient id="paint3_linear_18552_17532" x1="158.846" y1="103.365" x2="191.97" y2="148.579" gradientUnits="userSpaceOnUse">
<stop stop-color="#CEE7FF"/>
<stop offset="1" stop-color="#0479FE"/>
</linearGradient>
<linearGradient id="paint4_linear_18552_17532" x1="163.789" y1="101.512" x2="191.589" y2="144.14" gradientUnits="userSpaceOnUse">
<stop stop-color="#F7F8FA"/>
<stop offset="1" stop-color="#EBECEE"/>
</linearGradient>
<clipPath id="clip0_18552_17532">
<rect x="49.666" y="49" width="257" height="149.168" rx="17.972" fill="white"/>
</clipPath>
<clipPath id="clip1_18552_17532">
<rect x="153.904" y="98.4232" width="49.4231" height="49.4231" rx="24.7115" fill="white"/>
</clipPath>
</defs>
</svg>
