<svg height="44" viewBox="0 0 254 44" fill="none" xmlns="http://www.w3.org/2000/svg">
    <rect width="43.5252" height="43.5252" rx="6.6234" fill="#0077DF"/>
    <path d="M15.3728 21.423C15.9279 21.423 16.3859 21.3397 16.7467 21.1732C17.1075 20.9928 17.3712 20.743 17.5377 20.4238C17.7181 20.0907 17.8083 19.7021 17.8083 19.2581C17.8083 18.5781 17.6071 18.0507 17.2046 17.676C16.8161 17.3013 16.2054 17.114 15.3728 17.114H12.2712V21.423H15.3728ZM20.681 19.2581C20.681 19.7993 20.5838 20.3405 20.3895 20.8817C20.1953 21.4091 19.89 21.8948 19.4736 22.3389C19.0573 22.7691 18.5161 23.116 17.8499 23.3797C17.1977 23.6434 16.3997 23.7752 15.4561 23.7752H12.2712V29.3332H9.46094V14.7617H15.4561C16.6357 14.7617 17.6071 14.9699 18.3704 15.3862C19.1475 15.7887 19.7234 16.3368 20.0981 17.0307C20.4867 17.7107 20.681 18.4532 20.681 19.2581Z" fill="white"/>
    <path d="M31.1854 18.9666C31.1854 18.356 30.9912 17.8981 30.6026 17.5927C30.214 17.2736 29.6658 17.114 28.9581 17.114H25.3985V20.7985H28.9373C29.645 20.7985 30.1932 20.6458 30.5818 20.3405C30.9842 20.0213 31.1854 19.5634 31.1854 18.9666ZM22.5883 29.3332V14.7617H29.3536C30.3667 14.7617 31.2201 14.9352 31.914 15.2821C32.6079 15.6152 33.1283 16.0732 33.4752 16.656C33.8361 17.225 34.0165 17.8703 34.0165 18.5919C34.0165 19.2303 33.8985 19.7715 33.6626 20.2156C33.4267 20.6597 33.1006 21.0136 32.6842 21.2772C32.2818 21.527 31.8169 21.7005 31.2895 21.7977V21.9642C31.9279 22.0475 32.4761 22.2279 32.934 22.5054C33.392 22.7691 33.7459 23.1438 33.9957 23.6295C34.2455 24.1152 34.3704 24.705 34.3704 25.3989C34.3704 26.1622 34.183 26.8422 33.8083 27.4389C33.4336 28.0218 32.8854 28.4867 32.1638 28.8336C31.4561 29.1667 30.6026 29.3332 29.6034 29.3332H22.5883ZM25.3985 26.9809H29.2287C29.9642 26.9809 30.5332 26.8213 30.9356 26.5022C31.352 26.1691 31.5601 25.6903 31.5601 25.0658C31.5601 24.4136 31.3381 23.9209 30.894 23.5879C30.4638 23.2548 29.8879 23.0883 29.1663 23.0883H25.3985V26.9809Z" fill="white"/>
    <path d="M58.1384 21.2968C58.6935 21.2968 59.1515 21.2135 59.5123 21.047C59.8731 20.8666 60.1368 20.6168 60.3033 20.2976C60.4837 19.9645 60.5739 19.576 60.5739 19.1319C60.5739 18.4519 60.3727 17.9245 59.9703 17.5498C59.5817 17.1751 58.9711 16.9878 58.1384 16.9878H55.0368V21.2968H58.1384ZM63.4466 19.1319C63.4466 19.6731 63.3495 20.2143 63.1552 20.7556C62.9609 21.2829 62.6556 21.7686 62.2392 22.2127C61.8229 22.6429 61.2817 22.9899 60.6156 23.2535C59.9633 23.5172 59.1654 23.649 58.2217 23.649H55.0368V29.207H52.2266V14.6355H58.2217C59.4013 14.6355 60.3727 14.8437 61.136 15.26C61.9131 15.6625 62.489 16.2106 62.8637 16.9045C63.2523 17.5845 63.4466 18.327 63.4466 19.1319Z" fill="#0077DF"/>
    <path d="M65.229 18.7988H67.6437L67.8311 20.1311C68.1225 19.7702 68.4486 19.4788 68.8094 19.2568C69.1841 19.0209 69.5935 18.8613 70.0376 18.778C70.4817 18.6809 70.9466 18.6878 71.4323 18.7988V21.2968C71.0576 21.1719 70.6621 21.1372 70.2457 21.1927C69.8433 21.2482 69.4617 21.3939 69.1008 21.6298C68.7539 21.8658 68.4625 22.2058 68.2266 22.6498C68.0045 23.0801 67.8935 23.6282 67.8935 24.2943V29.207H65.229V18.7988Z" fill="#0077DF"/>
    <path d="M77.6539 29.3527C76.6131 29.3527 75.6972 29.1237 74.9062 28.6658C74.1152 28.2078 73.4976 27.5695 73.0535 26.7507C72.6233 25.9319 72.4082 24.9882 72.4082 23.9196C72.4082 22.8927 72.6233 21.9837 73.0535 21.1927C73.4837 20.4017 74.0805 19.7841 74.8437 19.34C75.6209 18.8821 76.5021 18.6531 77.4874 18.6531C78.4866 18.6531 79.3678 18.8682 80.1311 19.2984C80.8944 19.7286 81.4842 20.3323 81.9005 21.1094C82.3307 21.8727 82.5458 22.7678 82.5458 23.7948C82.5458 23.9474 82.5319 24.1209 82.5042 24.3152C82.4903 24.4956 82.4695 24.6899 82.4417 24.898H75.2809C75.3364 25.3421 75.4752 25.7237 75.6972 26.0429C75.9331 26.3482 76.2176 26.5911 76.5507 26.7715C76.8976 26.938 77.2862 27.0213 77.7164 27.0213C78.2299 27.0213 78.6878 26.9172 79.0903 26.709C79.5066 26.487 79.805 26.2025 79.9854 25.8556L82.3585 26.5633C81.9421 27.4515 81.3176 28.1384 80.485 28.6242C79.6662 29.1099 78.7225 29.3527 77.6539 29.3527ZM79.6315 22.9621C79.6176 22.5735 79.5135 22.2266 79.3193 21.9213C79.125 21.6021 78.8682 21.3592 78.5491 21.1927C78.2299 21.0123 77.876 20.9221 77.4874 20.9221C77.1405 20.9221 76.8144 21.0123 76.509 21.1927C76.2037 21.3731 75.9401 21.616 75.718 21.9213C75.5099 22.2127 75.3711 22.5596 75.3017 22.9621H79.6315Z" fill="#0077DF"/>
    <path d="M91.925 20.36L91.592 20.4017V14.2192H94.2565V29.207H91.8418L91.6753 27.9164C91.3422 28.305 90.8981 28.645 90.343 28.9364C89.8018 29.214 89.1703 29.3527 88.4487 29.3527C87.5467 29.3527 86.7487 29.1307 86.0548 28.6866C85.3609 28.2425 84.8197 27.625 84.4311 26.8339C84.0426 26.029 83.8483 25.0854 83.8483 24.0029C83.8483 22.9205 84.0426 21.9768 84.4311 21.1719C84.8197 20.367 85.3609 19.7494 86.0548 19.3192C86.7487 18.8751 87.5467 18.6531 88.4487 18.6531C89.2675 18.6531 89.9683 18.8196 90.5512 19.1527C91.1479 19.4858 91.6059 19.8882 91.925 20.36ZM86.7209 24.0029C86.7209 24.8772 86.943 25.585 87.3871 26.1262C87.8312 26.6535 88.414 26.9172 89.1356 26.9172C89.5797 26.9172 89.9822 26.8062 90.343 26.5841C90.7177 26.3482 91.0161 26.0152 91.2381 25.585C91.474 25.1548 91.592 24.6274 91.592 24.0029C91.592 23.3784 91.474 22.8511 91.2381 22.4209C91.0161 21.9907 90.7177 21.6645 90.343 21.4425C89.9822 21.2066 89.5797 21.0886 89.1356 21.0886C88.414 21.0886 87.8312 21.3592 87.3871 21.9005C86.943 22.4278 86.7209 23.1286 86.7209 24.0029Z" fill="#0077DF"/>
    <path d="M96.9555 18.7988H99.62V29.207H96.9555V18.7988ZM98.3085 17.4666C97.8089 17.4666 97.3995 17.3139 97.0804 17.0086C96.7612 16.6894 96.6016 16.3008 96.6016 15.8429C96.6016 15.3849 96.7612 15.0033 97.0804 14.698C97.3995 14.3788 97.8089 14.2192 98.3085 14.2192C98.7804 14.2192 99.1759 14.3788 99.4951 14.698C99.8281 15.0033 99.9946 15.3849 99.9946 15.8429C99.9946 16.3008 99.8281 16.6894 99.4951 17.0086C99.1759 17.3139 98.7804 17.4666 98.3085 17.4666Z" fill="#0077DF"/>
    <path d="M106.909 29.3527C105.896 29.3527 105.008 29.1307 104.244 28.6866C103.481 28.2425 102.884 27.625 102.454 26.8339C102.024 26.029 101.809 25.0992 101.809 24.0445C101.809 22.976 102.024 22.0392 102.454 21.2343C102.884 20.4294 103.488 19.798 104.265 19.34C105.042 18.8821 105.938 18.6531 106.951 18.6531C108.047 18.6531 109.018 18.9237 109.865 19.4649C110.725 20.0062 111.329 20.7347 111.676 21.6507L109.199 22.3584C109.032 21.956 108.755 21.6368 108.366 21.4009C107.991 21.1649 107.561 21.047 107.075 21.047C106.59 21.047 106.16 21.1719 105.785 21.4217C105.424 21.6715 105.14 22.0184 104.931 22.4625C104.737 22.9066 104.64 23.427 104.64 24.0237C104.64 24.9258 104.862 25.6405 105.306 26.1678C105.75 26.6952 106.347 26.9588 107.096 26.9588C107.568 26.9588 107.998 26.8478 108.387 26.6258C108.775 26.3899 109.067 26.0707 109.261 25.6682L111.718 26.376C111.343 27.278 110.718 27.9997 109.844 28.5409C108.984 29.0821 108.005 29.3527 106.909 29.3527Z" fill="#0077DF"/>
    <path d="M114.295 18.7988V15.8845H117.001V18.7988H119.291V21.1511H117.001V25.3768C117.001 25.918 117.112 26.2997 117.334 26.5217C117.57 26.7437 117.862 26.8617 118.209 26.8756C118.569 26.8895 118.93 26.8686 119.291 26.8131V29.1029C118.653 29.2417 118.028 29.2833 117.418 29.2278C116.821 29.1723 116.287 29.0127 115.815 28.7491C115.343 28.4715 114.968 28.0552 114.691 27.5001C114.427 26.945 114.295 26.2372 114.295 25.3768V21.1511H112.817V18.7988H114.295Z" fill="#0077DF"/>
    <path d="M127.101 29.207L126.893 27.9372C126.546 28.3674 126.151 28.7074 125.706 28.9572C125.276 29.207 124.693 29.3319 123.958 29.3319C123.264 29.3319 122.653 29.214 122.126 28.978C121.613 28.7282 121.21 28.3882 120.919 27.958C120.627 27.5139 120.482 26.9935 120.482 26.3968C120.482 25.5225 120.794 24.8009 121.418 24.2319C122.057 23.649 123.014 23.2813 124.291 23.1286L126.893 22.8372V22.1086C126.893 21.8172 126.761 21.5466 126.497 21.2968C126.234 21.047 125.817 20.9221 125.249 20.9221C124.749 20.9221 124.312 21.047 123.937 21.2968C123.576 21.5327 123.333 21.8935 123.209 22.3792L120.919 21.5466C121.196 20.6168 121.724 19.9021 122.501 19.4025C123.278 18.9029 124.235 18.6531 125.373 18.6531C126.761 18.6531 127.802 19 128.496 19.6939C129.204 20.3739 129.558 21.276 129.558 22.4001V29.207H127.101ZM126.893 24.6899L124.645 24.9813C124.187 25.0368 123.84 25.1756 123.604 25.3976C123.368 25.6058 123.25 25.8625 123.25 26.1678C123.25 26.4592 123.368 26.709 123.604 26.9172C123.84 27.1115 124.173 27.2086 124.603 27.2086C125.089 27.2086 125.498 27.1184 125.831 26.938C126.178 26.7576 126.442 26.4939 126.622 26.147C126.803 25.8001 126.893 25.3699 126.893 24.8564V24.6899Z" fill="#0077DF"/>
    <path d="M134.122 20.36C134.442 19.8882 134.893 19.4858 135.476 19.1527C136.072 18.8196 136.773 18.6531 137.578 18.6531C138.494 18.6531 139.292 18.8751 139.972 19.3192C140.666 19.7494 141.207 20.367 141.596 21.1719C141.998 21.9768 142.199 22.9205 142.199 24.0029C142.199 25.0854 141.998 26.029 141.596 26.8339C141.207 27.625 140.666 28.2425 139.972 28.6866C139.278 29.1307 138.48 29.3527 137.578 29.3527C136.856 29.3527 136.218 29.214 135.663 28.9364C135.108 28.645 134.678 28.305 134.372 27.9164L134.206 29.207H131.791V14.2192H134.456V20.4017L134.122 20.36ZM139.327 24.0029C139.327 23.1286 139.098 22.4278 138.64 21.9005C138.196 21.3592 137.613 21.0886 136.891 21.0886C136.447 21.0886 136.038 21.2066 135.663 21.4425C135.302 21.6645 135.011 21.9907 134.789 22.4209C134.567 22.8511 134.456 23.3784 134.456 24.0029C134.456 24.6274 134.567 25.1548 134.789 25.585C135.011 26.0152 135.302 26.3482 135.663 26.5841C136.038 26.8062 136.447 26.9172 136.891 26.9172C137.613 26.9172 138.196 26.6535 138.64 26.1262C139.098 25.585 139.327 24.8772 139.327 24.0029Z" fill="#0077DF"/>
    <path d="M143.922 14.2192H146.587V29.207H143.922V14.2192Z" fill="#0077DF"/>
    <path d="M153.664 29.3527C152.623 29.3527 151.707 29.1237 150.916 28.6658C150.125 28.2078 149.508 27.5695 149.063 26.7507C148.633 25.9319 148.418 24.9882 148.418 23.9196C148.418 22.8927 148.633 21.9837 149.063 21.1927C149.494 20.4017 150.09 19.7841 150.854 19.34C151.631 18.8821 152.512 18.6531 153.497 18.6531C154.497 18.6531 155.378 18.8682 156.141 19.2984C156.904 19.7286 157.494 20.3323 157.91 21.1094C158.341 21.8727 158.556 22.7678 158.556 23.7948C158.556 23.9474 158.542 24.1209 158.514 24.3152C158.5 24.4956 158.479 24.6899 158.452 24.898H151.291C151.346 25.3421 151.485 25.7237 151.707 26.0429C151.943 26.3482 152.228 26.5911 152.561 26.7715C152.908 26.938 153.296 27.0213 153.726 27.0213C154.24 27.0213 154.698 26.9172 155.1 26.709C155.517 26.487 155.815 26.2025 155.995 25.8556L158.368 26.5633C157.952 27.4515 157.328 28.1384 156.495 28.6242C155.676 29.1099 154.732 29.3527 153.664 29.3527ZM155.641 22.9621C155.628 22.5735 155.523 22.2266 155.329 21.9213C155.135 21.6021 154.878 21.3592 154.559 21.1927C154.24 21.0123 153.886 20.9221 153.497 20.9221C153.15 20.9221 152.824 21.0123 152.519 21.1927C152.214 21.3731 151.95 21.616 151.728 21.9213C151.52 22.2127 151.381 22.5596 151.312 22.9621H155.641Z" fill="#0077DF"/>
    <path d="M174.727 18.8404C174.727 18.2298 174.533 17.7719 174.144 17.4666C173.755 17.1474 173.207 16.9878 172.499 16.9878H168.94V20.6723H172.479C173.186 20.6723 173.735 20.5196 174.123 20.2143C174.526 19.8951 174.727 19.4372 174.727 18.8404ZM166.13 29.207V14.6355H172.895C173.908 14.6355 174.761 14.809 175.455 15.1559C176.149 15.489 176.67 15.947 177.017 16.5298C177.377 17.0988 177.558 17.7441 177.558 18.4658C177.558 19.1041 177.44 19.6453 177.204 20.0894C176.968 20.5335 176.642 20.8874 176.226 21.1511C175.823 21.4009 175.358 21.5743 174.831 21.6715V21.838C175.469 21.9213 176.017 22.1017 176.475 22.3792C176.933 22.6429 177.287 23.0176 177.537 23.5033C177.787 23.989 177.912 24.5788 177.912 25.2727C177.912 26.036 177.724 26.716 177.35 27.3127C176.975 27.8956 176.427 28.3605 175.705 28.7074C174.997 29.0405 174.144 29.207 173.145 29.207H166.13ZM168.94 26.8548H172.77C173.506 26.8548 174.075 26.6952 174.477 26.376C174.893 26.0429 175.101 25.5641 175.101 24.9397C175.101 24.2874 174.879 23.7948 174.435 23.4617C174.005 23.1286 173.429 22.9621 172.708 22.9621H168.94V26.8548Z" fill="#0077DF"/>
    <path d="M184.65 29.3527C183.609 29.3527 182.693 29.1237 181.902 28.6658C181.111 28.2078 180.494 27.5695 180.05 26.7507C179.62 25.9319 179.404 24.9882 179.404 23.9196C179.404 22.8927 179.62 21.9837 180.05 21.1927C180.48 20.4017 181.077 19.7841 181.84 19.34C182.617 18.8821 183.498 18.6531 184.484 18.6531C185.483 18.6531 186.364 18.8682 187.127 19.2984C187.891 19.7286 188.48 20.3323 188.897 21.1094C189.327 21.8727 189.542 22.7678 189.542 23.7948C189.542 23.9474 189.528 24.1209 189.5 24.3152C189.487 24.4956 189.466 24.6899 189.438 24.898H182.277C182.333 25.3421 182.471 25.7237 182.693 26.0429C182.929 26.3482 183.214 26.5911 183.547 26.7715C183.894 26.938 184.282 27.0213 184.713 27.0213C185.226 27.0213 185.684 26.9172 186.087 26.709C186.503 26.487 186.801 26.2025 186.982 25.8556L189.355 26.5633C188.938 27.4515 188.314 28.1384 187.481 28.6242C186.662 29.1099 185.719 29.3527 184.65 29.3527ZM186.628 22.9621C186.614 22.5735 186.51 22.2266 186.316 21.9213C186.121 21.6021 185.864 21.3592 185.545 21.1927C185.226 21.0123 184.872 20.9221 184.484 20.9221C184.137 20.9221 183.811 21.0123 183.505 21.1927C183.2 21.3731 182.936 21.616 182.714 21.9213C182.506 22.2127 182.367 22.5596 182.298 22.9621H186.628Z" fill="#0077DF"/>
    <path d="M191.365 18.7988H193.78L193.967 19.8605C194.3 19.4858 194.703 19.1943 195.174 18.9862C195.66 18.7641 196.18 18.6531 196.736 18.6531C197.554 18.6531 198.248 18.8266 198.817 19.1735C199.4 19.5205 199.844 20.027 200.149 20.6931C200.469 21.3454 200.628 22.1572 200.628 23.1286V29.207H197.943V23.4825C197.943 22.6776 197.783 22.0739 197.464 21.6715C197.145 21.269 196.666 21.0678 196.028 21.0678C195.376 21.0678 194.876 21.276 194.529 21.6923C194.196 22.0947 194.029 22.6984 194.029 23.5033V29.207H191.365V18.7988Z" fill="#0077DF"/>
    <path d="M207.551 29.3527C206.51 29.3527 205.594 29.1237 204.803 28.6658C204.012 28.2078 203.394 27.5695 202.95 26.7507C202.52 25.9319 202.305 24.9882 202.305 23.9196C202.305 22.8927 202.52 21.9837 202.95 21.1927C203.38 20.4017 203.977 19.7841 204.74 19.34C205.518 18.8821 206.399 18.6531 207.384 18.6531C208.383 18.6531 209.265 18.8682 210.028 19.2984C210.791 19.7286 211.381 20.3323 211.797 21.1094C212.227 21.8727 212.443 22.7678 212.443 23.7948C212.443 23.9474 212.429 24.1209 212.401 24.3152C212.387 24.4956 212.366 24.6899 212.338 24.898H205.178C205.233 25.3421 205.372 25.7237 205.594 26.0429C205.83 26.3482 206.114 26.5911 206.447 26.7715C206.794 26.938 207.183 27.0213 207.613 27.0213C208.127 27.0213 208.585 26.9172 208.987 26.709C209.403 26.487 209.702 26.2025 209.882 25.8556L212.255 26.5633C211.839 27.4515 211.214 28.1384 210.382 28.6242C209.563 29.1099 208.619 29.3527 207.551 29.3527ZM209.528 22.9621C209.514 22.5735 209.41 22.2266 209.216 21.9213C209.022 21.6021 208.765 21.3592 208.446 21.1927C208.127 21.0123 207.773 20.9221 207.384 20.9221C207.037 20.9221 206.711 21.0123 206.406 21.1927C206.1 21.3731 205.837 21.616 205.615 21.9213C205.407 22.2127 205.268 22.5596 205.198 22.9621H209.528Z" fill="#0077DF"/>
    <path d="M221.843 17.4249C221.357 17.4249 220.947 17.2723 220.614 16.967C220.295 16.6478 220.136 16.2662 220.136 15.8221C220.136 15.3641 220.295 14.9825 220.614 14.6772C220.947 14.3719 221.357 14.2192 221.843 14.2192C222.328 14.2192 222.731 14.3719 223.05 14.6772C223.383 14.9825 223.55 15.3641 223.55 15.8221C223.55 16.2662 223.383 16.6478 223.05 16.967C222.731 17.2723 222.328 17.4249 221.843 17.4249ZM223.175 18.778V29.207H220.49V21.1303H213.537V18.778H223.175ZM214.765 17.8621C214.765 16.96 214.925 16.2245 215.244 15.6555C215.577 15.0866 216.063 14.6772 216.701 14.4274C217.353 14.1776 218.165 14.1082 219.136 14.2192V16.5715C218.526 16.4882 218.089 16.5715 217.825 16.8213C217.575 17.0711 217.45 17.4596 217.45 17.987V29.207H214.765V17.8621Z" fill="#0077DF"/>
    <path d="M226.678 18.7988V15.8845H229.385V18.7988H231.674V21.1511H229.385V25.3768C229.385 25.918 229.496 26.2997 229.718 26.5217C229.954 26.7437 230.245 26.8617 230.592 26.8756C230.953 26.8895 231.314 26.8686 231.674 26.8131V29.1029C231.036 29.2417 230.412 29.2833 229.801 29.2278C229.204 29.1723 228.67 29.0127 228.198 28.7491C227.726 28.4715 227.352 28.0552 227.074 27.5001C226.81 26.945 226.678 26.2372 226.678 25.3768V21.1511H225.201V18.7988H226.678Z" fill="#0077DF"/>
    <path d="M235.238 25.8139C235.321 26.1609 235.46 26.4246 235.654 26.605C235.862 26.7854 236.091 26.9172 236.341 27.0005C236.605 27.0699 236.869 27.1046 237.132 27.1046C237.618 27.1046 238 27.0144 238.277 26.8339C238.555 26.6397 238.693 26.3968 238.693 26.1054C238.693 25.8556 238.596 25.6613 238.402 25.5225C238.208 25.3699 237.958 25.2588 237.653 25.1894C237.347 25.1062 237.035 25.0229 236.716 24.9397C236.341 24.8425 235.939 24.7384 235.509 24.6274C235.092 24.5025 234.697 24.329 234.322 24.107C233.947 23.885 233.635 23.6005 233.385 23.2535C233.135 22.8927 233.011 22.4417 233.011 21.9005C233.011 21.2621 233.184 20.7 233.531 20.2143C233.892 19.7286 234.384 19.347 235.009 19.0694C235.647 18.7919 236.383 18.6531 237.215 18.6531C238.201 18.6531 239.033 18.8613 239.713 19.2776C240.393 19.6939 240.886 20.2907 241.191 21.0678L238.839 21.7339C238.77 21.5396 238.652 21.38 238.485 21.2551C238.319 21.1303 238.118 21.04 237.882 20.9845C237.66 20.929 237.431 20.9013 237.195 20.9013C236.792 20.9013 236.459 20.9845 236.195 21.1511C235.932 21.3037 235.8 21.5188 235.8 21.7964C235.8 21.9629 235.849 22.1017 235.946 22.2127C236.043 22.3098 236.175 22.3931 236.341 22.4625C236.522 22.5319 236.723 22.5943 236.945 22.6498C237.181 22.7054 237.438 22.7678 237.715 22.8372C238.145 22.9482 238.575 23.0801 239.006 23.2327C239.45 23.3715 239.852 23.5519 240.213 23.7739C240.588 23.996 240.886 24.2943 241.108 24.669C241.33 25.0437 241.455 25.5156 241.483 26.0846C241.483 26.6952 241.309 27.2503 240.962 27.7499C240.615 28.2356 240.116 28.6242 239.464 28.9156C238.811 29.207 238.02 29.3527 237.091 29.3527C236.008 29.3527 235.085 29.1237 234.322 28.6658C233.573 28.2078 233.08 27.4931 232.844 26.5217L235.238 25.8139Z" fill="#0077DF"/>
    <path d="M241.78 11.5549H246.568V12.4167H244.696V17.6484H243.661V12.4167H241.78V11.5549ZM248.379 17.6484H247.343V11.5549H248.501L250.555 16.2905L252.61 11.5549H253.759V17.6484H252.732V13.531L250.947 17.6484H250.164L248.379 13.531V17.6484Z" fill="#0077DF"/>
</svg>
