<svg width="155" height="41" viewBox="0 0 155 41" fill="none" xmlns="http://www.w3.org/2000/svg">
        <rect width="40.0567" height="40.0567" rx="6.09558" fill="#0077DF" />
        <path d="M14.1458 19.7144C14.6567 19.7144 15.0782 19.6378 15.4102 19.4845C15.7423 19.3185 15.9849 19.0886 16.1382 18.7948C16.3042 18.4883 16.3873 18.1307 16.3873 17.722C16.3873 17.0962 16.2021 16.6109 15.8317 16.266C15.4741 15.9212 14.9121 15.7488 14.1458 15.7488H11.2913V19.7144H14.1458ZM19.031 17.722C19.031 18.2201 18.9416 18.7182 18.7628 19.2163C18.584 19.7016 18.303 20.1486 17.9199 20.5573C17.5367 20.9533 17.0386 21.2725 16.4256 21.5152C15.8253 21.7579 15.0909 21.8792 14.2225 21.8792H11.2913V26.9943H8.70508V13.584H14.2225C15.308 13.584 16.2021 13.7756 16.9045 14.1587C17.6197 14.5291 18.1497 15.0336 18.4946 15.6722C18.8522 16.298 19.031 16.9813 19.031 17.722Z" fill="white" />
        <path d="M28.6984 17.4538C28.6984 16.8919 28.5196 16.4704 28.162 16.1894C27.8043 15.8957 27.2999 15.7488 26.6485 15.7488H23.3726V19.1397H26.6294C27.2807 19.1397 27.7852 18.9992 28.1428 18.7182C28.5132 18.4245 28.6984 18.003 28.6984 17.4538ZM20.7863 26.9943V13.584H27.0125C27.9448 13.584 28.7303 13.7436 29.3689 14.0629C30.0075 14.3694 30.4864 14.7909 30.8057 15.3273C31.1378 15.851 31.3038 16.4448 31.3038 17.109C31.3038 17.6965 31.1952 18.1946 30.9781 18.6033C30.761 19.012 30.4609 19.3376 30.0777 19.5803C29.7073 19.8102 29.2795 19.9698 28.7942 20.0592V20.2125C29.3817 20.2891 29.8861 20.4552 30.3076 20.7106C30.7291 20.9533 31.0547 21.2981 31.2846 21.7451C31.5145 22.1921 31.6295 22.7349 31.6295 23.3735C31.6295 24.0759 31.4571 24.7017 31.1122 25.2509C30.7674 25.7873 30.2629 26.2152 29.5988 26.5345C28.9474 26.841 28.162 26.9943 27.2424 26.9943H20.7863ZM23.3726 24.8295H26.8976C27.5745 24.8295 28.0981 24.6826 28.4685 24.3888C28.8516 24.0823 29.0432 23.6417 29.0432 23.067C29.0432 22.4667 28.8389 22.0133 28.4302 21.7068C28.0342 21.4003 27.5042 21.247 26.8401 21.247H23.3726V24.8295Z" fill="white" />
        <path d="M53.7669 9.71767C54.2778 9.71767 54.6992 9.64104 55.0313 9.48778C55.3634 9.32174 55.606 9.09185 55.7593 8.7981C55.9253 8.49158 56.0083 8.13398 56.0083 7.72528C56.0083 7.09947 55.8232 6.61414 55.4528 6.26931C55.0952 5.92447 54.5332 5.75205 53.7669 5.75205H50.9124V9.71767H53.7669ZM58.6521 7.72528C58.6521 8.22338 58.5627 8.72147 58.3839 9.21957C58.2051 9.70489 57.9241 10.1519 57.5409 10.5606C57.1578 10.9565 56.6597 11.2758 56.0467 11.5185C55.4464 11.7611 54.712 11.8825 53.8435 11.8825H50.9124V16.9975H48.3262V3.58725H53.8435C54.9291 3.58725 55.8232 3.77883 56.5256 4.16198C57.2408 4.53236 57.7708 5.03684 58.1157 5.67542C58.4733 6.30124 58.6521 6.98452 58.6521 7.72528Z" fill="#0077DF" />
        <path d="M60.2925 7.41876H62.5147L62.6871 8.64484C62.9553 8.31278 63.2555 8.04457 63.5875 7.84023C63.9324 7.62311 64.3091 7.47623 64.7178 7.3996C65.1265 7.3102 65.5544 7.31659 66.0014 7.41876V9.71767C65.6566 9.60272 65.2926 9.57079 64.9094 9.62188C64.539 9.67297 64.1878 9.80707 63.8558 10.0242C63.5365 10.2413 63.2683 10.5542 63.0511 10.9629C62.8468 11.3588 62.7446 11.8633 62.7446 12.4764V16.9975H60.2925V7.41876Z" fill="#0077DF" />
        <path d="M71.7273 17.1316C70.7694 17.1316 69.9265 16.9209 69.1985 16.4994C68.4705 16.078 67.9021 15.4905 67.4934 14.7369C67.0975 13.9834 66.8996 13.1149 66.8996 12.1315C66.8996 11.1864 67.0975 10.3499 67.4934 9.62188C67.8894 8.89389 68.4385 8.32555 69.141 7.91686C69.8562 7.49539 70.6672 7.28466 71.574 7.28466C72.4936 7.28466 73.3046 7.48262 74.007 7.87854C74.7094 8.27447 75.2522 8.83003 75.6354 9.54525C76.0313 10.2477 76.2293 11.0715 76.2293 12.0166C76.2293 12.1571 76.2165 12.3167 76.191 12.4955C76.1782 12.6615 76.159 12.8403 76.1335 13.0319H69.5433C69.5944 13.4406 69.7221 13.7918 69.9265 14.0856C70.1436 14.3666 70.4054 14.5901 70.7119 14.7561C71.0312 14.9094 71.3888 14.986 71.7847 14.986C72.2573 14.986 72.6788 14.8902 73.0491 14.6986C73.4323 14.4943 73.7069 14.2325 73.8729 13.9132L76.0569 14.5645C75.6737 15.3819 75.099 16.0141 74.3327 16.4611C73.5792 16.9081 72.7107 17.1316 71.7273 17.1316ZM73.5472 11.2503C73.5345 10.8927 73.4387 10.5734 73.2599 10.2924C73.0811 9.99864 72.8448 9.77514 72.551 9.62188C72.2573 9.45585 71.9316 9.37283 71.574 9.37283C71.2547 9.37283 70.9546 9.45585 70.6736 9.62188C70.3926 9.78791 70.15 10.0114 69.9456 10.2924C69.754 10.5606 69.6263 10.8799 69.5625 11.2503H73.5472Z" fill="#0077DF" />
        <path d="M84.8611 8.85558L84.5546 8.89389V3.2041H87.0067V16.9975H84.7845L84.6312 15.8289C84.3247 16.1674 83.916 16.4803 83.4051 16.7485C82.907 17.0039 82.3259 17.1316 81.6618 17.1316C80.8316 17.1316 80.0973 16.9273 79.4587 16.5186C78.8201 16.1099 78.322 15.5416 77.9644 14.8136C77.6068 14.0728 77.428 13.2043 77.428 12.2081C77.428 11.212 77.6068 10.3435 77.9644 9.60272C78.322 8.86196 78.8201 8.29362 79.4587 7.8977C80.0973 7.48901 80.8316 7.28466 81.6618 7.28466C82.4153 7.28466 83.0603 7.43792 83.5967 7.74444C84.1459 8.05096 84.5674 8.42134 84.8611 8.85558ZM80.0717 12.2081C80.0717 13.0128 80.2761 13.6641 80.6848 14.1622C81.0934 14.6475 81.6299 14.8902 82.294 14.8902C82.7027 14.8902 83.0731 14.788 83.4051 14.5837C83.75 14.3666 84.0246 14.06 84.2289 13.6641C84.446 13.2682 84.5546 12.7829 84.5546 12.2081C84.5546 11.6334 84.446 11.1481 84.2289 10.7522C84.0246 10.3563 83.75 10.0561 83.4051 9.85177C83.0731 9.63465 82.7027 9.52609 82.294 9.52609C81.6299 9.52609 81.0934 9.77514 80.6848 10.2732C80.2761 10.7586 80.0717 11.4035 80.0717 12.2081Z" fill="#0077DF" />
</svg>
