<svg width="292" height="50" viewBox="0 0 292 50" fill="none" xmlns="http://www.w3.org/2000/svg"><rect width="50" height="50" rx="7.6087" fill="white"></rect><path d="M17.6565 24.6087C18.2942 24.6087 18.8203 24.5131 19.2348 24.3218C19.6493 24.1145 19.9522 23.8276 20.1435 23.4609C20.3507 23.0783 20.4544 22.6319 20.4544 22.1218C20.4544 21.3406 20.2232 20.7348 19.7609 20.3044C19.3145 19.8739 18.6131 19.6587 17.6565 19.6587H14.0935V24.6087H17.6565ZM23.7544 22.1218C23.7544 22.7435 23.6428 23.3652 23.4196 23.987C23.1964 24.5928 22.8457 25.1507 22.3674 25.6609C21.8891 26.1551 21.2674 26.5536 20.5022 26.8565C19.7529 27.1594 18.8362 27.3109 17.7522 27.3109H14.0935V33.6957H10.8652V16.9565H17.7522C19.1073 16.9565 20.2232 17.1957 21.1 17.6739C21.9928 18.1363 22.6544 18.766 23.0848 19.5631C23.5312 20.3442 23.7544 21.1971 23.7544 22.1218Z" fill="#0077DF"></path><path d="M35.8215 21.787C35.8215 21.0855 35.5983 20.5594 35.1519 20.2087C34.7055 19.8421 34.0758 19.6587 33.2628 19.6587H29.1737V23.8913H33.2389C34.0519 23.8913 34.6816 23.716 35.128 23.3652C35.5903 22.9986 35.8215 22.4725 35.8215 21.787ZM25.9454 33.6957V16.9565H33.7171C34.8809 16.9565 35.8613 17.1558 36.6584 17.5544C37.4555 17.937 38.0534 18.4631 38.4519 19.1326C38.8664 19.7863 39.0737 20.5276 39.0737 21.3565C39.0737 22.0899 38.9382 22.7116 38.6671 23.2218C38.3961 23.7319 38.0215 24.1384 37.5432 24.4413C37.0809 24.7283 36.5468 24.9276 35.941 25.0392V25.2305C36.6744 25.3261 37.3041 25.5334 37.8302 25.8522C38.3563 26.1551 38.7628 26.5855 39.0497 27.1435C39.3367 27.7015 39.4802 28.379 39.4802 29.1761C39.4802 30.0529 39.265 30.8341 38.8345 31.5196C38.4041 32.1892 37.7744 32.7232 36.9454 33.1218C36.1324 33.5044 35.1519 33.6957 34.0041 33.6957H25.9454ZM29.1737 30.9935H33.5737C34.4186 30.9935 35.0722 30.8102 35.5345 30.4435C36.0128 30.0609 36.2519 29.5109 36.2519 28.7935C36.2519 28.0442 35.9968 27.4783 35.4867 27.0957C34.9925 26.7131 34.3309 26.5218 33.5019 26.5218H29.1737V30.9935Z" fill="#0077DF"></path><path d="M66.7913 24.4676C67.429 24.4676 67.9551 24.372 68.3696 24.1807C68.7841 23.9734 69.087 23.6865 69.2783 23.3198C69.4855 22.9372 69.5891 22.4908 69.5891 21.9807C69.5891 21.1995 69.358 20.5937 68.8957 20.1633C68.4493 19.7328 67.7478 19.5176 66.7913 19.5176H63.2283V24.4676H66.7913ZM72.8891 21.9807C72.8891 22.6024 72.7775 23.2241 72.5543 23.8459C72.3312 24.4517 71.9804 25.0096 71.5022 25.5198C71.0239 26.014 70.4022 26.4125 69.637 26.7154C68.8877 27.0183 67.971 27.1698 66.887 27.1698H63.2283V33.5546H60V16.8154H66.887C68.242 16.8154 69.358 17.0546 70.2348 17.5328C71.1275 17.9952 71.7891 18.6249 72.2196 19.422C72.6659 20.2031 72.8891 21.056 72.8891 21.9807Z" fill="white"></path><path d="M74.9367 21.5981H77.7106L77.9258 23.1285C78.2606 22.714 78.6352 22.3792 79.0497 22.1241C79.4802 21.8531 79.9505 21.6698 80.4606 21.5741C80.9707 21.4625 81.5048 21.4705 82.0628 21.5981V24.4676C81.6323 24.3241 81.178 24.2843 80.6997 24.3481C80.2374 24.4118 79.799 24.5792 79.3845 24.8502C78.986 25.1212 78.6512 25.5118 78.3802 26.022C78.1251 26.5162 77.9976 27.1459 77.9976 27.9111V33.5546H74.9367V21.5981Z" fill="white"></path><path d="M89.21 33.722C88.0143 33.722 86.9621 33.4589 86.0534 32.9328C85.1448 32.4068 84.4353 31.6734 83.9252 30.7328C83.431 29.7923 83.1839 28.7082 83.1839 27.4807C83.1839 26.301 83.431 25.2568 83.9252 24.3481C84.4194 23.4394 85.1049 22.7299 85.9817 22.2198C86.8745 21.6937 87.8868 21.4307 89.0187 21.4307C90.1665 21.4307 91.1788 21.6778 92.0556 22.172C92.9324 22.6662 93.61 23.3596 94.0882 24.2524C94.5824 25.1292 94.8295 26.1575 94.8295 27.3372C94.8295 27.5125 94.8136 27.7118 94.7817 27.935C94.7658 28.1423 94.7419 28.3654 94.71 28.6046H86.4839C86.5476 29.1147 86.7071 29.5531 86.9621 29.9198C87.2332 30.2705 87.56 30.5495 87.9426 30.7568C88.3411 30.9481 88.7875 31.0437 89.2817 31.0437C89.8716 31.0437 90.3977 30.9241 90.86 30.685C91.3382 30.4299 91.681 30.1031 91.8882 29.7046L94.6143 30.5176C94.1361 31.5379 93.4187 32.327 92.4621 32.885C91.5216 33.443 90.4375 33.722 89.21 33.722ZM91.4817 26.3807C91.4658 25.9343 91.3462 25.5357 91.123 25.185C90.8998 24.8183 90.6049 24.5394 90.2382 24.3481C89.8716 24.1408 89.465 24.0372 89.0187 24.0372C88.6201 24.0372 88.2455 24.1408 87.8948 24.3481C87.544 24.5553 87.2411 24.8343 86.9861 25.185C86.7469 25.5198 86.5875 25.9183 86.5078 26.3807H91.4817Z" fill="white"></path><path d="M105.604 23.3915L105.221 23.4394V16.3372H108.282V33.5546H105.508L105.317 32.072C104.934 32.5183 104.424 32.9089 103.787 33.2437C103.165 33.5625 102.44 33.722 101.611 33.722C100.574 33.722 99.6577 33.4669 98.8606 32.9568C98.0635 32.4466 97.4417 31.7372 96.9953 30.8285C96.549 29.9039 96.3258 28.8198 96.3258 27.5763C96.3258 26.3328 96.549 25.2488 96.9953 24.3241C97.4417 23.3995 98.0635 22.6901 98.8606 22.1959C99.6577 21.6857 100.574 21.4307 101.611 21.4307C102.551 21.4307 103.356 21.622 104.026 22.0046C104.711 22.3872 105.237 22.8495 105.604 23.3915ZM99.6258 27.5763C99.6258 28.5807 99.8809 29.3937 100.391 30.0154C100.901 30.6212 101.571 30.9241 102.4 30.9241C102.91 30.9241 103.372 30.7966 103.787 30.5415C104.217 30.2705 104.56 29.8879 104.815 29.3937C105.086 28.8995 105.221 28.2937 105.221 27.5763C105.221 26.8589 105.086 26.2531 104.815 25.7589C104.56 25.2647 104.217 24.8901 103.787 24.635C103.372 24.364 102.91 24.2285 102.4 24.2285C101.571 24.2285 100.901 24.5394 100.391 25.1611C99.8809 25.7669 99.6258 26.572 99.6258 27.5763Z" fill="white"></path><path d="M111.383 21.5981H114.444V33.5546H111.383V21.5981ZM112.937 20.0676C112.363 20.0676 111.893 19.8923 111.526 19.5415C111.16 19.1749 110.976 18.7285 110.976 18.2024C110.976 17.6763 111.16 17.2379 111.526 16.8872C111.893 16.5205 112.363 16.3372 112.937 16.3372C113.479 16.3372 113.933 16.5205 114.3 16.8872C114.683 17.2379 114.874 17.6763 114.874 18.2024C114.874 18.7285 114.683 19.1749 114.3 19.5415C113.933 19.8923 113.479 20.0676 112.937 20.0676Z" fill="white"></path><path d="M122.817 33.722C121.653 33.722 120.633 33.4669 119.756 32.9568C118.879 32.4466 118.194 31.7372 117.7 30.8285C117.205 29.9039 116.958 28.8357 116.958 27.6241C116.958 26.3966 117.205 25.3205 117.7 24.3959C118.194 23.4712 118.887 22.7459 119.78 22.2198C120.673 21.6937 121.701 21.4307 122.865 21.4307C124.124 21.4307 125.24 21.7415 126.213 22.3633C127.201 22.985 127.894 23.822 128.293 24.8741L125.447 25.6872C125.256 25.2249 124.937 24.8582 124.491 24.5872C124.06 24.3162 123.566 24.1807 123.008 24.1807C122.45 24.1807 121.956 24.3241 121.526 24.6111C121.111 24.8981 120.784 25.2966 120.545 25.8067C120.322 26.3169 120.21 26.9147 120.21 27.6002C120.21 28.6365 120.465 29.4575 120.976 30.0633C121.486 30.6691 122.171 30.972 123.032 30.972C123.574 30.972 124.068 30.8444 124.515 30.5894C124.961 30.3183 125.296 29.9517 125.519 29.4894L128.341 30.3024C127.91 31.3386 127.193 32.1676 126.189 32.7894C125.2 33.4111 124.076 33.722 122.817 33.722Z" fill="white"></path><path d="M131.302 21.5981V18.2502H134.411V21.5981H137.041V24.3002H134.411V29.1546C134.411 29.7763 134.538 30.2147 134.793 30.4698C135.064 30.7249 135.399 30.8604 135.798 30.8763C136.212 30.8923 136.627 30.8683 137.041 30.8046V33.435C136.308 33.5944 135.59 33.6423 134.889 33.5785C134.203 33.5147 133.59 33.3314 133.048 33.0285C132.506 32.7096 132.075 32.2314 131.756 31.5937C131.453 30.956 131.302 30.143 131.302 29.1546V24.3002H129.604V21.5981H131.302Z" fill="white"></path><path d="M146.013 33.5546L145.774 32.0959C145.375 32.5901 144.921 32.9807 144.411 33.2676C143.917 33.5546 143.247 33.6981 142.402 33.6981C141.605 33.6981 140.904 33.5625 140.298 33.2915C139.708 33.0046 139.246 32.614 138.911 32.1198C138.576 31.6096 138.409 31.0118 138.409 30.3263C138.409 29.322 138.767 28.493 139.485 27.8394C140.218 27.1698 141.318 26.7473 142.785 26.572L145.774 26.2372V25.4002C145.774 25.0654 145.622 24.7546 145.319 24.4676C145.017 24.1807 144.538 24.0372 143.885 24.0372C143.311 24.0372 142.809 24.1807 142.378 24.4676C141.964 24.7386 141.685 25.1531 141.541 25.7111L138.911 24.7546C139.23 23.6865 139.835 22.8654 140.728 22.2915C141.621 21.7176 142.721 21.4307 144.028 21.4307C145.622 21.4307 146.818 21.8292 147.615 22.6263C148.428 23.4075 148.835 24.4437 148.835 25.735V33.5546H146.013ZM145.774 28.3654L143.191 28.7002C142.665 28.764 142.267 28.9234 141.996 29.1785C141.725 29.4176 141.589 29.7125 141.589 30.0633C141.589 30.3981 141.725 30.685 141.996 30.9241C142.267 31.1473 142.649 31.2589 143.143 31.2589C143.701 31.2589 144.172 31.1553 144.554 30.9481C144.953 30.7408 145.256 30.4379 145.463 30.0394C145.67 29.6408 145.774 29.1466 145.774 28.5568V28.3654Z" fill="white"></path><path d="M154.079 23.3915C154.445 22.8495 154.964 22.3872 155.633 22.0046C156.319 21.622 157.124 21.4307 158.048 21.4307C159.101 21.4307 160.017 21.6857 160.798 22.1959C161.595 22.6901 162.217 23.3995 162.664 24.3241C163.126 25.2488 163.357 26.3328 163.357 27.5763C163.357 28.8198 163.126 29.9039 162.664 30.8285C162.217 31.7372 161.595 32.4466 160.798 32.9568C160.001 33.4669 159.085 33.722 158.048 33.722C157.219 33.722 156.486 33.5625 155.848 33.2437C155.211 32.9089 154.716 32.5183 154.366 32.072L154.174 33.5546H151.401V16.3372H154.461V23.4394L154.079 23.3915ZM160.057 27.5763C160.057 26.572 159.794 25.7669 159.268 25.1611C158.758 24.5394 158.088 24.2285 157.259 24.2285C156.749 24.2285 156.279 24.364 155.848 24.635C155.434 24.8901 155.099 25.2647 154.844 25.7589C154.589 26.2531 154.461 26.8589 154.461 27.5763C154.461 28.2937 154.589 28.8995 154.844 29.3937C155.099 29.8879 155.434 30.2705 155.848 30.5415C156.279 30.7966 156.749 30.9241 157.259 30.9241C158.088 30.9241 158.758 30.6212 159.268 30.0154C159.794 29.3937 160.057 28.5807 160.057 27.5763Z" fill="white"></path><path d="M165.336 16.3372H168.397V33.5546H165.336V16.3372Z" fill="white"></path><path d="M176.527 33.722C175.331 33.722 174.279 33.4589 173.371 32.9328C172.462 32.4068 171.753 31.6734 171.242 30.7328C170.748 29.7923 170.501 28.7082 170.501 27.4807C170.501 26.301 170.748 25.2568 171.242 24.3481C171.737 23.4394 172.422 22.7299 173.299 22.2198C174.192 21.6937 175.204 21.4307 176.336 21.4307C177.484 21.4307 178.496 21.6778 179.373 22.172C180.25 22.6662 180.927 23.3596 181.405 24.2524C181.9 25.1292 182.147 26.1575 182.147 27.3372C182.147 27.5125 182.131 27.7118 182.099 27.935C182.083 28.1423 182.059 28.3654 182.027 28.6046H173.801C173.865 29.1147 174.024 29.5531 174.279 29.9198C174.55 30.2705 174.877 30.5495 175.26 30.7568C175.658 30.9481 176.105 31.0437 176.599 31.0437C177.189 31.0437 177.715 30.9241 178.177 30.685C178.655 30.4299 178.998 30.1031 179.205 29.7046L181.931 30.5176C181.453 31.5379 180.736 32.327 179.779 32.885C178.839 33.443 177.755 33.722 176.527 33.722ZM178.799 26.3807C178.783 25.9343 178.663 25.5357 178.44 25.185C178.217 24.8183 177.922 24.5394 177.555 24.3481C177.189 24.1408 176.782 24.0372 176.336 24.0372C175.937 24.0372 175.563 24.1408 175.212 24.3481C174.861 24.5553 174.558 24.8343 174.303 25.185C174.064 25.5198 173.905 25.9183 173.825 26.3807H178.799Z" fill="white"></path><path d="M200.723 21.6459C200.723 20.9444 200.5 20.4183 200.054 20.0676C199.607 19.701 198.978 19.5176 198.165 19.5176H194.076V23.7502H198.141C198.954 23.7502 199.584 23.5749 200.03 23.2241C200.492 22.8575 200.723 22.3314 200.723 21.6459ZM190.847 33.5546V16.8154H198.619C199.783 16.8154 200.763 17.0147 201.56 17.4133C202.357 17.7959 202.955 18.322 203.354 18.9915C203.768 19.6452 203.976 20.3865 203.976 21.2154C203.976 21.9488 203.84 22.5705 203.569 23.0807C203.298 23.5908 202.923 23.9973 202.445 24.3002C201.983 24.5872 201.449 24.7865 200.843 24.8981V25.0894C201.576 25.185 202.206 25.3923 202.732 25.7111C203.258 26.014 203.665 26.4444 203.952 27.0024C204.239 27.5604 204.382 28.2379 204.382 29.035C204.382 29.9118 204.167 30.693 203.736 31.3785C203.306 32.0481 202.676 32.5821 201.847 32.9807C201.034 33.3633 200.054 33.5546 198.906 33.5546H190.847ZM194.076 30.8524H198.476C199.32 30.8524 199.974 30.6691 200.436 30.3024C200.915 29.9198 201.154 29.3698 201.154 28.6524C201.154 27.9031 200.899 27.3372 200.389 26.9546C199.894 26.572 199.233 26.3807 198.404 26.3807H194.076V30.8524Z" fill="white"></path><path d="M212.123 33.722C210.927 33.722 209.875 33.4589 208.966 32.9328C208.058 32.4068 207.348 31.6734 206.838 30.7328C206.344 29.7923 206.097 28.7082 206.097 27.4807C206.097 26.301 206.344 25.2568 206.838 24.3481C207.332 23.4394 208.018 22.7299 208.895 22.2198C209.788 21.6937 210.8 21.4307 211.932 21.4307C213.08 21.4307 214.092 21.6778 214.969 22.172C215.845 22.6662 216.523 23.3596 217.001 24.2524C217.495 25.1292 217.743 26.1575 217.743 27.3372C217.743 27.5125 217.727 27.7118 217.695 27.935C217.679 28.1423 217.655 28.3654 217.623 28.6046H209.397C209.461 29.1147 209.62 29.5531 209.875 29.9198C210.146 30.2705 210.473 30.5495 210.856 30.7568C211.254 30.9481 211.701 31.0437 212.195 31.0437C212.785 31.0437 213.311 30.9241 213.773 30.685C214.251 30.4299 214.594 30.1031 214.801 29.7046L217.527 30.5176C217.049 31.5379 216.332 32.327 215.375 32.885C214.435 33.443 213.351 33.722 212.123 33.722ZM214.395 26.3807C214.379 25.9343 214.259 25.5357 214.036 25.185C213.813 24.8183 213.518 24.5394 213.151 24.3481C212.785 24.1408 212.378 24.0372 211.932 24.0372C211.533 24.0372 211.159 24.1408 210.808 24.3481C210.457 24.5553 210.154 24.8343 209.899 25.185C209.66 25.5198 209.501 25.9183 209.421 26.3807H214.395Z" fill="white"></path><path d="M219.837 21.5981H222.611L222.826 22.8176C223.208 22.3872 223.671 22.0524 224.213 21.8133C224.771 21.5582 225.369 21.4307 226.006 21.4307C226.947 21.4307 227.744 21.6299 228.398 22.0285C229.067 22.427 229.577 23.0089 229.928 23.7741C230.295 24.5234 230.478 25.456 230.478 26.572V33.5546H227.393V26.9785C227.393 26.0539 227.21 25.3604 226.843 24.8981C226.477 24.4357 225.927 24.2046 225.193 24.2046C224.444 24.2046 223.87 24.4437 223.471 24.922C223.089 25.3843 222.898 26.0778 222.898 27.0024V33.5546H219.837V21.5981Z" fill="white"></path><path d="M238.43 33.722C237.234 33.722 236.182 33.4589 235.274 32.9328C234.365 32.4068 233.656 31.6734 233.145 30.7328C232.651 29.7923 232.404 28.7082 232.404 27.4807C232.404 26.301 232.651 25.2568 233.145 24.3481C233.64 23.4394 234.325 22.7299 235.202 22.2198C236.095 21.6937 237.107 21.4307 238.239 21.4307C239.387 21.4307 240.399 21.6778 241.276 22.172C242.153 22.6662 242.83 23.3596 243.308 24.2524C243.803 25.1292 244.05 26.1575 244.05 27.3372C244.05 27.5125 244.034 27.7118 244.002 27.935C243.986 28.1423 243.962 28.3654 243.93 28.6046H235.704C235.768 29.1147 235.927 29.5531 236.182 29.9198C236.453 30.2705 236.78 30.5495 237.163 30.7568C237.561 30.9481 238.008 31.0437 238.502 31.0437C239.092 31.0437 239.618 30.9241 240.08 30.685C240.558 30.4299 240.901 30.1031 241.108 29.7046L243.835 30.5176C243.356 31.5379 242.639 32.327 241.682 32.885C240.742 33.443 239.658 33.722 238.43 33.722ZM240.702 26.3807C240.686 25.9343 240.566 25.5357 240.343 25.185C240.12 24.8183 239.825 24.5394 239.458 24.3481C239.092 24.1408 238.685 24.0372 238.239 24.0372C237.84 24.0372 237.466 24.1408 237.115 24.3481C236.764 24.5553 236.461 24.8343 236.206 25.185C235.967 25.5198 235.808 25.9183 235.728 26.3807H240.702Z" fill="white"></path><path d="M254.848 20.0198C254.29 20.0198 253.82 19.8444 253.437 19.4937C253.071 19.127 252.887 18.6886 252.887 18.1785C252.887 17.6524 253.071 17.214 253.437 16.8633C253.82 16.5125 254.29 16.3372 254.848 16.3372C255.406 16.3372 255.868 16.5125 256.235 16.8633C256.618 17.214 256.809 17.6524 256.809 18.1785C256.809 18.6886 256.618 19.127 256.235 19.4937C255.868 19.8444 255.406 20.0198 254.848 20.0198ZM256.379 21.5741V33.5546H253.294V24.2763H245.307V21.5741H256.379ZM246.718 20.522C246.718 19.4857 246.901 18.6408 247.268 17.9872C247.65 17.3336 248.208 16.8633 248.942 16.5763C249.691 16.2894 250.624 16.2096 251.739 16.3372V19.0394C251.038 18.9437 250.536 19.0394 250.233 19.3263C249.946 19.6133 249.802 20.0596 249.802 20.6654V33.5546H246.718V20.522Z" fill="white"></path><path d="M260.403 21.5981V18.2502H263.512V21.5981H266.143V24.3002H263.512V29.1546C263.512 29.7763 263.64 30.2147 263.895 30.4698C264.166 30.7249 264.501 30.8604 264.899 30.8763C265.314 30.8923 265.728 30.8683 266.143 30.8046V33.435C265.409 33.5944 264.692 33.6423 263.99 33.5785C263.305 33.5147 262.691 33.3314 262.149 33.0285C261.607 32.7096 261.177 32.2314 260.858 31.5937C260.555 30.956 260.403 30.143 260.403 29.1546V24.3002H258.706V21.5981H260.403Z" fill="white"></path><path d="M270.236 29.6568C270.332 30.0553 270.491 30.3582 270.714 30.5654C270.954 30.7727 271.217 30.9241 271.504 31.0198C271.806 31.0995 272.109 31.1394 272.412 31.1394C272.97 31.1394 273.409 31.0357 273.727 30.8285C274.046 30.6053 274.206 30.3263 274.206 29.9915C274.206 29.7046 274.094 29.4814 273.871 29.322C273.648 29.1466 273.361 29.0191 273.01 28.9394C272.659 28.8437 272.301 28.7481 271.934 28.6524C271.504 28.5408 271.041 28.4212 270.547 28.2937C270.069 28.1502 269.614 27.951 269.184 27.6959C268.754 27.4408 268.395 27.114 268.108 26.7154C267.821 26.301 267.677 25.7828 267.677 25.1611C267.677 24.4278 267.877 23.7821 268.275 23.2241C268.69 22.6662 269.256 22.2278 269.973 21.9089C270.706 21.5901 271.551 21.4307 272.508 21.4307C273.64 21.4307 274.596 21.6698 275.377 22.1481C276.159 22.6263 276.725 23.3118 277.075 24.2046L274.373 24.9698C274.293 24.7466 274.158 24.5633 273.967 24.4198C273.775 24.2763 273.544 24.1727 273.273 24.1089C273.018 24.0452 272.755 24.0133 272.484 24.0133C272.022 24.0133 271.639 24.1089 271.336 24.3002C271.033 24.4756 270.882 24.7227 270.882 25.0415C270.882 25.2328 270.938 25.3923 271.049 25.5198C271.161 25.6314 271.312 25.727 271.504 25.8067C271.711 25.8865 271.942 25.9582 272.197 26.022C272.468 26.0857 272.763 26.1575 273.082 26.2372C273.576 26.3647 274.07 26.5162 274.564 26.6915C275.075 26.851 275.537 27.0582 275.951 27.3133C276.382 27.5683 276.725 27.9111 276.98 28.3415C277.235 28.772 277.378 29.314 277.41 29.9676C277.41 30.6691 277.211 31.3068 276.812 31.8807C276.414 32.4386 275.84 32.885 275.091 33.2198C274.341 33.5546 273.433 33.722 272.364 33.722C271.121 33.722 270.061 33.4589 269.184 32.9328C268.323 32.4068 267.757 31.5857 267.486 30.4698L270.236 29.6568Z" fill="white"></path><path d="M277.78 14.085H283.28V15.075H281.13V21.085H279.94V15.075H277.78V14.085ZM285.36 21.085H284.17V14.085H285.5L287.86 19.525L290.22 14.085H291.54V21.085H290.36V16.355L288.31 21.085H287.41L285.36 16.355V21.085Z" fill="white"></path></svg>
