<svg width="20" height="20" viewBox="0 0 20 20" fill="none" xmlns="http://www.w3.org/2000/svg">
    <path
        d="M14.168 17.5H5.83464C2.5013 17.5 1.66797 16.6667 1.66797 13.3333V6.66667C1.66797 3.33333 2.5013 2.5 5.83464 2.5H14.168C17.5013 2.5 18.3346 3.33333 18.3346 6.66667V13.3333C18.3346 16.6667 17.5013 17.5 14.168 17.5Z"
        stroke="currentColor" stroke-width="1.5" stroke-linecap="round" stroke-linejoin="round" />
    <path d="M11.668 6.66797H15.8346" stroke="currentColor" stroke-width="1.5"
        stroke-linecap="round"
        stroke-linejoin="round" />
    <path d="M12.5 10H15.8333" stroke="currentColor" stroke-width="1.5" stroke-linecap="round"
        stroke-linejoin="round" />
    <path d="M14.168 13.332H15.8346" stroke="currentColor" stroke-width="1.5" stroke-linecap="round"
        stroke-linejoin="round" />
    <path
        d="M7.08255 9.40729C7.91558 9.40729 8.59089 8.73199 8.59089 7.89896C8.59089 7.06593 7.91558 6.39062 7.08255 6.39062C6.24952 6.39062 5.57422 7.06593 5.57422 7.89896C5.57422 8.73199 6.24952 9.40729 7.08255 9.40729Z"
        stroke="currentColor" stroke-width="1.5" stroke-linecap="round" stroke-linejoin="round" />
    <path
        d="M10.0013 13.6065C9.88464 12.3982 8.9263 11.4482 7.71797 11.3398C7.3013 11.2982 6.8763 11.2982 6.4513 11.3398C5.24297 11.4565 4.28464 12.3982 4.16797 13.6065"
        stroke="currentColor" stroke-width="1.5" stroke-linecap="round" stroke-linejoin="round" />
</svg>